<?xml version="1.0" encoding="utf-8"?>
<!-- Generator: Adobe Illustrator 26.5.0, SVG Export Plug-In . SVG Version: 6.00 Build 0)  -->
<svg version="1.1" id="Layer_1" xmlns="http://www.w3.org/2000/svg" xmlns:xlink="http://www.w3.org/1999/xlink" x="0px" y="0px"
	 viewBox="0 0 600 600" style="enable-background:new 0 0 600 600;" xml:space="preserve">
<style type="text/css">
	.st0{fill:#133B56;}
	.st1{fill:#FEFEFE;}
	.st2{fill:#F15951;}
	.st3{fill:#00A6E1;}
	.st4{fill:#602F92;}
	.st5{fill:url(#SVGID_1_);}
	.st6{fill:url(#SVGID_00000132780924706877250560000011289024374613207173_);}
	.st7{opacity:0.6;fill:#A98798;enable-background:new    ;}
	.st8{opacity:0.6;fill:url(#SVGID_00000053536288835968520690000017508924866337635501_);enable-background:new    ;}
	.st9{opacity:0.6;fill:url(#SVGID_00000088107166693676371410000012422970239145073082_);enable-background:new    ;}
	.st10{fill:url(#SVGID_00000165955643714754570890000012528034786994923906_);}
	.st11{opacity:0.6;}
	.st12{opacity:0.6;fill:url(#SVGID_00000051369759456945367030000009129963575377061801_);enable-background:new    ;}
	.st13{opacity:0.7;}
	.st14{opacity:0.7;fill:url(#SVGID_00000031909181820226330200000004500229738743285407_);enable-background:new    ;}
	.st15{fill:url(#SVGID_00000013873517276937959860000012927549822582171028_);}
	.st16{fill:#FFFFFF;}
	.st17{opacity:0.6;fill:url(#SVGID_00000109743278005054326150000015154187227795539092_);enable-background:new    ;}
	.st18{opacity:0.2;fill:#FFFFFF;enable-background:new    ;}
	.st19{opacity:0.4;}
	.st20{opacity:0.6;fill:url(#SVGID_00000046308277786108816360000017168163057384692112_);enable-background:new    ;}
	.st21{opacity:0.3;fill:#FFFFFF;enable-background:new    ;}
	.st22{opacity:0.6;fill:url(#SVGID_00000121276955553157663140000004326739443509813419_);enable-background:new    ;}
	.st23{opacity:0.6;fill:url(#SVGID_00000041282391144718633130000013129600536698134406_);enable-background:new    ;}
	.st24{opacity:0.6;fill:url(#SVGID_00000017478472233917666070000008857776624124086957_);enable-background:new    ;}
	.st25{opacity:0.6;fill:url(#SVGID_00000008144011677274622150000005445196353567768455_);enable-background:new    ;}
	.st26{opacity:0.6;fill:url(#SVGID_00000078022756883780278520000001354608264698830733_);enable-background:new    ;}
</style>
<g id="l8g3Yz.tif">
	<g>
		<g>
			<path class="st0" d="M48.5,188.6c1.8-0.7,1.4-2.6,1.6-3.8c4.7-22.3,17.1-38.9,36.9-50c2.7-1.5,3.6-3.4,4.1-6.2
				c7.2-41.6,49.8-63.4,87.6-44.7c3.6,1.8,5,0.7,7.1-1.9c40.9-49.2,118-36.4,140.5,23.4c2.5,6.7,4.3,13.6,4.5,20.8
				c0.1,2.8,0.9,4.5,3.7,5.6c33,13.7,51.3,51,43.2,85.6c-0.1,0.6,0,1.3,0,2c2.2,0.2,2.2-1.8,2.7-2.9c4.7-9.5,9.4-19,14-28.6
				c1.2-2.6,2.2-3.7,5.5-2.6c17.6,5.8,35.3,11.4,53.1,16.7c3.3,1,3.7,2.5,3.2,5.3c-1.8,10.8-3.4,21.6-5.4,32.4
				c-0.5,2.7,0.3,3.8,2.3,5.2c10.4,6.6,20.1,14.2,28.3,23.5c1.7,2,3.3,2.1,5.6,1.2c10.2-3.6,20.5-6.7,30.6-10.4
				c3.4-1.2,4.8-0.3,6.4,2.7c8.3,16.4,16.8,32.7,25.4,49c1.4,2.7,1.4,4-1.2,5.9c-8.6,6.2-17,12.8-25.6,19c-2.4,1.7-3.2,3.4-2.4,6.2
				c3,11.5,3.8,23.3,3.1,35.1c-0.2,3.3,1.1,4.6,3.9,5.8c9.5,4,18.8,8.3,28.2,12.4c2.6,1.1,3.8,1.9,2.7,5.4
				c-5.9,17.9-11.5,36-16.9,54.1c-0.9,2.9-2.1,3.5-4.9,3c-11-1.9-22-3.4-32.9-5.3c-2.4-0.4-3.6,0.1-4.9,2.1
				c-6.7,10.6-14.4,20.4-23.8,28.6c-2.1,1.8-1.7,3.6-1,5.7c3.5,10.2,6.8,20.4,10.3,30.6c1,2.8,0.8,4.2-2.1,5.7
				c-16.7,8.5-33.3,17.2-49.8,26c-2.6,1.4-3.9,1.2-5.6-1.2c-6.2-8.6-12.8-17-19-25.6c-1.8-2.6-3.7-3.3-6.7-2.6
				c-11.6,2.6-23.3,3.7-35.1,3.3c-2.7-0.1-4.1,0.8-5.3,3.3c-4.6,9.8-9.5,19.4-14.1,29.1c-1.2,2.5-2.2,3.3-5.2,2.3
				c-17.6-5.8-35.3-11.4-53.1-16.8c-3.1-0.9-3.9-2.2-3.3-5.2c1.8-10.6,3.3-21.3,5.2-31.9c0.5-2.9-0.1-4.5-2.6-6.1
				c-10.4-6.4-19.7-14.1-27.9-23.2c-1.7-1.9-3.2-2.2-5.6-1.3c-10.3,3.6-20.8,6.8-31.1,10.5c-3.1,1.1-4.3,0.3-5.7-2.4
				c-8.5-16.5-17-33-25.7-49.4c-1.5-2.7-1.3-4.1,1.3-6c8.6-6.2,17-12.8,25.6-19c2.4-1.7,3.1-3.5,2.3-6.3
				c-2.9-11.3-3.9-22.9-3.3-34.6c0.1-3.3-0.7-5-3.8-6.4c-9.7-4.4-19.1-9.3-28.7-13.8c-2.2-1.1-3.1-2-2.2-4.9
				c5.6-18.2,11-36.5,16.3-54.8c0.8-2.7,2-3.3,4.6-2.8c10.8,1.9,21.6,3.5,32.4,5.4c2.6,0.5,4.3,0.1,5.8-2.3c2.8-4.4,6-8.6,9.1-13.1
				c-2-1-3.9-0.6-5.6-0.6c-39.9,0-79.8,0-119.7,0c-23.3,0-43.2-8.1-58.8-25.7C57.7,239,52,226.8,49.5,213.1
				c-0.2-0.9,0.2-2.1-1.1-2.5C48.5,203.2,48.5,195.9,48.5,188.6z M351.2,259.4c-12.5,9-26.2,14.9-41.8,16.1c-11,0-21.9,0.1-32.9,0
				c-2.4,0-4,0.9-5.6,2.5c-8.4,8.3-14.6,18.1-20.7,28c-1.3,2.1-2.2,3-4.9,2.6c-10-1.7-20-2.9-30-4.6c-2.6-0.4-3.5,0.1-4.2,2.5
				c-2.9,9.7-5.9,19.3-9.2,28.9c-1,2.8,0,3.7,2.2,4.8c9.3,4.4,18.5,9,27.7,13.4c1.8,0.9,3.4,1.5,3.1,4.3
				c-2.4,18.2-0.7,36.1,4.2,53.7c0.7,2.4,0.2,3.8-1.9,5.3c-8.3,5.9-16.3,12.1-24.5,17.9c-2.5,1.7-2.6,3.1-1.3,5.6
				c4.5,8.5,8.9,17,13.2,25.6c1.3,2.7,2.6,3.5,5.7,2.4c9.2-3.4,18.5-6.2,27.7-9.6c2.6-0.9,4-0.6,5.8,1.6
				c11.3,13.5,24.5,24.8,40.1,33.1c2.1,1.1,2.8,2.1,2.4,4.5c-1.6,9.8-2.7,19.7-4.5,29.5c-0.7,3.7,0.7,4.4,3.6,5.3
				c8.9,2.7,17.7,5.5,26.5,8.5c3.2,1.1,4.8,0.9,6.3-2.7c3.9-9.1,8.4-18,12.5-27.1c1.1-2.5,2.5-3.1,4.9-2.8
				c17.9,2.4,35.5,0.3,52.8-4.2c2.9-0.8,4.1,0,5.6,2.1c5.8,8.1,11.8,16,17.6,24.1c1.6,2.2,2.7,3.1,5.5,1.5
				c8.6-4.7,17.3-9.2,26.1-13.4c3.1-1.5,3-3.1,2.1-5.7c-3.2-8.9-6-17.9-9.3-26.7c-1.1-3-1-4.8,1.8-7c4.5-3.4,8.4-7.5,12.4-11.5
				c8.3-8.3,14.5-18.2,20.5-28.1c1.4-2.3,2.8-2.9,5.6-2.4c9.8,1.7,19.7,2.9,29.5,4.5c2.7,0.4,3.8-0.4,4.5-2.9
				c2.7-9.6,5.3-19.1,8.4-28.6c0.9-2.7-0.1-3.5-2.1-4.5c-9.1-4.5-18-9.1-27.2-13.5c-2.5-1.2-3.3-2.6-2.9-5.3
				c2.4-17.7,0.4-35.1-4.2-52.3c-0.8-3-0.1-4.4,2.2-6.1c8.1-5.8,16-11.9,24.1-17.6c2.4-1.7,2.7-3,1.3-5.6
				c-4.7-8.6-9.2-17.3-13.4-26.1c-1.3-2.8-2.7-3-5.3-2.1c-9.3,3.4-18.8,6.4-28.1,9.8c-2.4,0.9-3.7,0.5-5.4-1.5
				c-11.4-13.6-24.7-25.1-40.5-33.4c-2.1-1.1-2.7-2.2-2.3-4.6c1.5-9.7,2.5-19.4,4-29.1c0.4-2.8-0.2-3.7-2.8-4.5
				c-9.5-2.8-19-5.8-28.4-9c-2.8-1-3.8-0.3-4.9,2.1c-3.8,7.9-8,15.6-11.6,23.6c-2.1,4.6-4.2,7.9-10.1,5.8c-2.4-0.9-5.3-0.4-7.9-0.6
				c-1.8-0.1-3.2,0.3-4.1,2C364.5,246.4,357.9,252.9,351.2,259.4z M214.9,259.6c0,0.1,0,0.2,0,0.2c29.3,0,58.5,0,87.8,0
				c5.3,0,10.6-0.2,15.9-1.3c25-5.3,44.1-27.3,46-52.9c1.8-25.3-14-50.9-36.8-59.5c-3.8-1.5-9.2-1.4-11.1-4.6
				c-1.8-3.2-0.7-8.1-0.8-12.2C314.1,84,263.9,54,223,73.5c-13.4,6.4-23.1,16.3-30.9,28.7c-4.2,6.7-4.4,6.4-10.5,1.4
				c-14.1-11.5-30-14.9-46.9-7.8c-16.9,7.1-26.3,20.6-26.9,39c-0.2,6.7-2.9,9.5-8.3,12.1c-22,10.4-33.3,28.1-34.1,52.4
				c-1,31.6,23.8,59.2,55.3,60.1C152.1,260.3,183.5,259.6,214.9,259.6z"/>
			<path class="st0" d="M105.9,342.3c7.7,0,7.7,0,7.7,7.8c0,8.2,0,8.2-8.3,8.2c-7.8,0-7.8,0-7.8-7.8
				C97.6,342.3,97.6,342.3,105.9,342.3z"/>
			<path class="st0" d="M105.3,405.2c-7.8,0-7.8,0-7.8-7.8c0-8.2,0-8.2,8.4-8.2c7.7,0,7.7,0,7.7,7.8
				C113.6,405.2,113.6,405.2,105.3,405.2z"/>
			<path class="st0" d="M105.4,453c-7.8,0-7.8,0-7.8-7.8c0-8.2,0-8.2,8.3-8.2c7.7,0,7.7,0,7.7,7.7C113.6,453,113.6,453,105.4,453z"
				/>
			<path class="st1" d="M214.9,259.6c-31.4,0-62.9,0.7-94.2-0.2c-31.6-0.9-56.3-28.4-55.3-60.1c0.8-24.3,12-42,34.1-52.4
				c5.4-2.5,8.1-5.3,8.3-12.1c0.6-18.4,10-31.9,26.9-39c16.9-7.1,32.8-3.8,46.9,7.8c6.1,5,6.3,5.3,10.5-1.4
				c7.8-12.4,17.6-22.3,30.9-28.7c40.9-19.6,91.1,10.5,92.9,55.7c0.2,4.1-1,9,0.8,12.2c1.8,3.2,7.3,3.1,11.1,4.6
				c22.8,8.7,38.6,34.2,36.8,59.5c-1.9,25.6-21,47.6-46,52.9c-5.2,1.1-10.5,1.3-15.9,1.3c-29.3,0-58.5,0-87.8,0
				C214.9,259.7,214.9,259.7,214.9,259.6z M181.4,152.3c-0.3-0.4-0.5-0.9-0.8-1.3c-12.2,0-24.4,0-36.6,0c-2.9,0-2.6,1.8-2.6,3.7
				c0,8.5,0,16.9,0,25.4c0,3.5,0,7,0,11.5c3.7-3.5,6.7-6,9.2-8.8c2.6-3,4.3-2.6,6.9,0.1c13.6,14.1,27.5,27.9,41.1,42
				c2.7,2.8,4.1,2.7,6.5-0.1c3.2-3.6,6.5-7.1,10.2-10.2c3-2.6,2.4-4-0.1-6.5c-13.9-13.6-27.5-27.5-41.3-41.1c-3-3-4.1-5-0.1-7.9
				C176.5,157.1,178.9,154.6,181.4,152.3z M282.9,164.8c-0.4-0.2-0.9-0.5-1.3-0.7c-2.3,2.6-4.8,5-7,7.8c-2.6,3.3-4.4,3.1-7.4,0
				c-13.4-13.9-27.1-27.4-40.5-41.3c-2.6-2.6-4.2-3.4-6.9-0.2c-3,3.6-6.3,6.8-9.9,9.9c-2.9,2.5-2.9,4.2-0.1,7
				c12.6,12.3,25,24.8,37.4,37.3c2.5,2.5,6.7,5,6.8,7.5c0,3.1-4.6,5.2-7.1,7.8c-1.2,1.2-2.7,2.2-4.1,3.2c0.3,0.4,0.6,0.8,0.9,1.2
				c12.2,0,24.5,0,36.7,0c2,0,2.5-1.1,2.5-2.8C282.9,189.3,282.9,177,282.9,164.8z"/>
			<path class="st2" d="M181.4,152.3c-2.5,2.3-4.9,4.8-7.6,6.8c-3.9,2.9-2.9,4.9,0.1,7.9c13.9,13.6,27.5,27.5,41.3,41.1
				c2.5,2.5,3.2,4,0.1,6.5c-3.7,3.1-7.1,6.6-10.2,10.2c-2.4,2.8-3.9,2.9-6.5,0.1c-13.6-14.1-27.5-27.9-41.1-42
				c-2.7-2.8-4.3-3.1-6.9-0.1c-2.5,2.9-5.5,5.3-9.2,8.8c0-4.5,0-8,0-11.5c0-8.5,0-16.9,0-25.4c0-1.9-0.3-3.7,2.6-3.7
				c12.2,0.1,24.4,0,36.6,0C180.9,151.4,181.1,151.8,181.4,152.3z"/>
			<path class="st3" d="M282.9,164.8c0,12.3,0,24.5,0,36.8c0,1.8-0.4,2.8-2.5,2.8c-12.2,0-24.5,0-36.7,0c-0.3-0.4-0.6-0.8-0.9-1.2
				c1.4-1.1,2.9-2,4.1-3.2c2.6-2.6,7.2-4.7,7.1-7.8c0-2.5-4.3-5.1-6.8-7.5c-12.4-12.5-24.8-25-37.4-37.3c-2.9-2.8-2.9-4.4,0.1-7
				c3.5-3,6.9-6.3,9.9-9.9c2.7-3.2,4.4-2.4,6.9,0.2c13.4,13.8,27.1,27.4,40.5,41.3c2.9,3,4.8,3.2,7.4,0c2.1-2.7,4.6-5.2,7-7.8
				C282,164.3,282.5,164.5,282.9,164.8z"/>
			<g id="Layer_1-2">
				<path class="st4" d="M470.3,297.5c-2.3-8.7-9.6-17.4-22.4-27c-10.5-7.3-21.5-11.9-30.2-11.9c-1.8,0-3.2,0-5,0.5
					c-4.1,0.9-7.3,3.7-9.6,8.2c-2.7,5-3.2,12.3-1.4,16.5c0.5,1.4,1.4,2.7,2.3,4.6c-8.2,5-13.2,6.9-13.7,6.9
					c21.9,7.3,40.2,22.9,51.6,43.4v-1.8c0.5-5.5,2.3-11.4,4.1-17.8c2.3,0.5,4.6,0.9,6.9,0.9c5.9,0,11-2.3,14.2-6.9
					C470.3,308,471.7,302.5,470.3,297.5L470.3,297.5z"/>
				
					<radialGradient id="SVGID_1_" cx="-619.0777" cy="213.4975" r="4.57" gradientTransform="matrix(15.6 0 0 -15.87 10119.9004 3677.53)" gradientUnits="userSpaceOnUse">
					<stop  offset="0" style="stop-color:#FBEAF3;stop-opacity:0.6"/>
					<stop  offset="0.68" style="stop-color:#A087BF"/>
					<stop  offset="1" style="stop-color:#17102E"/>
				</radialGradient>
				<path class="st5" d="M447,313.5c14.6,4.1,20.6-7.3,18.3-15.1c-2.3-7.8-8.7-15.5-20.6-24.2c-11.9-8.7-23.8-12.3-31.5-10.5
					c-7.8,1.8-10.1,13.2-7.8,17.8c0.9,1.8,2.7,4.6,5,7.3c-3.2,2.3-5.9,3.7-8.2,5c14.6,6.9,27.4,16.9,37,30.2
					c0.9-4.6,2.7-8.2,4.1-11.9C444.7,313,446.1,313,447,313.5L447,313.5z"/>
				
					<radialGradient id="SVGID_00000123419752515294915480000011248274502757471639_" cx="-661.9913" cy="249.594" r="4.57" gradientTransform="matrix(38.17 0 0 -38.82 25688.5898 10007.8193)" gradientUnits="userSpaceOnUse">
					<stop  offset="0" style="stop-color:#FBEAF3;stop-opacity:0.6"/>
					<stop  offset="0.68" style="stop-color:#A087BF"/>
					<stop  offset="1" style="stop-color:#17102E"/>
				</radialGradient>
				<path style="fill:url(#SVGID_00000123419752515294915480000011248274502757471639_);" d="M364.3,472.5
					c49.4,0,89.1-40.7,89.1-90.5s-40.2-91-89.1-91s-89.1,40.7-89.1,91S314.9,472.5,364.3,472.5z"/>
				<path class="st7" d="M458.4,291.1c-12.3-12.8-22.4-16.5-34.7-19.2c-9.6-2.3-6.9-7.8,4.6-6.9c-5.5-1.8-11-2.3-14.6-1.8
					c-7.8,1.8-10.1,13.2-7.8,17.8c0.9,1.8,2.7,4.6,5,7.3c-4.1,2.7-7.8,5-11,6.9c1.4,0.5,3.2,1.4,5.5,2.7c5.5,2.7,11.4,7.8,11.4,7.8
					c-9.1-7.8-6.9-11.4,5.5-20.1c3.7-2.7,11-2.3,17.4,0.9c6.4,3.2,14.2,11.9,14.2,11.9l-8.2,15.1c0.5,0,0.9,0.5,1.4,0.5
					c4.6,1.4,8.2,0.9,11,0C461.6,311.6,470.3,304.3,458.4,291.1L458.4,291.1z"/>
				<path class="st4" d="M423.7,280.1c3.2,1.4,7.3,3.7,12.3,6.9c5.9,4.1,11.4,8.7,14.6,12.3c-5.5,7.3-9.1,17.8-11.4,24.7
					c0.9,1.8,2.3,3.2,3.7,5c0.9-4.1,3.2-10.1,5.5-16h2.3c1.8,0,4.1-0.5,5.9-1.8c1.4-0.9,2.7-2.7,2.7-5.9c0-3.2-2.3-6.9-7.3-11.9
					c-3.7-3.2-8.7-7.3-13.2-10.5c-13.7-9.1-23.3-11.9-27.4-7.3c-2.7,2.7-2.7,6.4-1.4,9.1c-5,3.2-9.6,5.9-12.3,7.3
					c1.8,0.5,3.7,1.4,5.5,2.3C407.7,291.5,415,286.5,423.7,280.1L423.7,280.1z M453.9,302.9c0.5,0.9,0.5,1.8,0.5,2.3
					c0,1.4-0.5,1.8-0.9,2.3c-0.5,0.5-1.8,0.9-3.2,0.9C451.6,306.1,452.5,304.8,453.9,302.9L453.9,302.9z M414.6,278.7
					c0.5-0.5,1.8-0.9,3.7-0.5c-1.4,1.4-3.2,2.3-4.6,3.7C413.2,281,413.2,279.6,414.6,278.7z"/>
				<path class="st4" d="M364.3,286c-52.6,0-94.6,43-94.6,96s42.1,96,94.6,96s94.6-43,94.6-96S415.9,286,364.3,286L364.3,286z
					 M364.3,472.5c-49.4,0-89.1-40.2-89.1-90.5s39.8-90.9,89.1-90.9s89.1,40.7,89.1,91S413.2,472.5,364.3,472.5L364.3,472.5z"/>
				
					<linearGradient id="SVGID_00000139283801671669416450000017783069319920879003_" gradientUnits="userSpaceOnUse" x1="349.552" y1="-899.3051" x2="379.0632" y2="-720.3278" gradientTransform="matrix(1 0 0 -1 0 -428)">
					<stop  offset="0" style="stop-color:#9AD9E5"/>
					<stop  offset="0.62" style="stop-color:#FFFFFF;stop-opacity:0"/>
				</linearGradient>
				
					<path style="opacity:0.6;fill:url(#SVGID_00000139283801671669416450000017783069319920879003_);enable-background:new    ;" d="
					M364.3,472.5c49.4,0,89.1-40.7,89.1-90.5s-40.2-91-89.1-91s-89.1,40.7-89.1,91S314.9,472.5,364.3,472.5z"/>
				<path class="st7" d="M363.4,461.5c-48.5-7.8-81.4-54.4-73.6-103.8c3.7-21.9,14.2-40.7,29.7-53.9c-22.4,13.2-38.9,36.1-43.4,64
					c-7.8,49.4,25.1,96,73.6,104.2c27,4.6,53.5-4.1,72.7-21C405.4,460.6,384.4,465.2,363.4,461.5L363.4,461.5z"/>
				
					<linearGradient id="SVGID_00000000932702345111134510000013079802355724615079_" gradientUnits="userSpaceOnUse" x1="427.6666" y1="-749.1182" x2="352.7766" y2="-816.6683" gradientTransform="matrix(1 0 0 -1 0 -428)">
					<stop  offset="0.29" style="stop-color:#FFFFFF"/>
					<stop  offset="0.78" style="stop-color:#FFFFFF;stop-opacity:0"/>
				</linearGradient>
				
					<path style="opacity:0.6;fill:url(#SVGID_00000000932702345111134510000013079802355724615079_);enable-background:new    ;" d="
					M378.4,292.4c-22.4-3.7-44.3,1.4-62.2,12.8l-0.5,0.5c6.9-4.1,16.9-7.8,16.9-7.8c-26,15.1-33.8,32.5-33.8,32.5
					c9.6-19.2,39.3-33.4,62.2-34.3c23.3-0.9,38.4,5.9,56.7,21c18.3,15.1,29.7,46.6,28.3,71.3c-0.9,24.7-13.7,44.8-13.7,44.8
					c8.7-11.4,14.2-20.1,17.4-28.3c0.5-2.7,1.4-5,1.4-7.8C459.8,346.8,426.9,300.7,378.4,292.4L378.4,292.4z"/>
				
					<linearGradient id="SVGID_00000155126476743486772420000011731371630637741957_" gradientUnits="userSpaceOnUse" x1="279.2682" y1="-852.295" x2="448.8382" y2="-852.295" gradientTransform="matrix(1 0 0 -1 0 -428)">
					<stop  offset="0" style="stop-color:#384EA2"/>
					<stop  offset="1" style="stop-color:#D54799"/>
				</linearGradient>
				<path style="fill:url(#SVGID_00000155126476743486772420000011731371630637741957_);" d="M448.8,381.1
					c0,47.5-37.9,86.4-84.6,86.4s-85-38.9-85-86.4H448.8L448.8,381.1z"/>
				<g class="st11">
					
						<linearGradient id="SVGID_00000023968453048983045540000015898878203379178941_" gradientUnits="userSpaceOnUse" x1="457.1741" y1="-817.0956" x2="363.4541" y2="-904.1656" gradientTransform="matrix(1 0 0 -1 0 -428)">
						<stop  offset="0.29" style="stop-color:#FFFFFF"/>
						<stop  offset="0.78" style="stop-color:#FFFFFF;stop-opacity:0"/>
					</linearGradient>
					
						<path style="opacity:0.6;fill:url(#SVGID_00000023968453048983045540000015898878203379178941_);enable-background:new    ;" d="
						M442,381.1c0,46.6-36.1,84.6-81.4,86.4h3.2c46.6,0,84.6-38.4,84.6-86.4C448.4,381.1,442,381.1,442,381.1z"/>
				</g>
				<g class="st13">
					
						<linearGradient id="SVGID_00000167364782380741597910000007907041091267097493_" gradientUnits="userSpaceOnUse" x1="279.2682" y1="-852.295" x2="369.8782" y2="-852.295" gradientTransform="matrix(1 0 0 -1 0 -428)">
						<stop  offset="0" style="stop-color:#2B2F82"/>
						<stop  offset="1" style="stop-color:#72439A"/>
					</linearGradient>
					
						<path style="opacity:0.7;fill:url(#SVGID_00000167364782380741597910000007907041091267097493_);enable-background:new    ;" d="
						M291.1,381.1h-11.9c0,47.5,37.9,86.4,84.6,86.4h5.9C325.9,463.8,291.1,426.4,291.1,381.1z"/>
				</g>
				
					<linearGradient id="SVGID_00000093892348560604066080000011068544394330310800_" gradientUnits="userSpaceOnUse" x1="279.2682" y1="-817.1705" x2="448.4982" y2="-817.1705" gradientTransform="matrix(1 0 0 -1 0 -428)">
					<stop  offset="0" style="stop-color:#2B2F82"/>
					<stop  offset="1" style="stop-color:#A14298"/>
				</linearGradient>
				<path style="fill:url(#SVGID_00000093892348560604066080000011068544394330310800_);" d="M448.8,382c0-10.1-16.9-15.5-39.3-17.4
					c-16.5-1.4-32.9,0.5-51.6,5.9c-16.5,5-31.1,4.1-41.6,2.7c-23.8-2.7-37-3.2-37,8.7c0,16.9,33.8,37.9,84.6,30.6
					c25.6-3.7,38.9-11.4,53.9-16.5C434.2,390.7,448.8,390.7,448.8,382L448.8,382z"/>
				<path class="st16" d="M391.7,340.9c7.8,0,14.2-6.4,14.2-14.6c0-8.2-6.4-14.6-14.2-14.6c-7.8,0-14.2,6.4-14.2,14.6
					C377.5,334.5,383.9,340.9,391.7,340.9z M415.5,351.8c3.2,0,5.9-2.7,5.9-5.9c0-3.2-2.7-5.9-5.9-5.9c-3.2,0-5.9,2.7-5.9,5.9
					C409.5,349.1,411.8,351.8,415.5,351.8z"/>
				<g class="st11">
					
						<linearGradient id="SVGID_00000060723370549748118760000013993885210214570887_" gradientUnits="userSpaceOnUse" x1="446.0909" y1="-724.8954" x2="433.6208" y2="-744.8054" gradientTransform="matrix(1 0 0 -1 0 -428)">
						<stop  offset="0.29" style="stop-color:#FFFFFF"/>
						<stop  offset="0.78" style="stop-color:#FFFFFF;stop-opacity:0"/>
					</linearGradient>
					
						<path style="opacity:0.6;fill:url(#SVGID_00000060723370549748118760000013993885210214570887_);enable-background:new    ;" d="
						M437,314.8C437,314.8,436.5,314.8,437,314.8c-1.4,0-1.8-0.9-1.8-2.3c1.4-7.3,7.3-14.6,7.8-15.1c0.5-0.9,1.8-0.9,2.7,0
						c0.9,0.5,0.9,1.8,0,2.7c0,0-5.9,6.9-6.9,13.2C438.8,314.4,437.9,314.8,437,314.8L437,314.8z"/>
				</g>
				<path class="st18" d="M358.3,449.7c2.3,0,4.6-1.8,4.6-4.6c0-2.7-1.8-4.6-4.6-4.6s-4.6,1.8-4.6,4.6
					C353.8,447.8,355.6,449.7,358.3,449.7z"/>
				<g class="st19">
					
						<linearGradient id="SVGID_00000181045307002322579600000005246878159149233830_" gradientUnits="userSpaceOnUse" x1="353.6982" y1="-872.8795" x2="360.4482" y2="-872.8795" gradientTransform="matrix(1 0 0 -1 0 -428)">
						<stop  offset="0.29" style="stop-color:#FFFFFF"/>
						<stop  offset="0.78" style="stop-color:#FFFFFF;stop-opacity:0"/>
					</linearGradient>
					
						<path style="opacity:0.6;fill:url(#SVGID_00000181045307002322579600000005246878159149233830_);enable-background:new    ;" d="
						M355.6,447.8c-1.8-1.8-1.8-4.6,0-6.4l0.9-0.9c-0.5,0-0.9,0.5-1.4,0.9c-1.8,1.8-1.8,4.6,0,6.4c1.4,1.4,3.7,1.8,5.5,0.9
						C358.8,449.7,357,449.2,355.6,447.8L355.6,447.8z"/>
				</g>
				<path class="st21" d="M359.7,443.7c0.5,0,0.9-0.5,0.9-0.9c0-0.5-0.5-0.9-0.9-0.9s-0.9,0.5-0.9,0.9
					C358.8,443.3,359.3,443.7,359.7,443.7z"/>
				<path class="st18" d="M381.6,447.4c2.3,0,4.6-1.8,4.6-4.6c0-2.3-1.8-4.6-4.6-4.6c-2.3,0-4.6,1.8-4.6,4.6
					C377.1,445.1,378.9,447.4,381.6,447.4z"/>
				<g class="st19">
					
						<linearGradient id="SVGID_00000160889125094673891370000013272986171504961946_" gradientUnits="userSpaceOnUse" x1="376.9682" y1="-870.5895" x2="383.7182" y2="-870.5895" gradientTransform="matrix(1 0 0 -1 0 -428)">
						<stop  offset="0.29" style="stop-color:#FFFFFF"/>
						<stop  offset="0.78" style="stop-color:#FFFFFF;stop-opacity:0"/>
					</linearGradient>
					
						<path style="opacity:0.6;fill:url(#SVGID_00000160889125094673891370000013272986171504961946_);enable-background:new    ;" d="
						M378.9,445.5c-1.8-1.8-1.8-4.6,0-6.4l0.9-0.9c-0.5,0-0.9,0.5-1.4,0.9c-1.8,1.8-1.8,4.6,0,6.4c1.4,1.4,3.7,1.8,5.5,0.9
						C382.1,447.4,380.3,446.9,378.9,445.5L378.9,445.5z"/>
				</g>
				<path class="st21" d="M383,441.4c0.5,0,0.9-0.5,0.9-0.9c0-0.5-0.5-0.9-0.9-0.9s-0.9,0.5-0.9,0.9
					C382.1,441,382.6,441.4,383,441.4z"/>
				<path class="st18" d="M370.2,457.9c1.8,0,3.2-1.4,3.2-3.2c0-1.8-1.4-3.2-3.2-3.2c-1.8,0-3.2,1.4-3.2,3.2
					C367,456.5,367.9,457.9,370.2,457.9z"/>
				<g class="st19">
					
						<linearGradient id="SVGID_00000116921312345277938950000013791475212995342505_" gradientUnits="userSpaceOnUse" x1="366.6382" y1="-882.4772" x2="371.7082" y2="-882.4772" gradientTransform="matrix(1 0 0 -1 0 -428)">
						<stop  offset="0.29" style="stop-color:#FFFFFF"/>
						<stop  offset="0.78" style="stop-color:#FFFFFF;stop-opacity:0"/>
					</linearGradient>
					
						<path style="opacity:0.6;fill:url(#SVGID_00000116921312345277938950000013791475212995342505_);enable-background:new    ;" d="
						M367.9,456.5c-1.4-1.4-1.4-3.7,0-5l0.5-0.5c-0.5,0-0.9,0.5-0.9,0.9c-1.4,1.4-1.4,3.7,0,5c0.9,0.9,2.7,1.4,4.1,0.5
						C370.7,457.9,368.9,457.4,367.9,456.5z"/>
				</g>
				<path class="st21" d="M371.1,453.3c0.5,0,0.5-0.5,0.5-0.5c0-0.5-0.5-0.5-0.5-0.5c-0.5,0-0.5,0.5-0.5,0.5
					S370.7,453.3,371.1,453.3z"/>
				<path class="st18" d="M390.8,455.6c1.8,0,3.2-1.4,3.2-3.2c0-1.8-1.4-3.2-3.2-3.2c-1.8,0-3.2,1.4-3.2,3.2
					C387.1,453.8,389,455.6,390.8,455.6z"/>
				<g class="st19">
					
						<linearGradient id="SVGID_00000044895138398570080000000010123521624964163471_" gradientUnits="userSpaceOnUse" x1="387.1482" y1="-880.1972" x2="392.2182" y2="-880.1972" gradientTransform="matrix(1 0 0 -1 0 -428)">
						<stop  offset="0.29" style="stop-color:#FFFFFF"/>
						<stop  offset="0.78" style="stop-color:#FFFFFF;stop-opacity:0"/>
					</linearGradient>
					
						<path style="opacity:0.6;fill:url(#SVGID_00000044895138398570080000000010123521624964163471_);enable-background:new    ;" d="
						M388.5,454.2c-1.4-1.4-1.4-3.7,0-5l0.5-0.5c-0.5,0-0.9,0.5-0.9,0.9c-1.4,1.4-1.4,3.7,0,5c0.9,0.9,2.7,1.4,4.1,0.5
						C391.3,455.6,389.4,455.1,388.5,454.2z"/>
				</g>
				<path class="st21" d="M391.7,451c0.5,0,0.5-0.5,0.5-0.5c0-0.5-0.5-0.5-0.5-0.5c-0.5,0-0.5,0.5-0.5,0.5S391.2,451,391.7,451z"/>
				<path class="st18" d="M339.1,447.8c4.1,0,7.3-3.2,7.3-7.3c0-4.1-3.2-7.3-7.3-7.3c-4.1,0-7.3,3.2-7.3,7.3
					C331.8,444.6,335,447.8,339.1,447.8z"/>
				<g class="st19">
					
						<linearGradient id="SVGID_00000106861888696257706140000007752413460180550794_" gradientUnits="userSpaceOnUse" x1="331.8982" y1="-868.8609" x2="342.9182" y2="-868.8609" gradientTransform="matrix(1 0 0 -1 0 -428)">
						<stop  offset="0.29" style="stop-color:#FFFFFF"/>
						<stop  offset="0.78" style="stop-color:#FFFFFF;stop-opacity:0"/>
					</linearGradient>
					
						<path style="opacity:0.6;fill:url(#SVGID_00000106861888696257706140000007752413460180550794_);enable-background:new    ;" d="
						M335,445.1c-2.7-2.7-2.7-7.8,0-10.5c0.5-0.5,0.9-0.9,1.4-0.9c-0.9,0.5-1.8,0.9-2.7,1.8c-2.7,2.7-2.7,7.8,0,10.5
						c2.3,2.3,5.9,2.7,9.1,0.9C340.5,447.8,337.3,447.4,335,445.1z"/>
				</g>
				<path class="st21" d="M341.9,438.2c0.9,0,1.4-0.9,1.4-1.8c0-0.9-0.9-1.8-1.4-1.8c-0.9,0-1.4,0.9-1.4,1.8
					C340.5,437.3,341,438.2,341.9,438.2z"/>
				<path class="st18" d="M405,429.5c4.1,0,7.3-3.2,7.3-7.3c0-4.1-3.2-7.3-7.3-7.3c-4.1,0-7.3,3.2-7.3,7.3
					C397.6,426.4,400.8,429.5,405,429.5z"/>
				<g class="st19">
					
						<linearGradient id="SVGID_00000155836314063606834100000002272008357017641091_" gradientUnits="userSpaceOnUse" x1="397.3582" y1="-850.5809" x2="408.3782" y2="-850.5809" gradientTransform="matrix(1 0 0 -1 0 -428)">
						<stop  offset="0.29" style="stop-color:#FFFFFF"/>
						<stop  offset="0.78" style="stop-color:#FFFFFF;stop-opacity:0"/>
					</linearGradient>
					
						<path style="opacity:0.6;fill:url(#SVGID_00000155836314063606834100000002272008357017641091_);enable-background:new    ;" d="
						M400.4,426.8c-2.7-2.7-2.7-7.8,0-10.5c0.5-0.5,0.9-0.9,1.4-0.9c-0.9,0.5-1.8,0.9-2.7,1.8c-2.7,2.7-2.7,7.8,0,10.5
						c2.3,2.3,5.9,2.7,9.1,0.9C405.9,429.5,402.7,429.1,400.4,426.8L400.4,426.8z"/>
				</g>
				<path class="st21" d="M407.2,420c0.9,0,1.4-0.9,1.4-1.8c0-0.9-0.9-1.8-1.4-1.8c-0.9,0-1.4,0.9-1.4,1.8
					C405.9,419,406.3,420,407.2,420z"/>
			</g>
		</g>
	</g>
</g>
</svg>
