<?xml version="1.0" encoding="utf-8"?>
<!-- Generator: Adobe Illustrator 26.0.3, SVG Export Plug-In . SVG Version: 6.00 Build 0)  -->
<svg version="1.1" id="图层_1" xmlns="http://www.w3.org/2000/svg" xmlns:xlink="http://www.w3.org/1999/xlink" x="0px" y="0px"
	 viewBox="0 0 464.6 464.6" style="enable-background:new 0 0 464.6 464.6;" xml:space="preserve">
<style type="text/css">
	.st0{fill:#FFFFFF;}
	.st1{fill:#390176;}
	.st2{fill:url(#SVGID_1_);}
	.st3{opacity:0.2;fill:#231F1F;enable-background:new    ;}
	.st4{fill:url(#SVGID_00000117660215498688464850000013090358794717937073_);}
	.st5{fill:url(#SVGID_00000097499908507030079170000011805116936664862596_);}
	.st6{opacity:0.57;fill:url(#SVGID_00000073700471473321257190000002753082427898348178_);}
	.st7{opacity:0.57;fill:url(#SVGID_00000029742682544370505870000000172329496732855937_);}
	.st8{opacity:0.57;fill:url(#SVGID_00000088107719999255931800000004126681144621631365_);}
	.st9{fill:url(#SVGID_00000144299013713695673240000007092440334551483567_);}
	.st10{fill:url(#SVGID_00000175318602792981527250000001767919656755913361_);}
	.st11{fill:url(#SVGID_00000111880444899474084620000005474130652822084788_);}
	.st12{fill:url(#SVGID_00000062185438448343551730000004385428488652632482_);}
	.st13{fill:url(#SVGID_00000024685160206883954020000009284478870380319110_);}
	.st14{opacity:0.2;fill:#FFFFFF;enable-background:new    ;}
	.st15{opacity:0.4;}
	.st16{opacity:0.6;fill:url(#SVGID_00000110451322040805908650000010153119125916156803_);enable-background:new    ;}
	.st17{opacity:0.3;fill:#FFFFFF;enable-background:new    ;}
	.st18{opacity:0.6;fill:url(#SVGID_00000035494963512738999750000010900397904593413251_);enable-background:new    ;}
	.st19{opacity:0.6;fill:url(#SVGID_00000070836788509409449780000016117903736243101836_);enable-background:new    ;}
	.st20{opacity:0.6;fill:url(#SVGID_00000024713428572707927320000006446738634305214111_);enable-background:new    ;}
	.st21{opacity:0.6;fill:url(#SVGID_00000118371138639074325970000009079934780880177327_);enable-background:new    ;}
	.st22{opacity:0.6;fill:url(#SVGID_00000078765574466066665040000000844063721489737650_);enable-background:new    ;}
	.st23{opacity:0.6;fill:url(#SVGID_00000131349093195465483650000014647384031520103864_);enable-background:new    ;}
	.st24{opacity:0.6;fill:url(#SVGID_00000091700141416489377110000016741823212784395392_);enable-background:new    ;}
	.st25{fill:url(#SVGID_00000107567281834848066630000009094294606405286283_);}
	.st26{fill:#1D1141;}
	.st27{fill:url(#SVGID_00000139264627292139591770000012612622672681646765_);}
	.st28{fill:url(#SVGID_00000163063349169231167990000013654279196988617861_);}
	.st29{fill:url(#SVGID_00000062894607682872397590000012171763068074615478_);}
	.st30{opacity:0.57;fill:url(#SVGID_00000011713916443614654370000008270967808948527249_);}
	.st31{opacity:0.57;fill:url(#SVGID_00000114782401382230602130000014301998521936767402_);}
	.st32{opacity:0.57;fill:url(#SVGID_00000041974475000436034280000005848962058157861023_);}
	.st33{fill:url(#SVGID_00000030447994978092684850000006478856213397331109_);}
	.st34{fill:url(#SVGID_00000062187702744939307910000001718172183526965170_);}
	.st35{fill:url(#SVGID_00000030465077964270261390000009564144140719169667_);}
	.st36{fill:url(#SVGID_00000108293959709798279560000014284832217867367314_);}
	.st37{fill:url(#SVGID_00000136407159649009071880000007327147932920986774_);}
	.st38{opacity:0.6;fill:url(#SVGID_00000049941440404553017750000016187035926081718926_);enable-background:new    ;}
	.st39{opacity:0.6;fill:url(#SVGID_00000051357647266769551960000007614805774285919146_);enable-background:new    ;}
	.st40{opacity:0.6;fill:url(#SVGID_00000026156543668217850580000009578140769257231015_);enable-background:new    ;}
	.st41{opacity:0.6;fill:url(#SVGID_00000042728121008456135020000004721072190670148494_);enable-background:new    ;}
	.st42{opacity:0.6;fill:url(#SVGID_00000036234435410354146510000016057254021154157958_);enable-background:new    ;}
	.st43{opacity:0.6;fill:url(#SVGID_00000069382372032912444640000017006613481708902308_);enable-background:new    ;}
	.st44{opacity:0.6;fill:url(#SVGID_00000130623853357445542230000011113912155948756412_);enable-background:new    ;}
	.st45{opacity:0.6;fill:url(#SVGID_00000098209824484714760430000013551820641523609009_);enable-background:new    ;}
	.st46{fill:url(#SVGID_00000037687524970385312160000005069911119036128912_);}
	.st47{fill:url(#SVGID_00000135658841276086013180000014390812058544184722_);}
	.st48{fill:url(#SVGID_00000169543944131582657520000015174642945433479306_);}
	.st49{fill:url(#SVGID_00000036929693198335894380000014300523403524191128_);}
	.st50{opacity:0.57;fill:url(#SVGID_00000087409688070821911490000003699175238558694533_);}
	.st51{opacity:0.57;fill:url(#SVGID_00000070806267082015412740000016137132982863940502_);}
	.st52{opacity:0.57;fill:url(#SVGID_00000110440162486046941210000003115942810079991939_);}
	.st53{fill:url(#SVGID_00000069396800404190179730000007320889591168652198_);}
	.st54{fill:url(#SVGID_00000056400148798920964970000012549506534400020105_);}
	.st55{fill:url(#SVGID_00000044135665866179019550000004687917263773637049_);}
	.st56{fill:url(#SVGID_00000011019763412296071860000008187923543196001968_);}
	.st57{fill:url(#SVGID_00000167386014571616787370000014117307463295317125_);}
	.st58{opacity:0.6;fill:url(#SVGID_00000042712667314629484580000009295883145971122606_);enable-background:new    ;}
	.st59{opacity:0.6;fill:url(#SVGID_00000106146081293308178800000008856078395618197943_);enable-background:new    ;}
	.st60{opacity:0.6;fill:url(#SVGID_00000043428263411521912890000014458361678689182609_);enable-background:new    ;}
	.st61{opacity:0.6;fill:url(#SVGID_00000158716777818992772600000012616815088535603387_);enable-background:new    ;}
	.st62{opacity:0.6;fill:url(#SVGID_00000118375625583768982500000013702930380462402693_);enable-background:new    ;}
	.st63{opacity:0.6;fill:url(#SVGID_00000047042304047727247360000014930852045862180786_);enable-background:new    ;}
	.st64{opacity:0.6;fill:url(#SVGID_00000160170161357652347960000005492011480266059167_);enable-background:new    ;}
	.st65{opacity:0.6;fill:url(#SVGID_00000176000901975960681300000007438984665848773020_);enable-background:new    ;}
	.st66{fill:url(#SVGID_00000098905476349676668760000015616243336471856259_);}
	.st67{fill:url(#SVGID_00000180348227781307206420000003503465700342449851_);}
	.st68{fill:url(#SVGID_00000087387341353824509260000018365173926046461099_);}
	.st69{fill:url(#SVGID_00000065039718518741571320000004372913754411029399_);}
	.st70{opacity:0.57;fill:url(#SVGID_00000130604892224228112590000015526736259024879249_);}
	.st71{opacity:0.57;fill:url(#SVGID_00000123442652747394166370000000066805920984801422_);}
	.st72{opacity:0.57;fill:url(#SVGID_00000065057780747718408220000010312573583115323821_);}
	.st73{fill:url(#SVGID_00000150817447741139240580000018428399104780168626_);}
	.st74{fill:url(#SVGID_00000071555189131607984800000011165015372355220624_);}
	.st75{fill:url(#SVGID_00000044862516002027225580000008928963347790425256_);}
	.st76{fill:url(#SVGID_00000130628212377627127980000003225903851246180772_);}
	.st77{fill:url(#SVGID_00000020367797559341375270000012638326664902120579_);}
	.st78{opacity:0.6;fill:url(#SVGID_00000132057923108790628570000013368396943698412440_);enable-background:new    ;}
	.st79{opacity:0.6;fill:url(#SVGID_00000110432916291288829170000009875156567037809536_);enable-background:new    ;}
	.st80{opacity:0.6;fill:url(#SVGID_00000036238530658676975770000001410430866201423745_);enable-background:new    ;}
	.st81{opacity:0.6;fill:url(#SVGID_00000183208364015522582100000001133619880559296918_);enable-background:new    ;}
	.st82{opacity:0.6;fill:url(#SVGID_00000063595957572141794570000001469192025204376225_);enable-background:new    ;}
	.st83{opacity:0.6;fill:url(#SVGID_00000054961809749707611350000000616160255618672519_);enable-background:new    ;}
	.st84{opacity:0.6;fill:url(#SVGID_00000177459819136210024720000009707254970214060456_);enable-background:new    ;}
	.st85{opacity:0.6;fill:url(#SVGID_00000076582859052020687960000005844550031992076941_);enable-background:new    ;}
	.st86{fill:url(#SVGID_00000129887892074171903740000017808077602059946155_);}
	.st87{fill:url(#SVGID_00000098198655836696182150000012145476341102756494_);}
	.st88{fill:url(#SVGID_00000002342670095445715430000014725764456600579252_);}
	.st89{fill:url(#SVGID_00000138534965173502815000000012320567856816599436_);}
	.st90{opacity:0.57;fill:url(#SVGID_00000164489484703375376800000012414398632913233591_);}
	.st91{opacity:0.57;fill:url(#SVGID_00000100357222631438588170000013868700328316543672_);}
	.st92{opacity:0.57;fill:url(#SVGID_00000013894761720901304670000013721284190994760625_);}
	.st93{fill:url(#SVGID_00000065032797896190483380000018344283393825671339_);}
	.st94{fill:url(#SVGID_00000101092929245720695760000003082663016845881016_);}
	.st95{fill:url(#SVGID_00000000201006090397009180000008467013012920379818_);}
	.st96{fill:url(#SVGID_00000126296475263873712460000015355139262516162230_);}
	.st97{fill:url(#SVGID_00000072239655498355392700000003236345740816839342_);}
	.st98{opacity:0.6;fill:url(#SVGID_00000108309240480836823130000009253732758800222629_);enable-background:new    ;}
	.st99{opacity:0.6;fill:url(#SVGID_00000085215969910227705450000013184912406301416844_);enable-background:new    ;}
	.st100{opacity:0.6;fill:url(#SVGID_00000133500684865789450870000005874384585859591594_);enable-background:new    ;}
	.st101{opacity:0.6;fill:url(#SVGID_00000160164947048157693030000018118325600615092403_);enable-background:new    ;}
	.st102{opacity:0.6;fill:url(#SVGID_00000147200157705027277180000014428543270272739980_);enable-background:new    ;}
	.st103{opacity:0.6;fill:url(#SVGID_00000152244207601665463380000005563441828348469666_);enable-background:new    ;}
	.st104{opacity:0.6;fill:url(#SVGID_00000026163148068135548790000012323845564174358678_);enable-background:new    ;}
	.st105{opacity:0.6;fill:url(#SVGID_00000039126137972614980260000016228434646348807817_);enable-background:new    ;}
	.st106{fill:url(#SVGID_00000139289023708482481380000008374251591201521816_);}
</style>
<rect class="st0" width="464.6" height="464.6"/>
<g>
	<g>
		<g>
			<g id="XMLID_00000029762027609491839360000001997232019832566928_">
				<g>
					<path class="st1" d="M328.8,299.9c-0.8-16.6-7.3-31.4-12.6-40.9c-5.4-9.8-10.6-16-11.3-16.8c-5.7-7.8-22.5-22.4-32.2-28
						c-8.7-5-14-14.3-14-24.3v-53.7c1.4-0.7,2.7-1.6,3.8-2.5c3.2-2.7,5.2-7.6,5.2-10.8c0-1.1-0.2-6.9-3.4-9.5
						c-5.5-4.6-17.4-7.3-31.9-7.3c-12.9,0-25.6,2.8-31.5,7c-3.7,2.6-3.7,7.2-3.7,9.7v0.1c0,3.5,2.5,9,6.7,12
						c0.7,0.5,1.4,0.9,2.2,1.4v53.6c0,10-5.4,19.3-14,24.3c-9.7,5.6-26.5,20.2-32.2,28c-0.7,0.8-6,7.1-11.3,16.8
						c-5.3,9.5-11.8,24.4-12.6,40.9c-0.8,15.6,5.3,28.5,18.1,38.3c11.1,8.5,26.9,14.7,48.3,18.9c5.5,1.1,19.1,1.5,30,1.5
						c10.9,0,24.6-0.4,30-1.5c21.5-4.3,37.3-10.5,48.3-18.9C323.4,328.3,329.5,315.5,328.8,299.9z M202.6,122.9v-0.2
						c0-1.7,0-4.3,1.4-5.2c5.1-3.5,16.7-6,28.4-6c13,0,23.9,2.3,28.4,6c0.7,0.5,1.4,2.9,1.4,5.3c0,1.6-1.3,5-3.2,6.6
						c-4.7,3.9-14.1,6-26.6,6c-12.1,0-20.6-1.7-25.4-5.1C204,128.3,202.6,124.4,202.6,122.9z M261.3,351.7c-4.2,0.8-15.5,1.4-29,1.4
						c-13.4,0-24.8-0.5-29-1.4c-43-8.5-63.3-25.4-62-51.5c1.5-29.6,22.5-54.3,22.7-54.6l0.1-0.1c5.3-7.3,21.3-21.2,30.5-26.5
						c10.4-6,16.8-17.1,16.8-29.1v-51.4c5.4,1.6,12.2,2.5,20.8,2.5c8.3,0,15.3-0.9,20.8-2.6v51.5c0,12,6.4,23.1,16.8,29.1
						c9.2,5.3,25.2,19.2,30.5,26.6l0.1,0.1c0.2,0.2,21.2,24.9,22.7,54.5C324.5,326.3,304.3,343.2,261.3,351.7z"/>
					<path class="st1" d="M327.5,300c0.7,15.2-5.2,27.7-17.6,37.2c-10.9,8.4-26.5,14.5-47.8,18.7c-4.9,1-17.3,1.5-29.8,1.5
						c-12.5,0-24.9-0.5-29.8-1.5c-21.3-4.2-36.9-10.3-47.8-18.7c-12.4-9.5-18.4-22.1-17.6-37.2c0.8-16.3,7.2-31,12.4-40.4
						c5.5-9.8,10.7-16,11.2-16.7c5.6-7.7,22.2-22.1,31.8-27.7c9-5.2,14.6-14.9,14.6-25.4v-54.4c-1-0.5-1.9-1-2.7-1.6
						c-3.8-2.7-6.2-7.8-6.2-11v-0.1c0-2.4,0-6.5,3.2-8.7c5.8-4,18.2-6.7,30.8-6.7c14.2,0,25.8,2.6,31.1,7c2.9,2.4,2.9,8,2.9,8.6
						c0,2.9-1.8,7.4-4.7,9.9c-1,0.9-2.4,1.8-4.2,2.6v54.5c0,10.4,5.6,20.2,14.6,25.4c9.6,5.5,26.2,20,31.8,27.7
						c0.6,0.7,5.8,6.9,11.2,16.7C320.3,269,326.7,283.6,327.5,300z M261.5,352.9c43.7-8.7,64.3-25.9,63-52.8
						c-1.5-30.1-22.8-55-23-55.3l-0.1-0.1c-5.4-7.4-21.5-21.5-30.9-26.9c-10-5.7-16.2-16.5-16.2-28v-53.2c-4.8,1.7-11.9,3-22,3
						c-9.3,0-16.6-1-22.1-2.9v53.1c0,11.5-6.2,22.3-16.2,28c-9.4,5.4-25.5,19.4-30.9,26.9l-0.1,0.1c-0.2,0.2-21.5,25.2-23,55.3
						c-1.3,26.8,19.3,44.1,63,52.8C212.4,354.7,252.2,354.7,261.5,352.9z M263.3,122.9c0-2.3-0.6-5.2-1.8-6.2
						c-4.7-3.9-15.8-6.3-29.1-6.3c-11.9,0-23.9,2.5-29.1,6.2c-1.9,1.3-1.9,4.3-1.9,6.2v0.1c0,2,1.7,6.2,4.9,8.5
						c5,3.5,13.7,5.3,26.1,5.3c12.8,0,22.5-2.2,27.3-6.3C261.9,128.5,263.3,124.7,263.3,122.9z"/>
					<radialGradient id="SVGID_1_" cx="208.9685" cy="346.231" r="238.6631" gradientUnits="userSpaceOnUse">
						<stop  offset="0" style="stop-color:#99E8F0"/>
						<stop  offset="0.1366" style="stop-color:#7682F0"/>
						<stop  offset="0.1671" style="stop-color:#798DF1"/>
						<stop  offset="0.2739" style="stop-color:#84B0F6"/>
						<stop  offset="0.3875" style="stop-color:#8DCDF9"/>
						<stop  offset="0.5084" style="stop-color:#94E3FC"/>
						<stop  offset="0.6399" style="stop-color:#98F3FE"/>
						<stop  offset="0.7899" style="stop-color:#9BFCFF"/>
						<stop  offset="0.9988" style="stop-color:#9CFFFF"/>
					</radialGradient>
					<path class="st2" d="M314.1,329.3C314.1,329.3,314.1,329.3,314.1,329.3c-6.8,7.3-16.9,13.2-30.5,17.8c-6.6,2.2-14,4.2-22.2,5.8
						c-0.8,0.2-1.8,0.3-3,0.4c-12.9,1.4-46.9,1.2-55.4-0.4c-43.7-8.7-64.3-25.9-63-52.8c1.5-30.1,22.8-55,23-55.3l0.1-0.1
						c5.4-7.4,21.5-21.5,30.9-26.9c10-5.7,16.2-16.5,16.2-28v-53.1c5.4,2,12.7,2.9,22.1,2.9h0c5.6,0,10.2-0.4,14.1-1
						c3.2-0.5,5.8-1.2,7.9-2v53.2c0,11.5,6.2,22.3,16.2,28c9.4,5.4,25.5,19.4,30.9,26.9l0.1,0.1c0.2,0.3,21.5,25.2,23,55.3
						C325,311.5,321.6,321.2,314.1,329.3z"/>
					<path class="st3" d="M263.4,348.7l-5,4.6c-12.9,1.4-46.9,1.2-55.4-0.4c-43.7-8.7-64.3-25.9-63-52.8c1.5-30.1,22.8-55,23-55.3
						l0.1-0.1c5.4-7.4,21.5-21.5,30.9-26.9c10-5.7,16.2-16.5,16.2-28v-43.5c2.9,1.2,2.1,5.5,2.1,8.2s-0.2,15.6,0,30
						c0.2,14.4,1.6,18.6-5.4,27.7c-6.5,8.3-21.6,12.9-36.4,29.2c-9.6,10.6-17.1,20.5-22.4,31.9c-5.3,11.4-8.5,31.1-0.8,46.8
						c7.7,15.7,41.1,27.6,57,29.8C220.1,352.1,263.4,348.7,263.4,348.7z"/>
					<g>
						<path class="st1" d="M232.3,350.7c-13.1,0-23.7-0.5-27.8-1.3c-20.6-4.1-36-10.3-45.8-18.5c-9.7-8.1-14.1-18.2-13.5-30.7
							c0.5-9.9,1.4-20.2,6.9-27.5c7.4-9.7,15.6-14.1,26.7-14.1c5.9,0,12.1,1.2,19.2,2.5c8.7,1.7,18.6,3.6,30.2,3.6
							c0.6,0,1.1,0,1.7,0c9.2-0.1,19.5-3.6,29.4-6.9c10-3.3,19.4-6.5,27.9-6.5c10.2,0,17.6,4.8,21.9,14.2
							c7.1,15.5,9.6,21.6,10.2,34.6c0.6,12.5-3.8,22.6-13.5,30.7c-9.8,8.2-25.2,14.4-45.8,18.5C256,350.2,245.4,350.7,232.3,350.7z"
							/>
						
							<radialGradient id="SVGID_00000111899352263606768680000014177712106076111016_" cx="149.8352" cy="328.105" r="186.5809" gradientUnits="userSpaceOnUse">
							<stop  offset="0" style="stop-color:#752CF7"/>
							<stop  offset="0.3205" style="stop-color:#B376F7"/>
							<stop  offset="0.3882" style="stop-color:#AE7EF6"/>
							<stop  offset="0.4944" style="stop-color:#9E95F5"/>
							<stop  offset="0.6251" style="stop-color:#86B9F2"/>
							<stop  offset="0.7" style="stop-color:#76D1F0"/>
							<stop  offset="0.9988" style="stop-color:#DC72E8"/>
						</radialGradient>
						<path style="fill:url(#SVGID_00000111899352263606768680000014177712106076111016_);" d="M232.3,348.6
							c-12.8,0-23.5-0.5-27.4-1.3c-20.3-4-35.4-10.1-44.9-18c-9.2-7.7-13.4-17.2-12.8-29c0.5-9.6,1.4-19.5,6.5-26.4
							c6.9-9.2,14.7-13.3,25.1-13.3c5.7,0,11.8,1.2,18.8,2.5c8.8,1.7,18.7,3.6,30.5,3.6c0.6,0,1.1,0,1.7,0c9.5-0.2,20-3.6,30-7
							c9.8-3.3,19.1-6.4,27.2-6.4c9.5,0,16,4.3,20,13c7,15.3,9.4,21.2,10.1,33.9c0.6,11.8-3.6,21.3-12.8,29
							c-9.5,7.9-24.6,14-44.9,18C255.8,348.2,245.1,348.6,232.3,348.6z"/>
						<path class="st1" d="M270.3,292.2c-3.1,0-6.2,0-9.1-0.1c-1.3,0-2.5,0-3.6-0.1c-6.4-0.1-12.6-1.2-19.2-2.4
							c-7.8-1.4-16.6-3-27.2-3c-7.2,0-14.5,0.7-22.2,2.2c-7.8,1.5-16.6,3.1-23.6,3.1c-7.5,0-12.3-1.8-14.5-5.6
							c-2.1-3.4-1.7-7.8,1-13l0.2-0.3l0.2-0.3c7.4-9.7,15.6-14.1,26.7-14.1c5.9,0,12.1,1.2,19.2,2.5c8.7,1.7,18.6,3.6,30.2,3.6
							c0.6,0,1.1,0,1.7,0c9.2-0.1,19.5-3.6,29.4-6.9c10-3.3,19.4-6.5,27.9-6.5c10.2,0,17.6,4.8,21.9,14.2c2.8,6.4,2.8,11.8,0,16.3
							C303.2,290.9,286.2,292.2,270.3,292.2z"/>
						
							<linearGradient id="SVGID_00000024706344083079417700000017424744650293344674_" gradientUnits="userSpaceOnUse" x1="151.5307" y1="271.7555" x2="309.1928" y2="271.7555">
							<stop  offset="0" style="stop-color:#FF7FED"/>
							<stop  offset="1" style="stop-color:#E9CFF6"/>
						</linearGradient>
						<path style="fill:url(#SVGID_00000024706344083079417700000017424744650293344674_);" d="M307.4,280.7
							c-1.4,2.2-3.6,3.9-6.4,5.2c-7.6,3.6-19.4,4.2-30.6,4.2c-3.1,0-6.2,0-9.1-0.1c-1.2,0-2.4,0-3.6-0.1c-4.5-0.1-9-0.7-13.7-1.5
							c-1.7-0.3-3.4-0.6-5.2-0.9c-5.8-1.1-12.1-2.2-19.3-2.7c-2.6-0.2-5.4-0.3-8.3-0.3c-4.4,0-8.7,0.3-13.2,0.8h0
							c-3.1,0.4-6.2,0.9-9.5,1.5c-7.7,1.5-16.4,3-23.3,3c-6.7,0-10.9-1.5-12.8-4.6c-1.7-2.7-1.3-6.4,1.1-11l0.1-0.2l0.1-0.2
							c6.9-9.2,14.7-13.3,25.1-13.3c5.8,0,11.8,1.2,18.8,2.5c8.8,1.7,18.7,3.6,30.5,3.6c0.6,0,1.1,0,1.7,0c9.5-0.2,20-3.6,30-7
							c9.8-3.3,19.1-6.4,27.2-6.4c9.5,0,16,4.3,20,13C309.8,272.1,309.8,276.9,307.4,280.7z"/>
						
							<linearGradient id="SVGID_00000119082744054392127860000000598426474884003510_" gradientUnits="userSpaceOnUse" x1="224.5496" y1="275.0049" x2="304.7152" y2="275.0049">
							<stop  offset="0" style="stop-color:#CD5DED"/>
							<stop  offset="1" style="stop-color:#E9A0F6"/>
						</linearGradient>
						<path style="opacity:0.57;fill:url(#SVGID_00000119082744054392127860000000598426474884003510_);" d="M301,285.9L301,285.9
							c-7.6,3.6-19.4,4.2-30.6,4.2c-3.1,0-6.2,0-9.1-0.1c-1.2,0-2.4,0-3.6-0.1c-4.5-0.1-9-0.7-13.7-1.5
							c-22.6-5.4-25.2-13.4-9.2-16.8c16-3.3,25.7-4.5,48.3-11.3C297.3,256.3,311.7,275.2,301,285.9z"/>
						
							<linearGradient id="SVGID_00000079444960275645373690000001865135731356887685_" gradientUnits="userSpaceOnUse" x1="167.7233" y1="274.2124" x2="222.8073" y2="274.2124">
							<stop  offset="0" style="stop-color:#CD5DED"/>
							<stop  offset="1" style="stop-color:#E9A0F6"/>
						</linearGradient>
						<path style="opacity:0.57;fill:url(#SVGID_00000079444960275645373690000001865135731356887685_);" d="M219.5,284.7
							c-3.3-0.3-6.8-0.2-10.5-0.4c-21.9-1.2-31.4-8.9-37.1-12.2c-10.4-6.1-0.2-10,15.9-7.9C214.7,267.8,229.9,286.1,219.5,284.7z"/>
						
							<linearGradient id="SVGID_00000025418005290413825360000001924587516503037064_" gradientUnits="userSpaceOnUse" x1="154.1458" y1="279.601" x2="189.4053" y2="279.601">
							<stop  offset="0" style="stop-color:#CD5DED"/>
							<stop  offset="1" style="stop-color:#E9A0F6"/>
						</linearGradient>
						<path style="opacity:0.57;fill:url(#SVGID_00000025418005290413825360000001924587516503037064_);" d="M186,281.3
							c-11-4.3-15.3-9.2-20.8-9.2c-5.5,0-10.4,4.3-11,8.5c-0.6,4.3,2.4,6.7,15.6,6.4C188.4,286.8,193.7,284.3,186,281.3z"/>
					</g>
					
						<linearGradient id="SVGID_00000160884423066991364530000008077684953926989470_" gradientUnits="userSpaceOnUse" x1="201.3462" y1="123.4835" x2="263.2852" y2="123.4835">
						<stop  offset="0" style="stop-color:#99E8F0"/>
						<stop  offset="0.9988" style="stop-color:#C2FFFF"/>
					</linearGradient>
					<path style="fill:url(#SVGID_00000160884423066991364530000008077684953926989470_);" d="M261.5,116.6
						c-4.7-3.9-15.8-6.3-29.1-6.3c-5.3,0-10.6,0.5-15.3,1.4h0c-5.9,1.1-10.9,2.8-13.8,4.8c-1.9,1.3-1.9,4.3-1.9,6.2v0.1
						c0,2,1.8,6.2,4.9,8.5c5,3.5,13.7,5.3,26.1,5.3c12.8,0,22.5-2.2,27.3-6.3c2.3-1.9,3.6-5.6,3.6-7.5
						C263.3,120.6,262.6,117.6,261.5,116.6z M209.3,120.1c0-2.5,2.5-4.4,7.4-5.8c4.2-1.2,9.7-1.9,15.6-1.9c2.1,0,4.3,0.1,6.4,0.3
						c8.8,0.8,16.6,3.1,16.6,7.4c0,2.5-2.5,4.4-7.4,5.8c-4.2,1.2-9.7,1.9-15.6,1.9c-5.9,0-12-0.7-16.4-2.1
						C212,124.4,209.3,122.5,209.3,120.1z"/>
					<path class="st3" d="M263.3,122.9c0,1.9-1.4,5.6-3.6,7.5c-4.9,4-14.6,6.3-27.3,6.3c-12.3,0-21.1-1.8-26.1-5.3
						c-3.2-2.2-4.9-6.4-4.9-8.5v-0.1c0-2,0-4.9,1.9-6.2c2.9-2,7.9-3.7,13.8-4.8h0c8.5-1,21.6,1,21.6,1c-2.1-0.2-4.2-0.3-6.4-0.3
						c-5.9,0-11.4,0.7-15.6,1.9c-4.9,1.4-7.4,3.4-7.4,5.8c0,2.5,2.6,4.3,6.5,5.6c-5.5,0.1-6.1,3.6-1.3,5.9c4.8,2.3,25.1,2,35.6,0
						C260.7,129.5,263.3,122.9,263.3,122.9z"/>
					<path class="st1" d="M255.3,120.1c0,2.5-2.5,4.4-7.4,5.8c-4.2,1.2-9.7,1.9-15.6,1.9c-11.1,0-23-2.4-23-7.7
						c0-2.5,2.5-4.4,7.4-5.8c4.2-1.2,9.7-1.9,15.6-1.9C243.4,112.4,255.3,114.8,255.3,120.1z M252.2,120.1c0-1.4-6.8-4.6-19.9-4.6
						c-13.1,0-19.9,3.2-19.9,4.6s6.8,4.6,19.9,4.6C245.5,124.7,252.2,121.4,252.2,120.1z"/>
					
						<linearGradient id="SVGID_00000180350183134544822360000002044446353300375470_" gradientUnits="userSpaceOnUse" x1="212.4049" y1="120.062" x2="252.2313" y2="120.062">
						<stop  offset="0" style="stop-color:#99E8F0"/>
						<stop  offset="0.9988" style="stop-color:#C2FFFF"/>
					</linearGradient>
					
						<ellipse style="fill:url(#SVGID_00000180350183134544822360000002044446353300375470_);" cx="232.3" cy="120.1" rx="19.9" ry="4.6"/>
					<ellipse class="st3" cx="232.3" cy="120.1" rx="19.9" ry="4.6"/>
					<ellipse class="st3" cx="232.3" cy="120.1" rx="19.9" ry="4.6"/>
					<path class="st3" d="M216.2,122.5c3.3,1.1,8.7,2.2,16.1,2.2s12.8-1,16.1-2.2c-3.3-1.1-8.7-2.2-16.1-2.2
						S219.5,121.4,216.2,122.5z"/>
					<path class="st3" d="M263.4,348.7c0,0-43.3,3.4-59.2,1.2c-15.9-2.1-49.2-14.1-57-29.8c-7.7-15.7-4.5-35.5,0.8-46.8
						c5.3-11.4,12.8-21.4,22.4-31.9c14.8-16.3,30-20.9,36.4-29.2c7.1-9.1,5.6-13.2,5.4-27.7c-0.2-14.4,0-27.3,0-30s0.8-7-2.1-8.2
						v-9.5c5.4,2,12.7,2.9,22.1,2.9c0.4,0,0.8,0,1.1,0c0.3,0,0.6,0,0.9,0c0.9,0,1.8,0,2.6-0.1c0.2,0,0.5,0,0.7,0
						c1.7-0.1,3.3-0.2,4.8-0.4c0.4,0,0.8-0.1,1.2-0.1c0.7-0.1,1.3-0.2,1.9-0.3c0.3,0,0.5-0.1,0.7-0.1c0.6-0.1,1.2-0.2,1.7-0.3
						c0.3-0.1,0.7-0.1,1-0.2c0.6-0.1,1.2-0.3,1.8-0.4c0.3-0.1,0.5-0.1,0.8-0.2c0.2-0.1,0.5-0.1,0.7-0.2c0.7-0.2,1.3-0.4,1.9-0.6v7.4
						c0,0-13,3.5-22,3.2c-2.8-0.1-5.1,0-6.9,0.3c0,0-0.1,0-0.1,0c-3.7,0.7-5.2,2.6-5.2,6.7v46.4c0,6.7-1.5,15.4-9,21.5
						c-7.5,6-33.3,26.5-35.4,53.8C173.8,303.2,184,342.9,263.4,348.7z"/>
					
						<linearGradient id="SVGID_00000002357691230497569630000008234726978397075868_" gradientUnits="userSpaceOnUse" x1="251.8489" y1="197.1587" x2="237.3794" y2="147.7214">
						<stop  offset="0" style="stop-color:#FFFFFF"/>
						<stop  offset="0.9988" style="stop-color:#FFFFFF;stop-opacity:0"/>
					</linearGradient>
					<path style="fill:url(#SVGID_00000002357691230497569630000008234726978397075868_);" d="M240.9,153.3c0-2.5,2.1-4.6,4.6-4.6
						s4.6,2.1,4.6,4.6v44.2c0,2.5-2.1,4.6-4.6,4.6s-4.6-2.1-4.6-4.6V153.3z"/>
					<g>
						<path class="st3" d="M263.4,348.7c-79.4-5.8-89.7-45.5-87.6-72.8c2.1-27.3,27.9-47.8,35.4-53.8c7.5-6,9-14.7,9-21.5v-46.4
							c0-4.1,1.4-6,5.2-6.7c0.3,16.5,2.7,61.9,0,69.1c-2.7,7.2-22.4,18.8-28.4,31.9C190.9,261.7,170.6,332.6,263.4,348.7z"/>
						<path class="st3" d="M263.4,348.7c0,0-43.3,3.4-59.2,1.2c-15.9-2.1-49.2-14.1-57-29.8c-7.7-15.7-4.5-35.5,0.8-46.8
							c5.3-11.4,12.8-21.4,22.4-31.9c14.8-16.3,30-20.9,36.4-29.2c7.1-9.1,5.6-13.2,5.4-27.7c-0.2-14.4,0-27.3,0-30s0.8-7-2.1-8.2
							v-9.5c5.4,2,12.7,2.9,22.1,2.9c0.4,0,0.8,0,1.1,0c0.3,0,0.6,0,0.9,0c0.9,0,1.8,0,2.6-0.1c0.2,0,0.5,0,0.7,0
							c1.7-0.1,3.3-0.2,4.8-0.4c0.4,0,0.8-0.1,1.2-0.1c0.7-0.1,1.3-0.2,1.9-0.3c0.3,0,0.5-0.1,0.7-0.1c0.6-0.1,1.2-0.2,1.7-0.3
							c0.3-0.1,0.7-0.1,1-0.2c0.6-0.1,1.2-0.3,1.8-0.4c0.3-0.1,0.5-0.1,0.8-0.2c0.2-0.1,0.5-0.1,0.7-0.2c0.7-0.2,1.3-0.4,1.9-0.6
							v7.4c0,0-13,3.5-22,3.2c-2.8-0.1-5.1,0-6.9,0.3c0,0-0.1,0-0.1,0c-3.7,0.7-5.2,2.6-5.2,6.7v46.4c0,6.7-1.5,15.4-9,21.5
							c-7.5,6-33.3,26.5-35.4,53.8C173.8,303.2,184,342.9,263.4,348.7z"/>
					</g>
				</g>
			</g>
			<g>
				
					<linearGradient id="SVGID_00000062899635889208268090000010844181356126441631_" gradientUnits="userSpaceOnUse" x1="2508.8237" y1="-1798.1376" x2="2504.1406" y2="-1785.1903" gradientTransform="matrix(-0.9986 5.236043e-02 -5.236043e-02 -0.9986 2667.9177 -1687.9823)">
					<stop  offset="1.209562e-03" style="stop-color:#FFFFFF;stop-opacity:0"/>
					<stop  offset="1" style="stop-color:#FFFFFF"/>
				</linearGradient>
				<circle style="fill:url(#SVGID_00000062899635889208268090000010844181356126441631_);" cx="258.7" cy="232.5" r="6.7"/>
			</g>
			<g>
				
					<linearGradient id="SVGID_00000039120261464060169900000009850299508594261418_" gradientUnits="userSpaceOnUse" x1="281.3757" y1="300.9506" x2="298.166" y2="245.6309">
					<stop  offset="1.209562e-03" style="stop-color:#FFFFFF;stop-opacity:0"/>
					<stop  offset="1" style="stop-color:#FFFFFF"/>
				</linearGradient>
				<path style="fill:url(#SVGID_00000039120261464060169900000009850299508594261418_);" d="M307.1,308.5c-2.4,0-4.4-1.7-4.8-4.1
					c-5.5-35.6-32.5-57.4-32.8-57.6c-2.1-1.7-2.5-4.7-0.8-6.9c1.7-2.1,4.7-2.5,6.9-0.8c1.2,1,30.3,24.3,36.4,63.8
					c0.4,2.7-1.4,5.2-4.1,5.6C307.6,308.5,307.3,308.5,307.1,308.5z"/>
			</g>
			<g>
				<circle class="st14" cx="244" cy="332.2" r="4.6"/>
				<g class="st15">
					
						<linearGradient id="SVGID_00000181088317577864282670000018351053274278546353_" gradientUnits="userSpaceOnUse" x1="239.4389" y1="-1334.3269" x2="246.3366" y2="-1334.3269" gradientTransform="matrix(1 0 0 -1 0 -1001.9482)">
						<stop  offset="0.2888" style="stop-color:#FFFFFF"/>
						<stop  offset="0.7796" style="stop-color:#FFFFFF;stop-opacity:0"/>
					</linearGradient>
					
						<path style="opacity:0.6;fill:url(#SVGID_00000181088317577864282670000018351053274278546353_);enable-background:new    ;" d="
						M241.4,335.1c-1.8-1.8-1.8-4.7,0-6.5c0.3-0.3,0.6-0.5,1-0.7c-0.6,0.2-1.1,0.6-1.6,1c-1.8,1.8-1.8,4.7,0,6.5
						c1.5,1.5,3.8,1.8,5.6,0.7C244.7,336.8,242.7,336.5,241.4,335.1z"/>
				</g>
				<circle class="st17" cx="245.6" cy="329.9" r="1"/>
			</g>
			<g>
				<circle class="st14" cx="262.3" cy="327.4" r="3.4"/>
				<g class="st15">
					
						<linearGradient id="SVGID_00000147220436152426913220000009455074026119432873_" gradientUnits="userSpaceOnUse" x1="258.975" y1="-1329.4081" x2="264.0386" y2="-1329.4081" gradientTransform="matrix(1 0 0 -1 0 -1001.9482)">
						<stop  offset="0.2888" style="stop-color:#FFFFFF"/>
						<stop  offset="0.7796" style="stop-color:#FFFFFF;stop-opacity:0"/>
					</linearGradient>
					
						<path style="opacity:0.6;fill:url(#SVGID_00000147220436152426913220000009455074026119432873_);enable-background:new    ;" d="
						M260.4,329.5c-1.3-1.3-1.3-3.4,0-4.8c0.2-0.2,0.4-0.4,0.7-0.5c-0.4,0.1-0.8,0.4-1.2,0.7c-1.3,1.3-1.3,3.4,0,4.8
						c1.1,1.1,2.8,1.3,4.1,0.5C262.9,330.7,261.4,330.5,260.4,329.5z"/>
				</g>
				<circle class="st17" cx="263.5" cy="325.6" r="0.7"/>
			</g>
			<g>
				<circle class="st14" cx="273.3" cy="317.6" r="3.4"/>
				<g class="st15">
					
						<linearGradient id="SVGID_00000070811789350774479640000017947696006685548476_" gradientUnits="userSpaceOnUse" x1="269.9647" y1="-1319.6394" x2="275.0283" y2="-1319.6394" gradientTransform="matrix(1 0 0 -1 0 -1001.9482)">
						<stop  offset="0.2888" style="stop-color:#FFFFFF"/>
						<stop  offset="0.7796" style="stop-color:#FFFFFF;stop-opacity:0"/>
					</linearGradient>
					
						<path style="opacity:0.6;fill:url(#SVGID_00000070811789350774479640000017947696006685548476_);enable-background:new    ;" d="
						M271.4,319.7c-1.3-1.3-1.3-3.4,0-4.8c0.2-0.2,0.4-0.4,0.7-0.5c-0.4,0.1-0.8,0.4-1.2,0.7c-1.3,1.3-1.3,3.4,0,4.8
						c1.1,1.1,2.8,1.3,4.1,0.5C273.8,321,272.4,320.7,271.4,319.7z"/>
				</g>
				<circle class="st17" cx="274.5" cy="315.8" r="0.7"/>
			</g>
			<g>
				<circle class="st14" cx="195.2" cy="316.4" r="3.4"/>
				<g class="st15">
					
						<linearGradient id="SVGID_00000028289045114925378660000013630117896656007319_" gradientUnits="userSpaceOnUse" x1="191.8159" y1="-1318.4183" x2="196.8795" y2="-1318.4183" gradientTransform="matrix(1 0 0 -1 0 -1001.9482)">
						<stop  offset="0.2888" style="stop-color:#FFFFFF"/>
						<stop  offset="0.7796" style="stop-color:#FFFFFF;stop-opacity:0"/>
					</linearGradient>
					
						<path style="opacity:0.6;fill:url(#SVGID_00000028289045114925378660000013630117896656007319_);enable-background:new    ;" d="
						M193.3,318.5c-1.3-1.3-1.3-3.4,0-4.8c0.2-0.2,0.4-0.4,0.7-0.5c-0.4,0.1-0.8,0.4-1.2,0.7c-1.3,1.3-1.3,3.4,0,4.8
						c1.1,1.1,2.8,1.3,4.1,0.5C195.7,319.7,194.2,319.5,193.3,318.5z"/>
				</g>
				<circle class="st17" cx="196.4" cy="314.6" r="0.7"/>
			</g>
			<g>
				<circle class="st14" cx="172" cy="307.8" r="3.4"/>
				<g class="st15">
					
						<linearGradient id="SVGID_00000020360642038814673140000011741253680172428984_" gradientUnits="userSpaceOnUse" x1="168.6155" y1="-1309.8708" x2="173.6791" y2="-1309.8708" gradientTransform="matrix(1 0 0 -1 0 -1001.9482)">
						<stop  offset="0.2888" style="stop-color:#FFFFFF"/>
						<stop  offset="0.7796" style="stop-color:#FFFFFF;stop-opacity:0"/>
					</linearGradient>
					
						<path style="opacity:0.6;fill:url(#SVGID_00000020360642038814673140000011741253680172428984_);enable-background:new    ;" d="
						M170.1,310c-1.3-1.3-1.3-3.4,0-4.8c0.2-0.2,0.4-0.4,0.7-0.5c-0.4,0.1-0.8,0.4-1.2,0.7c-1.3,1.3-1.3,3.4,0,4.8
						c1.1,1.1,2.8,1.3,4.1,0.5C172.5,311.2,171,311,170.1,310z"/>
				</g>
				<circle class="st17" cx="173.2" cy="306.1" r="0.7"/>
			</g>
			<g>
				<circle class="st14" cx="233.3" cy="320.3" r="5.5"/>
				<g class="st15">
					
						<linearGradient id="SVGID_00000013153148559247821250000004068223042380159876_" gradientUnits="userSpaceOnUse" x1="227.8395" y1="-1322.4474" x2="236.1128" y2="-1322.4474" gradientTransform="matrix(1 0 0 -1 0 -1001.9482)">
						<stop  offset="0.2888" style="stop-color:#FFFFFF"/>
						<stop  offset="0.7796" style="stop-color:#FFFFFF;stop-opacity:0"/>
					</linearGradient>
					
						<path style="opacity:0.6;fill:url(#SVGID_00000013153148559247821250000004068223042380159876_);enable-background:new    ;" d="
						M230.2,323.8c-2.2-2.2-2.2-5.6,0-7.8c0.4-0.4,0.7-0.6,1.2-0.8c-0.7,0.2-1.3,0.7-1.9,1.2c-2.2,2.2-2.2,5.6,0,7.8
						c1.8,1.8,4.6,2.2,6.7,0.8C234.2,325.9,231.8,325.5,230.2,323.8z"/>
				</g>
				<circle class="st17" cx="235.3" cy="317.5" r="1.2"/>
			</g>
			<g>
				<circle class="st14" cx="253.5" cy="310" r="7.3"/>
				<g class="st15">
					
						<linearGradient id="SVGID_00000103954418969719008570000008193938016945595009_" gradientUnits="userSpaceOnUse" x1="246.1573" y1="-1312.1202" x2="257.1817" y2="-1312.1202" gradientTransform="matrix(1 0 0 -1 0 -1001.9482)">
						<stop  offset="0.2888" style="stop-color:#FFFFFF"/>
						<stop  offset="0.7796" style="stop-color:#FFFFFF;stop-opacity:0"/>
					</linearGradient>
					
						<path style="opacity:0.6;fill:url(#SVGID_00000103954418969719008570000008193938016945595009_);enable-background:new    ;" d="
						M249.3,314.6c-2.9-2.9-2.9-7.5,0-10.4c0.5-0.5,1-0.8,1.6-1.1c-1,0.3-1.8,1-2.6,1.6c-2.9,2.9-2.9,7.5,0,10.4
						c2.4,2.4,6.1,2.9,8.9,1.1C254.6,317.3,251.4,316.8,249.3,314.6z"/>
				</g>
				<circle class="st17" cx="256" cy="306.1" r="1.6"/>
			</g>
			<g>
				<circle class="st14" cx="217.5" cy="299.6" r="7.3"/>
				<g class="st15">
					
						<linearGradient id="SVGID_00000067955144978931420070000009539700921394611879_" gradientUnits="userSpaceOnUse" x1="210.1356" y1="-1301.7411" x2="221.16" y2="-1301.7411" gradientTransform="matrix(1 0 0 -1 0 -1001.9482)">
						<stop  offset="0.2888" style="stop-color:#FFFFFF"/>
						<stop  offset="0.7796" style="stop-color:#FFFFFF;stop-opacity:0"/>
					</linearGradient>
					
						<path style="opacity:0.6;fill:url(#SVGID_00000067955144978931420070000009539700921394611879_);enable-background:new    ;" d="
						M213.3,304.2c-2.9-2.9-2.9-7.5,0-10.4c0.5-0.5,1-0.8,1.6-1.1c-1,0.3-1.8,1-2.6,1.6c-2.9,2.9-2.9,7.5,0,10.4
						c2.4,2.4,6.1,2.9,8.9,1.1C218.6,306.9,215.4,306.4,213.3,304.2z"/>
				</g>
				<circle class="st17" cx="220" cy="295.8" r="1.6"/>
			</g>
		</g>
		<g>
			
				<linearGradient id="SVGID_00000129893484647765521900000012607539339655477642_" gradientUnits="userSpaceOnUse" x1="1992.2219" y1="2273.5525" x2="2011.3881" y2="2210.405" gradientTransform="matrix(-0.1143 0.3239 -0.2474 -8.734988e-02 1032.1912 -324.8588)">
				<stop  offset="1.209562e-03" style="stop-color:#FFFFFF;stop-opacity:0"/>
				<stop  offset="1" style="stop-color:#FFFFFF"/>
			</linearGradient>
			<path style="fill:url(#SVGID_00000129893484647765521900000012607539339655477642_);" d="M242.1,132.5c-0.8,0.1-1.7,0.2-2.6,0.2
				c-1.3,0.1-2.5-0.9-2.6-2.3c-0.1-1.3,0.9-2.5,2.3-2.6c10.3-0.6,17.2-4.8,17.3-4.9c1.2-0.7,2.7-0.3,3.4,0.8
				c0.7,1.2,0.3,2.7-0.8,3.4C258.7,127.4,252.1,131.4,242.1,132.5z"/>
		</g>
	</g>
</g>
</svg>
