<?xml version="1.0" encoding="iso-8859-1"?>
<!-- Generator: Adobe Illustrator 26.0.3, SVG Export Plug-In . SVG Version: 6.00 Build 0)  -->
<svg version="1.1" id="Layer_1" xmlns="http://www.w3.org/2000/svg" xmlns:xlink="http://www.w3.org/1999/xlink" x="0px" y="0px"
	 viewBox="0 0 300 300" style="enable-background:new 0 0 300 300;" xml:space="preserve">
<g id="astronaut">
	<ellipse id="_x3C_Path_x3E_" style="fill:#030609;" cx="148" cy="150.7" rx="127.7" ry="127.4"/>
	<g id="Layer_14">
		<circle style="fill:#F6F5F3;" cx="96.6" cy="42.6" r="2.9"/>
		<g id="Layer_14_copy">
			<circle style="fill:#F6F5F3;" cx="219.3" cy="62.5" r="2.9"/>
			<g id="Layer_14_copy_2">
				<circle style="fill:#F6F5F3;" cx="237.8" cy="131" r="2.9"/>
				<g id="Layer_14_copy_3">
					<circle style="fill:#F6F5F3;" cx="222.2" cy="202.5" r="2.9"/>
					<g id="Layer_14_copy_4">
						<circle style="fill:#F6F5F3;" cx="213.4" cy="238.5" r="2.9"/>
						<g id="Layer_14_copy_5">
							<circle style="fill:#F6F5F3;" cx="155.9" cy="250.7" r="2.9"/>
							<g id="Layer_14_copy_6">
								<circle style="fill:#F6F5F3;" cx="123" cy="226.5" r="2.9"/>
								<g id="Layer_14_copy_7">
									<circle style="fill:#F6F5F3;" cx="25.3" cy="132.5" r="2.9"/>
									<circle id="Layer_14_copy_8" style="fill:#F6F5F3;" cx="59.3" cy="70.4" r="2.9"/>
								</g>
							</g>
						</g>
					</g>
				</g>
			</g>
		</g>
		<g id="Layer_4_copy_2">
			<path id="Layer_4" style="fill:#BA536A;" d="M247.1,70.4c9.6,11.7,17,25.1,22,39.7c-4.5,4.5-10.7,7.4-17.6,7.4
				c-13.4,0-24.2-10.7-24.2-23.8C227.3,82.1,235.8,72.4,247.1,70.4z"/>
			<g id="Layer_27_copy">
				<path style="fill:#FF6B84;" d="M253.7,116.2c-13,0-23.6-10.6-23.6-23.7c0-10.6,7-19.6,16.7-22.6c9.7,11.9,17.4,25.6,22.4,40.5
					C265,114,259.6,116.2,253.7,116.2L253.7,116.2z"/>
				<g id="Layer_12">
					<path style="fill:#124899;" d="M155.9,270c0,2.8-0.6,5.4-1.5,7.9c-2.067,0.133-4.2,0.2-6.4,0.2c-14.2,0-28-2.4-40.8-6.7
						c0-0.5-0.1-1-0.1-1.4c0-13.1,10.9-23.8,24.4-23.8S155.9,256.9,155.9,270z"/>
					<path id="Layer_30" style="fill:#4CBAB6;" d="M156.8,272.5c0,1.8-0.2,3.567-0.6,5.3c-2.667,0.2-5.4,0.3-8.2,0.3
						c-13.5,0-26.5-2.1-38.7-6c0.2-13.4,10.8-24.3,23.7-24.3C146.1,247.8,156.8,258.9,156.8,272.5L156.8,272.5z"/>
				</g>
			</g>
		</g>
	</g>
	<path style="fill:#D8DEDC;" d="M216.3,141c5.9,6.3,17.1,16.7,27.6,23.5c21.8,13.9,20.8,11.7,26.1,14l-8.8,27.9
		c-13.333-9.733-24.167-17.033-32.5-21.9c-10.2-6.067-21.8-12.033-34.8-17.9L216.3,141z"/>
	<path id="Layer_66" style="fill:#839091;" d="M218.5,143.2c0.4,0.467,2.067,2.1,5,4.9c-2.667,5.933-5.067,10.333-7.2,13.2
		c-5,6.8-5.3,6.5-10,11.2l-7.9-3.8L218.5,143.2z"/>
	<path style="fill:#9CA9A8;" d="M254,219.5c-6.933,1.333-10.367,0.2-10.3-3.4c0-8.4,5.1-7.8,18.6-10.2L254,219.5z"/>
	<g id="Layer_65">
		<path style="fill:#DAE0DF;" d="M246,214.2c-0.267-1.6,0.467-3.067,2.2-4.4c1.667-1.267,4.933-1.933,9.8-2
			c-4.533,1.4-7.333,2.533-8.4,3.4C248.6,212.067,247.4,213.067,246,214.2z"/>
		<g id="Layer_60">
			<path style="fill:#030609;" d="M263,180.2c-4.133-6.6-4.733-10.433-1.8-11.5c4.5-1.6,11.2-1,16.1,1c6.2,2.5,11.7,6.9,11.7,10.5
				c0,3.133-2.6,5.233-7.8,6.3c3.867,4.6,4.867,7.933,3,10c-1.8,2.067-5.267,2.8-10.4,2.2c5,5.133,6.333,8.767,4,10.9
				c-2.6,2.3-12.1,1.6-18.1-0.9c-5.2-2.1-14.2-12.6-11.5-15.8c1.733-2.133,5.5-3.2,11.3-3.2c-5.333-3.067-7-5.567-5-7.5
				C256.5,180.333,259.333,179.667,263,180.2L263,180.2z"/>
			<g id="Layer_62">
				<path style="fill:#9CA9A8;" d="M265.663,171.644c2.9-1.1,8.71,0.867,12.71,2.167c3.9,1.2,10.5,5.7,9,8
					c-1,1.6-4.461,3.498-7.995,3.832c4.133,5.933,6.161,8.335,3.695,9.068c-2.34,0.632-6.439,0.785-9.011,0.938
					c-1.495,0.089-2.825,0.615-2.641,0.798c-0.018,1.202-0.427,0.854,0.534,2.243c2.841,4.104,6.841,9.439-0.616,9.458
					c-9.249,0.024-22.968-6.898-18.151-12.805c3.028-3.713,10.748-4.061,10.748-4.061L260,188.597c0,0-5.385-2.55-3.311-4.753
					c2.074-2.203,11.865-2.3,11.865-2.3s-6.658-7.507-4.973-8.64C265.265,171.771,265.663,171.644,265.663,171.644z"/>
				<path id="Layer_63" style="fill:#DAE0DF;" d="M267.7,178.5c-3.133-2.733-4.133-4.333-3-4.8c1.067-0.4,2.9-0.3,5.5,0.3
					c-1.6,0-2.6,0.3-3,0.9C266.8,175.5,266.967,176.7,267.7,178.5z M260,184.7c-0.533,1.2-0.3,2.367,0.7,3.5
					c-3.2-1.4-4.433-2.667-3.7-3.8c0.733-1.133,3.4-1.533,8-1.2C262.2,183,260.533,183.5,260,184.7z M255.7,197.1
					c-0.467,1.067-0.167,2.867,0.9,5.4c-3.333-2.933-4.367-5.133-3.1-6.6c1.267-1.533,3.433-2.133,6.5-1.8
					C257.533,194.967,256.1,195.967,255.7,197.1L255.7,197.1z"/>
			</g>
		</g>
	</g>
	<path style="fill:#D8DEDC;" d="M192,172.2c1.933,5.933,3.933,13.767,6,23.5c3.7,17.5,2.9,36.9-4.1,39.9c-2.8,1.2-5.4,3.6-16.1,0
		c-7.2-2.4-22.133-12.133-44.8-29.2L192,172.2z"/>
	<path id="Layer_61" style="fill:#687476;" d="M193.9,178.5c-3.2,10.933-12.3,19.7-27.3,26.3c-7.333,3.267-16.333,5.4-27,6.4
		l-10.2-7.5l46.5-25.2H193.9z"/>
	<path id="Layer_57" style="fill:#D8DEDC;" d="M85.2,122.5c-7.467,0.867-13.3,1.533-17.5,2c-1.933,0.2-4.767,1.167-8.5,2.9
		c-3.2-4.333-5.433-8.533-6.7-12.6c-1.5-4.6-3-15.4,0.2-21.7c2.2-4.2,14.367-9.067,36.5-14.6L85.2,122.5z"/>
	<path id="Layer_58" style="fill:#839091;" d="M93.7,77l-3.5,43.9l-23.9,3.9c-1-4.333-1.433-7.933-1.3-10.8
		c0.8-14.133,2.467-24.1,5-29.9L93.7,77z"/>
	<path style="fill:#030609;" d="M200.3,160.8l-6.4,17.7c-12.4,14.067-26.967,23.533-43.7,28.4c-16.8,4.867-34.933,5.467-54.4,1.8
		L27,176.2c0.733-5.933,2.767-11.667,6.1-17.2c5-8.3,15.9-29.3,28.5-33c8.4-2.533,17.6-3.7,27.6-3.5L200.3,160.8z"/>
	<path id="Layer_55" style="fill:#D8DEDC;" d="M186,172.2c-15.333,26-42.1,37.233-80.3,33.7c-16.6-1.6-41.933-12.333-76-32.2
		c3.667-4.733,5.833-8.467,6.5-11.2c1.1-4,2.4-7.2,6.5-9.5c4.1-2.4,9-6.9,11.7-8.8c4.8-3.5,4.6-9.7,7.2-10.4
		c4.267-1,12.3-1.933,24.1-2.8L186,172.2z"/>
	<g id="Layer_56">
		<path style="fill:#687476;" d="M125,174h63.5c-4.333,6.133-11.3,12.2-20.9,18.2s-16.4,9-20.4,9c-3.333,0-8.6-2.067-15.8-6.2
			c-9.6-5.533-15.733-10.467-18.4-14.8L125,174z"/>
		<path style="fill:#839091;" d="M91,129.6l14.8,30.1l-20.1,6.9c-5.8-7.667-9.533-12.967-11.2-15.9
			c-1.667-2.933-4.267-8.867-7.8-17.8L91,129.6z"/>
	</g>
	<ellipse style="fill:#030609;" cx="153.3" cy="114" rx="74" ry="75.8"/>
	<g id="Layer_45">
		<ellipse style="fill:#D8DEDC;" cx="154.6" cy="112.8" rx="67.6" ry="69.3"/>
		<g id="Layer_49">
			<path style="fill:#FFFFFF;" d="M183.5,52.7c9.067,4.133,15.9,10.033,20.5,17.7c-0.533,1.933-7.367,4.033-20.5,6.3
				c-4.667,0.8-8.933,1.4-12.8,1.8c0.067-5.467-0.5-10.667-1.7-15.6c-1.867-7.467-3.867-12.033-6-13.7
				C169.6,48.333,176.433,49.5,183.5,52.7z"/>
			<g id="Layer_46">
				<path style="fill:#030609;" d="M96.6,73.3c23.133,6.6,44.367,9.567,63.7,8.9c19.333-0.667,37.033-3.633,53.1-8.9
					c6.533,14.4,10.433,25.267,11.7,32.6c1.267,7.333,0.3,16.633-2.9,27.9c-16.333,16.667-38.9,24.3-67.7,22.9
					c-35.8-1.733-58.633-11.267-68.5-28.6c-2.6-15.467-2.7-27.133-0.3-35C88.1,85.167,91.733,78.567,96.6,73.3L96.6,73.3z"/>
				<g id="Layer_47">
					<path style="fill:#173D3E;" d="M107.9,98.9c5.7,1.4,15.8-0.4,20.1,1.3c4.2,1.8,11.7,12.8,16.3,14.4c4.6,1.5,11.7-5.4,14-5
						c2.3,0.3,1.9,4.4,4.9,6.6c1.2,0.9,3.2,1.9,7.3,3c3.067,0.867,6.233,1.867,9.5,3c-20.333,11.667-40.3,15.533-59.9,11.6
						c-19.6-3.867-30.067-8.267-31.4-13.2c-0.467-4.667-0.3-10.367,0.5-17.1c0.667-5.133,1.7-9.567,3.1-13.3
						C98.967,95.067,104.167,97.967,107.9,98.9z"/>
					<g id="Layer_48">
						<path style="fill:#276A69;" d="M88.5,115c2.733-0.6,5.167-0.2,7.3,1.2c3.1,2.1,14.7,9.3,18.7,10.8s24.9-0.2,26.8-1.5
							c1.2-0.933,3.1-1.7,5.7-2.3c3.333,2.733,5.933,4,7.8,3.8c2.7-0.4,6,1.2,9.9-1.3c4-2.5,6-5.6,8.8-5.6c2.7,0,5.9,1.8,8,2.1
							c6.5,1.1,8.2-1.5,11-0.5s4.2,1.5,8.8,1.3c3.067-0.2,9.033-0.833,17.9-1.9c1.6,4.467-3.533,11.333-15.4,20.6
							c-6.3,4.9-19.3,12-55,12c-5.8,0-27.9-1.1-46-14.5C91.4,130.867,86.633,122.8,88.5,115z"/>
						<g id="Layer_52">
							<path style="fill:#388688;" d="M134,126.8c4.467-0.467,8.567-2.433,12.3-5.9l1.7,2.7c0.133,2.267-0.767,4.267-2.7,6
								c-2.9,2.6-7.3,4.6-12.3,4.2c-3.267-0.2-7.933-2.333-14-6.4C124.4,127.533,129.4,127.333,134,126.8z M161.8,125.9
								c3.6-0.6,6.7-2.7,9.2-5c1.667-1.533,3.9-1.533,6.7,0c-1,0.733-2,1.433-3,2.1c-1.4,1-2.6,1.1-5.2,2.2s-6.6,4.4-13.8,4.4
								c-3,0-5.133-1.6-6.4-4.8c4.267,1.467,8.4,1.833,12.4,1.1L161.8,125.9z"/>
							<path id="Layer_50" style="opacity:0.4;fill:#FFFFFF;enable-background:new    ;" d="M170.5,84.2l20-2.5
								c4.2,14.267,4.833,36.333,1.9,66.2c-4.067,1.267-7.633,2.3-10.7,3.1c-4.6,1.2-8.933,1.867-13,2
								c2.533-7.667,3.633-19.5,3.3-35.5C171.8,105.633,171.3,94.533,170.5,84.2z M210.5,78.2c2.4,2.7,7.5,10.9,8.8,20
								c1.9,14.4,1.3,21.5-0.6,27.8c-2.133,4-4.633,7.1-7.5,9.3c-2.867,2.267-5.433,4.467-7.7,6.6c3.2-5.067,4.467-14.733,3.8-29
								c-0.667-15.133-2.533-26.133-5.6-33L210.5,78.2z"/>
						</g>
					</g>
				</g>
			</g>
		</g>
	</g>
	<path style="fill:#030609;" d="M85.7,166.2c15.733-15.333,28.167-21.9,37.3-19.7c15.3,3.6,14.9,13.9,11.4,24.4
		c-2.333,6.933-15.2,12.7-38.6,17.3L85.7,166.2z"/>
	<g id="Layer_41">
		<path style="fill:#9CA9A8;" d="M89.3,169.5c4-4.667,11.233-8.5,21.7-11.5c15.8-4.5,18.3,4.3,18.4,7.2c0.2,3-1.4,7.2-6.4,8.8
			c-3.333,1.067-11.567,3.8-24.7,8.2L89.3,169.5z"/>
		<g id="Layer_42">
			<path style="fill:#515C5C;" d="M89.3,168.2l4.2-2.3c3.933,4.6,6.6,6.867,8,6.8c4.2-0.1,9.3,0.4,9.5-0.5c0.2-0.6,0.867-2.7,2-6.3
				c-0.133,2.8-0.133,4.5,0,5.1c0.2,0.9,9.1-0.2,11.3-1.3c2-1,3.7-2.5,5.1-4.5c0.2,3.2-0.533,5.367-2.2,6.5
				c-3.6,2.6-13.233,6.1-28.9,10.5L89.3,168.2z"/>
			<g id="Layer_43">
				<path style="fill:#DAE0DF;" d="M116.3,159.4c1-0.3,6.2-0.7,7.7,0c1,0.467,1.633,1.5,1.9,3.1c-0.8-0.733-1.767-1.433-2.9-2.1
					C122.067,159.867,119.833,159.533,116.3,159.4z M111.8,167.2l-1.5,4.2c-0.267,0.867-2.367,1.067-6.3,0.6
					c2.467-0.2,4.233-0.8,5.3-1.8C110.433,169.267,111.267,168.267,111.8,167.2z"/>
				<g id="Layer_31">
					<path style="fill:#030609;" d="M69,250.7c-0.1,2.8,0,7.5-3.3,9.3c-3.2,1.7-31,3.2-36.5-2.8c-5.4-6-15.4-25.5-17.2-36.5
						c-1.2-7.3-2-20.5,4-22.2c4-1.2,8.067-0.833,12.2,1.1c-3.933-5.933-5.9-11.4-5.9-16.4c0-3.6,1.3-9.5,5.9-10.5
						c3.067-0.667,9.333-0.167,18.8,1.5c-2-7.2-2-12.2,0-15c6-8.5,22.5-7.2,27-6c4.5,1.3,39.8,37,42,46.4c1.4,5.7-2.3,21.4-6.7,24
						c-1.867,1.133-6.1,2.1-12.7,2.9c4.2,8,4.2,13.4,0,16.2c-4.267,2.867-13.467,2.867-27.6,0L69,250.7L69,250.7z"/>
					<g id="Layer_32">
						<path style="fill:#9CA9A8;" d="M50,176.2c-1.2-6.867-0.7-11.033,1.5-12.5c3.2-2.3,12-2.7,16.5-2.2s5.1,8,11.5,12.2
							c11,7.3,24,25.3,25.5,28.8s0.3,6,0,8.5s-12.5,6.6-16,3.7c-1.4-1.1-7.2-8.4-12-12.2c-4.667-3.8-9.1-6.567-13.3-8.3
							c7,7.8,10.933,12.567,11.8,14.3c1.3,2.6,4.1,10.2,7,12.2s10.1,7.8,11.2,8.6c1.1,0.9,1.6,8.9,1.1,10.4c-1.8,2-15.3-4.6-17.3-5
							c-2-0.3-7.2-1.2-11.7-2.5c-3.067-0.8-10.5-7.8-22.3-21c2.733,8.867,5.333,14.9,7.8,18.1c3.6,4.8,6,12,9.2,12
							c4.5,0,3.8,9.2,1.7,10.9c-2.2,1.8-18.3,1.4-24.7-1.5c-4.7-2.1-24.5-46.5-19-48.2c7-2.3,11.8-1,14.2,1.3
							c1.533,1.533,3.133,3.1,4.8,4.7c-6.867-19.067-8.367-28.833-4.5-29.3c4.467-0.533,9.4-0.933,14.8-1.2l1.5,4.7l0.5-4.2l3.2,1
							L50,176.2z"/>
						<g id="Layer_33">
							<path style="fill:#515C5C;" d="M23.4,201.4c-2,2.533-2.367,5.567-1.1,9.1c2,5.2,5.4,15,7.7,18.8c2.3,3.9,9.2,16.4,10.8,18.5
								c1,1.467,2.4,3.067,4.2,4.8c-2.867-0.267-5.367-0.9-7.5-1.9c-4.1-1.8-16.2-25.1-19-38.5c-1.3-6.3-1.5-8.9,0-9.7
								C21.033,201.167,22.667,200.8,23.4,201.4L23.4,201.4z"/>
							<g id="Layer_34">
								<path style="fill:#515C5C;" d="M45,252.6c4.667-3,7.6-5.133,8.8-6.4c1.667-1.867,3.4-3.667,5.2-5.4
									c2.667,0.267,4.333,0.9,5,1.9c1,1.5-0.4,8.9-1.8,9.5c-2.4,1.1-5.1,1.3-6.9,1.4C51.433,253.733,48,253.4,45,252.6z"/>
								<g id="Layer_35">
									<path style="fill:#515C5C;" d="M46.4,219.6c0.9,3,3.7,7.6,6.1,11.6c2.533,4.267,4.233,7.033,5.1,8.3
										c-8.2-7-12.9-12.667-14.1-17c-1.2-4.333-1.2-8.1,0-11.3C44.033,211.733,45,214.533,46.4,219.6z"/>
									<g id="Layer_36">
										<path style="fill:#515C5C;" d="M93.7,229.3c1.6,2.9,2.3,7.7,1,10.4c-0.8,1.867-6.533,0.2-17.2-5
											c1.6-1.333,3-3.133,4.2-5.4c3.2-5.7,3.2-5.7,3.5-6.6C89.733,225.233,92.567,227.433,93.7,229.3z"/>
										<g id="Layer_37">
											<path style="fill:#515C5C;" d="M73.7,205.9c2.533,3.533,5.033,8.067,7.5,13.6c-6.333-4-11-8.533-14-13.6
												c-2.333-4.067-4-8.633-5-13.7C67.933,198.667,71.767,203.233,73.7,205.9z"/>
											<g id="Layer_38">
												<path style="fill:#515C5C;" d="M85.7,211.2c3.2-0.733,6.433-2.033,9.7-3.9c4.267-2.4,7.267-4.4,9-6
													c1.8,2.667,2,5.9,0.6,9.7c-1.4,3.5-11.3,7.2-16,3.7C87,213.233,85.9,212.067,85.7,211.2z"/>
												<path id="Layer_39" style="fill:#DAE0DF;" d="M54.5,174c-0.867-6.6,0.733-10.367,4.8-11.3c4-0.867,8.133,0.567,12.4,4.3
													c-4.533-1.2-7.9-1.633-10.1-1.3C59.467,166.033,57.1,168.8,54.5,174z M37,185c-0.667,2-0.333,7.833,1,17.5
													c-5.2-12.4-6.467-19.4-3.8-21c3.2-1.933,6.8-1.933,10.8,0C40.333,181.833,37.667,183,37,185z M26.8,205.3
													c-1.133,0.533-2,2.5-2.6,5.9c-1.667-5.8-1.333-8.7,1-8.7c3.667-0.067,6.3,1.533,7.9,4.8c-2.133-2.333-4.267-3-6.4-2
													H26.8z"/>
											</g>
										</g>
									</g>
								</g>
							</g>
						</g>
					</g>
				</g>
			</g>
		</g>
	</g>
</g>
</svg>
