<?xml version="1.0" encoding="utf-8"?>
<!-- Generator: Adobe Illustrator 26.5.0, SVG Export Plug-In . SVG Version: 6.00 Build 0)  -->
<svg version="1.1" id="_图层_1" xmlns="http://www.w3.org/2000/svg" xmlns:xlink="http://www.w3.org/1999/xlink" x="0px" y="0px"
	 viewBox="0 0 360.5 380.1" style="enable-background:new 0 0 360.5 380.1;" xml:space="preserve">
<style type="text/css">
	.st0{fill:#111013;}
	.st1{fill:#4E5A59;}
	.st2{fill:#8743E4;}
	.st3{fill:#8543E2;}
	.st4{fill:#F0CD9E;}
	.st5{fill:#F900F5;}
	.st6{fill:#91E8F0;}
	.st7{fill:#F1CE9F;}
	.st8{fill:#020202;}
	.st9{fill:#131318;}
	.st10{fill:#F7F6F9;}
	.st11{fill:#4B195B;}
	.st12{fill:#070707;}
	.st13{fill:#332D31;}
	.st14{fill:#FCFCFC;}
</style>
<g id="ZDYv7h.tif">
	<g>
		<g>
			<path class="st0" d="M287.8,62.1c-0.4,0.1-0.6,0.4-0.7,0.8c-2,7.5-7,12.3-14,15.3c-1.4,0.6-1.6,1.3-1.3,2.6
				c6.2,25,6.4,50.4,6.5,75.9c0,8.5,0,17.1,0.3,25.6c0.2,6.9,0,13.9,0.8,20.8c1.1,9.7,1.5,19.4,1.8,29.2c0.7,20.1,0,40-5.5,59.5
				c-3.7,13-9.1,25.2-18.7,35c-1.5,1.5-0.8,2,0.4,2.9c4.6,3.6,8.7,7.8,11.1,13.3c2.5,5.7,1.2,9.3-4.8,13.6c-4.3,3.1-8,2.8-12.4-1.1
				c-1.9-1.7-3.5-3.8-5.3-5.7c-1.8-2-3.6-4-5.5-5.9c-1.8-1.8-3.5-2.3-6.3-0.9c-17.5,8.8-36.4,12.1-55.7,12.7
				c-21,0.7-41.6-1.7-61.3-9.6c-2.8-1.1-5.4,0.4-7.9,1.7c-3.9,2-7,5-10.3,7.8c-2.5,2.1-5.1,4-8.1,5.3c-3.4,1.4-6.2,0.7-8.5-2
				c-0.4-0.5-0.8-1.1-1.3-1.5c-4.5-2.9-5.8-7.8-3.5-12.6c2-4.1,5.5-6.8,8.9-9.6c1.9-1.5,3.8-2.9,5.9-4.4
				c-5.9-5.5-10.6-11.6-14.2-18.7c-5.5-10.7-8-22.3-9.1-34.2c-1.7-17.8-0.8-35.6,1.2-53.3c2.8-25.1,1.2-50.1-1-75.1
				c-1.6-18.5-2.7-37.1,0.2-55.6c0.5-3.1,1.1-6.2,1.8-9.3c0.3-1.4,0.2-2-1.3-2.5c-1.9-0.8-3.8-1.8-5.6-3
				C54.5,72.3,52.3,60,59.3,49.1c7.5-11.7,21.6-15.6,33.9-9.1c1.9,1,3.1,1,4.9-0.4c11.8-9.5,25.7-14.4,40.3-17.7
				c8.5-1.9,17.1-3,25.8-3.9c0.5-0.1,1.2,0.2,1.4-0.7c1,0,1.9,0,2.9,0c3.3,0.9,6.5,0.9,9.8,0c2.3,0,4.6,0,6.9,0
				c0.2,0.8,0.9,0.6,1.4,0.6c4.8,0,9.5,0.7,14.3,1.3c16.2,2.1,31.4,6.6,44.5,16.9c1.6,1.2,2.6,1.4,4.4,0.3
				c15.2-8.6,32.1-1.6,37.2,15.2c0.3,0.8,0,2,1,2.5C287.8,56.8,287.8,59.5,287.8,62.1z M279.6,241.4c0-0.9,0-1.7,0-2.6
				c-0.5-15.8-1.6-31.6-2.5-47.3c-1-18.1-0.6-36.2-0.9-54.3c-0.3-21.3-2.1-42.4-8-63c-6.4-22.4-20.3-38-41.8-46.7
				c-13-5.3-26.8-7-40.6-7.8c-20.2-1.2-40.1,1.4-59.4,7.4C97.1,36,79.6,55.7,73,85.5c-4.1,18.6-3.9,37.3-2.5,56c1.4,19,3.9,38,3,57
				c-0.7,15.7-2.2,31.3-3,47c-0.8,14.7-0.8,29.5,1.9,44.1c4.2,22.6,16,39.8,36.4,50.8c12.1,6.5,25,10.3,38.6,12.1
				c24.6,3.3,48.8,2.3,72.6-5.3c27.3-8.8,45.5-26.4,53.4-54.4C278.3,276,279.5,258.8,279.6,241.4z M262.8,34.6
				c-4.4,0-8.5,1.3-12.3,3.4c-1.3,0.7-1.6,1.3-0.4,2.5c2.1,2.1,4.1,4.3,6,6.5c0.9,1.1,1.6,1.2,2.9,0.9c3.7-0.8,6.3,0.4,8.1,3.4
				c1.9,3.2,1.8,6-0.6,9c-0.6,0.8-1.2,1.3-0.7,2.5c1.5,4.2,2.9,8.5,4.3,12.8c0.4,1.3,1,1.7,2.3,1.1c4.8-2.2,8.9-5.2,11.4-10
				C290.9,53,278.9,34.6,262.8,34.6z M57.1,58.9C56.8,72.2,64,77.9,70.9,80.9c1.3,0.6,1.7-0.3,2-1.3c0.8-2.6,1.4-5.2,2.5-7.6
				c0.9-2.1,0.5-3.2-1.4-4.4c-4-2.6-5-5.7-3.7-9.2c1.9-5.1,6-6.6,11.7-4.3c1.5,0.6,2.3,0.7,3.3-0.8c2.2-3.3,4.8-6.2,7.7-8.9
				c1.2-1.1,1.2-1.7-0.3-2.4C84.9,38,77.1,37.6,69.4,42C61.7,46.5,57.4,53.3,57.1,58.9z M80.9,355.3c1.1-2.7,2.6-5.1,4.2-7.5
				c0.4-0.7,0.6-2.2,2-1.3c1.2,0.8,0,1.7-0.4,2.4c-0.8,1.4-1.8,2.7-2.5,4.2c-0.8,1.5-1.7,3.1-0.2,4.7c1.5,1.6,3.2,2.3,5.4,1.6
				c2.3-0.8,4.3-2.1,6.2-3.5c5.3-4.1,9.9-9.2,16.9-11.5c-5.1-2.6-9.6-5.1-13.8-8.1c-5.1-3.7-5.1-3.7-10.3,0.1
				c-3.6,2.7-7.2,5.4-9.3,9.5C77.4,349.4,78.1,352.7,80.9,355.3z M239.4,340.6c3.7,2.7,6.3,5.8,8.9,9c1.8,2.2,3.7,4.4,6.2,6
				c2.3,1.5,4.6,1.7,7,0.3c1.1-0.6,1.5-1.3,0.9-2.6c-1-2.1-1.6-4.5-3.1-6.5c-0.5-0.7-1.3-1.4-0.2-2.2c1.2-0.7,1.4,0.6,1.9,1.2
				c1.7,2.3,2.3,5.1,3.7,7.7c3-2.4,3.5-5.3,2.3-8.6c-2.3-6.1-7-10.4-11.9-14.4c-0.8-0.6-1.3-0.5-2,0.1
				C249,334.4,244.4,337.5,239.4,340.6z"/>
			<path class="st1" d="M178.2,17.3c-3.3,0.9-6.5,0.9-9.8,0C171.7,17.3,174.9,17.3,178.2,17.3z"/>
			<path class="st2" d="M279.6,241.4c-0.2,17.4-1.3,34.5-6.1,51.4c-7.9,28-26.1,45.6-53.4,54.4c-23.7,7.6-48,8.6-72.6,5.3
				c-13.6-1.8-26.5-5.6-38.6-12.1c-20.5-10.9-32.2-28.1-36.4-50.8c-2.7-14.6-2.7-29.3-1.9-44.1c0.8-15.7,2.3-31.3,3-47
				c0.8-19.1-1.6-38-3-57c-1.4-18.8-1.6-37.5,2.5-56c6.6-29.8,24.1-49.5,53.3-58.5c19.4-5.9,39.2-8.5,59.4-7.4
				c13.9,0.8,27.6,2.5,40.6,7.8c21.5,8.7,35.4,24.3,41.8,46.7c5.9,20.6,7.7,41.7,8,63c0.3,18.1-0.1,36.2,0.9,54.3
				c0.9,15.8,2,31.5,2.5,47.3C279.7,239.7,279.6,240.6,279.6,241.4z M152.3,101.9L152.3,101.9c-0.2,0.2-0.4,0.4-0.6,0.6l0-0.1
				c-0.3,0.5-1.4,1,0,1.4l0,0.1c-1.8-1.1-1.7,0.7-2.3,1.5c-0.2,0.3-0.4,0.7-0.6,1l0,0.1c-0.1,0.1-0.2,0.1-0.2,0.2
				c0,0.1,0.1,0.3,0.1,0.4l-0.1-0.1c-0.1,0.2-0.2,0.5-0.4,0.7c-0.3,0.1-0.3,0.3-0.2,0.6c-0.2,0.5-0.3,1-0.5,1.6
				c-0.7,1.4-0.7,2.7,0,4.1c0.2,0.5,0.3,1,0.5,1.6c0,0.1-0.1,0.2-0.1,0.2c0.1,0.1,0.2,0.2,0.3,0.4c0.2,0.4,0.4,0.8,0.5,1.1
				c0.2,0.7,0.5,1.3,1.2,1.7l0.1,0.2c0.1,0.2,0.3,0.3,0.4,0.5c1.1,1,2.3,2,4,1.9c0.3,0.3,0.7,0.4,1.1,0.2c0.1,0.1,0.2,0.2,0.3,0.2
				c0,0.2-0.1,0.5-0.1,0.7c-0.3,2.8-0.3,5.5,0.3,8.3c0.3,1.4,0.8,1.8,2.1,1.2c4,0,8,0,12,0c0.9,0.4,1.7,0.3,2.6,0
				c4,0,7.9,0,11.9-0.1c1.9,0.9,1.9-0.4,1.8-1.7c-0.1-2.9-0.3-5.7-0.5-8.6c0.3-0.1,0.6-0.2,0.8-0.3c0.5,0.2,1,0.3,1.5,0.5
				c0.3,0.3,0.7,0.5,1.1,0.2c0.4,0,0.8,0,1.2,0c0.4,0.3,0.8,0.1,1.1-0.2c1.6-0.1,2.8-0.9,3.9-2c0.8-0.2,1.3-0.8,1.5-1.6
				c1.1-1.1,1.8-2.4,2-4c0.7-1.1,0.7-2.3,0-3.4c-0.4-2-1.3-3.8-2.9-5.2c-0.4-1-1.2-1.5-2-2.1c-0.3-0.3-0.7-0.5-1-0.8
				c-0.3-0.7-0.9-1-1.6-1.2c-1.5-1.4-3.3-2.2-5.1-2.9c-0.5-1.1,0.2-2.4-0.6-3.5c-0.3-2.3-1.7-3.8-3.6-4.9
				c-5.2-3.2-10.8-3.2-16.5-1.3c-4.5,1.5-7.3,4.6-7.9,9.5c0,0.2-0.2,0.3-0.4,0.4c-1.8,0.2-3.3,1-4.8,2.1l0.1,0
				C152.9,101.4,152.6,101.6,152.3,101.9z M201.1,251.2c0.2-2.1,0.4-4.2,0.5-6.2c0.3-7-1-13.9-0.6-20.9c0-6.9,0.1-13.8,0.1-20.7
				c2.5,0.1,3.5,2.3,5.1,3.7c7,6,14.5,10.8,23.8,12.5c9.7,1.8,18-0.3,24.8-7.6c0.6-0.6,1.7-1.2,0.5-2.3c-0.8,0.7-1.7,1.5-2.4,2.2
				c-7.4,7-16,8.1-25.6,5.6c-10.3-2.7-18-9.4-25.6-16.3c-0.7-0.6-1-1.7-2.2-1.6c-0.1-0.6-0.1-1.1-0.2-1.7c0-0.4,0.1-0.7,0.1-1.1
				c3.8-3.3,7.7-6.5,11.5-9.8c1.2,1.9,3.4,0.9,5.1,1.7c6.3,3,12.9,4.4,19.9,4.2c0.8,0,2,0,2-1.1c0-1.2-1.2-0.9-2-0.9
				c-4.7,0.1-9.3-0.3-13.9-1.3c-3.8-0.8-6.3-3.8-10-4.5c-1-1.1-2-2.1-2.9-3.2c-1.9-2.9-4.2-5.2-7.4-6.7c-1.1-0.5-2.5-1.1-1.9-2.9
				c-0.1-0.1,0-0.2,0.1-0.3c0.5-0.1,1.2-0.3,1-0.8c-0.8-2.8,0.5-5.6,0.2-8.4c0.7-2.4,1.5-4.8,3.5-6.4c0.3-0.9,1.3-1.6,1.1-2.7
				c0.7-1,2.1-2-0.1-2.9c-0.2,0-0.3,0-0.5-0.1c-0.4-0.1-0.8-0.2-1.3-0.3c-3.5-1.8-7.3-1.7-11-2.3c-1.8-0.3-3.7-1.2-5.6-0.2
				c-2.5,0.3-4.9-1.2-7.4-0.5c-8.9-0.6-17.7,0.5-26.4,2.2c-3.3,0.7-6.9,0.9-9.4,3.5c-2.3,2.3-2.1,4.7,0.4,6.6
				c1.1,0.8,2.4,1.5,3.6,2.3c1.8,1.2,3.3,2.6,3.2,5c0,0.8,0.1,1.6-1.2,1.3c-3.8-0.7-6.2,1.6-8.5,4.1c-2.8,3.1-4.1,7.1-6.3,10.5
				c-0.5,0.8-0.5,1.7,0.8,1.8c1.7,4.8,4.2,9.1,7.1,13.2c0.9,1.9,0.2,3-1.4,4.2c-6.1,4.5-12.8,7.9-19.5,11.3
				c-3.2,1.6-6.9,2.7-10.7,2.8c-7.4,0.2-13.6-2.4-17.9-8.6c-0.8-1.6-1.2-3.4-2.7-5.1c0.3,2.6,0.6,4.6,2.2,6.1
				c3.3,5.4,8.3,8.1,14.3,8.8c7.5,0.9,14.2-1.5,20.6-5.3c7.7-4.5,16-8.1,21.5-15.6c0.4-0.6,1.1-1.1,2-1c0.1,0.4,0.1,0.8,0.2,1.2
				c-0.2,7-0.3,14.1-0.5,21.1c-0.2,5.8,0.5,11.6-0.6,17.3c-0.1,5.1-1.2,10.2-0.6,15.2c0.3,2.9-0.2,6.3,2.8,8.3l0,0
				c0,0.4,0.2,0.6,0.6,0.6l0,0c-0.3,4.6,7.3,11.7,12.4,11.5c1.8-0.1,3.3,1.6,5.2,1.1l-0.1,0c0.1,0.2,0.3,0.3,0.4,0.5
				c4.2,1.2,8.1,0.9,11.9-1.4c2.2-0.1,3.9-1.6,6-1.9c0.1-0.2,0.3-0.3,0.4-0.5l0,0c3.5-0.2,6.6-3.4,8-8.4c0.5-1.3,1-2.6,1.5-3.9
				C200.5,254.8,200.9,253.1,201.1,251.2z M130.5,39.5c-2.7,0.1-5.4,0.2-8,0.9c-1.8,0.5-3.7,0.9-5.5,1.6
				C92.9,50.5,91,78.6,105.7,92.1c9.8,9,21.4,10.3,33.8,6.8c17.2-4.8,26.1-20.4,21.7-37.6C157.8,48,145.8,39.5,130.5,39.5z
				 M211.3,36.2c-7.4,0-13.9,1.8-20.1,5.7c-19.2,11.9-20,38.3-1.4,50.2c9.2,5.9,19.2,6.5,29.5,3.7c8.5-2.3,15.4-7,19.9-14.8
				C248,65.9,240.1,36,211.3,36.2z M135.5,187.7c-0.7-1.8-2.3-2-3.4-1.6c-5.4,2.2-11,1.1-16.5,1.3c-1.4,0.1-2.6,0.3-3.8,1
				c-0.6,0.4-1.8,0.6-1.5,1.5c0.3,1.1,1.4,0.6,2.2,0.6C120.2,189.7,127.8,189.4,135.5,187.7z"/>
			<path class="st3" d="M262.8,34.6c16.1,0,28.1,18.3,21,32.1c-2.5,4.8-6.6,7.8-11.4,10c-1.3,0.6-1.9,0.2-2.3-1.1
				c-1.4-4.3-2.7-8.6-4.3-12.8c-0.4-1.2,0.1-1.7,0.7-2.5c2.3-3,2.5-5.8,0.6-9c-1.8-3-4.4-4.2-8.1-3.4c-1.3,0.3-2.1,0.1-2.9-0.9
				c-1.9-2.3-3.9-4.5-6-6.5c-1.2-1.2-1-1.8,0.4-2.5C254.3,35.9,258.4,34.6,262.8,34.6z"/>
			<path class="st3" d="M57.1,58.9c0.3-5.6,4.6-12.4,12.3-16.9c7.6-4.4,15.5-4,23.3-0.1c1.5,0.7,1.5,1.3,0.3,2.4
				c-2.9,2.6-5.5,5.6-7.7,8.9c-1,1.5-1.8,1.4-3.3,0.8c-5.7-2.3-9.8-0.7-11.7,4.3C68.9,61.9,70,65,74,67.6c1.9,1.2,2.3,2.3,1.4,4.4
				c-1.1,2.4-1.7,5.1-2.5,7.6c-0.3,1-0.6,1.8-2,1.3C64,77.9,56.8,72.2,57.1,58.9z"/>
			<path class="st4" d="M80.9,355.3c-2.8-2.6-3.4-5.9-1.7-9.4c2.1-4.2,5.7-6.9,9.3-9.5c5.1-3.8,5.2-3.8,10.3-0.1
				c4.2,3,8.6,5.5,13.8,8.1c-7,2.3-11.6,7.5-16.9,11.5c-1.9,1.5-3.9,2.7-6.2,3.5c-2.2,0.7-3.9,0-5.4-1.6c-1.5-1.6-0.7-3.2,0.2-4.7
				c0.8-1.4,1.7-2.7,2.5-4.2c0.4-0.7,1.6-1.6,0.4-2.4c-1.3-0.9-1.5,0.6-2,1.3C83.5,350.2,82,352.6,80.9,355.3z"/>
			<path class="st4" d="M239.4,340.6c5-3.1,9.6-6.2,13.7-9.9c0.7-0.6,1.2-0.8,2-0.1c4.8,4.1,9.5,8.3,11.9,14.4
				c1.2,3.3,0.7,6.2-2.3,8.6c-1.4-2.6-2-5.4-3.7-7.7c-0.4-0.6-0.7-1.9-1.9-1.2c-1.1,0.7-0.3,1.5,0.2,2.2c1.4,2,2,4.3,3.1,6.5
				c0.6,1.2,0.2,2-0.9,2.6c-2.4,1.4-4.7,1.2-7-0.3c-2.4-1.6-4.3-3.7-6.2-6C245.7,346.4,243.1,343.3,239.4,340.6z"/>
			<path class="st5" d="M171.1,271.9c-1.9,0.5-3.4-1.2-5.2-1.1c-4.7-3.2-9.4-6.4-12.4-11.5c0,0,0,0,0,0c0-0.3-0.1-0.7-0.6-0.6
				c0,0,0,0,0,0c0.3-1,0.1-2-0.4-2.8c-1.3-2.4-1.1-4.9-1.3-7.5c-0.3-4.3,0.3-8.5,0.6-12.7c0.1-1.4,0.2-2.7,0.3-4.1
				c1-2.8,0.7-5.7,0.5-8.6c0.1-4.2,0.2-8.3,0.4-12.5c1.5,0.1,3,0.2,4.5,0.3c1.2,0.4,2.6,0.7,3.7,1.3c3.1,1.8,6.4,2.2,9.8,2.1
				c0.8,0,2,0.4,2.3-1c0.1-0.1,0.2-0.1,0.4-0.1c0.6,0.1,1.3,0.3,1.9,0.1c4.5-1.1,9-2.3,13.5-3.4c3.4,0,6.8,0.1,10.2,0.1
				c0.8,3.5,0.6,7,0.7,10.5c0.3,8.7,0.4,17.3,0.7,26c-0.1,1.3-0.2,2.6-0.4,3.8c-1.3,1.7-1.3,3.7-1.1,5.8c-0.5,1.3-1,2.6-1.5,3.9
				c-2.7,2.8-5.3,5.6-8,8.4c0,0,0,0,0,0c-0.1,0.2-0.3,0.3-0.4,0.5c-2.1,0.3-3.8,1.8-6,1.9c-3.9,1.2-7.9,1-11.9,1.4
				C171.3,272.2,171.1,272,171.1,271.9c-0.1,0,0-0.1,0-0.1L171.1,271.9z"/>
			<path class="st6" d="M151.8,196.7c-0.1-0.4-0.1-0.8-0.2-1.2c0.3-1.6,1.6-2.3,2.5-3.4c3.5-4.1,6.1-8.5,5.9-14.1
				c-0.1-3-1.2-5.1-4.3-6c-2.1-0.6-3.1-1.8-2.6-4.2c0.7-2.9,0.2-5.5-3-6.9c-1.3-0.6-2.2-1.7-3.2-2.8c-2.2-2.4-2-4,0.8-5.9
				c5.6,0,11.2-0.1,16.7-0.1c3.6,0.1,7.2,0.1,10.8,0.2c3.7,0.9,7.3,0.6,11.3,0.6c-0.3-0.3-0.4-0.4-0.4-0.5c-2-0.2-3.9-0.7-6.2-0.2
				c-1.5,0.3-3.3-1.5-5.3-0.9c-0.7,0-1.5-0.1-2.2-0.1c-1.1-0.4-2.2-0.3-3.4-0.4c-2.9-0.3-6,0.8-8.9-0.8c0.2-0.5,0.7-0.5,1.2-0.5
				c6.3-1,12.7-0.6,19-0.7c1.8-0.1,3.7-0.2,5.5-0.3c1.2,0.6,2.6,0.4,3.9,0.6c3.8,0.6,7.7,0.5,11.2,2.2c-0.2,0-0.4,0.1-0.5,0.2
				c-1.4,0.7-2.8,0.3-4.2,0.3c-1.9,0.1-3.9-0.1-5.9,1c3.8,0.5,7.2-0.1,10.7-0.6c0.4-0.1,0.8-0.1,1.2-0.2c0.4,0,0.9-0.1,1.3-0.1
				c0.2,0,0.5,0,0.7,0c1.5,1.4-0.3,3,0.3,4.4c-2,1.7-2.7,4.1-3.5,6.4c-2,2.8-2.4,5.9-1.2,9.2c-0.1,0.1-0.1,0.2-0.1,0.3
				c-0.5,1.5-1.3,2-2.9,1.2c-2.5-1.3-5.4-1.2-8.1-1c-5,0.4-7,2.2-7.8,7.2c-0.1,0.9-0.8,1.5-1.2,2.2c-2,3-1.9,5.9,0.6,8.5
				c1.4,1.6,3.1,2.7,5.1,3.6c4.4,2.1,9.2,2.9,13.9,3.8c0.1,0.6,0.1,1.1,0.2,1.7c0.2,1.1,0.4,2.3,0.6,3.4c0,1.3-0.3,2.6-0.1,3.9
				c0.2,1.6-0.6,2.1-1.9,2.5c-3,0-6.1,0.1-9.1,0.1c-5.2-0.1-9.9,2-14.9,3c-0.2,0-0.4,0.6-0.6,0.9c-0.1,0-0.2,0-0.4,0.1
				c-1.1,0.1-2.1-1.2-3.2-0.6c-2,1-3.6,0.2-5.4-0.5c-2.3-0.9-4.5-2.5-7.1-2.4c-1.5-0.9-3.1-0.2-4.7-0.5c-0.1-3.6-0.2-7.2-0.2-10.8
				C152.7,197.7,152.7,197,151.8,196.7z"/>
			<path class="st7" d="M153.2,101.2C153.2,101.2,153.1,101.3,153.2,101.2c-0.6,1.3-0.3,1.7,1,1c1.2-0.6,2.5-1.2,3.7-1.8
				c1.6,0.5,2.2,2.2,3.7,3c5.9,3.3,19.6,2.3,24-3.4c2.9,1,5.3,3,7.9,4.7c0.4,0.8,1,1.3,1.8,1.8c2.8,3.3,3.7,6.7,1.2,10.6
				c-0.6,0.2-1,0.6-1.1,1.2c-3,2.5-6.2,2.5-9.6,1.1c-2.7-1.1-5.5-2.1-8.3-3.1c-0.6-0.2-2.1-1.1-1.8,0.9c-0.2,0.3-0.4,0.3-0.6,0
				c0.8-1.2-0.2-1.2-0.9-1.3c-2.3-0.3-4.5,0.2-6.7,0.9c-3,0.9-6,1.9-9,2.7c-3,0.8-5.7,0.2-7.7-2.3c-0.2-0.4-0.5-0.8-0.7-1.2
				c-0.4-1.5-0.9-3.1-1.3-4.6c0,0,0.1,0,0.1,0c0.4-1.2,0.7-2.5,1.1-3.7c0.7-1.3,1.9-2.3,2.1-4c0,0,0-0.1,0-0.1c0.8-0.5,0.8-1,0-1.4
				c0,0,0,0.1,0,0.1c0.7,0.3,0.9,0.1,0.6-0.6c0,0-0.1,0-0.1,0C153,102.3,153.3,102,153.2,101.2z"/>
			<path class="st7" d="M210.9,187c-3.8,3.3-7.7,6.5-11.5,9.8c-4.6-2-9.7-2.6-14.1-5c-1.3-0.7-2.6-1.5-3.7-2.7
				c-1.5-1.7-1.5-3.6-0.5-5.6c1.1-2.3,2.5-0.7,3.8-0.4c0.8,0.2,2,0.9,2.4-0.5c0.3-1.1-0.6-1.6-1.6-1.9c-1.1-0.3-2.6-0.4-2.6-2.1
				c0-1.7,1.2-2.5,2.6-3c3.6-1.2,7.1-0.9,10.7,0.1c4.8,1.5,8.8,4.4,12.6,7.6c0.4,0.9,1,1.6,1.9,2C211.6,185.9,210.8,186.4,210.9,187
				z"/>
			<path class="st8" d="M185.6,100.1c-4.4,5.6-18.1,6.7-24,3.4c-1.5-0.8-2.1-2.5-3.7-3c0-0.4,0-0.8,0-1.2c0.1-0.1,0.4-0.3,0.4-0.4
				c0.6-4.9,3.4-8,7.9-9.5c5.6-1.9,11.2-1.9,16.5,1.3c1.8,1.1,3.2,2.7,3.6,4.9c0,1.2,0,2.3,0,3.5C185.7,99.2,185.6,99.6,185.6,100.1
				z"/>
			<path class="st9" d="M130.5,39.5c15.3,0,27.3,8.6,30.7,21.9c4.4,17.2-4.5,32.9-21.7,37.6c-12.4,3.4-24,2.1-33.8-6.8
				C91,78.6,92.9,50.5,117,41.9c1.8-0.6,3.6-1.1,5.5-1.6C125.2,39.7,127.8,39.5,130.5,39.5z M130.6,41.4c-5.6,0-9.8,0.9-14.8,2.9
				c-20.6,8.4-23.4,35.3-7.4,47.9c9.3,7.3,19.9,8.3,31,4.9c9-2.8,16.2-8.1,19.4-17.3C164.9,62.5,154.8,41.5,130.6,41.4z"/>
			<path class="st9" d="M211.3,36.2c28.8-0.2,36.7,29.7,28,44.8c-4.5,7.8-11.4,12.5-19.9,14.8c-10.3,2.8-20.3,2.2-29.5-3.7
				c-18.6-11.9-17.8-38.3,1.4-50.2C197.4,38,203.9,36.2,211.3,36.2z M210.3,95.5c2.1,0.1,5.7-0.6,9.4-1.7
				c11.2-3.2,19.8-12.4,20.9-22.4c1.4-12.5-4.1-24.2-13.9-29.7c-14.5-8.1-35-3-44.1,10.9c-6.8,10.5-5.9,23.6,2.4,32.9
				C191.3,92.6,199.4,95.4,210.3,95.5z"/>
			<path class="st4" d="M143.3,198c-2.9-4.1-5.4-8.5-7.1-13.2c1.8-3.1,3.6-6.3,5.5-9.4c1.2-1.9,2.8-3.7,4.9-4.8
				c1.9-1,3.6-0.6,5.2,0.9c1.7,1.5-0.1,2.3-0.5,3.4c-0.3,0.7-1.2,1.6-0.1,2.2c1.1,0.6,1.7-0.3,2.2-1.2c0.6-0.9,1-2.2,2.6-1.7
				c1.4,0.5,1.8,1.6,2,2.9c0.4,2.9-0.3,5.7-1.7,8.3C153.3,191,148.8,195,143.3,198z"/>
			<path class="st9" d="M143.3,198c5.6-2.9,10-7,13-12.6c1.4-2.6,2-5.4,1.7-8.3c-0.2-1.3-0.6-2.4-2-2.9c-1.6-0.5-2,0.8-2.6,1.7
				c-0.5,0.9-1.1,1.8-2.2,1.2c-1.1-0.6-0.2-1.5,0.1-2.2c0.4-1.1,2.2-1.9,0.5-3.4c-1.6-1.4-3.3-1.9-5.2-0.9c-2.1,1.1-3.6,2.9-4.9,4.8
				c-1.9,3.1-3.7,6.2-5.5,9.4c-1.3-0.1-1.4-1-0.8-1.8c2.2-3.5,3.5-7.4,6.3-10.5c2.3-2.5,4.7-4.8,8.5-4.1c1.3,0.2,1.1-0.6,1.2-1.3
				c0.1-2.4-1.4-3.8-3.2-5c-1.2-0.8-2.5-1.4-3.6-2.3c-2.6-1.9-2.7-4.3-0.4-6.6c2.6-2.6,6.1-2.8,9.4-3.5c0.6,0.9,1.5,0.5,2.2,0.6
				c-0.5,0.6-1.3,1.2,0.4,1.2c5.5,0,10.9,0,16.4,0c0.7,0,1.5,0.1,2.2,0.1c0.2,0.3,0.4,0.7,0.6,1c-3.6-0.1-7.2-0.1-10.8-0.2
				c-5.6-0.5-11.2-0.8-16.7,0.1c-2.8,1.8-3,3.5-0.8,5.9c1,1.1,1.9,2.2,3.2,2.8c3.2,1.4,3.7,4,3,6.9c-0.6,2.4,0.5,3.6,2.6,4.2
				c3.1,0.8,4.2,3,4.3,6c0.3,5.7-2.4,10.1-5.9,14.1c-0.9,1.1-2.3,1.8-2.5,3.4c-0.9-0.1-1.5,0.4-2,1c-5.5,7.5-13.8,11.1-21.5,15.6
				c-6.4,3.7-13.1,6.2-20.6,5.3c-6.1-0.7-11-3.4-14.3-8.8c0-0.4,0.1-0.9,0.6-1c4.4,6.2,10.5,8.8,17.9,8.6c3.8-0.1,7.5-1.1,10.7-2.8
				c6.7-3.4,13.4-6.8,19.5-11.3C143.5,200.9,144.2,199.8,143.3,198z"/>
			<path class="st10" d="M170.3,132c-4,0-8,0-12,0c-0.9-3.3-1-6.6-0.4-10c4.2-1.3,8.4-2.7,12.8-4.1
				C170.8,122.9,169.9,127.5,170.3,132z"/>
			<path class="st9" d="M209.1,183.2c-3.8-3.2-7.8-6.1-12.6-7.6c-3.6-1.1-7.1-1.4-10.7-0.1c-1.4,0.5-2.6,1.3-2.6,3
				c0,1.7,1.5,1.8,2.6,2.1c1,0.3,1.9,0.8,1.6,1.9c-0.4,1.4-1.5,0.7-2.4,0.5c-1.3-0.2-2.7-1.9-3.8,0.4c-1,2-1,3.8,0.5,5.6
				c1,1.2,2.3,2,3.7,2.7c4.4,2.4,9.5,3,14.1,5c0,0.4-0.1,0.7-0.1,1.1c-4.7-0.9-9.5-1.7-13.9-3.8c-1.9-0.9-3.6-2.1-5.1-3.6
				c-2.4-2.7-2.6-5.5-0.6-8.5c0.5-0.7,1.1-1.3,1.2-2.2c0.7-5,2.8-6.8,7.8-7.2c2.8-0.2,5.6-0.3,8.1,1c1.7,0.8,2.4,0.3,2.9-1.2
				c-0.6,1.8,0.8,2.4,1.9,2.9c3.2,1.5,5.5,3.8,7.4,6.7C209.1,182.3,209.1,182.8,209.1,183.2z"/>
			<path class="st10" d="M175,117.4c0.2,0.3,0.4,0.3,0.6,0c2,1.7,4.6,1.7,6.9,2.8c1.1,0.5,1.9,1,1.9,2.4c0.1,3.1,0.3,6.3,0.4,9.4
				c-4,0-7.9,0-11.9,0.1c-0.1-4.1,0.1-8.1,0.4-12.2C173.4,118.6,173.9,117.9,175,117.4z"/>
			<path class="st9" d="M200.2,202.9c-0.2-1.1-0.4-2.3-0.6-3.4c1.2-0.1,1.6,0.9,2.2,1.6c7.6,6.9,15.2,13.6,25.6,16.3
				c9.5,2.5,18.2,1.4,25.6-5.6c0.8-0.8,1.6-1.5,2.4-2.2c1.2,1.1,0,1.7-0.5,2.3c-6.8,7.3-15.1,9.4-24.8,7.6
				c-9.3-1.7-16.8-6.5-23.8-12.5c-1.6-1.3-2.6-3.6-5.1-3.7C200.8,203.2,200.5,203.1,200.2,202.9z"/>
			<path class="st0" d="M175,117.4c-1,0.5-1.5,1.2-1.6,2.5c-0.3,4.1-0.5,8.1-0.4,12.2c-0.9,0.3-1.7,0.4-2.6,0
				c-0.4-4.6,0.5-9.1,0.4-14c-4.4,1.4-8.6,2.7-12.8,4.1c-0.5,0-0.9-0.1-1.4-0.1c-0.1,0-0.3-0.1-0.4-0.1c-0.1,0-0.3-0.1-0.3-0.2
				c-0.4-0.1-0.8-0.2-1.1-0.2c-1.7,0.1-2.8-0.8-4-1.9c-0.1-0.2-0.3-0.3-0.4-0.5c0,0-0.1-0.2-0.1-0.2c0-0.6-0.2-1.1,0.5-1.5
				c2.1,2.5,4.7,3.1,7.7,2.3c3-0.8,6-1.8,9-2.7c2.2-0.7,4.4-1.2,6.7-0.9C174.8,116.2,175.7,116.2,175,117.4z"/>
			<path class="st0" d="M135.5,187.7c-7.7,1.7-15.3,1.9-22.9,2.7c-0.8,0.1-1.9,0.5-2.2-0.6c-0.3-0.9,0.9-1.1,1.5-1.5
				c1.2-0.7,2.4-1,3.8-1c5.5-0.2,11.1,0.9,16.5-1.3C133.2,185.7,134.8,185.9,135.5,187.7z"/>
			<path class="st0" d="M184.8,132c-0.1-3.1-0.4-6.3-0.4-9.4c0-1.4-0.8-1.9-1.9-2.4c-2.2-1.1-4.9-1.1-6.9-2.8
				c-0.3-2,1.2-1.1,1.8-0.9c2.8,0.9,5.6,2,8.3,3.1c3.4,1.3,6.7,1.4,9.6-1.1c0.7,0.3,0.6,0.9,0.6,1.5c-1.1,1.1-2.3,1.9-3.9,2
				c-0.4,0.1-0.8,0.1-1.1,0.2c-0.4,0-0.8,0-1.2,0c-0.4-0.1-0.8-0.1-1.1-0.2c-0.5-0.2-1-0.3-1.5-0.5c-0.3,0.1-0.6,0.2-0.8,0.3
				c0.2,2.9,0.3,5.7,0.5,8.6C186.7,131.5,186.7,132.8,184.8,132z"/>
			<path class="st0" d="M210.9,187c-0.1-0.6,0.7-1.1,0.1-1.8c0.3-0.1,0.7-0.1,1-0.2c3.7,0.7,6.2,3.7,10,4.5c4.6,1,9.2,1.4,13.9,1.3
				c0.8,0,2-0.3,2,0.9c0,1.1-1.2,1.1-2,1.1c-7,0.2-13.6-1.2-19.9-4.2C214.3,187.9,212.1,188.9,210.9,187z"/>
			<path class="st9" d="M151.8,196.7c0.9,0.3,0.9,1,0.9,1.8c0,3.6,0.1,7.2,0.2,10.8c0,0.4,0.1,0.8,0.1,1.2
				c-0.1,4.2-0.2,8.3-0.4,12.5c-1.8,2.8-0.8,5.7-0.5,8.6c-0.1,1.4-0.2,2.7-0.3,4.1c-0.4-0.2-0.8-0.4-1.2-0.6
				c1-5.7,0.4-11.6,0.6-17.3C151.5,210.8,151.6,203.7,151.8,196.7z"/>
			<path class="st11" d="M200.6,246.6c-0.2-8.7-0.4-17.3-0.7-26c-0.1-3.5,0.1-7.1-0.7-10.5c0.4,0,0.9-0.1,1.3-0.1
				c0.2,4.7-0.5,9.4,0.4,14.1c-0.4,7,0.9,13.9,0.6,20.9C201.3,245.6,201,246.1,200.6,246.6z"/>
			<path class="st12" d="M155.7,150.1c-0.8-0.1-1.7,0.3-2.2-0.6c8.7-1.7,17.5-2.8,26.4-2.2c0.2,0.5,0.4,1,0.6,1.5
				c-6.3,0.1-12.7-0.3-19,0.7c-0.5,0.1-1,0-1.2,0.5C158.7,150.1,157.2,150.1,155.7,150.1z"/>
			<path class="st11" d="M150.7,235.1c0.4,0.2,0.8,0.4,1.2,0.6c-0.2,4.2-0.8,8.5-0.6,12.7c0.2,2.5-0.1,5.1,1.3,7.5
				c0.4,0.8,0.7,1.8,0.4,2.8c-3-2.1-2.5-5.4-2.8-8.3C149.5,245.3,150.6,240.2,150.7,235.1z"/>
			<path class="st11" d="M153.5,259.3c3,5,7.6,8.3,12.4,11.5C160.8,270.9,153.2,263.9,153.5,259.3z"/>
			<path class="st11" d="M201.1,151.2c-3.5-1.7-7.4-1.6-11.2-2.2c-1.3-0.2-2.7,0-3.9-0.6c0.5-0.1,1.1-0.1,1.4-0.7
				c1.9-1.1,3.8-0.1,5.6,0.2c3.7,0.6,7.6,0.5,11,2.3C203.1,150.9,202.2,151.3,201.1,151.2z"/>
			<path class="st0" d="M196.5,117.2c2.6-3.9,1.6-7.3-1.2-10.6c0.3-0.5,0.7-0.7,1.3-0.7c1.6,1.4,2.5,3.1,2.9,5.2c0,1.1,0,2.3,0,3.4
				c-0.2,1.5-0.9,2.8-2,4C196.6,118.3,196.6,117.7,196.5,117.2z"/>
			<path class="st12" d="M156.5,121.9c0.5,0,0.9,0.1,1.4,0.1c-0.6,3.4-0.5,6.7,0.4,10c-1.3,0.6-1.8,0.2-2.1-1.2
				c-0.5-2.8-0.6-5.5-0.3-8.3C156.1,122.3,156.3,122.1,156.5,121.9z"/>
			<path class="st1" d="M201,224.1c-0.9-4.7-0.2-9.4-0.4-14.1c-0.5-1.1-1.6-0.3-2.4-0.7c1.2-0.4,2.1-0.9,1.9-2.5
				c-0.2-1.3,0-2.6,0.1-3.9c0.3,0.2,0.6,0.3,1,0.4C201.1,210.3,201,217.2,201,224.1z"/>
			<path class="st11" d="M189.6,268.5c2.7-2.8,5.3-5.6,8-8.4C196.2,265.1,193.2,268.3,189.6,268.5z"/>
			<path class="st0" d="M185.6,100.1c0-0.5,0.1-0.9,0.6-1.2c0.2,0,0.4,0,0.6,0c1.8,0.7,3.6,1.5,5.1,2.9c0.3,0.7,0.8,1.1,1.6,1.2
				c0.3,0.3,0.7,0.5,1,0.8c-0.4,0.3-0.7,0.7-1,1C190.9,103.1,188.6,101.1,185.6,100.1z"/>
			<path class="st11" d="M171.4,272.3c4-0.4,8-0.3,11.9-1.4C179.6,273.2,175.6,273.6,171.4,272.3z"/>
			<path class="st1" d="M200,171.9c-1.2-3.3-0.8-6.3,1.2-9.2c0.4,2.8-1,5.5-0.2,8.4C201.1,171.6,200.4,171.8,200,171.9z"/>
			<path class="st9" d="M201.1,151.2c1.1,0.2,2-0.2,2.9-0.9c0.4,0.1,0.8,0.2,1.3,0.3c0,0,0.2,0.1,0.2,0.1l0.2,0
				c2.2,0.9,0.8,1.9,0.1,2.9c0-1-0.1-1.9-1.4-1.7c-0.2,0-0.5,0-0.7,0c-0.4,0-0.9,0.1-1.3,0.1c-0.4,0.1-0.8,0.1-1.2,0.2
				c-0.2-0.2-0.4-0.5-0.5-0.7C200.7,151.3,200.9,151.2,201.1,151.2z"/>
			<path class="st13" d="M93.8,207.6c-0.5,0.2-0.5,0.6-0.6,1c-1.5-1.6-1.8-3.6-2.2-6.1C92.6,204.2,93,206,93.8,207.6z"/>
			<path class="st11" d="M199.1,256.2c-0.2-2-0.2-4,1.1-5.8c0.3,0.2,0.6,0.5,0.8,0.7C200.9,253.1,200.5,254.8,199.1,256.2z"/>
			<path class="st13" d="M187.3,147.8c-0.3,0.5-0.9,0.5-1.4,0.7c-1.8,0.1-3.7,0.2-5.5,0.3c-0.2-0.5-0.4-1-0.6-1.5
				C182.4,146.6,184.8,148.1,187.3,147.8z"/>
			<path class="st0" d="M158,99.2c0,0.4,0,0.8,0,1.2c-1.2,0.6-2.5,1.2-3.7,1.8c-1.3,0.6-1.6,0.3-1.1-1
				C154.6,100.2,156.1,99.4,158,99.2z"/>
			<path class="st0" d="M148.6,111.5c0.4,1.5,0.9,3.1,1.3,4.6c-0.3,0.3-0.7,0.7-1,1c-0.2-0.4-0.4-0.8-0.5-1.1
				c-0.1-0.2-0.1-0.4-0.2-0.6c-0.2-0.5-0.3-1-0.5-1.6C147.8,113,148,112.2,148.6,111.5z"/>
			<path class="st13" d="M151.8,103.9c-0.2,1.6-1.4,2.6-2.1,4c-0.3-0.3-0.6-0.6-1-0.8c0,0,0.1,0.1,0.1,0.1c0-0.2,0-0.4,0-0.6
				c0,0,0-0.1,0-0.1c0.9,0,0.9-0.4,0.6-1C150.1,104.6,150,102.8,151.8,103.9z"/>
			<path class="st13" d="M204.4,151.9c1.4-0.2,1.4,0.7,1.4,1.7c0.1,1.1-0.8,1.8-1.1,2.7C204,154.9,205.8,153.3,204.4,151.9z"/>
			<path class="st1" d="M212.1,185.1c-0.3,0.1-0.7,0.1-1,0.2c-0.9-0.5-1.5-1.1-1.9-2c0-0.4,0-0.9,0-1.3
				C210.1,182.9,211.1,184,212.1,185.1z"/>
			<path class="st9" d="M201.1,251.2c-0.3-0.2-0.6-0.5-0.8-0.7c0.1-1.3,0.2-2.6,0.4-3.8c0.3-0.5,0.7-1.1,1-1.6
				C201.4,247.1,201.3,249.2,201.1,251.2z"/>
			<path class="st0" d="M148.7,107c0.3,0.3,0.6,0.6,1,0.8c-0.4,1.2-0.7,2.5-1.1,3.7c-0.3-0.6-0.6-1.1-0.9-1.7c0.2-0.5,0.3-1,0.5-1.6
				c0.1-0.2,0.1-0.4,0.2-0.6C148.5,107.5,148.6,107.2,148.7,107z"/>
			<path class="st13" d="M193.5,104.8c0.3-0.3,0.7-0.7,1-1c0.8,0.6,1.6,1.1,2,2.1c-0.5,0-1,0.2-1.3,0.7
				C194.5,106.1,193.9,105.6,193.5,104.8z"/>
			<path class="st13" d="M196.5,117.2c0.1,0.6,0.2,1.2,0.9,1.2c-0.3,0.8-0.7,1.3-1.5,1.5c0-0.6,0.1-1.2-0.6-1.5
				C195.5,117.8,195.9,117.4,196.5,117.2z"/>
			<path class="st13" d="M147.7,109.8c0.3,0.6,0.6,1.1,0.9,1.7c0,0-0.1,0-0.1,0c-0.6,0.7-0.8,1.5-0.8,2.4
				C147,112.5,147,111.2,147.7,109.8z"/>
			<path class="st13" d="M148.9,117.2c0.3-0.3,0.7-0.7,1-1c0.2,0.4,0.5,0.8,0.7,1.2c-0.6,0.4-0.5,0.9-0.5,1.5
				C149.4,118.5,149.1,117.9,148.9,117.2z"/>
			<path class="st13" d="M186.8,98.9c-0.2,0-0.4,0-0.6,0c0-1.2,0-2.3,0-3.5C187.1,96.5,186.3,97.8,186.8,98.9z"/>
			<path class="st13" d="M199.4,114.4c0-1.1,0-2.3,0-3.4C200.1,112.2,200.1,113.3,199.4,114.4z"/>
			<path class="st13" d="M193.6,103c-0.8,0-1.3-0.4-1.6-1.2C192.7,102,193.2,102.3,193.6,103z"/>
			<path class="st0" d="M149.5,105.4c0.3,0.6,0.3,1.1-0.6,1C149.1,106.1,149.3,105.7,149.5,105.4z"/>
			<path class="st13" d="M188.5,121.9c0.4,0.1,0.8,0.1,1.1,0.2C189.2,122.4,188.8,122.3,188.5,121.9z"/>
			<path class="st0" d="M151.8,102.4c0.8,0.5,0.8,1,0,1.4C150.4,103.3,151.5,102.8,151.8,102.4z"/>
			<path class="st13" d="M190.8,122.1c0.4-0.1,0.8-0.1,1.1-0.2C191.6,122.3,191.3,122.4,190.8,122.1z"/>
			<path class="st13" d="M154.6,121.3c0.4,0.1,0.8,0.2,1.1,0.2C155.3,121.8,155,121.7,154.6,121.3z"/>
			<path class="st13" d="M152.4,101.8c0.3,0.7,0.1,0.9-0.6,0.6C152,102.2,152.2,102,152.4,101.8z"/>
			<path class="st13" d="M153.2,101.2c0.1,0.8-0.2,1-0.9,0.6C152.6,101.6,152.9,101.4,153.2,101.2z"/>
			<path class="st11" d="M205.7,150.7l-0.2,0c0,0-0.2-0.1-0.2-0.1C205.4,150.6,205.5,150.7,205.7,150.7z"/>
			<path class="st11" d="M152.9,258.7c0.5-0.1,0.5,0.3,0.6,0.6C153.1,259.3,152.9,259.1,152.9,258.7z"/>
			<path class="st0" d="M148.9,106.5c-0.1,0.2-0.1,0.4,0,0.6c0-0.1-0.1-0.3-0.1-0.4C148.7,106.6,148.8,106.5,148.9,106.5z"/>
			<path class="st13" d="M156.5,121.9c-0.2,0.2-0.4,0.4-0.5,0.6c0-0.2,0.1-0.5,0.1-0.7C156.2,121.9,156.4,121.9,156.5,121.9z"/>
			<path class="st11" d="M189.2,269c0.1-0.2,0.3-0.3,0.4-0.5C189.5,268.7,189.4,268.8,189.2,269z"/>
			<path class="st13" d="M186.2,121.7c0.3-0.1,0.6-0.2,0.8-0.3C186.7,121.6,186.5,121.6,186.2,121.7z"/>
			<polygon class="st11" points="171.1,271.9 171,271.7 171,271.9 			"/>
			<path class="st13" d="M150.3,119c0.1,0.2,0.3,0.3,0.4,0.5C150.5,119.3,150.4,119.2,150.3,119z"/>
			<path class="st13" d="M148.4,107.7c-0.1,0.2-0.1,0.4-0.2,0.6C148,108,148.1,107.8,148.4,107.7z"/>
			<path class="st13" d="M148.2,115.5c0.1,0.2,0.1,0.4,0.2,0.6c-0.1-0.1-0.2-0.2-0.3-0.4C148.1,115.6,148.2,115.5,148.2,115.5z"/>
			<path class="st11" d="M173.7,213.3c0.2-0.3,0.3-0.8,0.6-0.9c5-1,9.7-3.1,14.9-3c0,0.2,0,0.4,0,0.6c-4.5,1.2-9,2.3-13.5,3.4
				C175,213.6,174.3,213.4,173.7,213.3z"/>
			<path class="st11" d="M157.6,209.9c2.7-0.1,4.8,1.5,7.1,2.4c1.8,0.7,3.4,1.5,5.4,0.5c1.1-0.6,2.1,0.7,3.2,0.6
				c-0.3,1.4-1.5,0.9-2.3,1c-3.4,0.1-6.8-0.4-9.8-2.1c-1.1-0.6-2.4-0.9-3.7-1.3C157.5,210.5,157.5,210.2,157.6,209.9z"/>
			<path class="st11" d="M152.2,231.7c-0.3-2.9-1.3-5.9,0.5-8.6C152.9,225.9,153.2,228.8,152.2,231.7z"/>
			<path class="st9" d="M189.1,210c0-0.2,0-0.4,0-0.6c3,0,6.1-0.1,9.1-0.1c0.7,0.4,1.9-0.4,2.4,0.7c-0.4,0-0.9,0.1-1.3,0.1
				C195.9,210.1,192.5,210,189.1,210z"/>
			<path class="st13" d="M157.6,209.9c0,0.3-0.1,0.6-0.1,1c-1.5-0.1-3-0.2-4.5-0.3c0-0.4-0.1-0.8-0.1-1.2
				C154.4,209.7,156.1,209,157.6,209.9z"/>
			<path class="st1" d="M155.7,150.1c1.5,0,3,0,4.6,0c2.8,1.6,5.9,0.5,8.9,0.8c1.1,0.1,2.3,0,3.4,0.4c-5.5,0-10.9,0-16.4,0
				C154.4,151.2,155.2,150.7,155.7,150.1z"/>
			<path class="st1" d="M175.3,152.3c-0.2-0.3-0.4-0.7-0.6-1c2-0.6,3.8,1.2,5.3,0.9c2.2-0.5,4.1,0,6.2,0.2c0.1,0,0.1,0.1,0.4,0.5
				C182.6,152.9,178.9,153.2,175.3,152.3z"/>
			<path class="st13" d="M200.6,151.4c0.2,0.2,0.4,0.5,0.5,0.7c-3.4,0.6-6.9,1.1-10.7,0.6c2-1.2,4-1,5.9-1
				C197.8,151.7,199.2,152.1,200.6,151.4z"/>
			<path class="st1" d="M147.7,152.3c5.6-0.9,11.2-0.6,16.7-0.1C158.8,152.2,153.3,152.2,147.7,152.3z"/>
			<path class="st13" d="M202.3,152c0.4,0,0.9-0.1,1.3-0.1C203.2,151.9,202.8,152,202.3,152z"/>
			<path class="st14" d="M130.6,41.4c24.2,0,34.3,21.1,28.2,38.5c-3.2,9.2-10.3,14.5-19.4,17.3c-11.1,3.4-21.7,2.4-31-4.9
				c-16-12.6-13.2-39.5,7.4-47.9C120.9,42.3,125.1,41.4,130.6,41.4z M120.2,75.8c0,5.7,4.5,10.5,9.7,10.3c5.2-0.1,9.3-4.8,9.4-10.4
				c0-5.7-4.3-10.5-9.5-10.5C124.4,65.3,120.1,70,120.2,75.8z"/>
			<path class="st14" d="M210.3,95.5c-10.9-0.1-19-2.9-25.3-9.9c-8.3-9.3-9.2-22.4-2.4-32.9c9.1-13.9,29.6-19,44.1-10.9
				c9.8,5.5,15.3,17.2,13.9,29.7c-1.1,10-9.8,19.3-20.9,22.4C216.1,94.9,212.4,95.6,210.3,95.5z M202.9,69c0-5.6-4.3-10.3-9.4-10.3
				c-5.1,0-9.4,4.7-9.4,10.3c0,5.7,4.3,10.5,9.5,10.4C198.7,79.4,202.9,74.7,202.9,69z"/>
			<path class="st12" d="M120.2,75.8c0-5.8,4.2-10.5,9.5-10.5c5.2,0,9.6,4.7,9.5,10.5c0,5.6-4.2,10.3-9.4,10.4
				C124.6,86.2,120.2,81.5,120.2,75.8z M136.2,78.1c-0.1-1.5-0.7-2.7-2.4-2.6c-1.5,0.1-2.1,1.3-2.1,2.6c0,1.3,0.6,2.5,2.1,2.6
				C135.5,80.7,136.1,79.5,136.2,78.1z"/>
			<path class="st12" d="M202.9,69c0,5.6-4.1,10.4-9.2,10.5c-5.2,0.1-9.6-4.7-9.5-10.4c0-5.6,4.3-10.3,9.4-10.3
				C198.5,58.7,202.8,63.4,202.9,69z M200,71.3c-0.3-1.1-0.6-2.3-2.2-2.3c-1.6,0-2.1,1.2-2.2,2.5c0,1.4,0.6,2.8,2.2,2.7
				C199.3,74,199.9,72.8,200,71.3z"/>
			<path class="st10" d="M136.2,78.1c-0.1,1.4-0.7,2.6-2.4,2.5c-1.5-0.1-2.1-1.3-2.1-2.6c0-1.3,0.6-2.5,2.1-2.6
				C135.5,75.4,136.1,76.6,136.2,78.1z"/>
			<path class="st10" d="M200,71.3c-0.1,1.5-0.7,2.8-2.1,2.8c-1.6,0.1-2.3-1.3-2.2-2.7c0-1.3,0.6-2.5,2.2-2.5
				C199.4,69,199.7,70.2,200,71.3z"/>
		</g>
	</g>
</g>
</svg>
