<svg xmlns="http://www.w3.org/2000/svg" width="420" height="420" fill="none"><circle cx="210" cy="210" r="210" fill="url(#a)" transform="rotate(180 210 210)"/><mask id="c" width="370" height="370" x="25" y="25" maskUnits="userSpaceOnUse" style="mask-type:alpha"><path fill="url(#b)" d="M25 210c0-102.173 82.827-185 185-185s185 82.827 185 185-82.827 185-185 185S25 312.173 25 210"/></mask><g mask="url(#c)"><path fill="url(#d)" d="M210.939 394.032c103.769 0 186.704-92.576 186.704-198.831-26.096 22.98-110.33 53.55-202.21-22.671-93.538-77.598-172.317-44.439-172.317 16.877 0 0-.065 8.811-.065 12.232 0 106.256 84.12 192.393 187.888 192.393"/><path fill="url(#e)" d="M260.646 206.483c34.869 5.864 60.881 3.582 82.474-12.069 19.336-14.015 48.451-26.622 51.35 1.843 4.899 48.104-90.811 88.479-173.286 91.594-82.475 3.116-203.968-52.214-188.186-130.855 1.797-8.955 6.173-17.976 17.132-31.238 11.562-13.99 50.288-36.63 86.214-22.054 56.824 17.519 61.327 92.187 124.302 102.779"/><path fill="url(#f)" fill-rule="evenodd" d="M162.036 163.324c19.202-9.965 32.32-30.03 32.32-53.158 0-33.056-26.797-59.853-59.853-59.853-13.237 0-25.471 4.296-35.382 11.572l-.781-1.214c-143.792 98.969-62.99 274.536 2.144 309.525 11.484 2.664 8.177-8.099 2.438-26.78-12.66-41.204-37.158-120.933 59.114-180.092" clip-rule="evenodd" opacity=".3"/></g><defs><linearGradient id="a" x1="289.43" x2="139.628" y1="410.942" y2="27.329" gradientUnits="userSpaceOnUse"><stop stop-color="#fff"/><stop offset="1" stop-color="#FAE7FD"/></linearGradient><linearGradient id="b" x1="210" x2="210" y1="395" y2="25" gradientUnits="userSpaceOnUse"><stop stop-color="#fff"/><stop offset="1" stop-color="#FAE7FD"/></linearGradient><linearGradient id="f" x1="105.696" x2="120.613" y1="49.339" y2="382.862" gradientUnits="userSpaceOnUse"><stop stop-color="#fff"/><stop offset="1" stop-color="#fff" stop-opacity="0"/></linearGradient><radialGradient id="d" cx="0" cy="0" r="1" gradientTransform="rotate(1.74 -9173.784 2198.093)scale(444.705 652.44)" gradientUnits="userSpaceOnUse"><stop stop-color="#2D01E2"/><stop offset=".602" stop-color="#DD4AC8"/></radialGradient><radialGradient id="e" cx="0" cy="0" r="1" gradientTransform="matrix(174.54853 331.47994 -711.10758 374.45037 172.21 13.001)" gradientUnits="userSpaceOnUse"><stop offset=".505" stop-color="#DD4AC8"/><stop offset=".918" stop-color="#2D01E2"/></radialGradient></defs></svg>