<?xml version="1.0" encoding="utf-8"?>
<!-- Generator: Adobe Illustrator 26.5.0, SVG Export Plug-In . SVG Version: 6.00 Build 0)  -->
<svg version="1.1" id="_图层_1" xmlns="http://www.w3.org/2000/svg" xmlns:xlink="http://www.w3.org/1999/xlink" x="0px" y="0px"
	 viewBox="0 0 360.5 380.1" style="enable-background:new 0 0 360.5 380.1;" xml:space="preserve">
<style type="text/css">
	.st0{fill:#FEFEFE;}
	.st1{fill:#134D5D;}
	.st2{fill:#08C1BD;}
	.st3{fill:#3DCCCA;}
	.st4{fill:#04B4AF;}
	.st5{fill:#FDFDFD;}
</style>
<g id="tCLuza.tif">
	<g>
		<g>
			<path class="st0" d="M347,205.1c0,14.6,0,29.1,0,43.7c0,0.8-0.1,1.1-1,1.1c-92,0-184,0-276.1,0c0-0.2,0.2-0.2,0.3-0.2
				c1.8-0.1,3.5-0.3,5.2-0.7c7.8-1.7,14.1-5.8,18.2-12.8c2.9-5,3.8-10.6,3.9-16.3c0.1-19.8,0-39.5,0.1-59.3c0-0.7-0.2-0.9-0.9-0.9
				c-2.1,0-4.2,0.1-6.2,0c-1.1-0.1-1.4,0.2-1.4,1.4c0.1,2.8,0,5.6,0,8.7c-1-1.2-1.9-2.2-2.8-3.2c-9.6-10.1-25.6-10.7-36.1-4.3
				c-9.8,6-14.5,15.1-14.7,26.4c-0.1,8.6,2.8,16.1,9.1,22c7.1,6.7,15.7,9.3,25.3,8.4c6.3-0.6,11.9-2.9,16.4-7.6c1-1,1.8-2.2,2.9-3.6
				c0,2.1,0,4,0,5.8c0,4.1,0.1,8.1-0.7,12.2c-1.5,7-5.3,12.1-12.2,14.6c-10.9,3.9-24.6,1.4-32.5-8.6c-0.5-0.6-0.7-0.6-1.2,0
				c-1.7,1.8-3.3,3.6-5.1,5.4c-0.6,0.6-0.5,0.9,0,1.4c5.3,5.4,11.5,8.9,18.9,10.4c1.5,0.3,3.1,0.4,4.6,0.9c-18.3,0-36.6,0-55,0
				c-0.8,0-0.9-0.2-0.9-0.9c0-45.7,0-91.3,0-137c0-0.8,0.2-0.9,0.9-0.9c113.4,0,226.7,0,340.1,0c0.8,0,0.9,0.2,0.9,0.9
				c0,31,0,62,0,92.9c-0.3,0.1-0.5-0.2-0.7-0.3c-2-1.4-4.1-2.8-6.1-4.3c-0.7-0.6-1-0.4-1.5,0.3c-3.7,5.4-8.6,9.3-14.9,11.2
				c-4.6,1.4-9.3,1.8-14,1.3c-11.1-1.1-20.2-6-26.4-15.3c-7.9-11.8-9-24.7-4.5-38c5.1-15.4,20-25.5,35.9-24.3
				c8.6,0.7,15.9,4.2,21.3,11.1c0.4,0.5,0.6,0.6,1.2,0.2c2.2-1.7,4.5-3.4,6.8-5c0.6-0.4,0.6-0.7,0.1-1.2c-3.1-3.8-6.9-7-11.3-9.1
				c-9.9-4.8-20.2-5.7-30.8-3.2c-14.1,3.3-24.7,11.5-31,24.6c-4.7,9.9-5.8,20.4-3.8,31.1c2.3,12.6,8.7,22.7,19.4,29.9
				c9.9,6.6,21,8.9,32.8,7.4c8.2-1,15.6-4.2,21.9-9.8C343.5,209.5,345.2,207.3,347,205.1z M87,127.6c-1.9,1.8-3.7,3.7-5.6,5.5
				c-3.1,0-6.1,0.1-9.2,0.1c-7.1,0-14.1,0.1-21.2,0.1c-3.6-3.5-7.2-7.1-10.7-10.6c0.5-0.6,1.1-1.3,1.8-2c-1.4,0-2.6,0-3.8,0
				c-2.9-2.9-5.9-5.9-8.8-8.8c-0.5-0.5-0.8-0.3-1.2,0.1c-3.2,3.2-6.4,6.4-9.6,9.7c-0.2,0.2-0.7,0.3-0.3,0.8l0,0
				c-0.4-0.2-0.5,0.1-0.7,0.3c-4,4-7.9,8-11.9,11.9c-0.4,0.4-0.2,0.7,0.1,1c3.2,3.2,6.4,6.3,9.5,9.5c1.6,1.5,3.1,3.1,4.7,4.6
				c2.5,2.5,4.9,5.1,7.6,7.4c0.1,0.2,0.3,0.3,0.4,0.5c0.7,1,1.3,0.9,2.1,0c2.7-2.8,5.5-5.6,8.2-8.3c1.2,0,2.5,0,3.8,0
				c-0.6-1-1.5-1.3-1.8-2.1c3.6-3.5,7.1-7,10.6-10.6c8.4,0,16.8,0,25.3-0.1c1.8,0,3.6-0.2,5.4,0c1.8,1.8,3.6,3.6,5.3,5.4
				c0.1,0.1,0.1,0.1,0.2,0.2c2,2,4.1,4.1,6.1,6.1c0.4,0.4,0.6,0.3,0.9,0c1.6-1.6,3.2-3.3,4.8-4.9c2.7-2.7,5.4-5.4,8.1-8.1
				c0.4-0.4,0.4-0.7,0-1c-1-0.9-1.9-1.9-2.8-2.8c-2-1.9-4-3.9-6-5.8c-1.3-1.6-2.9-2.9-4.3-4.4c-0.3-0.3-0.5-0.2-0.8,0.1
				C91.2,123.4,88.9,125.4,87,127.6L87,127.6z M157.1,176.6c1.2-0.2,2.4-0.3,3.5-0.5c6.1-1.1,11.4-3.8,15.2-8.9
				c3.4-4.7,4.6-10,4.3-15.8c-0.5-9.3-4.9-15.8-13.6-19.4c-5.3-2.2-10.8-2.8-16.5-2.8c-8.7,0-17.3,0-26,0c-1.1,0-1.5,0.2-1.5,1.4
				c0,15.4,0,30.8,0,46.2c0,13.7,0,27.4,0,41.2c0,1.2,0.4,1.5,1.5,1.4c2.2-0.1,4.4-0.1,6.6,0c1.1,0,1.2-0.3,1.2-1.3
				c0-13.1,0-26.3,0-39.4c0-1,0.2-1.2,1.2-1.2c4.3,0.1,8.5,0.1,12.8,0c0.9,0,1.4,0.3,1.9,1.1c7.3,12.4,14.6,24.8,21.9,37.2
				c0.7,1.2,1.2,2.7,2.2,3.4c1.1,0.7,2.8,0.2,4.2,0.2c2.3,0,4.6,0,7.1,0C174.4,205,165.8,190.8,157.1,176.6z M198.8,174.1
				c0,14.6,0,29.2,0,43.8c0,1.1,0.3,1.4,1.4,1.4c2.2-0.1,4.4-0.1,6.6,0c1.1,0,1.3-0.3,1.3-1.3c0-13.1,0-26.3,0-39.4
				c0-0.9,0.2-1.1,1.1-1.1c5.6,0,11.2,0.1,16.7,0c4.8,0,9.5-0.6,14-2.3c5.8-2.1,10.4-5.6,12.9-11.4c1.9-4.3,2.2-8.9,1.8-13.5
				c-0.7-7.8-4.3-13.7-11.4-17.3c-5.8-3-12.1-3.7-18.5-3.8c-8.2,0-16.5,0-24.7,0c-1.1,0-1.3,0.4-1.3,1.4
				C198.8,145,198.8,159.6,198.8,174.1z"/>
			<path class="st1" d="M60.9,249.9c-1.5-0.5-3-0.6-4.6-0.9c-7.4-1.5-13.6-5.1-18.9-10.4c-0.5-0.5-0.6-0.8,0-1.4
				c1.7-1.7,3.4-3.5,5.1-5.4c0.5-0.5,0.7-0.6,1.2,0c7.9,10,21.7,12.5,32.5,8.6c6.9-2.5,10.7-7.6,12.2-14.6c0.9-4,0.7-8.1,0.7-12.2
				c0-1.8,0-3.7,0-5.8c-1,1.4-1.9,2.6-2.9,3.6c-4.4,4.7-10.1,7-16.4,7.6c-9.6,0.9-18.2-1.7-25.3-8.4c-6.3-5.9-9.2-13.4-9.1-22
				c0.2-11.4,4.9-20.5,14.7-26.4c10.5-6.4,26.5-5.8,36.1,4.3c0.9,1,1.7,2,2.8,3.2c0-3.1,0.1-5.9,0-8.7c0-1.1,0.3-1.4,1.4-1.4
				c2.1,0.1,4.2,0.1,6.2,0c0.7,0,0.9,0.2,0.9,0.9c0,19.8,0.1,39.5-0.1,59.3c0,5.7-0.9,11.3-3.9,16.3c-4.1,7-10.3,11.1-18.2,12.8
				c-1.7,0.4-3.5,0.7-5.2,0.7c-0.2,0-0.3,0-0.3,0.2C66.9,249.9,63.9,249.9,60.9,249.9z M89.3,189c0-13.5-9.2-23-22.1-23.2
				c-11.9-0.2-22.5,10-22.5,22.9c0,12.6,10,22.9,22.1,22.9C77.9,211.6,89.7,203.5,89.3,189z"/>
			<path class="st1" d="M347,205.1c-1.8,2.2-3.5,4.4-5.6,6.3c-6.3,5.6-13.6,8.7-21.9,9.8c-11.8,1.5-22.8-0.8-32.8-7.4
				c-10.7-7.1-17-17.3-19.4-29.9c-2-10.8-0.9-21.2,3.8-31.1c6.3-13.2,16.8-21.3,31-24.6c10.6-2.5,20.9-1.5,30.8,3.2
				c4.5,2.1,8.2,5.3,11.3,9.1c0.5,0.6,0.4,0.8-0.1,1.2c-2.3,1.6-4.5,3.3-6.8,5c-0.5,0.4-0.8,0.3-1.2-0.2
				c-5.4-6.9-12.7-10.5-21.3-11.1c-15.9-1.2-30.8,8.8-35.9,24.3c-4.4,13.3-3.4,26.2,4.5,38c6.2,9.3,15.2,14.2,26.4,15.3
				c4.8,0.5,9.4,0.1,14-1.3c6.3-1.9,11.2-5.7,14.9-11.2c0.5-0.7,0.7-0.9,1.5-0.3c2,1.5,4.1,2.9,6.1,4.3c0.2,0.1,0.3,0.4,0.7,0.3
				C347,205,347,205,347,205.1z"/>
			<path class="st1" d="M157.1,176.6c8.6,14.2,17.2,28.4,26,42.7c-2.5,0-4.8,0-7.1,0c-1.4,0-3.1,0.5-4.2-0.2c-1-0.7-1.5-2.2-2.2-3.4
				c-7.3-12.4-14.6-24.8-21.9-37.2c-0.5-0.8-1-1.1-1.9-1.1c-4.3,0-8.5,0.1-12.8,0c-1,0-1.2,0.2-1.2,1.2c0,13.1,0,26.3,0,39.4
				c0,1-0.2,1.3-1.2,1.3c-2.2-0.1-4.4-0.1-6.6,0c-1.1,0-1.5-0.2-1.5-1.4c0.1-13.7,0-27.4,0-41.2c0-15.4,0-30.8,0-46.2
				c0-1.2,0.4-1.4,1.5-1.4c8.7,0,17.3,0,26,0c5.6,0,11.2,0.6,16.5,2.8c8.7,3.6,13.1,10.1,13.6,19.4c0.3,5.8-0.8,11.1-4.3,15.8
				c-3.8,5.2-9,7.8-15.2,8.9C159.5,176.3,158.4,176.4,157.1,176.6z M131.8,153.2c0,4.9,0,9.8,0,14.6c0,0.9,0.2,1.1,1.1,1.1
				c5.3,0,10.7,0,16,0c2.9,0,5.8-0.3,8.6-1c7.5-1.8,11.6-5.8,12.5-12.7c0.7-5.7-1.2-11.7-7.4-14.9c-3.2-1.7-6.7-2.4-10.2-2.6
				c-6.6-0.5-13.2-0.1-19.7-0.2c-0.9,0-0.9,0.4-0.9,1C131.8,143.5,131.8,148.4,131.8,153.2z"/>
			<path class="st1" d="M198.8,174.1c0-14.6,0-29.1,0-43.7c0-1,0.2-1.4,1.3-1.4c8.2,0.1,16.5,0,24.7,0c6.4,0,12.6,0.8,18.5,3.8
				c7.1,3.6,10.7,9.5,11.4,17.3c0.4,4.7,0,9.2-1.8,13.5c-2.5,5.8-7.2,9.2-12.9,11.4c-4.5,1.7-9.2,2.3-14,2.3c-5.6,0-11.2,0-16.7,0
				c-0.9,0-1.1,0.2-1.1,1.1c0,13.1,0,26.3,0,39.4c0,1-0.2,1.4-1.3,1.3c-2.2-0.1-4.4-0.1-6.6,0c-1.1,0-1.4-0.2-1.4-1.4
				C198.8,203.4,198.8,188.8,198.8,174.1z M208,153.2c0,4.9,0,9.8,0,14.8c0,0.8,0.2,1,1,1c4.8,0,9.7,0,14.5,0c2.9,0,5.7-0.3,8.6-1
				c2.8-0.7,5.5-1.8,7.8-3.6c3.4-2.7,4.8-6.5,4.9-10.7c0.1-5.5-1.9-9.9-6.8-12.8c-3.3-2-7-2.7-10.8-3c-6-0.5-12-0.1-18-0.2
				c-1,0-1.2,0.3-1.2,1.2C208,143.6,208,148.4,208,153.2z"/>
			<path class="st1" d="M81.6,136.6c-1.8-0.2-3.6,0-5.4,0c-8.4,0-16.8,0-25.3,0.1c-7,0-14.1,0-21.2,0c0.1,0.6,0.5,0.8,0.8,1.1
				c2.9,2.8,5.8,5.6,8.6,8.5c0.4,0.4,0.8,0.7,1.2,1.1c0.4,0.8,1.3,1.1,1.8,2.1c-1.4,0-2.6,0-3.8,0c-2.4,0-4.8-0.1-7.1,0
				c-0.9,0-1.6-0.2-2.2-0.8c-2.6-2.6-5.2-5.3-7.9-7.9c-1.6-1.6-3.2-3.2-4.9-4.7c-1.1-0.8-0.2-1.3,0.2-1.8c0.3-0.2,0.5-0.4,0.7-0.7
				l0,0c0.2-0.2,0.5-0.4,0.7-0.6c3.7-3.8,7.5-7.6,11.2-11.4c0.5-0.5,1-0.7,1.7-0.7c2.5,0,4.9,0,7.4,0c1.2,0,2.4,0,3.8,0
				c-0.7,0.8-1.2,1.4-1.8,2c-0.2,0.1-0.4,0.2-0.5,0.3c-3.3,3.4-6.6,6.7-9.9,10.1c0,0,0,0.1,0,0.3c1.2,0,2.4,0,3.7,0
				c5.8,0,11.7-0.1,17.5-0.1c7.1,0,14.1,0,21.2-0.1c3.1,0,6.1-0.1,9.2-0.1c3.6,0,7.1,0,10.7,0c0.1-0.1,0.1-0.2,0.2-0.3
				c-0.4-0.3-0.8-0.6-1.2-0.9c-1.4-1.4-2.9-2.7-4.2-4.3c0,0,0,0,0,0c1.7,0,3.4,0,5.2,0c0.7,0,1.1,0.2,1.6,0.7
				c1.4,1.4,2.9,2.8,4.3,4.2c0.1,0.1,0.1,0.1,0.2,0.2c0.1,0.1,0.2,0.2,0.2,0.2c0,0.1,0.1,0.1,0.1,0.2c1.5,1.6,1.5,1.6,0.1,3.2
				c-0.1,0.1-0.2,0.2-0.2,0.2c-0.1,0.1-0.1,0.1-0.2,0.2c-1.5,1.5-3.1,3-4.6,4.5c-0.5,0.5-1.1,0.8-1.8,0.8c-1.6,0-3.1,0-4.7,0
				c-0.1-0.1-0.1-0.1-0.2-0.2c1.7-1.8,3.4-3.5,5.1-5.3c-0.4-0.4-0.8-0.3-1.2-0.3c-2.5,0-5,0-7.5,0C82.8,136.5,82.2,136.3,81.6,136.6
				z"/>
			<path class="st2" d="M17.3,133.4c-0.2,0.3-0.4,0.5-0.7,0.7c0.2-1.8,0.4-3.7,0.6-5.5c0.2-2,0.7-3.9,0.5-5.9
				c0.2-0.2,0.3-0.5,0.7-0.3c-0.1,0.2-0.2,0.4,0,0.7c0-0.3,0-0.5,0.1-0.7c-0.4-0.5,0.1-0.6,0.3-0.8c3.2-3.2,6.4-6.4,9.6-9.7
				c0.4-0.4,0.7-0.6,1.2-0.1c2.9,3,5.9,5.9,8.8,8.8c-2.5,0-4.9,0.1-7.4,0c-0.7,0-1.2,0.2-1.7,0.7c-3.7,3.8-7.5,7.6-11.2,11.4
				C17.7,133,17.5,133.2,17.3,133.4c-0.1-0.2,0.1-0.5-0.2-0.8C17,133,17,133.2,17.3,133.4z M17.7,128.8c-0.1-0.1-0.1-0.2-0.1-0.3
				c0,0.1-0.1,0.1-0.1,0.2c0,0.1,0,0.2,0.1,0.3C17.6,128.9,17.7,128.9,17.7,128.8z M18.1,124.6c0,0.1-0.1,0.1-0.1,0.2
				c0,0.1,0,0.1,0.1,0.2c0-0.1,0.1-0.1,0.1-0.2C18.2,124.7,18.1,124.6,18.1,124.6z M17.9,126.8c0-0.1-0.1-0.1-0.1-0.2
				c0,0.1-0.1,0.1-0.1,0.2c0,0.1,0.1,0.1,0.1,0.2C17.9,126.9,17.9,126.9,17.9,126.8z"/>
			<path class="st2" d="M16.3,135.9c1.6,1.6,3.3,3.1,4.9,4.7c2.6,2.6,5.2,5.3,7.9,7.9c0,0.1,0,0.3,0,0.3c-1,0.9-0.2,2.3-0.8,3.4
				c-0.2,0.4,0.1,1.3-0.3,2c-0.1,0.1,0.1,0.4,0.2,0.5c0.3,0.3,0.2,0.6,0,0.9c-0.5,0.4-0.4,1-0.4,1.5c-2.6-2.3-5-5-7.6-7.4
				c-1.6-1.5-3.1-3.1-4.7-4.6C15.4,142.1,16,139,16.3,135.9z M15.9,142.8c0,0.1-0.1,0.2-0.1,0.3c0,0.1,0.1,0.1,0.1,0.2
				c0-0.1,0.1-0.2,0.1-0.4C16.1,142.9,16,142.9,15.9,142.8z M16.5,139.1c0-0.1-0.1-0.1-0.1-0.2c0,0.1-0.1,0.1-0.1,0.2
				c0,0.1,0,0.1,0.1,0.2C16.5,139.2,16.5,139.1,16.5,139.1z M16.3,141.1c0-0.1-0.1-0.1-0.1-0.2c0,0.1-0.1,0.1-0.1,0.2
				c0,0.1,0.1,0.1,0.1,0.2C16.2,141.2,16.3,141.2,16.3,141.1z"/>
			<path class="st3" d="M16.3,135.9c-0.3,3.1-0.9,6.1-0.9,9.2c-3.2-3.2-6.4-6.3-9.5-9.5c-0.3-0.3-0.6-0.6-0.1-1c4-4,8-8,11.9-11.9
				c0.1,2-0.4,3.9-0.5,5.9c-0.2,1.8-0.4,3.7-0.6,5.5C16.1,134.7,15.3,135.2,16.3,135.9z"/>
			<path class="st4" d="M40.4,147.3c-0.4-0.4-0.8-0.7-1.2-1.1c-2.9-2.8-5.8-5.6-8.6-8.5c-0.3-0.3-0.6-0.5-0.8-1.1
				c7.1,0,14.1,0,21.2,0C47.5,140.3,44,143.8,40.4,147.3z"/>
			<path class="st4" d="M51.1,133.3c-5.8,0-11.7,0.1-17.5,0.1c-1.2,0-2.4,0-3.7,0c0-0.2,0-0.3,0-0.3c3.3-3.4,6.6-6.7,9.9-10.1
				c0.1-0.1,0.3-0.2,0.5-0.3C43.9,126.2,47.5,129.8,51.1,133.3z"/>
			<path class="st3" d="M98.8,136.4c1.4-1.6,1.4-1.6-0.1-3.2c-0.1-0.1-0.1-0.1-0.1-0.2c0-0.1,0-0.2,0-0.3c-0.1,0-0.1,0.1-0.2,0.1
				c-0.1-0.1-0.1-0.1-0.2-0.2c0.5-1.7,0.3-3.4,0.2-5.2c-0.4,0.3,0,0.7-0.3,0.9c-0.2-1,0-1.9,0.4-2.7c2,1.9,4,3.8,6,5.8
				c1,0.9,1.9,1.9,2.8,2.8c0.4,0.4,0.4,0.6,0,1c-2.7,2.7-5.4,5.4-8.1,8.1c0-0.6-0.7-1.1-0.5-1.8c0.1-0.4,0.6-0.7,0.5-1.2
				C98.6,139,98.8,137.7,98.8,136.4z"/>
			<path class="st2" d="M98.8,136.4c0.1,1.3-0.2,2.6,0.2,3.9c0.2,0.5-0.3,0.8-0.5,1.2c-0.2,0.7,0.4,1.2,0.5,1.8
				c-1.6,1.6-3.2,3.3-4.8,4.9c-0.3,0.4-0.6,0.4-0.9,0c-2-2-4-4.1-6.1-6.1c1.6,0,3.1,0,4.7,0c0.7,0,1.3-0.2,1.8-0.8
				c1.5-1.5,3.1-3,4.6-4.5c0,0.4,0,0.8,0,1.1c0.1,0,0.1,0,0.2,0c0-0.4,0-0.9,0-1.3C98.6,136.5,98.7,136.5,98.8,136.4z"/>
			<path class="st2" d="M98.3,125.6c-0.4,0.9-0.6,1.8-0.4,2.7c0.4-0.2,0-0.7,0.3-0.9c0.1,1.8,0.3,3.5-0.2,5.2
				c-1.4-1.4-2.9-2.8-4.3-4.2c-0.5-0.5-0.9-0.7-1.6-0.7c-1.7,0-3.4,0-5.2,0c2-2.2,4.2-4.2,6.3-6.4c0.2-0.3,0.4-0.4,0.8-0.1
				C95.4,122.7,97,124,98.3,125.6z"/>
			<path class="st4" d="M27.6,157.2c0-0.5-0.1-1.1,0.4-1.5c0.3-0.3,0.4-0.6,0-0.9c-0.1-0.1-0.2-0.4-0.2-0.5c0.4-0.6,0.1-1.6,0.3-2
				c0.6-1.1-0.2-2.5,0.8-3.4c0.1-0.1,0-0.2,0-0.3c0.6,0.7,1.3,0.8,2.2,0.8c2.4,0,4.8,0,7.1,0c-2.7,2.8-5.5,5.5-8.2,8.3
				c-0.8,0.8-1.4,1-2.1,0C27.9,157.5,27.8,157.4,27.6,157.2z"/>
			<path class="st2" d="M87,127.6c1.2,1.6,2.8,2.8,4.2,4.3c0.3,0.4,0.8,0.6,1.2,0.9c-0.1,0.1-0.1,0.2-0.2,0.3c-3.6,0-7.1,0-10.7,0
				C83.3,131.3,85.1,129.5,87,127.6z"/>
			<path class="st2" d="M81.6,136.6c0.6-0.3,1.2-0.2,1.8-0.2c2.5,0,5,0,7.5,0c0.4,0,0.8-0.1,1.2,0.3c-1.7,1.8-3.4,3.5-5.1,5.3
				C85.2,140.2,83.4,138.4,81.6,136.6z"/>
			<path class="st3" d="M18.4,122.4c0,0.2,0,0.4-0.1,0.7C18.1,122.8,18.2,122.6,18.4,122.4C18.4,122.4,18.4,122.4,18.4,122.4z"/>
			<path class="st0" d="M89.3,189c0.4,14.4-11.4,22.6-22.5,22.6c-12.1,0-22.1-10.3-22.1-22.9c0-12.9,10.6-23.1,22.5-22.9
				C80.1,166,89.3,175.5,89.3,189z"/>
			<path class="st5" d="M131.8,153.2c0-4.9,0-9.8,0-14.6c0-0.7,0-1.1,0.9-1c6.6,0.1,13.2-0.3,19.7,0.2c3.5,0.3,7,1,10.2,2.6
				c6.2,3.2,8.1,9.2,7.4,14.9c-0.9,6.8-5,10.9-12.5,12.7c-2.8,0.7-5.7,1-8.6,1c-5.3,0-10.7,0-16,0c-0.9,0-1.1-0.2-1.1-1.1
				C131.8,163,131.8,158.1,131.8,153.2z"/>
			<path class="st5" d="M208,153.2c0-4.8,0-9.6,0-14.4c0-0.9,0.2-1.3,1.2-1.2c6,0.1,12-0.2,18,0.2c3.8,0.3,7.4,1,10.8,3
				c4.9,2.9,6.9,7.3,6.8,12.8c-0.1,4.2-1.4,8-4.9,10.7c-2.3,1.8-4.9,3-7.8,3.6c-2.8,0.6-5.7,1-8.6,1c-4.8,0-9.7,0-14.5,0
				c-0.8,0-1-0.2-1-1C208,163,208,158.1,208,153.2z"/>
			<path class="st3" d="M98.5,136.6c0,0.4,0,0.9,0,1.3c-0.1,0-0.1,0-0.2,0c0-0.4,0-0.8,0-1.1C98.4,136.8,98.5,136.7,98.5,136.6z"/>
			<path class="st2" d="M98.3,132.7c0.1,0,0.1-0.1,0.2-0.1c0,0.1,0,0.2,0,0.3C98.4,132.9,98.4,132.8,98.3,132.7z"/>
			<path class="st3" d="M17.7,128.8c-0.1,0.1-0.1,0.2-0.2,0.2c0-0.1-0.1-0.2-0.1-0.3c0-0.1,0.1-0.1,0.1-0.2
				C17.6,128.6,17.7,128.7,17.7,128.8z"/>
			<path class="st3" d="M17.3,133.4c-0.3-0.2-0.2-0.4-0.2-0.8C17.4,132.9,17.2,133.2,17.3,133.4C17.3,133.4,17.3,133.4,17.3,133.4z"
				/>
			<path class="st3" d="M18.1,124.6c0,0.1,0.1,0.1,0.1,0.2c0,0.1-0.1,0.1-0.1,0.2c0-0.1-0.1-0.1-0.1-0.2
				C18,124.7,18,124.6,18.1,124.6z"/>
			<path class="st3" d="M17.9,126.8c0,0.1-0.1,0.1-0.1,0.2c0-0.1-0.1-0.1-0.1-0.2c0-0.1,0.1-0.1,0.1-0.2
				C17.9,126.7,17.9,126.8,17.9,126.8z"/>
			<path class="st3" d="M15.9,142.8c0.1,0.1,0.1,0.1,0.1,0.2c0,0.1-0.1,0.2-0.1,0.4c0-0.1-0.1-0.1-0.1-0.2
				C15.9,143,15.9,142.9,15.9,142.8z"/>
			<path class="st3" d="M16.5,139.1c0,0.1-0.1,0.1-0.1,0.2c0-0.1-0.1-0.1-0.1-0.2c0-0.1,0.1-0.1,0.1-0.2
				C16.5,138.9,16.5,139,16.5,139.1z"/>
			<path class="st3" d="M16.3,141.1c0,0.1-0.1,0.1-0.1,0.2c0-0.1-0.1-0.1-0.1-0.2c0-0.1,0.1-0.1,0.1-0.2
				C16.2,141,16.3,141.1,16.3,141.1z"/>
		</g>
	</g>
</g>
</svg>
