<?xml version="1.0" encoding="utf-8"?>
<!-- Generator: Adobe Illustrator 26.5.0, SVG Export Plug-In . SVG Version: 6.00 Build 0)  -->
<svg version="1.1" id="Layer_1" xmlns="http://www.w3.org/2000/svg" xmlns:xlink="http://www.w3.org/1999/xlink" x="0px" y="0px"
	 viewBox="0 0 232.4 225.3" style="enable-background:new 0 0 232.4 225.3;" xml:space="preserve">
<style type="text/css">
	.st0{fill:#0060D9;}
	.st1{fill:#0050B8;}
	.st2{fill:#0160D9;}
	.st3{fill:#FEB432;}
	.st4{fill:#F8FAFD;}
	.st5{fill:#008AFE;}
	.st6{fill:#00A7FE;}
	.st7{fill:#FDB432;}
	.st8{fill:#0362D9;}
	.st9{fill:#FBA404;}
	.st10{fill:#008AFD;}
	.st11{fill:#6BCBFE;}
	.st12{fill:#018BFB;}
</style>
<g id="YeTx4O.tif">
	<g>
		<g>
			<path class="st0" d="M19,83.6c0-2.2,0-4.5,0-6.7c0.4-0.1,0.4-0.5,0.5-0.8c2-7.2,6.9-12.2,12.8-16.3c0.3,3.9,1.2,4.9,4.6,4.7
				c-2.7,2.2-5.5,4.2-7.7,6.9c-4.5,5.6-4.7,12.9-0.2,17.9c3.5,3.8,7.5,7,12.1,9.4c4.9,3.4,10.4,5.2,16,6.9c17.3,5.4,35,8.3,53.1,8.5
				c6.7,0.1,13.3,0.2,20-0.3c7-0.5,14-1.3,20.9-2.4c9-1.5,17.8-3.8,26.5-6.6c4.6-1.5,9.2-3.2,13.2-6.1c4-2,7.6-4.7,10.7-7.9
				c3.4-3.4,5.5-7.6,4.4-12.7c-0.8-4-3.2-7.2-6.2-9.9c-4.8-4.3-10.4-7.5-16.3-9.9c-18.4-7.7-37.8-10.6-57.5-11.4
				c-6.6-0.3-13.2-0.1-19.8,0c-3.4,0.1-6.8,0.4-10.2,0.7C91.5,48,87,48.5,82.6,49c0-2.2,0-4.4,0-6.6c3.7-0.4,7.5-1,11.2-1.3
				c16.1-1.4,32.1-1.4,48.1,0.4c14.5,1.6,28.7,4.5,42.2,10c8.4,3.4,16.2,7.6,22.5,14.4c7.5,8.2,8.3,17.9,2.1,26.6
				c-0.9,1.3-0.7,2,0.1,3.2c5.3,7.6,5.3,16.3,0.1,24c-0.4,0.6-1.1,1.1-1.1,1.9c-0.8,0.2-1.3,0.8-1.8,1.4
				c-6.5,6.5-14.3,11.1-22.9,14.2c-20.7,7.3-42.1,11-64.2,10.8c-9-0.1-18,0.1-26.9-1c-11.8-1.4-23.5-3.7-34.9-7.1
				c-9.3-2.8-18.2-6.4-26-12.5c-2.4-1.9-4.7-3.9-7-5.9c-1-2-2.5-3.8-3.4-5.9c-0.7-1.6-0.8-3.4-1.8-5c0-2.1,0-4.2,0-6.3
				c1.2-1.9,1.1-4.5,2.5-6.2c2.5-2.9,2.5-5.6,0-8.5C20.1,88.1,20.2,85.5,19,83.6z"/>
			<path class="st1" d="M24.2,121.6c2.3,2,4.6,4,7,5.9c7.7,6.1,16.7,9.7,26,12.5c11.4,3.4,23.1,5.6,34.9,7.1
				c8.9,1.1,17.9,0.9,26.9,1c22.1,0.2,43.4-3.5,64.2-10.8c8.6-3,16.4-7.7,22.9-14.2c0.5-0.5,1-1.2,1.8-1.4c4.1,5.1,6,10.7,4.7,17.3
				c-0.7,3.7-2.6,6.8-4.7,9.9c-5,5.4-11.1,9.5-17.7,12.7c-8.6,4.1-17.6,6.9-26.8,9c-11.1,2.5-22.4,4-33.8,4.5
				c-6.8,0.3-13.6,0.7-20.4,0.3c-7-0.4-14-0.7-21-1.5c-12.8-1.5-25.4-4.2-37.5-8.7c-9.9-3.7-19-8.5-26.4-16.3
				c-2.5-3.2-3.9-7-5.2-10.9c0-1.9,0-3.9,0-5.8c0.8-0.5,0.6-1.4,0.8-2C20.7,126.9,22,124.1,24.2,121.6z"/>
			<path class="st2" d="M24.2,148.8c7.3,7.8,16.5,12.6,26.4,16.3c12.1,4.5,24.7,7.2,37.5,8.7c6.9,0.8,14,1.1,21,1.5
				c6.8,0.4,13.6,0,20.4-0.3c11.4-0.5,22.6-2,33.8-4.5c9.3-2.1,18.3-4.9,26.8-9c6.6-3.2,12.7-7.2,17.7-12.7
				c6.9,8.7,6.9,18.3-0.1,26.9c-5.4,6.6-12.5,10.8-20.1,14.1c-18.2,8.1-37.5,11.2-57.1,12.5c-14,0.9-28,0.5-41.9-1.2
				c-13.8-1.6-27.3-4.5-40.2-9.6c-3.6-1.4-7-3-10.3-4.9c-8.6-4.9-16-11-18.9-21c0-2.1,0-4.2,0-6.3c0.7-0.3,0.5-1.1,0.7-1.6
				C20.6,154.3,22.1,151.4,24.2,148.8z"/>
			<path class="st3" d="M62.5,46.6c0-3.9,0.2-7.8,0-11.6c-0.4-6.2,1.9-10.6,7.9-12.8c1.4,0,2.8,0,4.2,0c4.7,1.7,7.8,4.7,7.9,9.9
				c0.1,2.6,0,5.3,0,7.9c0,0.8,0,1.5,0.1,2.3c0,2.2,0,4.4,0,6.6c0,2.9-0.1,5.8-0.1,8.7c-1.9-2.4-3-2.6-6.6-1.2
				c0-2.1-0.1-4.2-0.1-6.2c0-2.2,0-4.4,0-6.7c0-3.7,0.1-7.3,0.1-11c0-2.2-1.3-3.6-3.2-3.6c-1.9-0.1-3.4,1.4-3.4,3.6
				c0,4.1,0,8.2,0.1,12.3c0,1.1,0,2.2-0.1,3.3c-0.1,1.7-1,2.7-2.7,3c-1.7,0.3-2.9-0.4-3.7-2C62.5,48.3,62.6,47.4,62.5,46.6z"/>
			<path class="st4" d="M19,83.6c1.2,1.9,1.1,4.5,2.5,6.2c2.5,2.9,2.5,5.6,0,8.5c-1.5,1.7-1.3,4.3-2.5,6.2C19,97.5,19,90.6,19,83.6z
				"/>
			<path class="st4" d="M24.2,121.6c-2.2,2.4-3.5,5.3-4.4,8.4c-0.2,0.7,0,1.6-0.8,2c0-7.1,0-14.2,0-21.3c1,1.5,1.1,3.3,1.8,5
				C21.7,117.8,23.2,119.6,24.2,121.6z"/>
			<path class="st4" d="M24.2,148.8c-2.1,2.6-3.6,5.6-4.5,8.8c-0.1,0.5,0,1.3-0.7,1.6c0-7.1,0-14.2,0-21.3
				C20.3,141.8,21.7,145.5,24.2,148.8z"/>
			<path class="st5" d="M82.5,57.7c0-2.9,0.1-5.8,0.1-8.7c4.4-0.5,8.8-1,13.2-1.4c3.4-0.3,6.8-0.7,10.2-0.7c6.6-0.1,13.2-0.3,19.8,0
				c19.8,0.8,39.1,3.7,57.5,11.4c5.9,2.5,11.5,5.6,16.3,9.9c3,2.7,5.4,5.9,6.2,9.9c1,5-1,9.2-4.4,12.7c-3.1,3.1-6.7,5.8-10.7,7.9
				c-0.3-0.6-0.8-0.9-1.3-1.3c-6.5-5.3-14.2-8.5-22-11.1c-15.2-4.9-30.9-6.8-46.7-7.2c-7.3-0.2-14.6,0.1-21.8,0.8
				c-5.5,0.5-10.9,1.1-16.3,2.1c0-2.8-0.1-5.6-0.1-8.3c0-0.8,0-1.7,0-2.5c0-3.6,0-7.2,0-10.8C82.5,59.4,82.5,58.5,82.5,57.7z"/>
			<path class="st6" d="M82.6,81.9c5.4-1,10.8-1.6,16.3-2.1c7.3-0.7,14.6-1,21.8-0.8c15.9,0.4,31.6,2.3,46.7,7.2
				c7.9,2.6,15.5,5.7,22,11.1c0.5,0.4,1,0.7,1.3,1.3c-4,2.8-8.6,4.6-13.2,6.1c-8.7,2.8-17.5,5.1-26.5,6.6
				c-6.9,1.2-13.9,1.9-20.9,2.4c-6.7,0.5-13.3,0.4-20,0.3c-18.1-0.2-35.8-3.1-53.1-8.5c-5.6-1.8-11.1-3.5-16-6.9
				c1.3-1.5,2.8-2.6,4.6-3.4c0.4,2.5,1.7,3.8,3.5,3.8c2-0.1,3.2-1.6,3.2-4.2c0-1.2,0-2.5,0.1-3.7c7.4-3.7,15.3-5.9,23.3-7.9
				c0,0.8,0,1.5,0.1,2.3c0.1,2.1,1.5,3.5,3.3,3.5c1.9,0,3.2-1.4,3.3-3.6C82.6,84.3,82.6,83.1,82.6,81.9z M127.3,102
				c2-0.2,3.7,0.6,5.4,1.7c5.4,3.5,10.9,3.6,16.3,0.3c4-2.4,7.5-2.8,11.4,0c1.6,1.2,3.8,0.7,4.7-0.9c1-1.6,0.5-3.2-1.2-4.5
				c-5.7-4.2-11.7-4.3-17.6-0.5c-3.5,2.2-6.8,2.3-10.3,0c-5.1-3.4-10.5-3.7-15.9-0.7c-2.3,1.3-3.1,3.1-2,4.9c1,1.8,2.9,2.1,5.1,0.8
				C124.5,102.4,125.8,101.8,127.3,102z M93.8,106.2c3.2,0.3,6-0.8,8.6-2.6c1.6-1.1,2-3.1,1-4.6c-0.9-1.3-3-1.9-4.5-0.9
				c-3.8,2.6-7.3,2-11-0.5c-5.5-3.7-12.9-3-17.8,1.3c-1.1,0.9-1.6,2.1-1.2,3.5c0.4,1.4,1.4,2,2.7,2.3c1.2,0.3,2.2-0.5,3-1.1
				c3.6-2.5,7.1-2.4,10.6,0C87.9,105.4,90.6,106.4,93.8,106.2z"/>
			<path class="st7" d="M52.5,91.1c0,1.2-0.1,2.5-0.1,3.7c0,2.6-1.2,4.1-3.2,4.2c-1.9,0.1-3.1-1.2-3.5-3.8c0-11.8,0-23.7,0-35.5
				c0-2.5,0-4.9,0-7.4c0-2.1,0.1-4.3,0.1-6.4c0-2.2-1.3-3.6-3.2-3.7c-1.9-0.1-3.4,1.4-3.4,3.6c0,3.2,0,6.4,0.1,9.6
				c-0.1,2.4-0.2,4.8-0.2,7.2l0.1,0c-0.1,0.2-0.2,0.4-0.4,0.6c-0.6,0.4-1.1,0.9-1.7,1.3c-3.4,0.2-4.3-0.7-4.6-4.7
				c0-4.5,0-9,0.1-13.6c0-6.1,4.3-10.6,9.9-10.7c5.8,0,10,4.5,10.1,10.7c0,1.1,0,2.2,0.1,3.3c0,2.3,0,4.6,0,6.9c0,2.6,0,5.2-0.1,7.8
				c0,2.3,0.1,4.7,0.1,7c0,2.1-0.1,4.3-0.1,6.4c0,2.3,0.1,4.7,0.1,7C52.6,86.8,52.6,89,52.5,91.1z"/>
			<path class="st5" d="M45.7,59.8c0,11.8,0,23.7,0,35.5c-1.8,0.8-3.3,1.9-4.6,3.4c-4.6-2.4-8.6-5.6-12.1-9.4
				c-4.5-4.9-4.3-12.3,0.2-17.9c2.2-2.7,5-4.8,7.7-6.9c0.6-0.4,1.1-0.9,1.7-1.3c0.1-0.2,0.2-0.4,0.4-0.6c0,0-0.1,0-0.1,0
				c0.7,0.2,1.3-0.2,1.9-0.5C42.5,61.3,44,60.3,45.7,59.8z"/>
			<path class="st8" d="M52.5,56.5c0-2.3,0-4.6,0-6.9c3.3-1.1,6.6-2.3,9.9-3c0.1,0.8,0,1.7,0.4,2.5c0.7,1.6,1.9,2.3,3.7,2
				c1.6-0.3,2.6-1.3,2.7-3c0.1-1.1,0.1-2.2,0.1-3.3c2.2-0.4,4.3-0.8,6.5-1.2c0,2.2,0,4.4,0,6.7c-2.3,0.5-4.6,1-6.9,1.5
				C63.3,52.9,58,55,52.5,56.5z"/>
			<path class="st9" d="M52.6,71.3c0-2.3-0.1-4.7-0.1-7c7.8-2.6,15.6-5.2,23.4-7.9c3.6-1.4,4.7-1.2,6.6,1.2c0,0.8,0,1.7,0,2.5
				c-1.6,2.4-4.2,2.7-6.7,3.4C68.1,66.2,60.3,68.7,52.6,71.3z"/>
			<path class="st10" d="M75.9,56.5c-7.8,2.6-15.6,5.2-23.4,7.9c0-2.6,0-5.2,0.1-7.8c5.5-1.5,10.8-3.6,16.4-4.8
				c2.3-0.5,4.6-1,6.9-1.5C75.8,52.3,75.9,54.4,75.9,56.5z"/>
			<path class="st9" d="M52.6,84.7c0-2.3-0.1-4.7-0.1-7c7.8-2.6,15.6-5.2,23.4-7.9c3.6-1.4,4.7-1.2,6.6,1.2c0,0.8,0,1.7,0,2.5
				c-1.6,2.4-4.2,2.7-6.7,3.4C68.1,79.6,60.3,82.1,52.6,84.7z"/>
			<path class="st7" d="M75.8,77c2.5-0.7,5.1-1,6.7-3.4c0,2.8,0.1,5.6,0.1,8.3c0,1.2,0,2.4-0.1,3.5c-0.1,2.1-1.5,3.6-3.3,3.6
				c-1.9,0-3.2-1.4-3.3-3.5c0-0.8-0.1-1.5-0.1-2.3C75.8,81.1,75.8,79.1,75.8,77z"/>
			<path class="st7" d="M82.5,71.1c-1.9-2.4-3-2.6-6.6-1.2c0-2.1-0.1-4.1-0.1-6.2c2.5-0.7,5.1-1,6.7-3.4
				C82.5,63.8,82.5,67.5,82.5,71.1z"/>
			<path class="st11" d="M127.3,102c-1.6-0.2-2.9,0.4-4.2,1.1c-2.2,1.3-4.1,0.9-5.1-0.8c-1-1.8-0.3-3.6,2-4.9
				c5.4-3,10.8-2.8,15.9,0.7c3.5,2.4,6.8,2.3,10.3,0c5.9-3.9,11.9-3.7,17.6,0.5c1.7,1.3,2.2,2.9,1.2,4.5c-1,1.6-3.1,2.1-4.7,0.9
				c-3.8-2.8-7.4-2.5-11.4,0c-5.4,3.3-10.9,3.2-16.3-0.3C131.1,102.6,129.4,101.8,127.3,102z"/>
			<path class="st11" d="M93.8,106.2c-3.1,0.2-5.9-0.7-8.4-2.5c-3.5-2.4-7.1-2.5-10.6,0c-0.9,0.6-1.8,1.4-3,1.1
				c-1.3-0.3-2.3-0.9-2.7-2.3c-0.4-1.5,0.2-2.6,1.2-3.5c4.9-4.4,12.2-5.1,17.8-1.3c3.7,2.5,7.2,3,11,0.5c1.5-1,3.6-0.4,4.5,0.9
				c1,1.5,0.6,3.5-1,4.6C99.8,105.4,97,106.4,93.8,106.2z"/>
			<path class="st10" d="M75.8,77c0,2.1,0,4.1,0,6.2c-8,2-15.9,4.2-23.3,7.9c0-2.1,0-4.3,0-6.4C60.3,82.1,68.1,79.6,75.8,77z"/>
			<path class="st12" d="M75.8,63.6c0,2.1,0.1,4.1,0.1,6.2c-7.8,2.6-15.6,5.2-23.4,7.9c0-2.1,0.1-4.3,0.1-6.4
				C60.3,68.7,68.1,66.2,75.8,63.6z"/>
			<path class="st8" d="M39.2,55.5c2.2-1,4.3-2.1,6.5-3.1c0,2.5,0,4.9,0,7.4c-1.7,0.5-3.2,1.5-4.8,2.3c-0.6,0.3-1.2,0.7-1.9,0.5
				C39.1,60.2,39.1,57.9,39.2,55.5z"/>
			<path class="st8" d="M39,62.6c-0.1,0.2-0.2,0.4-0.4,0.6C38.8,63,38.9,62.8,39,62.6z"/>
		</g>
	</g>
</g>
</svg>
