<svg id="图层_1" data-name="图层 1" xmlns="http://www.w3.org/2000/svg" xmlns:xlink="http://www.w3.org/1999/xlink" viewBox="0 0 425.2 425.2"><defs><style>.cls-1{fill:#390176;}.cls-2{fill:#3f8680;}.cls-3{fill:#231f1f;isolation:isolate;opacity:0.33;}.cls-4{fill:url(#linear-gradient);}.cls-5{fill:#d7ffff;}.cls-6{fill:#57d9fd;}.cls-7{fill:url(#未命名的渐变_32);}.cls-8{opacity:0.33;fill:url(#linear-gradient-2);}.cls-9{fill:#175951;}.cls-10{fill:#1f4b7a;}.cls-11{fill:#5cc5c0;}.cls-12{fill:#fed995;}.cls-13{fill:#95aba8;}.cls-14{fill:#c9e3da;}.cls-15{fill:#46462a;}.cls-16{fill:#ff8517;}.cls-17{fill:#286f9b;}.cls-18{fill:#2892ce;}.cls-19{fill:#fff;opacity:0.6;}.cls-20{fill:#2a97c0;}</style><linearGradient id="linear-gradient" x1="106.94" y1="197.72" x2="294.38" y2="306.69" gradientUnits="userSpaceOnUse"><stop offset="0" stop-color="#caf2e4"/><stop offset="0.66" stop-color="#4695ce"/><stop offset="0.96" stop-color="#bbffc1"/></linearGradient><linearGradient id="未命名的渐变_32" x1="114.03" y1="253.08" x2="173.96" y2="150.64" gradientTransform="translate(-82.48 95.93) rotate(-29.35)" gradientUnits="userSpaceOnUse"><stop offset="0" stop-color="#fff" stop-opacity="0"/><stop offset="0.22" stop-color="#fff" stop-opacity="0.24"/><stop offset="0.6" stop-color="#fff" stop-opacity="0.64"/><stop offset="0.87" stop-color="#fff" stop-opacity="0.9"/><stop offset="1" stop-color="#fff"/></linearGradient><linearGradient id="linear-gradient-2" x1="276.96" y1="274.97" x2="225.74" y2="243.37" gradientUnits="userSpaceOnUse"><stop offset="0" stop-color="#231f1f"/><stop offset="0.38" stop-color="#231f1f" stop-opacity="0.72"/><stop offset="1" stop-color="#231f1f" stop-opacity="0"/></linearGradient></defs><path class="cls-1" d="M195.63,419.38a112.55,112.55,0,0,1-24.22-2.93c-21.29-4.77-43.36-13.65-65.62-26.42h0l-2.45-1.4-2.62-1.54a364.7,364.7,0,0,1-39.48-27.58h0l-1.82-1.47-4.71-3.82-2.83-2.32c-.5-.41-1-.87-1.54-1.34l-.25-.22-.46-.43-.86-.83-.46-.45-.61-.63-1.07-1.14-.09-.11c-.33-.36-.65-.74-1-1.12l-.66-.77L44,343.71c-.26-.33-.52-.67-.77-1l-.12-.15-.63-.86c-.29-.39-.58-.81-.86-1.22l-2.16-3.13.06-.09c-.81-1.32-1.59-2.67-2.32-4l-.11-.21c-9-16.93-11.58-35.89-6.25-45.11l.81-1.4c6.56-11.39,20.23-35.09,28.88-47.06a14.11,14.11,0,0,1,1.59-1.81l0,0,.23-.21.27-.25,0,0c.35-.31.7-.6,1.06-.87l.09-.06a18.38,18.38,0,0,1,5.78-2.79c.56-.17,1.08-.3,1.61-.41l.29-.06c.5-.1,1-.2,1.51-.27l.54-.07c.41-.05.83-.11,1.26-.14.82-.07,1.65-.1,2.49-.1a27.1,27.1,0,0,1,6.29.68l.19,0,75.81-133.2c-5.21-8.46-6.29-15.58-3.2-21.19l6.49-11.76a20.68,20.68,0,0,1-2.54-8.47c-.12-1.53-.25-2.78-.36-3.82l0-.2c-.69-6.6-.28-8.18,4-15.38,2.17-3.66,4.26-7.26,6.27-10.73s4.34-7.49,6.5-11.08c.31-.5.62-1,1-1.47a8.6,8.6,0,0,1,.76-1c.14-.17.3-.35.48-.53A20.46,20.46,0,0,1,185,9.65a28.17,28.17,0,0,1,10.72-2.88c1-.08,2-.12,3-.12a46.07,46.07,0,0,1,7.7.69c11.25,2,41.92,12.22,62.55,23.18,19.87,10.56,50.47,28.53,55.62,32.19,9.79,6.91,4.31,17.9,1.51,22.31-2.11,3.33-5.7,9.53-7.83,13.24a314.45,314.45,0,0,1,25.14,18.89L354,98.87a3.45,3.45,0,0,1,.14-.34,7.61,7.61,0,0,1,5.41-4.29,8.93,8.93,0,0,1,1.17-.17c.26,0,.51,0,.77,0,3.27,0,6.95,1.59,10.61,4.61.24.2.57.49,1,.88s31.44,29.19,22.47,42.22c-.19.27-.38.55-.58.86l-.83,1.29c-4.41,6.95-11.85,20.48-14.65,25.57l-.95,1.71c-2.33,4.21-8.48,6.53-12.65,7.67l-7.37,13.36c-2.7,4.88-8.05,7.67-15.9,8.29-1.12.09-2.32.14-3.57.14h-1.16L258.14,338.2c6.68,9.2,3,20.07,2.82,20.54l-.16.47-.28.5c-.15.27-16.33,28.73-21.18,37.49-7.21,13-20.24,20.57-37.7,21.95C199.71,419.3,197.69,419.38,195.63,419.38Z"/><path class="cls-1" d="M393.18,140.14c6.59-9.57-16.46-33.38-22.05-38.53-.37-.34-.67-.6-.87-.77-3.35-2.76-6.67-4.16-9.35-4a7,7,0,0,0-.8.12,4.75,4.75,0,0,0-3.6,3.13l0,0L344.09,121.5a310.81,310.81,0,0,0-29.65-22.36l.08-.15c1.89-3.31,6.56-11.47,9.12-15.5,6.5-10.21,3.18-15.69-.76-18.47-5.1-3.62-35.5-21.47-55.31-32-20.41-10.83-50.65-21-61.7-22.89a40.11,40.11,0,0,0-10-.53,25.24,25.24,0,0,0-9.67,2.58,17.62,17.62,0,0,0-5.27,4c-.13.13-.25.26-.37.4a8.43,8.43,0,0,0-.6.77c-.33.46-.62.88-.88,1.3-2.08,3.46-4.22,7.15-6.48,11.05-2,3.48-4.11,7.09-6.28,10.76-4,6.67-4.22,7.69-3.61,13.63.12,1.1.27,2.44.4,4.11a17.87,17.87,0,0,0,3,8.61L158.86,80c-2.74,5-1.37,11.58,4,19.73L85.09,236.43l-.51-.18-.49-.17-1.22-.35a26.54,26.54,0,0,0-7.85-.5c-.46,0-.89.1-1.32.16l-.3,0q-.69.11-1.35.24l-.26.06c-.47.1-.92.21-1.36.34l-.05,0a15.52,15.52,0,0,0-4.92,2.37l-.06,0c-.32.24-.62.49-.91.75l-.07,0-.19.18,0,0a10.77,10.77,0,0,0-1.42,1.6c-8.57,11.84-22.18,35.46-28.73,46.81l-.81,1.4c-4.85,8.41-1.93,26.81,6.28,42.32h0l.13.25c1,1.84,2.05,3.64,3.18,5.38l0,0,1.09,1.57c.27.4.55.8.83,1.19l.71,1,.74,1,.9,1.12c.2.25.41.49.62.74l.93,1.06.08.09.59.63.31.33c.23.25.46.49.7.73l.43.42.81.78.43.41.23.21c.49.44,1,.87,1.49,1.28l0,0,.11.08L54,350l2.49,2,.09.08.24.2c.26.2.5.4.76.62s.42.34.63.51l.95.77,2,1.65h0l.21.17.33.26a368.85,368.85,0,0,0,40.41,28.37l2.62,1.53v0C124,397.44,147,408.08,172,413.68c10.89,2.43,20.78,3.32,29.39,2.64,16.46-1.3,28.72-8.38,35.44-20.49,4.81-8.7,21-37.24,21.2-37.52l.14-.24v0h0l.08-.23c.14-.42,3.49-10.3-2.8-18.42l-.1-.14-.63-.87,81.5-140.65a47.39,47.39,0,0,0,6.11,0h0c6.84-.54,11.43-2.84,13.64-6.84l8-14.43c6-1.45,10.54-3.86,12.06-6.6l.94-1.71c3-5.38,10.3-18.71,14.74-25.72l.19-.3.67-1h0Z"/><path class="cls-1" d="M201.42,416.32c-8.61.68-18.5-.21-29.39-2.64C116.41,401.24,71.06,364,54,350l-.26-.21c-18.15-14.91-27.55-48.25-20.49-60.48l.81-1.4c6.55-11.35,20.16-35,28.73-46.81,2.46-3.4,6.69-5.43,12.23-5.87a26.54,26.54,0,0,1,7.85.5,16.71,16.71,0,0,1,1.71.52l3.5,1.26-2,3.19c-.14.23-3.57,5.76-6.71,10-2.54,3.41.29,7.39,6.87,15l2,2.32,1.46,1.72c6.09,7.09,6.18,8.63,1,16.51l-.27.4c-3.87,5.83-9.8,16.78-12.17,21.22l-.55,1c11.56,12.25,29.9,24.91,40.07,31.52,3,1.94,5.44,3.5,7.16,4.56,2.91-5.13,9.18-16.17,11.3-20.05,3-5.47,7.62-9,12.37-9.34a11.69,11.69,0,0,1,7,1.74l24.23,14.46c.23.13.54.3.85.49,22.23,13.26,47.78,20.55,58.68,19.68,2.3-.18,3.32-.7,3.53-1a54.33,54.33,0,0,0,7.39-11.18l2.15-4.72,3,4.15.1.14c6.29,8.12,2.94,18,2.8,18.42l-.09.26-.14.24c-.16.28-16.39,28.82-21.2,37.52C230.14,407.94,217.88,415,201.42,416.32Z"/><path class="cls-2" d="M255.46,356.8s-16.34,28.74-21.22,37.55-19,25.89-61.56,16.38c-55.21-12.34-99.79-49.12-117-63.29s-25.9-46-19.79-56.61S56.36,255.1,65.2,242.88c4.19-5.78,14.24-4.9,16.93-4.22.91.24,1.45.43,1.45.43s-3.47,5.6-6.57,9.75C72.28,255.19,79.19,262,86,270s7.1,7.2,1.93,15c-3.82,5.75-9.59,16.36-12.32,21.47-1,1.81-1.56,2.94-1.56,2.94,11.43,12.73,30.52,26.05,42.09,33.58,5.91,3.86,9.86,6.2,9.86,6.2s10-17.59,12.85-22.77,8.74-10.34,15.24-6.46l24.24,14.46.82.48c27,16.12,60.76,24.33,66,18.09A56.56,56.56,0,0,0,253,341.07c0,.05.08.1.11.16C258.49,348.14,255.46,356.8,255.46,356.8Z"/><path class="cls-3" d="M255.16,357.33,244,353.85c-4.66,2.63-17.75.8-33-4.35L188,351c17.22,8.71,32.12,16.34,25.21,32.69s-26.27,20-48.73,17.07-58-12.37-53.3-25.26c2.73-7.5-3.38-1-9,5.69,19.8,12,43.91,23.64,70.51,29.59,42.52,9.51,56.68-7.57,61.56-16.38C238.74,386.24,253,361.23,255.16,357.33Z"/><path class="cls-3" d="M93.31,326.79A152.75,152.75,0,0,1,74,309.38s.59-1.13,1.56-2.94c2.73-5.11,8.5-15.72,12.32-21.47,5.17-7.79,4.85-7-1.93-15-3.34-4-6.71-7.6-8.7-11l-12.71,1.21c4.39,9.06,13.11,13.51,7.3,22.55s-8,14.48-16.71,19.21S45.7,311.4,43,315.55c-2.33,3.55-7.31-6.6-8.72-9.64,1.76,13.79,9.53,31.81,21.37,41.53,4.14,3.4,9.86,8.11,16.92,13.46Z"/><path class="cls-1" d="M237.48,355.58c-13.2,0-38.58-8.34-58.62-20.28l-.81-.48-24.24-14.46a8,8,0,0,0-6.44-1c-3,.82-6.07,3.55-8.11,7.27-2.8,5.12-12.76,22.6-12.86,22.78l-.25.44-.44-.26s-4-2.39-9.87-6.21c-10.74-7-30.5-20.65-42.19-33.67l-.23-.26.16-.31s.59-1.13,1.56-2.94c2.4-4.48,8.39-15.56,12.35-21.51l.26-.4C92,277.83,92,277.83,87.07,272c-.46-.53-.95-1.11-1.48-1.74l-2-2.29c-6.19-7.2-11.53-13.41-7-19.47,3-4.08,6.51-9.65,6.54-9.71L166,93.21l.44.25L340,192.29l-.25.44L253.15,342.15l-.07-.1a61.18,61.18,0,0,1-7.54,11.24C244.21,354.86,241.37,355.58,237.48,355.58Zm-88-37.51a9.47,9.47,0,0,1,4.87,1.43L178.55,334c.26.14.55.31.83.48,27.14,16.19,60.39,24.11,65.4,18.2a56.86,56.86,0,0,0,7.76-11.77l.36-.8.17.24,85.55-147.64L166.41,94.57,84,239.34c0,.07-3.52,5.68-6.6,9.8-4,5.41,1.07,11.35,7,18.21l2,2.31,1.48,1.73c5.36,6.25,5.38,6.5.76,13.45l-.27.41c-3.93,5.91-9.91,16.95-12.29,21.42-.68,1.25-1.17,2.18-1.4,2.63,11.64,12.86,31.13,26.33,41.76,33.24,4.71,3.08,8.21,5.21,9.4,5.93,1.57-2.77,10-17.66,12.59-22.32,2.17-4,5.43-6.86,8.73-7.76A9,9,0,0,1,149.45,318.07Z"/><path class="cls-1" d="M339.31,192.48l-86.2,148.75c0-.06-.08-.11-.11-.16A56.56,56.56,0,0,1,245.16,353c-5.28,6.24-39-2-66-18.09l-.82-.48-24.24-14.46c-6.5-3.88-12.41,1.29-15.24,6.46S126,349.16,126,349.16s-4-2.34-9.86-6.2c-11.57-7.53-30.66-20.85-42.09-33.58,0,0,.59-1.13,1.56-2.94,2.73-5.11,8.5-15.72,12.32-21.47,5.17-7.79,4.85-7-1.93-15s-13.69-14.79-9-21.14c3.1-4.15,6.57-9.75,6.57-9.75l82.64-145.2Z"/><path class="cls-4" d="M239.35,352c-10.9.87-36.45-6.42-58.71-19.69-.28-.18-.59-.35-.88-.52l-24.17-14.42a11.69,11.69,0,0,0-7-1.74c-4.75.37-9.37,3.87-12.37,9.34-2.12,3.88-8.39,14.92-11.3,20.05-1.72-1.06-4.2-2.62-7.16-4.55-10.17-6.62-28.51-19.28-40.07-31.53l.55-1c2.37-4.45,8.3-15.4,12.17-21.23l.27-.4c5.23-7.88,5.14-9.42-1-16.51L88.24,268c-.66-.79-1.32-1.56-2-2.32-6.58-7.65-9.41-11.63-6.87-15,3.14-4.2,6.57-9.73,6.71-10L167.33,98l167.86,95.6L252.85,335.7h0l-2.58,4.12A54.33,54.33,0,0,1,242.88,351C242.67,351.25,241.65,351.78,239.35,352Z"/><path class="cls-5" d="M239,206a68.63,68.63,0,0,0-58.21-27.54A67,67,0,0,0,154.73,185a68.09,68.09,0,0,0-11.55,7.1,68.5,68.5,0,0,0-24.45,72.6,68.16,68.16,0,0,0,44.44,46.65,69.89,69.89,0,0,0,13,2.91,67.78,67.78,0,0,0,13.28.34,68.84,68.84,0,0,0,13.07-2.23,68.13,68.13,0,0,0,40.91-31.51A68.5,68.5,0,0,0,252,256,67.77,67.77,0,0,0,239,206Zm2.19-1.67a70.2,70.2,0,1,1-118.64,73.51,69.82,69.82,0,0,1-6.71-26.31,71,71,0,0,1,.58-13.59,69.75,69.75,0,0,1,26.75-45.75,71.39,71.39,0,0,1,24.19-12,70.29,70.29,0,0,1,53,6.26,68.91,68.91,0,0,1,11.29,7.9A70.44,70.44,0,0,1,241.2,204.28Z"/><path class="cls-5" d="M150.15,243.05a33.49,33.49,0,0,1,4.54-12.9,34.5,34.5,0,0,1,9.16-9.93,35.65,35.65,0,0,1,5.77-3.4A36,36,0,0,1,189,213.67a34.61,34.61,0,0,1,18,61,34.85,34.85,0,0,1-12.14,6.53,35.64,35.64,0,0,1-13.82,1.31,36.47,36.47,0,0,1-6.84-1.42,35.17,35.17,0,0,1-12.2-6.76,34.93,34.93,0,0,1-11-17.5A35.23,35.23,0,0,1,150.15,243.05Zm3.19.37a32.07,32.07,0,0,0,7.06,23.3,32.57,32.57,0,0,0,9.43,7.94,32.37,32.37,0,0,0,35.26-2.44A32.64,32.64,0,0,0,217,238a32.79,32.79,0,0,0-21.58-22.92,33.64,33.64,0,0,0-6.44-1.41,31.55,31.55,0,0,0-13,1.23,33.37,33.37,0,0,0-6,2.6,32.83,32.83,0,0,0-13.15,13.83A33.93,33.93,0,0,0,153.34,243.42Z"/><path class="cls-6" d="M218.29,289.77c-33.93-43.64-43.18-31.87-94.78,2.1,47-34.94,68-40.84,25.78-92,44.27,54.73,50.24,32.51,99.18-2.52C215.16,222.38,179.29,246.1,218.29,289.77Z"/><path class="cls-5" d="M203.91,235.42s-14.33,8.35-27.19-3.42c0,0,10.91,11.27-3.45,25.29,0,0,13.33-5.52,23.09,4.87C196.36,262.16,188,245.6,203.91,235.42Z"/><path class="cls-5" d="M218.08,242c-.4-.53,3.8,8.9-2.21,17.64.33-1.14,9.11-7.47,21.12-6.17C237,253.47,222.78,250.71,218.08,242Z"/><path class="cls-5" d="M152.81,235.12s-5.91,8.06-.11,16.91c-.19-1.17-8.45-8.78-21.08-9.37C131.62,242.66,146.78,243,152.81,235.12Z"/><rect class="cls-7" x="125.88" y="130.14" width="32.05" height="150.6" transform="translate(118.91 -43.18) rotate(29.35)"/><path class="cls-8" d="M328,189.49l-59.65-34L170,325.9l9.81,5.85c.29.17.6.34.88.52,19.28,11.49,41,18.49,53.59,19.6Z"/><path class="cls-1" d="M209.75,174.92a72.45,72.45,0,0,1-10.49-1.2l-3.75-.6,11.88-24.85,12.4-10.05,15.1,4.31-1.84,3.16c-.09.14-8.28,14.17-11.83,21.26-2.52,5.05-5.21,8-11.47,8Z"/><path class="cls-9" d="M199.7,170.92c12.74,2,15.35,2,19-5.23s11.91-21.43,11.91-21.43l-10.17-2.91-10.76,8.72Z"/><polygon class="cls-1" points="213.63 72.02 191.46 58.8 194.33 30.94 199.03 17.98 224.69 19.54 279.74 43.8 314.65 65.11 319.65 71.97 309.27 92.61 302.62 104.01 213.63 72.02"/><polygon class="cls-10" points="194.63 57.18 197.27 31.63 201.08 21.13 223.98 22.53 278.36 46.49 312.59 67.39 316.14 72.26 306.64 91.16 301.29 100.32 214.91 69.27 194.63 57.18"/><path class="cls-3" d="M312.59,67.38,278.36,46.49,224,22.53l-22.9-1.4-3.81,10.5-2.64,25.55L211.08,67c7.47.31,15.89.44,15.89.44L227.69,56c-10.89-13.63,2.36-22.71,31.06-9.81S307.26,69.61,308,75.6c.56,4.71,5.73-1,7.92-3.68Z"/><path class="cls-1" d="M342.37,197.68c-20.24,1.6-59.5-12.09-100-34.88-7.41-4.17-14.68-8.54-21.63-13-2.87,4.91-8.38,14.37-10.48,18.08s-5.18,5.82-8.75,6.1a12.32,12.32,0,0,1-7-1.71c-2.87-1.62-14.23-9.4-23.36-15.66-4.64-3.17-8.64-5.92-10.09-6.86-4.43-2.89-8-6.69-4-14.89,2.35-4.89,10.72-19.79,13.75-25.17C159.08,96.84,155.08,86.86,158.86,80l14.28-25.9c2.21-4,6.8-6.3,13.64-6.84,20.24-1.6,59.5,12.09,100,34.88,47.78,26.86,93.28,65,83.47,82.78L356,190.84c-2.21,4-6.8,6.3-13.64,6.84Z"/><path class="cls-2" d="M285.36,84.79c-53-29.78-102.07-42.86-109.6-29.2l-14.29,25.9c-3.27,5.93,1.83,15.92,13,27.76h0s-11.93,21.06-14.75,26.92-1.28,8.26,3,11,29.07,20,33.29,22.42,8.8,1.83,11.68-3.25,12.08-20.82,12.08-20.82h0c7.54,4.94,15.61,9.84,24.09,14.61,53,29.79,102.07,42.87,109.6,29.21l14.29-25.9C375.21,149.81,338.36,114.58,285.36,84.79Z"/><path class="cls-3" d="M279.28,128s-24-7.4-25.89-8.06-35.89-13.17-37.52-14.28c-1.91-1.29-32.49-9.26-32.49-9.26l-6.54,28.25-12.41,18.24a124.22,124.22,0,0,0,7.25,10.45c9,6.15,21.38,14.66,24.26,16.28,4.23,2.39,8.8,1.83,11.68-3.25s12.08-20.82,12.08-20.82-5.17-13.27,3-17.8c8.38-4.65,45.38,17.65,50.57,27.4v0c3.47,8.2,10.28,19.51,22.92,26.23,13.7,7.28,23.67,11.86,45.22,7.08,9.8-2.17,13-8.49,22.2-17.6l4-7.16C366.56,144.5,279.28,128,279.28,128Z"/><path class="cls-1" d="M356.63,171.78c-20.24,1.6-59.5-12.09-100-34.88-47.78-26.86-93.28-65-83.47-82.78,2.2-4,6.79-6.3,13.64-6.84,20.23-1.6,59.5,12.09,100,34.88,47.79,26.86,93.28,65,83.48,82.78C368.06,168.94,363.47,171.24,356.63,171.78Z"/><ellipse class="cls-11" cx="271.69" cy="109.53" rx="28.25" ry="110.08" transform="translate(42.98 292.57) rotate(-60.63)"/><path class="cls-3" d="M298.43,154.14c3.46-4.84,6.73-9.52,6.73-9.52l-26.43-23.7s-6.5,9.57-12.75,9.26-25.66-9.54-22.12-13.89,19.89-2.46,21.07-6.09l-5-19S223.43,60.44,212.8,61s-.76,10.77-6.37,11.88S185,61.52,185,61.52L178.89,71c10.58,17,40.59,41.58,79.16,63.25A395,395,0,0,0,298.43,154.14Z"/><path class="cls-1" d="M337.47,140.85c-9.72.77-37-10.35-67.79-27.68C252.59,103.56,237.06,93.5,226,84.84c-16.82-13.11-17.33-18-15.62-21.15.63-1.15,2-2.56,5.14-2.81,9.72-.77,37,10.36,67.79,27.68,17.09,9.61,32.63,19.67,43.73,28.33,16.82,13.11,17.34,18,15.63,21.16C342,139.19,340.58,140.61,337.47,140.85Z"/><ellipse class="cls-12" cx="276.47" cy="100.87" rx="11.04" ry="72.88" transform="translate(53.04 292.41) rotate(-60.65)"/><path class="cls-3" d="M327.18,120.89c-2.77-2.24-5.93-4.62-9.42-7.11-8.36-1.42-23.14-5.15-42-14.93-26.84-13.91-32.85-23.36-13-17.81-26.55-13.33-47.37-20.22-49.77-15.88-2.94,5.33,23.11,25.65,58.2,45.37,19.12,10.75,37,19.09,49.73,23.6L326.6,136c2,.59,3.8,1,5.4,1.35Z"/><path class="cls-1" d="M275.67,102.32c-21.48-12.08-41.35-21.12-54.22-25.1,2.53,2.23,5.56,4.68,9,7.27l0,0c.82.62,1.67,1.24,2.53,1.88l.25.17c.85.62,1.72,1.25,2.61,1.88l.13.09q2.85,2,6,4.12l.3.2c.89.6,1.79,1.2,2.71,1.8l.72.48,2.48,1.6.78.51,2.8,1.77.48.3c1.12.71,2.26,1.41,3.42,2.12l.54.34,2.86,1.73,1.12.67,2.42,1.43,1.24.73,2.51,1.46,1.12.65,3.66,2.08h0l3.67,2,1.16.63c.84.47,1.69.93,2.53,1.38l1.29.69c.82.44,1.63.88,2.45,1.3l1.18.63,2.94,1.52.59.31,3.57,1.81.53.26,2.94,1.46.86.41,2.64,1.27.79.38,2.93,1.37.34.15c2.26,1,4.47,2,6.6,2.95l.16.07,2.94,1.25.29.12c1,.4,1.94.8,2.89,1.17l.05,0c4,1.6,7.65,2.91,10.86,3.9C315.23,126.68,297.15,114.39,275.67,102.32Z"/><path class="cls-1" d="M268.6,105.72c0,.16-.08.32-.14.49-.72,2.21-2.72,4.72-8.09,5.14-.55,0-1.12.07-1.72.06-3.2,0-7.25.16-11.95.34-2.56.09-5.3.2-8.15.29-.78,0-1.5.06-2.22.12-6.44.51-10.19,2.31-12.16,5.86-1,1.76-3.75,7.11-7,13.31-5,9.71-11.28,21.81-13.69,25.93-2.28,3.93-4.7,5.86-7.63,6.09-2.54.2-5.15-1-7.37-2.15-3.8-2-10.57-6.72-16-10.5-2.41-1.67-4.49-3.12-5.81-4-4.75-3.1-5-4.76-5.06-10.61,0-1.89,0-4,0-6.23,0-3.09.06-6.28,0-9.08l0-.87c-.05-1.07-.08-2.12-.05-3.16,0,0,0,0,0,0,0-.19,0-.4,0-.59a12.47,12.47,0,0,1,.19-1.84l.12-.63a11.7,11.7,0,0,1,1.6-4,0,0,0,0,0,0,0l.47-.68a14.68,14.68,0,0,1,1.12-1.37c.16-.17.32-.35.49-.52l.22-.21c.22-.22.46-.44.71-.67l7.14-6.35c2.82-2.52,6.1-5.44,9.49-8.44L186,88.92c4.48-4,9-8,12.65-11.22,1.4-1.24,3.82-2,7.4-2.27,10.21-.81,28,2.45,32.11,4.72.13.08.29.16.45.27.61.35,1.44.88,2.43,1.53l.73.47c.17.13.34.24.52.36l1,.65s0,0,0,0l1,.7c4,2.78,9.25,6.55,13.81,10.12l.58.47.59.47c.6.46,1.16.91,1.68,1.36a45.21,45.21,0,0,1,6.6,6.18l.22.28c.12.16.23.32.33.47a5.71,5.71,0,0,1,.41.72v0A2,2,0,0,1,268.6,105.72Z"/><path class="cls-13" d="M199.59,78.83c-10.35,9.18-27.1,24.09-32.14,28.56s-4.53,8.52-4.35,13.36,0,10.82,0,15.34c.08,5.43.12,6.59,4.38,9.36s16.28,11.54,21.7,14.41,9.11,3.36,13-3.36,18.1-34.66,20.63-39.22,7.58-6.51,15.64-6.76,15.15-.61,20.15-.62,7.77-1.58,8.5-4.55S242,84,237.4,81.48,205,74.05,199.59,78.83Z"/><path class="cls-3" d="M249,89.31c-3.2-.27-69.12,15.53-69.94,16.08s-13.12,12.07-15.94,14.72c0,.21,0,.42,0,.64,0,.4,0,.82,0,1.24,3.35,6.5,9.46,10.3,15.33,18.9s2.85,11.84-4.38,9.07c5.18,3.6,11.57,8,15.13,9.9,5.42,2.87,9.11,3.36,13-3.36s18.1-34.66,20.63-39.22c1.72-3.09,4.6-5,8.79-6l.12,0a36,36,0,0,1,6.73-.77h.21c8.67-.61,21.69-1.17,28.07-4.49l.16-.1a5.71,5.71,0,0,0,.21-.58C267.61,103.49,257.62,95.58,249,89.31Z"/><path class="cls-1" d="M268.6,105.72c0,.16-.08.32-.14.49l-1.68-.18c-3-.31-7.62-.82-12.88-1.45a117.74,117.74,0,0,0-21.42-.69c-5.64.44-8.23,1.44-9.4,2.19-4.79,3.1-13.51,13.47-19.27,20.34l-1.72,2.06c-4.58,5.43-8.08,7.87-11.69,8.16a10.32,10.32,0,0,1-6.06-1.56c-15-8.65-22.71-14.82-22.82-18.35,0-.19,0-.4,0-.59a16.89,16.89,0,0,1,.19-1.84l.12-.63a12.78,12.78,0,0,1,1.6-4,0,0,0,0,0,0,0l.47-.68a14.68,14.68,0,0,1,1.12-1.37c.16-.17.32-.35.49-.52l.22-.21c.22-.22.46-.44.71-.67l7.14-6.35c2.82-2.52,6.1-5.44,9.49-8.44L186,88.92c4.48-4,9-8,12.65-11.22,1.4-1.24,3.82-2,7.4-2.27,10.21-.81,28,2.45,32.11,4.72.13.08.29.16.45.27.61.35,1.44.88,2.43,1.53l.73.47c.17.13.34.24.52.36l1,.65s0,0,0,0l1,.7c4,2.78,9.25,6.55,13.81,10.12l.58.47.59.47,1.68,1.36a51.82,51.82,0,0,1,6.6,6.18l.22.28a5.4,5.4,0,0,1,.51.78l.23.41v0A2,2,0,0,1,268.6,105.72Z"/><path class="cls-14" d="M254.08,103.08c5.11.62,9.67,1.12,12.85,1.45-2.49-4.59-25.22-20.68-29.53-23-4.62-2.55-32.41-7.43-37.81-2.65-10.35,9.18-27.1,24.09-32.14,28.56a11.75,11.75,0,0,0-4.44,9.29c.13,4.09,16.44,13.85,22.07,17.09s10,.63,15.87-6.27,15.83-19.15,21.33-22.69S244.37,101.9,254.08,103.08Z"/><path class="cls-1" d="M190.1,127.15a7.48,7.48,0,0,1-5.09-1.54c-1.46-1.09-3-2.18-4.55-3.29-2.71-1.95-5.52-4-8.14-6a4.09,4.09,0,0,1-1.58-3.22c-.09-4.81,7.18-11.7,15-18.44,1.49-1.28,2.85-2.47,4.11-3.57,4.29-3.75,7.39-6.45,10.77-8.43a9.84,9.84,0,0,1,4.06-1.57c1.92-.15,3.25.79,5.25,2.2l1.18.83c3.83,2.62,9,6.38,11.88,8.88a3,3,0,0,1,1.18,2.48c-.09,1.92-2.07,3.31-4.58,5.07a38.45,38.45,0,0,0-4,3.11c-9.33,8.63-15.31,14.77-17.76,18.23C194.94,126,192,127,190.1,127.15Z"/><path class="cls-15" d="M173.25,115.09c-4.5-3.57,7-13.76,13.5-19.32s10.44-9.37,14.67-11.84,4.84-1.39,8.9,1.4,9.06,6.47,11.74,8.78-3.33,4.57-7.46,8.4-14.33,13.32-18,18.47-7.68,5.68-10.74,3.41C181.86,121.4,177.32,118.34,173.25,115.09Z"/><path class="cls-1" d="M222.07,94.11c-2.69-2.31-7.69-6-11.75-8.78s-4.67-3.87-8.9-1.4-8.17,6.28-14.67,11.84-18,15.75-13.5,19.32c.38.31.79.61,1.18.91.25-3.21,22.3-23.16,26.48-26.2s5.58-2.58,10.07.76,9.31,7.61,9.32,7.62C222.36,96.66,223.55,95.39,222.07,94.11Z"/><ellipse class="cls-16" cx="196.12" cy="106.42" rx="12.48" ry="5.16" transform="translate(-14.9 178.95) rotate(-47.45)"/><polygon class="cls-1" points="336.2 140.51 342.06 125 356.49 100.16 359.51 97.29 373.84 111.27 379.59 121.53 374.49 130.37 373.47 142.59 336.2 140.51"/><polygon class="cls-10" points="359.3 101.28 344.77 126.31 340.46 137.72 370.73 139.41 371.56 129.44 376.14 121.5 371.45 113.14 359.3 101.28"/><path class="cls-1" d="M356.1,177.65A53.46,53.46,0,0,1,340,176.49c-15.65-3.56-49.59-16.25-59.33-22.94-9.29-6.36-10.23-7.86-11.36-13.43l0-.19c-.81-4,.42-5.93,1.87-7.69a5.46,5.46,0,0,0,1.11-1.75l.1-.28.16-.26c.1-.16,9.52-15.68,12.58-20.55,2.57-4.1,6.24-6.53,10.34-6.85a13.12,13.12,0,0,1,7.85,2c5.45,3.27,22.58,12.51,36.23,15.92l2.36.59c8.34,2.09,14.93,3.75,20.06,3.34a12.79,12.79,0,0,0,5.76-1.74c.62-.38,1-.74,1-1.07.3-1.89-3.4-6.21-6.1-9.36-1.46-1.7-3-3.45-4.24-5.19-2.55-3.46-2.31-5.91-1.65-7.36a4.87,4.87,0,0,1,4.22-2.8c2.68-.21,6,1.19,9.35,4s29.95,29.1,22.92,39.3c-4.08,5.92-12.89,21.93-16.21,28l-.94,1.71C373.89,173.67,365.69,176.89,356.1,177.65Z"/><path class="cls-17" d="M275,131.53s9.47-15.61,12.55-20.51,8.38-7.31,14.14-3.86,23.21,12.8,37,16.25,23.28,6.2,30.44,1.85-3-12.59-8.47-20c-4.1-5.56.85-7.64,7.63-2.06s27,28.46,22.35,35.24-15.28,26.26-17.3,29.91-16.63,8.89-32.79,5.21-49.16-16.22-58.3-22.49-9.21-7.14-10.15-11.72S273.86,134.82,275,131.53Z"/><path class="cls-3" d="M389.55,129.5c-12.55.64-31.66,1.77-31.66,1.77l-41.75-11.93-6.18,5c4.19,6.9,16.17,12.08,36.33,20s11.72,24.52-1.36,24.79-16.88.53-23.68-1.37c7.3,2.5,14.21,4.59,19.38,5.77,16.16,3.68,30.76-1.55,32.79-5.21s12.63-23.14,17.3-29.91C392.05,136.49,391.36,133.26,389.55,129.5Z"/><path class="cls-1" d="M382,145.85c-5.87.46-14-.58-27.07-3.48-18.78-4.16-42.32-16.22-48.31-19.91-1.39-.86-4.29-2.64-5.56-2.54-.15,0-.63,0-1.54,1.23a56.47,56.47,0,0,0-4.41,7.47c-2.38,4.41-6,11.08-12.59,22.32l-1.65,2.81-2.65-1.88c-7-4.93-7.91-6.64-9-11.79l0-.15c-.81-4,.42-5.93,1.87-7.69a5.46,5.46,0,0,0,1.11-1.75l.1-.28.16-.26c.1-.16,9.52-15.68,12.58-20.55,2.57-4.1,6.24-6.53,10.34-6.85a13.12,13.12,0,0,1,7.85,2c5.08,3,22.64,12.53,36.23,15.92l2.36.59c8.34,2.09,14.93,3.75,20.06,3.34a12.79,12.79,0,0,0,5.76-1.74c.62-.38,1-.74,1-1.07.3-1.89-3.4-6.21-6.1-9.36-1.46-1.7-3-3.45-4.24-5.19-2.55-3.46-2.31-5.91-1.65-7.36a4.87,4.87,0,0,1,4.22-2.8c2.68-.21,6,1.19,9.35,4s29.95,29.1,22.92,39.3c-.39.56-.82,1.22-1.28,1.94l-.31.49-.46.33a17.48,17.48,0,0,1-9.11,2.95Z"/><path class="cls-18" d="M368.37,103.18c-6.78-5.58-11.73-3.5-7.63,2.06,5.48,7.43,15.64,15.66,8.47,20s-16.61,1.6-30.44-1.85-31.29-12.8-37-16.25-11.05-1-14.13,3.86S275,131.53,275,131.53c-1.18,3.29-3.79,3.21-2.86,7.8.85,4.14,1,5.26,7.78,10.07,12.69-21.59,14.34-26.39,17.22-30.11s5.56-2.77,11,.59,28.91,15.44,47.4,19.54,28.55,4.83,33.79,1h0c.49-.76.94-1.45,1.34-2C395.39,131.64,375.15,108.76,368.37,103.18Z"/><path class="cls-19" d="M365.84,111.43c4.64,5.46,8.58,10.66,3.37,13.83-7.16,4.35-16.61,1.6-30.44-1.85a117.26,117.26,0,0,1-18.72-6.82h0c19.57,9.64,42.32,16.45,50.22,10.46C376.81,122.08,368.79,114.05,365.84,111.43Z"/><path class="cls-1" d="M323.64,83.49c-2.56,4-7.23,12.19-9.12,15.5L313,101.76,310.29,100c-3.15-2.07-6.24-4-9.17-5.87l-2.46-1.53,1.42-2.54c5-8.94,8.45-15.34,9.37-17.54.64-1.49-5.15-5-14.75-10.71-2.43-1.46-5.16-3.1-8.24-5-21-12.75-33.76-19.63-60.12-27.41-6.55-1.94-11.68-2.78-15.25-2.5-1.55.12-3.56.54-4.2,1.76-.75,1.43-.11,4.34,1.63,7.45,4,7.06,4.24,9.12,1.69,13l-.39.6a7.47,7.47,0,0,0-.53.89c-1.9,3.21-4.62,8.76-4.65,8.81l0,.1-.06.1c-7.71,13.1-8.29,13.78-8.89,14.49-.07.1-.14.18-.43.63a9.66,9.66,0,0,1-7.56,4,15.56,15.56,0,0,1-7.6-1.42c-.41-.18-.8-.35-1.19-.54-.63-.29-1.23-.58-1.81-.89l-.22-.11-.58-.33-.95-.53-1-.58c-6.93-4.29-10.69-9.75-11.19-16.21-.13-1.67-.28-3-.4-4.11-.62-5.94-.34-7,3.61-13.63,2.17-3.67,4.27-7.28,6.28-10.76,2.26-3.9,4.4-7.59,6.48-11,.26-.42.55-.84.88-1.3a8.43,8.43,0,0,1,.6-.77,17.55,17.55,0,0,1,5.64-4.41,25.24,25.24,0,0,1,9.67-2.58,40.11,40.11,0,0,1,10,.53c11,1.94,41.29,12.06,61.7,22.89,19.81,10.53,50.21,28.38,55.31,32C326.82,67.8,330.14,73.28,323.64,83.49Z"/><path class="cls-18" d="M321.12,81.86c-2.32,3.64-6.4,10.71-9.19,15.63-3-2-6.13-4-9.24-5.92,3.26-5.8,8.24-14.8,9.52-17.85,2-4.61-3.71-7-24.2-19.45s-33.85-19.75-60.83-27.73-25.39,3.76-21.26,11.1,3.27,7.52,1.38,10.48c-.2.31-.41.65-.62,1-1.94,3.3-4.72,9-4.72,9-10.19,17.31-7.72,12.59-9.27,15s-6.24,3.8-11.42,1.48a43.78,43.78,0,0,1-5.36-2.79c-4.56-2.83-9.27-7.23-9.78-13.88-.74-9.46-1.79-8.21,2.8-15.95s8.82-15.26,12.75-21.78,12.95-9,23.68-7.12,40.75,11.93,60.82,22.58,50.3,28.47,55,31.79S324.89,75.93,321.12,81.86Z"/><path class="cls-19" d="M205.36,13.12c-10.73-1.87-19.77.59-23.68,7.12-.84,1.39-1.69,2.83-2.56,4.3l9.13,3.34c-.51-9.13-1.05-16.35,21.41-13.83C208,13.64,206.56,13.33,205.36,13.12Z"/><path class="cls-3" d="M200,29.38c2.72,8.72,10.73,13.63,1.18,16.45-4.74,1.4-9.18,22.23-17.53,21.69-7.48-.49-6.16-3.87-10.65,2.28a30.21,30.21,0,0,0,2.91,2,43.78,43.78,0,0,0,5.36,2.79c5.18,2.32,9.89,1,11.42-1.48s-.92,2.27,9.27-15c0,0,2.78-5.67,4.72-9,.22-.38.42-.72.62-1,1.89-3,2.74-3.13-1.38-10.48s-5.72-19.06,21.26-11.1c4.17,1.23,8,2.45,11.59,3.67h0C211.44,19.3,197.27,20.66,200,29.38Z"/><path class="cls-1" d="M187.23,15c-2.27-1.38-5.13-.25-6.63,1.55l-.24.31c-.13.16-.24.32-.36.46-.33.46-.62.88-.88,1.3-2.08,3.46-4.22,7.15-6.48,11.05-2,3.48-4.11,7.09-6.28,10.76-4,6.67-4.23,7.69-3.61,13.63.12,1.1.27,2.44.4,4.11.5,6.46,4.26,11.92,11.19,16.21l1,.58.95.53.58.33.22.11,1.76,1,.05-.08,1.41-2.48c3.72-6.55,10.36-18.18,13.15-22.55.81-1.27,1.54-2.29,2.18-3.19,2.95-4.11,4.38-7-.58-11.84-4-4-9.83-12-9.36-17.76a6.89,6.89,0,0,1,.44-2.31A5.42,5.42,0,0,1,187.23,15Z"/><path class="cls-17" d="M192.93,39c-4.37-4.31-10.81-13.11-10.24-20.17a13.39,13.39,0,0,0-1,1.45c-3.93,6.52-8.15,14-12.75,21.78s-3.54,6.49-2.8,15.95c.51,6.65,5.22,11,9.78,13.88.6.37,1.19.7,1.77,1,3.89-6.85,10.43-18.29,13.24-22.69C195,43.74,197.31,43.28,192.93,39Z"/><path class="cls-3" d="M186.65,39.73c4.08,7.9-6,25.38-12.26,24.13-5.89-1.17-6-2.62-8.43-7.82.06.59.11,1.23.17,1.93.51,6.65,5.22,11,9.78,13.88.6.37,1.19.7,1.77,1,3.89-6.85,10.43-18.29,13.24-22.69,4.12-6.44,6.39-6.9,2-11.22s-10.81-13.11-10.24-20.17C179.84,27.47,182.56,31.83,186.65,39.73Z"/><path class="cls-3" d="M315,72.63c-3.81,3.81-.45,6.39-3.95,11.58s-5.69,2.45-8.39,7.36c3.11,1.94,6.2,3.92,9.24,5.92,2.79-4.92,6.87-12,9.19-15.63C323.73,77.75,325,74,324,71,321.5,70.17,318.84,68.82,315,72.63Z"/><path class="cls-1" d="M59.15,354.21l-5-4.11-.38-.31a57.51,57.51,0,0,1-13.37-16.65l-.84-1.51.86-1.49c.08-.14,7.94-13.76,11.74-20.46,3.39-6,6.26-6.92,9.66-7.54a17.8,17.8,0,0,0,1.92-.44c2.52-.8,3.2-1,9.65-12.34L74.7,287c2.34-4.08,3.88-6.77,4.08-8.07,0-.23.08-.5-1.71-2-10.47-9-20.48-27.57-13-37.23l.15-.2.19-.18c2.52-2.3,6.2-3.7,10.64-4a26.32,26.32,0,0,1,7.81.49,16.71,16.71,0,0,1,1.71.52l3.5,1.26-2,3.19c-.14.23-3.57,5.76-6.71,10-2.54,3.41.29,7.39,6.87,15l2,2.32,1.46,1.72c6.09,7.09,6.18,8.63,1,16.51l-.27.4c-3.87,5.83-9.8,16.78-12.17,21.22l-.55,1a137.9,137.9,0,0,0,11.76,10.89l2,1.7L83,335l-21.8,20.9Z"/><path class="cls-11" d="M87.52,322.12A133.27,133.27,0,0,1,74,309.38s.59-1.13,1.56-2.94c2.73-5.11,8.5-15.72,12.32-21.47,5.17-7.79,4.85-7-1.93-15s-13.69-14.79-9-21.14c3.1-4.15,6.57-9.75,6.57-9.75s-.54-.19-1.45-.43c-2.45-.62-11-1.39-15.7,2.87C60.34,249.4,69.17,266.1,79,274.6c4.51,3.89,3.54,4.68-3.07,16.27s-7.68,12.55-11.35,13.71-6.06-.1-9.87,6.61S43.05,331.53,43,331.66a55,55,0,0,0,12.65,15.78c1.57,1.29,3.38,2.78,5.4,4.41L80.66,333Z"/><path class="cls-3" d="M87.52,322.12A133.27,133.27,0,0,1,74,309.38s.59-1.13,1.56-2.94c2.73-5.11,8.5-15.72,12.32-21.47a31.15,31.15,0,0,0,3.29-5.54c-5.81.2-8.37-.63-11.71,5.24h0c-.91,1.64-2.08,3.66-3.53,6.2-6.6,11.59-7.68,12.55-11.34,13.71s-6.07-.1-9.88,6.61S43.05,331.53,43,331.66a55,55,0,0,0,12.65,15.78c1.57,1.29,3.38,2.78,5.4,4.41L80.66,333Z"/><path class="cls-1" d="M102.15,384.66c-22-13.21-39-27.17-48.16-34.67l-.25-.2A53,53,0,0,1,44,338.93l-1.14-1.65,1.07-1.7c3.54-5.62,15.25-24.2,17.53-27.45a7.38,7.38,0,0,1,5.76-3,19.46,19.46,0,0,1,8,1.48l.61.26.45.5c11.43,12.72,30.9,26.18,41.5,33.07,5.64,3.69,7.09,4.52,7.15,4.55l3.2,1.79-1.64,2.68c0,.06-3.62,5.88-5.32,9.1s-13.55,22.77-14.84,25l-1.52,2.64Z"/><path class="cls-20" d="M74,309.38s-7.56-3.2-10.16.5c-2.3,3.28-14.65,22.88-17.44,27.32a49.68,49.68,0,0,0,9.21,10.24c9.16,7.52,26,21.4,48.05,34.62,0,0,12.57-21.84,14.33-25.18s5.41-9.27,5.41-9.27-1.4-.79-7.31-4.65C104.54,335.43,85.45,322.11,74,309.38Z"/><path class="cls-3" d="M118,356.88c.43-.83,4.83-8.26,5.41-9.27C116,344,96.52,338.09,82,327a97.21,97.21,0,0,0,13.44,17.44c8.47,8.72-2.5,21.28-14.17,16.49a166.33,166.33,0,0,1-25.67-13.46c9.16,7.52,26,21.4,48.05,34.62C103.69,382.05,116.25,360.22,118,356.88Z"/><path class="cls-1" d="M243.35,366.54c-12.51,1-30-5.24-42.12-10-17.31-6.82-42.45-18.75-61.11-31.73l-2.28-1.59,1.84-3a14.07,14.07,0,0,1,8.9-4.61,11.67,11.67,0,0,1,7,1.74l24.23,14.46c.23.13.54.3.85.49,22.23,13.26,47.78,20.55,58.68,19.68h0c2.3-.18,3.32-.71,3.53-1a54.33,54.33,0,0,0,7.39-11.18l2.58-4.12,2.54,3.55.1.14c6.29,8.12,2.94,18,2.8,18.42l-.08.23-.12.21c-2.67,4.94-7.63,7.73-14.74,8.29Z"/><path class="cls-11" d="M253.11,341.23c0-.06-.08-.11-.11-.16A56.56,56.56,0,0,1,245.16,353c-5.28,6.24-39-2-66-18.09l-.82-.48-24.24-14.46c-4.71-2.81-9.1-.87-12.24,2.38,17.76,12.36,42,24.13,60.5,31.41s45.91,16.47,53.14,3.08C255.46,356.8,258.49,348.14,253.11,341.23Z"/><path class="cls-1" d="M121.18,354.75c-19.77-9.89-45.83-30.54-58.1-46l1.57-1.24c12.11,15.3,37.87,35.7,57.42,45.48Z"/></svg>