<?xml version="1.0" encoding="utf-8"?>
<!-- Generator: Adobe Illustrator 25.1.0, SVG Export Plug-In . SVG Version: 6.00 Build 0)  -->
<svg version="1.1" id="Layer_1" xmlns="http://www.w3.org/2000/svg" xmlns:xlink="http://www.w3.org/1999/xlink" x="0px" y="0px"
	 viewBox="0 0 129.7 138.9" style="enable-background:new 0 0 129.7 138.9;" xml:space="preserve">
<style type="text/css">
	.st0{fill:#5E12A0;}
	.st1{fill:url(#XMLID_35_);}
	.st2{fill:url(#XMLID_36_);}
	.st3{opacity:0.6;fill:#A98698;enable-background:new    ;}
	.st4{opacity:0.6;fill:url(#XMLID_54_);enable-background:new    ;}
	.st5{opacity:0.6;fill:url(#XMLID_55_);enable-background:new    ;}
	.st6{fill:url(#XMLID_58_);}
	.st7{opacity:0.6;}
	.st8{opacity:0.6;fill:url(#XMLID_59_);enable-background:new    ;}
	.st9{opacity:0.7;}
	.st10{fill:url(#XMLID_60_);}
	.st11{fill:url(#XMLID_69_);}
	.st12{fill:#FFFFFF;}
	.st13{fill:url(#XMLID_70_);}
	.st14{opacity:0.2;fill:#FFFFFF;enable-background:new    ;}
	.st15{opacity:0.4;}
	.st16{opacity:0.6;fill:url(#XMLID_71_);enable-background:new    ;}
	.st17{opacity:0.3;fill:#FFFFFF;enable-background:new    ;}
	.st18{opacity:0.6;fill:url(#XMLID_72_);enable-background:new    ;}
	.st19{opacity:0.6;fill:url(#XMLID_73_);enable-background:new    ;}
	.st20{opacity:0.6;fill:url(#XMLID_74_);enable-background:new    ;}
	.st21{opacity:0.6;fill:url(#XMLID_75_);enable-background:new    ;}
	.st22{opacity:0.6;fill:url(#XMLID_76_);enable-background:new    ;}
</style>
<g id="XMLID_2_">
	<g id="XMLID_3_">
		<g id="XMLID_66_">
			<g id="XMLID_67_">
				<path id="XMLID_68_" class="st0" d="M77.7,25.5c-0.7-2.6-2.9-5.1-6.8-8c-3.2-2.3-6.5-3.6-9.2-3.6c-0.5,0-1,0-1.5,0.1
					c-1.2,0.2-2.3,1.1-3,2.4c-0.8,1.6-1,3.6-0.5,4.9c0.2,0.4,0.4,0.9,0.7,1.3c-2.6,1.6-4,2-4.2,2c6.7,2.2,12.3,6.9,15.8,13V37
					c0.1-1.6,0.6-3.4,1.3-5.3c0.7,0.2,1.4,0.3,2,0.3l0,0c1.8,0,3.4-0.7,4.3-2C77.7,28.7,78.1,26.9,77.7,25.5z"/>
			</g>
		</g>
		<g id="XMLID_62_">
			<g id="XMLID_64_">
				
					<radialGradient id="XMLID_35_" cx="75.4196" cy="-382.0407" r="21.7035" gradientTransform="matrix(1 0 0 -1 0 -359.2216)" gradientUnits="userSpaceOnUse">
					<stop  offset="0" style="stop-color:#FFEAFF;stop-opacity:0.6"/>
					<stop  offset="0.6807" style="stop-color:#A087C9"/>
					<stop  offset="1" style="stop-color:#10002F"/>
				</radialGradient>
				<path id="XMLID_65_" class="st1" d="M70.7,30.3c4.4,1.2,6.2-2.2,5.6-4.5s-2.7-4.6-6.3-7.2c-3.6-2.6-7.2-3.7-9.6-3.2
					c-2.3,0.5-3,4-2.4,5.4c0.2,0.5,0.8,1.3,1.5,2.2c-0.9,0.6-1.8,1.1-2.5,1.6c4.5,2,8.4,5.1,11.3,9c0.3-1.3,0.8-2.5,1.3-3.5
					C69.9,30.1,70.3,30.2,70.7,30.3z"/>
			</g>
			
				<radialGradient id="XMLID_36_" cx="63.3449" cy="-391.2969" r="53.1006" gradientTransform="matrix(1 0 0 -1 0 -359.2216)" gradientUnits="userSpaceOnUse">
				<stop  offset="0" style="stop-color:#FFEAFF;stop-opacity:0.6"/>
				<stop  offset="0.6807" style="stop-color:#A087C9"/>
				<stop  offset="1" style="stop-color:#10002F"/>
			</radialGradient>
			<circle id="XMLID_63_" class="st2" cx="45.4" cy="50.8" r="27.1"/>
		</g>
		<path id="XMLID_61_" class="st3" d="M74.1,23.6c-3.7-3.9-6.8-4.9-10.5-5.7c-2.9-0.7-2.1-2.3,1.4-2c-1.7-0.6-3.3-0.7-4.5-0.5
			c-2.3,0.5-3,4-2.4,5.4c0.2,0.5,0.8,1.3,1.5,2.2c-1.3,0.9-2.4,1.5-3.4,2c0.4,0.2,1,0.4,1.6,0.8c1.7,0.9,3.4,2.3,3.4,2.3
			c-2.7-2.3-2.1-3.4,1.6-6c1.2-0.8,3.3-0.7,5.3,0.3s4.3,3.6,4.3,3.6l-2.2,4.3c0.1,0,0.3,0.1,0.4,0.1c1.4,0.4,2.5,0.3,3.4,0
			C75.1,29.7,77.8,27.6,74.1,23.6z"/>
		<g id="XMLID_56_">
			<path id="XMLID_57_" class="st0" d="M63.5,20.2c1,0.4,2.2,1.1,3.8,2.1c1.8,1.2,3.4,2.6,4.5,3.6c-1.7,2.2-2.8,5.3-3.5,7.4
				c0.3,0.5,0.7,1,1.1,1.5c0.3-1.2,0.9-3,1.7-4.8c0.2,0,0.4,0,0.7,0c0.6,0,1.3-0.1,1.8-0.5c0.4-0.3,0.8-0.8,0.8-1.8
				c0-0.9-0.7-2.1-2.2-3.5c-1.1-1-2.5-2.1-4-3.2c-4.2-2.8-7.1-3.5-8.4-2.2c-0.9,0.9-0.8,1.9-0.5,2.7c-1.6,1-2.9,1.7-3.7,2.2
				c0.6,0.2,1.1,0.4,1.7,0.7C58.7,23.7,60.9,22.3,63.5,20.2z M72.7,27.2c0.1,0.2,0.2,0.5,0.2,0.6c0,0.4-0.1,0.6-0.2,0.7
				c-0.2,0.1-0.6,0.2-0.9,0.2C72,28.2,72.3,27.7,72.7,27.2z M60.7,20c0.1-0.1,0.5-0.2,1.2-0.1c-0.5,0.4-1,0.7-1.5,1.1
				C60.3,20.5,60.4,20.2,60.7,20z"/>
		</g>
		<g id="XMLID_52_">
			<path id="XMLID_53_" class="st0" d="M45.4,22c-15.9,0-28.7,12.9-28.7,28.7s12.9,28.7,28.7,28.7s28.7-12.9,28.7-28.7
				S61.2,22,45.4,22z M45.4,77.9c-15,0-27.1-12.1-27.1-27.1s12.1-27.1,27.1-27.1s27.1,12.1,27.1,27.1S60.3,77.9,45.4,77.9z"/>
		</g>
		
			<linearGradient id="XMLID_54_" gradientUnits="userSpaceOnUse" x1="-2191.8821" y1="-1678.8279" x2="-2137.583" y2="-1678.8279" gradientTransform="matrix(0.16 -0.9871 -0.9871 -0.16 -1265.4066 -2354.6643)">
			<stop  offset="0" style="stop-color:#81FFFF"/>
			<stop  offset="0.6202" style="stop-color:#FFFFFF;stop-opacity:0"/>
		</linearGradient>
		<circle id="XMLID_51_" class="st4" cx="45.4" cy="50.8" r="27.1"/>
		<g id="XMLID_49_">
			<path id="XMLID_50_" class="st3" d="M45.2,74.6c-14.8-2.4-24.9-16.3-22.4-31.1c1.1-6.6,4.4-12.1,9-16.2
				c-6.8,4-11.9,10.8-13.2,19.2C16.2,61.3,26.2,75.2,41,77.6c8.3,1.4,16.2-1.2,22.1-6.3C57.9,74.3,51.6,75.7,45.2,74.6z"/>
		</g>
		
			<linearGradient id="XMLID_55_" gradientUnits="userSpaceOnUse" x1="64.482" y1="-391.5535" x2="42.0357" y2="-412.1487" gradientTransform="matrix(1 0 0 -1 0 -359.2216)">
			<stop  offset="0.2888" style="stop-color:#FFFFFF"/>
			<stop  offset="0.7796" style="stop-color:#FFFFFF;stop-opacity:0"/>
		</linearGradient>
		<path id="XMLID_48_" class="st5" d="M49.7,24c-6.8-1.1-13.5,0.4-18.9,3.9c-0.1,0.1-0.2,0.2-0.2,0.2c2.1-1.3,5.1-2.4,5.1-2.4
			c-7.9,4.6-10.3,9.8-10.3,9.8c3.1-5.9,12-10.1,19.1-10.4c7-0.3,11.7,1.8,17.3,6.3c5.6,4.6,9,13.9,8.7,21.3S66.3,66,66.3,66
			c2.7-3.4,4.3-6,5.3-8.5c0.2-0.8,0.4-1.6,0.5-2.4C74.5,40.3,64.5,26.4,49.7,24z"/>
		<g id="XMLID_41_">
			
				<linearGradient id="XMLID_58_" gradientUnits="userSpaceOnUse" x1="19.5" y1="-422.6216" x2="71.1191" y2="-422.6216" gradientTransform="matrix(1 0 0 -1 0 -359.2216)">
				<stop  offset="0" style="stop-color:#0002E9"/>
				<stop  offset="0.9952" style="stop-color:#FF00C7"/>
			</linearGradient>
			<path id="XMLID_47_" class="st6" d="M71.2,50.5c0,14.2-11.6,25.8-25.8,25.8S19.5,64.8,19.5,50.5H71.2z"/>
			<g id="XMLID_45_" class="st7">
				
					<linearGradient id="XMLID_59_" gradientUnits="userSpaceOnUse" x1="73.555" y1="-411.9967" x2="45.4776" y2="-438.5313" gradientTransform="matrix(1 0 0 -1 0 -359.2216)">
					<stop  offset="0.2888" style="stop-color:#FFFFFF"/>
					<stop  offset="0.7796" style="stop-color:#FFFFFF;stop-opacity:0"/>
				</linearGradient>
				<path id="XMLID_46_" class="st8" d="M69.1,50.5c0,13.9-11,25.3-24.8,25.8c0.3,0,0.7,0,1,0c14.2,0,25.8-11.6,25.8-25.8
					C71.2,50.5,69.1,50.5,69.1,50.5z"/>
			</g>
			<g id="XMLID_43_" class="st9">
				
					<linearGradient id="XMLID_60_" gradientUnits="userSpaceOnUse" x1="19.5389" y1="-422.6216" x2="47.1389" y2="-422.6216" gradientTransform="matrix(1 0 0 -1 0 -359.2216)">
					<stop  offset="0" style="stop-color:#000292"/>
					<stop  offset="0.9952" style="stop-color:#7D00C7"/>
				</linearGradient>
				<path id="XMLID_44_" class="st10" d="M23.2,50.5h-3.6c0,14.2,11.6,25.8,25.8,25.8c0.6,0,1.2,0,1.8,0
					C33.8,75.3,23.2,64.1,23.2,50.5z"/>
			</g>
			
				<linearGradient id="XMLID_69_" gradientUnits="userSpaceOnUse" x1="19.5954" y1="-412.1819" x2="71.1108" y2="-412.1819" gradientTransform="matrix(1 0 0 -1 0 -359.2216)">
				<stop  offset="0" style="stop-color:#000292"/>
				<stop  offset="0.9952" style="stop-color:#BE00C7"/>
			</linearGradient>
			<path id="XMLID_42_" class="st11" d="M71.1,50.8c0-3-5.1-4.7-12-5.2c-5-0.4-10,0.1-15.7,1.8c-5,1.5-9.4,1.2-12.7,0.8
				c-7.2-0.8-11.2-0.9-11.2,2.6c0,5.1,10.3,11.4,25.7,9.2c7.8-1.1,11.8-3.4,16.5-5C66.7,53.4,71.1,53.4,71.1,50.8z"/>
		</g>
		<circle id="XMLID_40_" class="st12" cx="53.8" cy="34.2" r="4.4"/>
		<circle id="XMLID_39_" class="st12" cx="61" cy="40" r="1.8"/>
		<g id="XMLID_37_" class="st7">
			
				<linearGradient id="XMLID_70_" gradientUnits="userSpaceOnUse" x1="70.3301" y1="-384.5634" x2="66.6276" y2="-390.5799" gradientTransform="matrix(1 0 0 -1 0 -359.2216)">
				<stop  offset="0.2888" style="stop-color:#FFFFFF"/>
				<stop  offset="0.7796" style="stop-color:#FFFFFF;stop-opacity:0"/>
			</linearGradient>
			<path id="XMLID_38_" class="st13" d="M67.6,30.7C67.5,30.7,67.5,30.7,67.6,30.7c-0.4,0-0.6-0.3-0.5-0.7c0.4-2.2,2.3-4.4,2.4-4.5
				c0.2-0.2,0.6-0.2,0.8,0c0.2,0.2,0.2,0.6,0,0.8c0,0-1.7,2-2.1,4C68.1,30.5,67.8,30.7,67.6,30.7z"/>
		</g>
		<path id="XMLID_34_" class="st12" d="M61.7,13.9c2.7,0,6.1,1.3,9.2,3.6c3.9,2.9,6.1,5.4,6.8,8c0.4,1.5,0,3.2-0.9,4.5
			c-1,1.3-2.5,2-4.3,2l0,0c-0.6,0-1.3-0.1-2-0.3c-0.4,1.1-0.8,2.2-1,3.3c3,4.5,4.7,10,4.7,15.8c0,15.9-12.9,28.7-28.7,28.7
			S16.6,66.7,16.6,50.8S29.5,22,45.4,22c3.5,0,6.8,0.6,10,1.8c0.6-0.3,1.3-0.7,2.1-1.2c-0.3-0.4-0.6-0.9-0.7-1.3
			c-0.5-1.3-0.3-3.4,0.5-4.9c0.7-1.3,1.7-2.1,3-2.4C60.6,13.9,61.2,13.9,61.7,13.9 M61.7,13.1c-0.6,0-1.2,0-1.7,0.2
			c-1.5,0.3-2.7,1.3-3.5,2.9c-0.9,1.8-1.2,4.1-0.5,5.6c0.1,0.2,0.2,0.4,0.3,0.7c-0.3,0.2-0.7,0.4-1,0.5c-3.2-1.1-6.5-1.7-9.9-1.7
			c-4,0-7.9,0.8-11.5,2.3c-3.5,1.5-6.7,3.6-9.4,6.4c-2.7,2.7-4.9,5.9-6.4,9.4c-1.6,3.6-2.3,7.5-2.3,11.5s0.8,7.9,2.3,11.5
			c1.5,3.5,3.6,6.7,6.4,9.4s5.9,4.9,9.4,6.4c3.6,1.6,7.5,2.3,11.5,2.3s7.9-0.8,11.5-2.3c3.5-1.5,6.7-3.6,9.4-6.4
			c2.7-2.8,4.9-5.9,6.4-9.4c1.6-3.6,2.3-7.5,2.3-11.5c0-5.7-1.6-11.2-4.7-15.9c0.1-0.7,0.4-1.5,0.6-2.2c0.5,0.1,1,0.1,1.5,0.1
			c2,0,3.8-0.8,5-2.4c1.1-1.5,1.6-3.5,1.1-5.2c-0.8-2.8-3-5.5-7.1-8.4C68.1,14.4,64.6,13.1,61.7,13.1L61.7,13.1z"/>
		<g id="XMLID_29_">
			<circle id="XMLID_33_" class="st14" cx="43.6" cy="69.7" r="1.4"/>
			<g id="XMLID_31_" class="st15">
				
					<linearGradient id="XMLID_71_" gradientUnits="userSpaceOnUse" x1="42.2042" y1="-429.0088" x2="44.2587" y2="-429.0088" gradientTransform="matrix(1 0 0 -1 0 -359.2216)">
					<stop  offset="0.2888" style="stop-color:#FFFFFF"/>
					<stop  offset="0.7796" style="stop-color:#FFFFFF;stop-opacity:0"/>
				</linearGradient>
				<path id="XMLID_32_" class="st16" d="M42.8,70.6c-0.5-0.5-0.5-1.4,0-1.9c0.1-0.1,0.2-0.1,0.3-0.2c-0.2,0-0.3,0.1-0.5,0.3
					c-0.5,0.5-0.5,1.4,0,1.9c0.4,0.4,1.1,0.5,1.7,0.2C43.8,71,43.2,70.9,42.8,70.6z"/>
			</g>
			<circle id="XMLID_30_" class="st17" cx="44.1" cy="69" r="0.3"/>
		</g>
		<g id="XMLID_24_">
			<circle id="XMLID_28_" class="st14" cx="50.7" cy="69" r="1.4"/>
			<g id="XMLID_26_" class="st15">
				
					<linearGradient id="XMLID_72_" gradientUnits="userSpaceOnUse" x1="49.2876" y1="-428.3088" x2="51.3421" y2="-428.3088" gradientTransform="matrix(1 0 0 -1 0 -359.2216)">
					<stop  offset="0.2888" style="stop-color:#FFFFFF"/>
					<stop  offset="0.7796" style="stop-color:#FFFFFF;stop-opacity:0"/>
				</linearGradient>
				<path id="XMLID_27_" class="st18" d="M49.9,69.9c-0.5-0.5-0.5-1.4,0-1.9c0.1-0.1,0.2-0.1,0.3-0.2c-0.2,0-0.3,0.1-0.5,0.3
					c-0.5,0.5-0.5,1.4,0,1.9c0.4,0.4,1.1,0.5,1.7,0.2C50.9,70.4,50.3,70.3,49.9,69.9z"/>
			</g>
			<circle id="XMLID_25_" class="st17" cx="51.2" cy="68.3" r="0.3"/>
		</g>
		<g id="XMLID_19_">
			<circle id="XMLID_23_" class="st14" cx="47.2" cy="72.5" r="1"/>
			<g id="XMLID_21_" class="st15">
				
					<linearGradient id="XMLID_73_" gradientUnits="userSpaceOnUse" x1="46.1433" y1="-431.7122" x2="47.6857" y2="-431.7122" gradientTransform="matrix(1 0 0 -1 0 -359.2216)">
					<stop  offset="0.2888" style="stop-color:#FFFFFF"/>
					<stop  offset="0.7796" style="stop-color:#FFFFFF;stop-opacity:0"/>
				</linearGradient>
				<path id="XMLID_22_" class="st19" d="M46.6,73.1c-0.4-0.4-0.4-1.1,0-1.5c0,0,0.1-0.1,0.2-0.1c-0.1,0-0.2,0.1-0.3,0.2
					C46.1,72.1,46.1,72.8,46.6,73.1c0.2,0.4,0.7,0.5,1.2,0.2C47.3,73.5,46.9,73.4,46.6,73.1z"/>
			</g>
			<circle id="XMLID_20_" class="st17" cx="47.5" cy="72" r="0.2"/>
		</g>
		<g id="XMLID_14_">
			<circle id="XMLID_18_" class="st14" cx="53.4" cy="71.8" r="1"/>
			<g id="XMLID_16_" class="st15">
				
					<linearGradient id="XMLID_74_" gradientUnits="userSpaceOnUse" x1="52.3866" y1="-431.0121" x2="53.929" y2="-431.0121" gradientTransform="matrix(1 0 0 -1 0 -359.2216)">
					<stop  offset="0.2888" style="stop-color:#FFFFFF"/>
					<stop  offset="0.7796" style="stop-color:#FFFFFF;stop-opacity:0"/>
				</linearGradient>
				<path id="XMLID_17_" class="st20" d="M52.9,72.4c-0.4-0.4-0.4-1.1,0-1.5c0,0,0.1-0.1,0.2-0.1c-0.1,0-0.2,0.1-0.3,0.2
					C52.4,71.4,52.4,72.1,52.9,72.4c0.2,0.4,0.7,0.5,1.2,0.2C53.6,72.8,53.1,72.7,52.9,72.4z"/>
			</g>
			<circle id="XMLID_15_" class="st17" cx="53.8" cy="71.2" r="0.2"/>
		</g>
		<g id="XMLID_9_">
			<circle id="XMLID_13_" class="st14" cx="37.8" cy="68.3" r="2.2"/>
			<g id="XMLID_11_" class="st15">
				
					<linearGradient id="XMLID_75_" gradientUnits="userSpaceOnUse" x1="35.5656" y1="-427.5992" x2="38.9208" y2="-427.5992" gradientTransform="matrix(1 0 0 -1 0 -359.2216)">
					<stop  offset="0.2888" style="stop-color:#FFFFFF"/>
					<stop  offset="0.7796" style="stop-color:#FFFFFF;stop-opacity:0"/>
				</linearGradient>
				<path id="XMLID_12_" class="st21" d="M36.5,69.7c-0.9-0.9-0.9-2.3,0-3.2c0.1-0.1,0.3-0.2,0.5-0.3c-0.3,0.1-0.5,0.3-0.8,0.5
					c-0.9,0.9-0.9,2.3,0,3.2c0.7,0.7,1.8,0.9,2.7,0.3C38.1,70.6,37.2,70.4,36.5,69.7z"/>
			</g>
			<circle id="XMLID_10_" class="st17" cx="38.6" cy="67.2" r="0.5"/>
		</g>
		<g id="XMLID_4_">
			<circle id="XMLID_8_" class="st14" cx="57.8" cy="62.8" r="2.2"/>
			<g id="XMLID_6_" class="st15">
				
					<linearGradient id="XMLID_76_" gradientUnits="userSpaceOnUse" x1="55.4937" y1="-422.0992" x2="58.8489" y2="-422.0992" gradientTransform="matrix(1 0 0 -1 0 -359.2216)">
					<stop  offset="0.2888" style="stop-color:#FFFFFF"/>
					<stop  offset="0.7796" style="stop-color:#FFFFFF;stop-opacity:0"/>
				</linearGradient>
				<path id="XMLID_7_" class="st22" d="M56.4,64.2c-0.9-0.9-0.9-2.3,0-3.2c0.1-0.1,0.3-0.2,0.5-0.3c-0.3,0.1-0.5,0.3-0.8,0.5
					c-0.9,0.9-0.9,2.3,0,3.2c0.7,0.7,1.8,0.9,2.7,0.3C58,65.1,57.1,64.9,56.4,64.2z"/>
			</g>
			<circle id="XMLID_5_" class="st17" cx="58.5" cy="61.7" r="0.5"/>
		</g>
	</g>
</g>
<path d="M37.6,112.2c-3.5,0.9-7.5-1.1-8.4-4.7c-0.9-3.5,1.2-7.2,5.1-8.2s7.6,1.1,8.5,4.7S41.2,111.3,37.6,112.2L37.6,112.2z
	 M111.5,55.7c-2-5-6.3-8.3-11.3-10.4l-2-0.9l-0.9,1.9c-1.8,3.6-1.5,9-0.2,12.7c1.1,2.8,2.7,5.5,5,7.3c-1.2,1-2.6,2.1-3.7,3.1
	c-2.7,1.7-5.5,2.8-8.4,3.5L6.9,94.5l0.2,2c1,6.3,3.6,12.5,7.7,17.6l1.9,1.9l0.1,0.3c11.1,10.9,26.4,13.1,41.5,9.2
	c29-7.5,49.5-26.2,53.7-56.1c7.5-1.6,14.4-5.4,16.1-13.4l0.5-1.8l-1.8-0.6C121.9,52,116,53.2,111.5,55.7L111.5,55.7L111.5,55.7z"/>
</svg>
