<?xml version="1.0" encoding="utf-8"?>
<!-- Generator: Adobe Illustrator 26.5.0, SVG Export Plug-In . SVG Version: 6.00 Build 0)  -->
<svg version="1.1" id="_图层_1" xmlns="http://www.w3.org/2000/svg" xmlns:xlink="http://www.w3.org/1999/xlink" x="0px" y="0px"
	 viewBox="0 0 360.5 380.1" style="enable-background:new 0 0 360.5 380.1;" xml:space="preserve">
<style type="text/css">
	.st0{fill:#77E1FF;}
	.st1{fill:#161EDE;}
</style>
<path class="st0" d="M52,42.5H31.6v224.4H52V42.5z"/>
<path class="st0" d="M92.8,42.5H72.4v224.4h20.4V42.5z"/>
<path class="st0" d="M133.6,42.5h-20.4v224.4h20.4V42.5z"/>
<path class="st0" d="M174.4,42.5H154v224.4h20.4V42.5z"/>
<path class="st0" d="M215.2,42.5h-20.4v224.4h20.4V42.5z"/>
<path class="st0" d="M256,42.5h-20.4v224.4H256V42.5z"/>
<path class="st1" d="M113.2,103.7H92.8v224.4h20.4V103.7z"/>
<path class="st1" d="M154,103.7h-20.4v224.4H154V103.7z"/>
<path class="st1" d="M194.8,103.7h-20.4v224.4h20.4V103.7z"/>
<path class="st1" d="M235.6,103.7h-20.4v224.4h20.4V103.7z"/>
<path class="st1" d="M276.4,103.7H256v224.4h20.4V103.7z"/>
<path class="st1" d="M317.2,103.7h-20.4v224.4h20.4V103.7z"/>
</svg>
