<svg width="144" height="144" viewBox="0 0 144 144" fill="none" xmlns="http://www.w3.org/2000/svg">
<g clip-path="url(#clip0)">
<path d="M72 130.001C104.033 130.001 130 104.033 130 72.0007C130 39.9682 104.033 14.0007 72 14.0007C39.9675 14.0007 14 39.9682 14 72.0007C14 104.033 39.9675 130.001 72 130.001Z" fill="url(#paint0_linear)"/>
<path d="M60.6602 110.361C68.9652 105.566 72.6204 96.3629 73.0788 87.3895C73.5156 78.8369 65.0773 73.8645 57.5464 69.7882C48.0283 64.6362 41.5492 54.563 41.5492 43.0009C41.5492 38.5981 42.4922 34.4123 44.1835 30.6309C44.6783 29.5245 43.4344 28.3028 42.4362 28.99C28.7662 38.401 19.8 54.1494 19.8 72.0009C19.8 87.3605 24.8968 64.9753 36.627 101.94C38.8092 108.817 44.2516 114.837 51.3661 113.639C54.5718 113.099 57.7887 112.019 60.6602 110.361Z" fill="#1F1F1F"/>
<path d="M44.4871 42.9924C44.4873 52.5823 50.6303 60.3496 58.1722 65.2332C65.3602 69.8877 73.8857 65.0661 81.1813 60.5823C90.402 54.9154 102.365 54.341 112.378 60.122C116.192 62.3234 119.345 65.233 121.774 68.5885C122.485 69.5701 124.164 69.1037 124.069 67.8956C122.754 51.3515 113.598 35.7124 98.1384 26.7867C84.8363 19.1068 101.674 34.7133 63.7966 26.3896C56.7502 24.8412 48.8158 26.5446 46.2955 33.3046C45.1599 36.3505 44.4875 39.677 44.4871 42.9924Z" fill="#1F1F1F"/>
<path d="M110.91 62.6775C102.604 57.8827 92.8068 59.319 84.8061 63.4087C77.1813 67.3064 77.0942 77.1005 77.3294 85.6606C77.6267 96.4796 72.1425 107.127 62.1295 112.908C58.3166 115.109 54.22 116.386 50.0996 116.812C48.8941 116.936 48.4579 118.625 49.5522 119.145C64.5374 126.279 82.659 126.169 98.1188 117.244C111.421 109.564 89.4863 116.342 115.633 87.7013C120.497 82.3732 122.99 74.6501 118.396 69.0875C116.326 66.581 113.781 64.3355 110.91 62.6775Z" fill="#1F1F1F"/>
</g>
<defs>
<linearGradient id="paint0_linear" x1="35.576" y1="18.873" x2="109.816" y2="124.665" gradientUnits="userSpaceOnUse">
<stop stop-color="#FCECB2"/>
<stop offset="0.260417" stop-color="#FF8B89"/>
<stop offset="0.520833" stop-color="#FC8ADC"/>
<stop offset="0.755208" stop-color="#7954FF"/>
<stop offset="1" stop-color="#70BCFF"/>
</linearGradient>
<clipPath id="clip0">
<rect width="116" height="116" fill="white" transform="translate(14 14.0007)"/>
</clipPath>
</defs>
</svg>
