<svg id="Layer_1" data-name="Layer 1" xmlns="http://www.w3.org/2000/svg" viewBox="0 0 512 512"><defs><style>.cls-1{fill:#d9e4e8;}.cls-2{fill:#141f38;}.cls-3{opacity:0.14;}.cls-4{fill:#17292d;}.cls-5{fill:#fff100;}</style></defs><title>saturn_style_3</title><path class="cls-1" d="M255.65,461.06c-113.07,0-205.06-92-205.06-205.06s92-205.06,205.06-205.06,205.06,92,205.06,205.06S368.72,461.06,255.65,461.06Z"/><path class="cls-2" d="M412,104.32v.32h.32C412.26,104.51,412.13,104.45,412,104.32Z"/><path class="cls-2" d="M503.71,117.33C488.84,91.5,455.65,79,412,79a270,270,0,0,0-27.23,1.47A216.61,216.61,0,0,0,255.65,38.12C135.3,38.12,37.77,135.65,37.77,256c0,7.37.38,14.67,1.09,21.85C3,325.66-10.1,371.54,8.29,403.39c14.87,25.82,48.06,38.32,91.7,38.32a276.17,276.17,0,0,0,37.3-2.69h.06a217,217,0,0,0,118.29,34.86C376,473.88,473.52,376.34,473.52,256c0-4.42-.13-8.78-.38-13.14C509,195.06,522.1,149.18,503.71,117.33ZM100,416.08c-35.31,0-60-9-69.53-25.5-10-17.3-4.17-44.92,15.12-76.58a218.06,218.06,0,0,0,62,101.89C105,416,102.49,416.08,100,416.08Zm43.58-4A191.93,191.93,0,0,1,63.4,256c0-106,86.25-192.24,192.24-192.24,98.81,0,180.45,74.91,191,171-30.76,38.38-78.24,79.78-139.12,114.9C252.38,381.54,193.94,403.52,143.63,412Zm112.08,36.21a189,189,0,0,1-78.69-17c44.92-11.09,94.33-31.08,143.41-59.4,50.88-29.35,94.2-63.57,126.63-98.11C438.09,371.47,355.61,448.24,255.65,448.24ZM412.33,104.64H412v-.32c.13.13.26.19.32.32,17.56,0,32.43,2.24,44.15,6.6s20.31,10.7,25.06,18.9c9.8,17,4.42,43.9-14,74.85A216.85,216.85,0,0,0,412.33,104.64Z"/><g class="cls-3"><path class="cls-4" d="M383.75,112.7a210.93,210.93,0,0,1,12.87,72.81C396.63,302.31,302,397,185.16,397a211,211,0,0,1-72.81-12.87,191.74,191.74,0,0,0,143.3,64.14c106.18,0,192.24-86.07,192.24-192.24A191.73,191.73,0,0,0,383.75,112.7Z"/></g><path class="cls-5" d="M412.33,104.64H412v-.32C412.13,104.45,412.27,104.52,412.33,104.64Z"/><path class="cls-2" d="M412,104.32v.32h.32c-.06-.12-.19-.19-.32-.32Z"/></svg>