<?xml version="1.0" encoding="utf-8"?>
<!-- Generator: Adobe Illustrator 26.5.0, SVG Export Plug-In . SVG Version: 6.00 Build 0)  -->
<svg version="1.1" id="_图层_1" xmlns="http://www.w3.org/2000/svg" xmlns:xlink="http://www.w3.org/1999/xlink" x="0px" y="0px"
	 viewBox="0 0 360.5 380.1" style="enable-background:new 0 0 360.5 380.1;" xml:space="preserve">
<style type="text/css">
	.st0{fill:#141115;}
	.st1{fill:#BE9069;}
	.st2{fill:#6D64B0;}
	.st3{fill:#6D64B1;}
	.st4{fill:#433C88;}
	.st5{fill:#FCFCFB;}
	.st6{fill:#BDB9AF;}
	.st7{fill:#423B84;}
	.st8{fill:#141117;}
	.st9{fill:#0E0C0F;}
	.st10{fill:#FCFCFC;}
	.st11{fill:#AB0347;}
	.st12{fill:#ED6AA5;}
	.st13{fill:#E0DEDC;}
</style>
<g id="tZyfNW.tif">
	<g>
		<g>
			<path class="st0" d="M358.8,247.2c-1.8,0.3-1.3,1.9-1.5,2.9c-2.5,18.2-9.8,34.3-23,47c-4.9,4.7-6.2,9.6-7.3,15.6
				c-2,11.8-6.9,22.4-16.2,30.5c-5.5,4.8-14.7,4.5-19.9-0.6c-2.3-2.3-2.5-5.4-3.3-8.6c-7.7,4.2-15,8.8-23.2,11.3
				c-5.4,1.6-7.6,4.5-8.8,9.9c-1.4,6.5-4.9,12.2-8.9,17.6c-2.8,3.7-6.6,5.5-10.5,7.3c-2,0-3.9,0-5.9,0c-0.1-0.2-0.2-0.6-0.3-0.6
				c-8.6-2.3-9.7-9-9.6-16.4c0-2.2-0.1-4.5,0.3-6.6c0.5-2.8,0-4-3.2-4.2c-31.4-2.6-54.4-19.6-73.6-43.1c-1.9-2.3-3.6-4.6-5.6-7.2
				c-1.7,2.7-3.3,5.1-4.9,7.5c-4.4,6.2-11.5,8.5-18.5,5.9c-3.6-1.3-6.2-3.8-7-7.8c-2.1-9.7-1-19.3,0.8-28.8c0.1-0.7,0.7-0.9,1.3-1.1
				c0,1.7,0.1,3.4-0.2,5.1c-1,7.6-1,15.1,0.3,22.6c0.6,3.5,2,6.3,5.8,7c6.7,2.3,11.1,0.9,15.7-5c5.1-6.6,5.1-7.7,0.4-14.6
				c-0.3-0.5-0.7-1-1-1.5c-3.2-5.2-6.3-10.5-9.8-15.5c-2.5-3.6-4.9-7.6-9.2-9.6c-1.4-3.4-4.7-4.6-7.3-6.4
				c-9.7-6.7-20.6-11.4-30.8-17.4c-7-4.1-13.7-8.7-19.5-14.3c-2.3-2.2-4.6-3.3-8.1-3.1c-16,0.7-28.9-5.5-37.5-19
				c-9.4-14.6-9.4-29.8-0.7-44.8c1-1.8,1.4-3.3,1-5.5c-3.9-18.6-2.5-36.6,6.3-53.7C20.5,91.7,28,83.1,35.9,74.7
				c-0.6-0.6-1.2-1.3-1.7-1.9c-4.8-5.1-5.5-9.1-2.3-13.8c4.2-6.3,11.8-9.6,17.2-7.5c2,0.8,3.7,1.9,4.9,3.7c1.3,2.1,2.5,2.3,4.7,0.7
				c7.1-5.1,14.7-9.4,22.4-13.4c14.4-7.4,29.7-11.3,45.8-12.1c4.5-0.2,4.5-0.2,2.7-4.2c-2.8-6.2-1.2-11.7,4.9-15
				c4.2-2.3,8.6-4.5,13.6-3.1c6.5,1.9,10.1,7.1,10.4,14.4c0.1,2.6,0.2,5.2-0.4,7.7c-0.7,2.9,0.6,3.6,2.9,4.1
				c12.2,2.8,24.1,6.6,35.7,11.5c5.9,2.5,11.6,5.4,17.2,8.3c2.3,1.2,2.6,0.5,2.7-1.7c0.5-7.6,1.2-15,3.2-22.5
				c3-10.8,18.5-10.2,23.7-3.1c5.9,8.1,8.4,17.4,9.5,27.1c1.1,10,1.5,20.1,0.5,30.2c-0.2,1.7,0.3,3.1,1.2,4.5
				c8.2,12.8,18.1,24.1,29.2,34.4c14,13.1,29.8,24,43.1,37.9c12.6,13.1,22.2,28,27,45.8c1.8,6.5,3.6,13,4.2,19.7
				c0.3,4.9-0.8,9.8,0.6,14.7C358.8,243.2,358.8,245.2,358.8,247.2z M46.6,58.8c0,1.8,0,3.6,0,5.8c2.3-1.7,4.3-3.1,6.2-4.5
				c1-0.7,1.5-1.6,0.6-2.8c-2-2.5-4.1-4.5-7.6-4.5c-5.3-0.1-12,5-13.6,10.1c-0.5,1.7-0.1,3.2,0.5,4.6c2.4,5.9,4.9,6.3,9.1,1.2
				c-1.5-1.6-3.6-2-5.6-2.4c2-1.8,3.9-0.7,5.7,0.2c2.4,1.1,3.1,0.3,3-2C44.8,62.4,44.4,60.2,46.6,58.8z M217.9,87.6
				c-1.4-8.5-2-17-2.2-25.6c0-1.3,0.4-2.9-1.1-3.7c-5.7-3.1-11.1-6.7-17.4-8.5c-13.3-6.7-27.5-10.3-41.9-13.6
				c-21.6-4.9-42.8-3.6-63.3,4.8C66.7,51.3,45.1,67.1,27.7,88.3c-14.6,17.7-20.4,38-16.8,60.8c0.3,1.8-0.2,3.9,1.9,6.1
				c0.6-1,1-1.9,1.6-2.4c16.8-16.4,41.4-15.2,56.6-1.9c17.7,15.4,20,40.3,5.9,58.4c-5.2,6.7-11.9,11.3-19.9,13.9
				c-2.1,0.7-2.8,1.3-0.7,3c2,1.6,4,3.3,6,4.9c10.2,8.3,22.1,13.7,33.6,19.8c13.6,7.1,24.7,16.5,32.6,30c8.9,15.3,18.8,30,32.2,41.9
				c9.8,8.7,20,16.7,32.7,20.7c0.3,0.1,0.6,0.3,1,0.4c0.4,0.1,0.9,0.1,1.3,0.2c0.5,0.3,1,0.7,1.6,0.9c12.2,3.6,24.5,5.5,37.3,4.5
				c18.4-1.5,35-7.8,50.6-17.4c1.5-0.9,2.5-2,2.6-3.7c0.4-6.8,2.5-13.2,4.1-19.8c0.5-1,1-2,1.4-3c0.3,0.4,0.5,0.7,0.8,1.1
				c-0.1,0.4-0.1,0.7-0.2,1.1c-0.7,0.5-0.6,1.2-0.6,1.9c-0.1,0.6-0.1,1.2-0.2,1.8c-0.2,0.4-0.4,0.8-0.6,1.1c0.4,0.6,0.1,1.2-0.1,1.8
				c-0.7,0.4-0.8,0.8-0.2,1.4c-0.6,4.6-1.4,9.1-1.7,13.7c-0.4,6.2,0.4,11.4,4.9,12.4c7.1,2.8,12.2,1.5,17.1-4.2
				c7.8-9.3,12-20.1,14.2-31.9c0.8-4.3,1.4-8.6,2.4-12.9c0.1,1.6,0.3,3.2,0.4,5.2c3.7-2.5,6.1-5.7,8.4-8.8
				c16.8-22.4,20.9-47.6,15.4-74.6c-5.6-27.4-22.4-47.4-42.9-65c-8.8-7.6-18.3-14.4-26.6-22.6c-10.4-10.3-20.9-20.5-28.8-32.8
				c-1.1-1.7-1.9-2-2.5,0.2c-0.2,0.7-0.5,1.4-0.8,2.1c-0.3,0-0.6,0-0.9,0c0.2-1.8,0.5-3.7,0.5-5.5c0.6-13.8,0-27.5-1.6-41.2
				c-0.8-7.2-2.8-14.2-7.4-20.1c-4-5.2-9.7-6.8-15.6-4.3c-1.7,0.5-2.7,1.8-3.2,3.3c-1.1,3.2-2.4,6.4-2.7,9.9
				c-1.1,11.1-1.2,22.2-1.2,33.3c0,4.5-0.2,9-0.2,13.6C218.7,86.2,218.3,86.9,217.9,87.6z M133.6,20.4c4-0.1,6.5,2.8,9.3,5.1
				c1.5-2.5,1-5.9,4.1-7.2c-0.5,2.8-1.1,5.5-1.3,8.3c-0.1,1.8-0.7,4.1,1.9,5c8,2.7,9.2,1.8,9.1-6.7c0-2.8-0.4-5.6-1.7-8.2
				c-2.8-5.6-7.4-7.7-13.4-5.8c-1.6,0.5-3.3,1.1-4.8,1.8c-6.3,3.1-7.6,7.6-4.9,13.9c2.3,5.5,6.9,3.4,11.3,4.5
				c-1.9-4.4-4.5-7.2-8.1-9c-0.4-0.2-0.9-0.3-1.3-0.5C133.3,21.2,132.9,20.8,133.6,20.4z M245.9,351.3c-6.9,1.1-13.9,1.9-20.9,1.6
				c-1.3-0.1-2.1,0.4-2.2,1.8c-0.2,4.9-0.4,9.8,0.6,14.6c0.7,3.4,2.6,5.5,6.2,5.8c4.4,2,8.4,1.1,11.8-1.9c7.1-6.3,10.5-14.7,13.4-24
				C251.5,350,248.7,350.6,245.9,351.3z M70.7,210.8c2.3-1,3.4-3.1,4.7-4.9c11.6-16.1,9.5-38.7-5.8-52.1c-7-6.2-15.4-9.5-24.7-9.7
				c-5.6-0.1-11.2,0.2-16.1,3.5c-2.8,0.6-5.3,2-7.5,3.6c-12.9,9.6-18.6,22.6-15.9,38.3c2.7,15.8,12.3,26.7,27.9,31.1
				C47.4,224.4,60.2,221.5,70.7,210.8z"/>
			<path class="st1" d="M358.8,241.3c-1.4-4.8-0.3-9.8-0.6-14.7c0.2-0.1,0.4-0.1,0.6-0.1C358.8,231.4,358.8,236.3,358.8,241.3z"/>
			<path class="st2" d="M115.8,312.4c-3.9-0.7-5.2-3.6-5.8-7c-1.3-7.5-1.3-15.1-0.3-22.6c0.2-1.7,0.1-3.4,0.2-5.1
				c0-3.9-0.2-7.9,2-11.4c4.3,2,6.7,6,9.2,9.6c3.5,5,6.5,10.3,9.8,15.5C127.9,299.8,124.5,308,115.8,312.4z"/>
			<path class="st3" d="M295.3,341.9c-4.5-1-5.3-6.2-4.9-12.4c0.3-4.6,1.1-9.1,1.7-13.7c0.6-0.4,0.6-0.9,0.2-1.4
				c0.2-0.6,0.5-1.2,0.1-1.8c0.2-0.4,0.4-0.8,0.6-1.1c0.1-0.6,0.1-1.2,0.2-1.8c0.5-0.5,0.9-1.1,0.6-1.9c0.1-0.4,0.1-0.7,0.2-1.1
				c1.3-2.4,1.8-5,2.1-8.5c-1.5,2.8-2.4,5-2.8,7.4c-0.5,1-1,2-1.4,3c-0.9,0.4-1.9,0.8-2.6,1.4c-12.1,10.4-25.5,18.9-40.1,25.4
				c-11,4.9-22.5,7.8-34.6,8.7c-6.4,0.5-12.6-0.6-19,0c-0.4-0.1-0.9-0.1-1.3-0.2c-0.3-0.1-0.6-0.3-1-0.4c-12.7-4-23-12-32.7-20.7
				c-13.4-11.9-23.2-26.6-32.2-41.9c-7.9-13.5-19-22.8-32.6-30c-11.5-6.1-23.4-11.5-33.6-19.8c-2-1.6-3.9-3.3-6-4.9
				c-2.1-1.6-1.4-2.3,0.7-3c8.1-2.6,14.7-7.2,19.9-13.9c14.1-18,11.8-43-5.9-58.4c-15.2-13.2-39.8-14.5-56.6,1.9
				c-0.6,0.6-0.9,1.4-1.6,2.4c-2-2.3-1.6-4.3-1.9-6.1c-3.6-22.8,2.3-43.1,16.8-60.8c17.4-21.2,39-37,64.3-47.4
				c20.4-8.4,41.7-9.7,63.3-4.8c14.4,3.3,28.6,7,41.9,13.6c0.9,2.4,3.8,2.4,5.1,4.5c5.2,8.1,9.1,16.7,11.2,26.2
				c0.8,3.5,1.1,7.5,4.2,10.1c0.2,0.6,0.5,1.3,0.7,1.9c0.2,0,0.4,0,0.6-0.1c0-2.3,0-4.7,0-7c0.1-4.5,0.2-9,0.2-13.6
				c0-11.1,0.2-22.2,1.2-33.3c0.3-3.4,1.5-6.7,2.7-9.9c0.5-1.5,1.5-2.8,3.2-3.3c7,1.7,9.7,7.4,12,13.3c5.8,14.6,3.7,29.6,1.8,44.6
				c-0.9,7.5-1.8,15-2.5,22.6c-0.3,3.6,1,6.6,4.3,8.7c4.4,2.7,8.5,5.7,12.8,8.6c18.2,12.4,37,24,51.3,41.3
				c13.9,16.7,24.7,34.7,28.4,56.4c2.9,17,1,33.4-6.4,49c-1.4,2.9-3.4,5.1-6.3,6.4c-5.2,2.4-6.1,3.9-5.1,9.7
				c0.1,0.8,0.4,1.7,0.6,2.5c2.2,7.2,2.2,14.5,0,21.7C313.5,323.1,308.6,335.4,295.3,341.9z M104.7,169.5c-0.3,0.3-0.7,0.5-1,0.8
				c-2,0.4-3.5,1.5-4.8,2.9c-1,0.1-1.9,0.5-2.3,1.4l-0.1-0.1c-2.2,0.7-3.2,2.4-2.5,4.5c0.5,1.5,0,2.5-0.8,3.6
				c-4.3,7-2.2,12.9,5.6,15.9c2.5,2.8,4.5,2.9,9.1,0.4c1.7,0.8,3,2.3,4.9,2.6c0.4,1.4,1.6,1.7,2.8,2c5,1.5,8.1-1.6,11.3-4.5
				c2.4-0.3,4.9-0.4,7.3-0.8c5.9-0.8,9.2-4.7,9.1-10.6c-0.1-5.2-3.4-8.6-9.2-9c-1.8-0.1-2.6-0.7-3.5-2.4c-3.2-5.7-8.8-10.4-15-8.8
				c-2.6,0.7-5.2,2-8.1,0.5c-1-0.5-2.1,0.3-2.8,1.3C104.6,169.4,104.7,169.5,104.7,169.5z M149.3,166.1c26.3,1,50-20.5,49.8-49.5
				c-0.2-26.3-20.8-48.6-49.5-48.5c-26.8,0.1-48.7,20.7-48.8,49.2C100.6,145.6,123.8,166.5,149.3,166.1z M146,178c0,1,0.9,1.4,1.4,2
				c5.2,5.8,4.2,13.5-2.3,17.6c-0.5,0.3-1.1,0.5-1,1.3c0.1,0.7,0.7,0.9,1.3,1.2c2.8,1.4,6.5-0.2,8.3-3.5c1.7-3.2,1.7-6.7,1.2-10
				C153.8,180.6,150.7,177.7,146,178z"/>
			<path class="st4" d="M295.3,341.9c13.3-6.4,18.2-18.7,22.2-31.7c2.2-7.2,2.2-14.5,0-21.7c-0.2-0.8-0.5-1.6-0.6-2.5
				c-0.9-5.7-0.1-7.3,5.1-9.7c2.9-1.3,4.9-3.5,6.3-6.4c7.5-15.7,9.3-32,6.4-49c-3.7-21.7-14.5-39.7-28.4-56.4
				c-14.4-17.3-33.1-28.9-51.3-41.3c-4.3-2.9-8.4-5.9-12.8-8.6c-3.3-2.1-4.6-5.1-4.3-8.7c0.7-7.5,1.6-15.1,2.5-22.6
				c1.8-15,3.9-30-1.8-44.6c-2.3-5.9-5-11.6-12-13.3c5.9-2.5,11.6-0.9,15.6,4.3c4.6,6,6.5,12.9,7.4,20.1c1.6,13.7,2.2,27.4,1.6,41.2
				c-0.1,1.8-0.4,3.7-0.5,5.5c-0.4,1.4-1.2,2.8-0.5,4.6c0.8-1.7,1.4-3,1.4-4.6c0.3-0.7,0.6-1.4,0.8-2.1c0.7-2.2,1.5-1.9,2.5-0.2
				c8,12.4,18.4,22.6,28.8,32.8c8.3,8.2,17.8,15,26.6,22.6c20.5,17.6,37.3,37.6,42.9,65c5.5,27,1.4,52.2-15.4,74.6
				c-2.3,3-4.7,6.3-8.4,8.8c-0.2-2-0.3-3.6-0.4-5.2c-1,4.3-1.6,8.6-2.4,12.9c-2.2,11.8-6.3,22.6-14.2,31.9
				C307.5,343.4,302.4,344.6,295.3,341.9z"/>
			<path class="st5" d="M70.7,210.8c-10.6,10.7-23.4,13.6-37.5,9.7C17.6,216.2,8,205.3,5.3,189.5c-2.7-15.7,3-28.7,15.9-38.3
				c2.2-1.7,4.7-3.1,7.5-3.6c0.5,0.8,1.2,0.6,1.9,0.5c13.3-2.1,25.3,1.3,34.6,10.9c10.6,10.8,14.4,24,10.5,39.1
				C74.6,202.5,71.7,206.3,70.7,210.8z M53.6,184.7c4.6,0,7.9-3.2,7.9-7.8c0.1-4.4-3.4-8-7.8-8.1c-4.3,0-8,3.6-8.1,7.9
				C45.6,181,49.3,184.7,53.6,184.7z"/>
			<path class="st4" d="M195.5,344c6.3-0.5,12.6,0.5,19,0c12.1-0.9,23.6-3.8,34.6-8.7c14.6-6.5,28-15,40.1-25.4
				c0.7-0.6,1.7-0.9,2.6-1.4c-1.5,6.6-3.7,13-4.1,19.8c-0.1,1.7-1.1,2.8-2.6,3.7c-15.6,9.5-32.2,15.8-50.6,17.4
				c-12.8,1.1-25.1-0.8-37.3-4.5C196.5,344.7,196,344.3,195.5,344z"/>
			<path class="st6" d="M70.7,210.8c1-4.5,3.9-8.3,5.1-12.8c3.8-15.1,0-28.3-10.5-39.1c-9.3-9.5-21.3-13-34.6-10.9
				c-0.7,0.1-1.5,0.4-1.9-0.5c4.9-3.3,10.6-3.7,16.1-3.5c9.3,0.3,17.7,3.5,24.7,9.7c15.3,13.4,17.5,36,5.8,52.1
				C74.1,207.7,73,209.8,70.7,210.8z"/>
			<path class="st2" d="M229.6,375.1c-3.6-0.4-5.5-2.5-6.2-5.8c-1-4.8-0.8-9.7-0.6-14.6c0.1-1.4,0.8-1.8,2.2-1.8
				c7,0.3,14-0.6,20.9-1.6c-0.2,0.8-0.2,1.7-0.5,2.5C242.1,362.4,237.9,370.3,229.6,375.1z"/>
			<path class="st2" d="M133.6,20.4c-0.6,0.5-0.2,0.9,0.1,1.1c0.4,0.3,0.9,0.3,1.3,0.5c3.6,1.8,6.2,4.6,8.1,9
				c-4.4-1.1-9,0.9-11.3-4.5c-2.7-6.4-1.3-10.9,4.9-13.9c1.5-0.8,3.2-1.3,4.8-1.8c6-1.8,10.6,0.3,13.4,5.8c1.3,2.6,1.6,5.4,1.7,8.2
				c0.1,8.4-1.1,9.4-9.1,6.7c-2.6-0.8-2-3.2-1.9-5c0.2-2.8,0.8-5.5,1.3-8.3c1.3-0.2,1.6-1,1.2-2.1c-0.5-1.3-1.8-1.6-3-1.5
				C140.5,15,136.5,16.5,133.6,20.4z"/>
			<path class="st7" d="M229.6,375.1c8.3-4.9,12.5-12.8,15.8-21.3c0.3-0.8,0.3-1.7,0.5-2.5c2.8-0.6,5.6-1.3,8.9-2
				c-2.8,9.2-6.2,17.7-13.4,24C238,376.2,233.9,377.2,229.6,375.1z"/>
			<path class="st7" d="M217.8,90.6c-3.1-2.6-3.4-6.6-4.2-10.1c-2.1-9.5-6-18.1-11.2-26.2c-1.4-2.1-4.3-2.1-5.1-4.5
				c6.3,1.8,11.8,5.4,17.4,8.5c1.5,0.8,1,2.4,1.1,3.7c0.1,8.6,0.8,17.1,2.2,25.6C217.8,88.6,217.8,89.6,217.8,90.6z"/>
			<path class="st2" d="M36.1,66.2c2,0.5,4.1,0.9,5.6,2.4c-4.1,5.1-6.6,4.7-9.1-1.2c-0.6-1.4-1-2.9-0.5-4.6
				c1.6-5.1,8.4-10.1,13.6-10.1c3.5,0.1,5.6,2.1,7.6,4.5c0.9,1.2,0.4,2-0.6,2.8c-1.9,1.4-3.9,2.8-6.2,4.5c0-2.3,0-4,0-5.8
				c0.3-2.2-1.4-2.2-2.6-1.9c-4,0.7-6.5,3.7-8.9,6.6C34.3,64.5,34.2,66,36.1,66.2z"/>
			<path class="st7" d="M115.8,312.4c8.7-4.4,12.1-12.6,15-21.1c0.3,0.5,0.7,1,1,1.5c4.8,6.9,4.7,8-0.4,14.6
				C126.9,313.3,122.5,314.7,115.8,312.4z"/>
			<path class="st7" d="M133.6,20.4c2.9-3.9,7-5.4,11.6-5.8c1.2-0.1,2.5,0.3,3,1.5c0.4,1,0.1,1.9-1.2,2.1c-3,1.4-2.6,4.7-4.1,7.2
				C140.1,23.2,137.6,20.3,133.6,20.4z"/>
			<path class="st7" d="M36.1,66.2c-1.9-0.3-1.8-1.7-1.1-2.7c2.4-3,4.9-5.9,8.9-6.6c1.3-0.2,2.9-0.3,2.6,1.9
				c-2.1,1.4-1.7,3.6-1.7,5.6c0,2.4-0.7,3.1-3,2C40,65.5,38.1,64.4,36.1,66.2z"/>
			<path class="st8" d="M293.2,305.5c0.4-2.4,1.3-4.6,2.8-7.4c-0.2,3.5-0.8,6.1-2.1,8.5C293.7,306.3,293.5,305.9,293.2,305.5z"/>
			<path class="st8" d="M217.8,90.6c0-1,0.1-2,0.1-3c0.4-0.7,0.8-1.4,1.2-2.1c0,2.3,0,4.7,0,7c-0.2,0-0.4,0-0.6,0.1
				C218.2,91.9,218,91.3,217.8,90.6z"/>
			<path class="st8" d="M251.4,96.5c0,1.6-0.7,3-1.4,4.6c-0.7-1.9,0.1-3.2,0.5-4.6C250.8,96.5,251.1,96.5,251.4,96.5z"/>
			<path class="st8" d="M292.3,314.4c0.4,0.5,0.4,1-0.2,1.4C291.5,315.2,291.6,314.8,292.3,314.4z"/>
			<path class="st8" d="M293.8,307.7c0.3,0.8,0,1.4-0.6,1.9C293.1,308.9,293.1,308.2,293.8,307.7z"/>
			<path class="st8" d="M293,311.4c-0.2,0.4-0.4,0.8-0.6,1.1C292.6,312.2,292.8,311.8,293,311.4z"/>
			<path class="st4" d="M193.2,343.4c0.3,0.1,0.6,0.3,1,0.4C193.9,343.6,193.5,343.5,193.2,343.4z"/>
			<path class="st8" d="M149.3,166.1c-25.5,0.4-48.7-20.5-48.6-48.9c0.1-28.5,22-49.1,48.8-49.2c28.7-0.1,49.3,22.2,49.5,48.5
				C199.3,145.6,175.5,167,149.3,166.1z M180,151.7c11.7-9.5,16.7-22.4,16-36.9c-1.1-20.4-14.8-37.2-34.9-42.1
				c-9.3-2.3-18.6-2.3-27.5,1.7c-18.1,7.2-28,20.7-29.4,39.8c-1.4,20,7.5,35.3,25.4,44C147.4,166.9,164.7,164.9,180,151.7z"/>
			<path class="st0" d="M98.8,198.6c-7.8-3-10-8.9-5.6-15.9c0.7-1.2,1.2-2.1,0.8-3.6c-0.6-2.1,0.3-3.8,2.5-4.5
				c-0.3,4.3,1.6,5.8,5.6,4.2c1.5-0.6,2.9-1.3,4.2-2.2c1.8-1.2,3.1-2.9,2.6-5.2c-0.5-2.5-2.8-1.4-4.2-2c0.7-1,1.8-1.8,2.8-1.3
				c2.9,1.5,5.5,0.2,8.1-0.5c6.2-1.7,11.8,3.1,15,8.8c0.9,1.6,1.7,2.2,3.5,2.4c5.8,0.4,9.1,3.8,9.2,9c0.1,5.9-3.2,9.8-9.1,10.6
				c-2.4,0.3-4.9,0.5-7.3,0.8c-2.6-0.8-5.3-1.2-7.7,0.4c-2,1.4-4.2,1.9-6.5,2.1c-1.9-0.4-3.2-1.8-4.9-2.6c-0.4-1.2-1.5-2.1-0.8-3.5
				c1.4,0.2,1.8,1.6,2.6,2.4c1.7,1.6,3.7,1.7,5.8,1c1.3-0.5,1.8-1.3,1-2.5c-1.3-1.9-2.6-3.8-4-5.7c-0.3-0.5-0.9-1.1-1.5-0.5
				c-1.5,1.7-4.1,2.5-3.9,5.4C103.9,195.4,101.9,198.4,98.8,198.6z M120.9,185.9c0-0.5-0.1-0.8-0.7-0.5c-1.6,0.6-3.2,1.1-4.7,1.7
				c-1.1,0.4-2.7,0.9-1.1,2.5c2,2,2,5.9,5.8,6c0.4,0,0.8-0.6,1.1-0.9C123.8,192,123.7,189.8,120.9,185.9z M93.5,188.5
				c0.4,2.6,0.9,5.3,3.3,6.6c2.6,1.5,5-0.3,6.9-2c4.5-3.9,9.1-7.7,14.7-10c1.4-0.6,2.8-1.5,4.1-2.4c1.6-1,2.3-2.5,2.1-4.4
				c-0.3-2.4-1.4-4.7-3.6-5.5c-2.9-1.2-6-0.9-9,0.1c-0.8,0.2-0.7,1.2-0.8,1.9c-0.6,4.5-7.2,10.1-11.9,10.1c-1.5,0-3.3-1.8-4.3,0.8
				C94.6,185.2,93.4,186.6,93.5,188.5z M136.2,181.2c-4.6-1.3-8.9-1.8-12.8,2c-1.2,1.2-1.3,1.5-0.4,2.7c1.6,2,2.8,4.2,2.1,7.1
				c-0.2,0.8-1.9,2.7,0.2,2.8c2,0.2,5.1,1,5.9-1.9C132.3,189.5,133.8,185.3,136.2,181.2z M141,187.5c-0.1-0.4-0.1-1-0.2-1.6
				c-0.5-1.5-0.9-3.5-2.6-3.7c-2-0.2-2.3,2-2.6,3.4c-0.7,2.5-0.6,5.1-2.5,7.3c-0.9,1,0,1.9,1.5,1.8C138.2,194.5,141,191.6,141,187.5
				z"/>
			<path class="st4" d="M146,178c4.7-0.3,7.8,2.5,8.8,8.6c0.6,3.4,0.5,6.8-1.2,10c-1.7,3.3-5.5,4.9-8.3,3.5
				c-0.5-0.3-1.2-0.5-1.3-1.2c-0.1-0.8,0.4-1,1-1.3c6.6-4.1,7.6-11.8,2.3-17.6C146.9,179.5,146,179.1,146,178z"/>
			<path class="st8" d="M104.6,169.4c1.4,0.6,3.7-0.5,4.2,2c0.5,2.3-0.8,4-2.6,5.2c-1.3,0.9-2.7,1.6-4.2,2.2c-4,1.6-5.9,0.1-5.6-4.2
				c0,0,0.1,0.1,0.1,0.1c1.2,0.3,2-0.3,2.3-1.4c1.4-1.4,2.9-2.5,4.8-2.9c0.5-0.1,0.9-0.3,1-0.8L104.6,169.4z"/>
			<path class="st7" d="M112.8,201.6c2.3-0.2,4.5-0.7,6.5-2.1c2.4-1.6,5.1-1.2,7.7-0.4c-3.2,2.9-6.4,6-11.3,4.5
				C114.4,203.2,113.2,203,112.8,201.6z"/>
			<path class="st7" d="M98.8,198.6c3.1-0.2,5.1-3.2,8.3-3.1l0,0c-0.6,1.4,0.5,2.4,0.8,3.5C103.3,201.5,101.3,201.4,98.8,198.6z"/>
			<path class="st0" d="M98.8,173.2c-0.4,1.1-1.1,1.7-2.3,1.4C97,173.6,97.9,173.3,98.8,173.2z"/>
			<path class="st0" d="M104.7,169.5c-0.1,0.5-0.5,0.8-1,0.8C104,170,104.4,169.7,104.7,169.5z"/>
			<path class="st9" d="M53.6,184.7c-4.3,0-8-3.8-7.9-8c0.1-4.3,3.8-7.9,8.1-7.9c4.3,0,7.8,3.6,7.8,8.1
				C61.5,181.5,58.2,184.7,53.6,184.7z M52,174.7c0-1.1-0.7-1.5-1.7-1.5c-1.3,0-2.1,0.7-2.4,1.9c-0.2,0.9,0.3,1.7,1.4,1.7
				C50.8,176.9,51.5,175.9,52,174.7z"/>
			<path class="st10" d="M180,151.7c-15.3,13.2-32.6,15.2-50.3,6.6c-17.9-8.7-26.9-24-25.4-44c1.3-19.1,11.3-32.7,29.4-39.8
				c2,1.5,4.3,0.6,6.4,0.6c16.1-0.1,29.4,5.9,39.1,18.8c10.7,14.2,12.6,29.8,6.5,46.5C184.1,144.3,181.1,147.5,180,151.7z
				 M170.8,110.1c0.1-5.3-3.8-9.4-9.1-9.5c-4.9,0-9.1,4.1-9.1,9.1c0,5.3,4,9.3,9.3,9.3C166.8,119,170.8,115,170.8,110.1z"/>
			<path class="st6" d="M180,151.7c1.1-4.2,4.1-7.4,5.6-11.4c6.1-16.7,4.2-32.3-6.5-46.5c-9.7-12.9-23-18.9-39.1-18.8
				c-2.1,0-4.4,1-6.4-0.6c9-4.1,18.2-4,27.5-1.7c20.1,4.9,33.8,21.7,34.9,42.1C196.7,129.3,191.7,142.2,180,151.7z"/>
			<path class="st1" d="M93.5,188.5c-0.1-1.9,1-3.3,1.6-4.8c1-2.7,2.8-0.8,4.3-0.8c4.7,0,11.2-5.5,11.9-10.1c0.1-0.7,0-1.7,0.8-1.9
				c3-1,6.1-1.2,9-0.1c2.2,0.9,3.4,3.1,3.6,5.5c0.2,1.8-0.5,3.4-2.1,4.4c-1.3,0.8-2.7,1.8-4.1,2.4c-5.6,2.4-10.2,6.1-14.7,10
				c-1.9,1.7-4.3,3.4-6.9,2C94.5,193.8,93.9,191,93.5,188.5z"/>
			<path class="st11" d="M136.2,181.2c-2.3,4.1-3.9,8.3-5,12.7c-0.7,2.9-3.9,2-5.9,1.9c-2.1-0.2-0.4-2-0.2-2.8
				c0.7-2.9-0.5-5-2.1-7.1c-1-1.2-0.9-1.6,0.4-2.7C127.3,179.5,131.6,180,136.2,181.2z"/>
			<path class="st5" d="M120.9,185.9c2.7,3.9,2.8,6.1,0.4,8.7c-0.3,0.4-0.7,0.9-1.1,0.9c-3.8-0.1-3.9-4-5.8-6c-1.5-1.6,0-2,1.1-2.5
				c1.6-0.6,3.2-1.1,4.7-1.7C120.5,185.6,120.7,185.7,120.9,185.9z"/>
			<path class="st12" d="M141,187.5c0,4.1-2.8,7-6.4,7.3c-1.6,0.1-2.4-0.8-1.5-1.8c1.9-2.2,1.9-4.8,2.5-7.3c0.3-1.3,0.6-3.6,2.6-3.4
				c1.7,0.2,2.1,2.1,2.6,3.7C140.9,186.5,140.9,187.2,141,187.5z"/>
			<path class="st13" d="M107.1,195.4c-0.2-2.8,2.4-3.7,3.9-5.4c0.5-0.6,1.2,0,1.5,0.5c1.4,1.9,2.7,3.8,4,5.7c0.8,1.2,0.4,2.1-1,2.5
				c-2.1,0.7-4.1,0.6-5.8-1C108.9,197,108.5,195.6,107.1,195.4C107.1,195.4,107.1,195.4,107.1,195.4z"/>
			<path class="st13" d="M120.9,185.9c-0.2-0.2-0.4-0.3-0.7-0.5C120.8,185.1,120.9,185.4,120.9,185.9z"/>
			<path class="st13" d="M52,174.7c-0.5,1.2-1.2,2.2-2.6,2.1c-1.1,0-1.6-0.8-1.4-1.7c0.2-1.2,1.1-1.9,2.4-1.9
				C51.3,173.2,52,173.6,52,174.7z"/>
			<path class="st9" d="M170.8,110.1c-0.1,4.9-4.1,8.9-8.9,8.9c-5.3,0-9.3-3.9-9.3-9.3c0-5,4.2-9.2,9.1-9.1
				C167,100.7,170.9,104.8,170.8,110.1z M159.5,107.1c-0.2-0.8-0.6-1.7-1.9-1.7c-1.6,0.1-2.9,1-3,2.6c-0.1,1.4,1,1.8,2.2,1.7
				C158.4,109.7,159.3,108.9,159.5,107.1z"/>
			<path class="st13" d="M159.5,107.1c-0.2,1.8-1.2,2.6-2.7,2.7c-1.2,0.1-2.4-0.3-2.2-1.7c0.2-1.6,1.4-2.5,3-2.6
				C158.9,105.4,159.3,106.3,159.5,107.1z"/>
		</g>
	</g>
</g>
</svg>
