<?xml version="1.0" encoding="utf-8"?>
<!-- Generator: Adobe Illustrator 26.5.0, SVG Export Plug-In . SVG Version: 6.00 Build 0)  -->
<svg version="1.1" id="Layer_1" xmlns="http://www.w3.org/2000/svg" xmlns:xlink="http://www.w3.org/1999/xlink" x="0px" y="0px"
	 viewBox="0 0 232.4 225.3" style="enable-background:new 0 0 232.4 225.3;" xml:space="preserve">
<style type="text/css">
	.st0{fill:#84DDE9;}
	.st1{fill:#0155C6;}
	.st2{fill:#005081;}
	.st3{fill:#F4BF2B;}
	.st4{fill:#FCEC32;}
	.st5{fill:#0BB49D;}
	.st6{fill:#02988C;}
	.st7{fill:#E23A51;}
	.st8{fill:#FB4444;}
	.st9{fill:#FDF3F4;}
	.st10{fill:#F9F1F3;}
	.st11{fill:#C98203;}
	.st12{fill:#F8F2F2;}
	.st13{fill:#FEF2F2;}
	.st14{fill:#FC4444;}
</style>
<g id="Ayn8b7.tif">
	<g>
		<g>
			<path class="st0" d="M122.5,7c13.8,0.2,26.8,3.5,39.4,9c11.5,5.1,21.8,12,30.8,20.7c15.8,15.3,26.2,33.7,30.6,55.2
				c4.5,21.8,2.6,43.2-6,63.8c-3.6,8.6-8.1,16.7-14,23.9c0-6.3-0.1-12.6-0.1-18.9c0-9.6,0.1-19.3,0-28.9c0-4.3-3.7-8-8.2-8
				c-9.8-0.1-19.7,0-29.6,0c-11.4,0-22.7-0.1-34.1,0c-4.5,0-8,3.8-8,8.4c-0.1,21,0,41.9,0,62.9c0,4.2,2.9,7.6,7,8.4
				c1.3,0.2,2.6,0.2,3.9,0.2c14.5,0,28.9,0.1,43.4,0.1c-7.3,5.1-15.1,8.9-23.5,11.8c-9.1,3.2-18.5,5.1-28.2,5.8
				c-20.4,1.5-39.7-2.5-57.7-12.1c-22.4-11.9-38.6-29.6-48.7-52.8c-4.5-10.4-7.2-21.2-8.2-32.4c-0.5-5.4-0.3-10.7-0.3-16.1
				c1.8,4.7,5.2,6.5,10.2,6.5c12.9-0.1,25.9,0,38.8,0c17.9,0,35.9,0,53.8,0c5.7,0,9.3-3.5,9.5-9.3c0.1-2.1,0-4.1,0-6.2
				c0-10.4-0.1-20.9-0.1-31.3c0.1-2.1,0.2-4.1,0.2-6.2c0-16.2,0-32.3,0-48.5C123.3,10.9,123.1,8.9,122.5,7z M193.3,83
				c0.6-6.9,0.3-13.7,0.2-20.6c-0.1-5.1-3.7-9-8.2-9c-6.8-0.1-13.6,0-20.4,0c-7.8,0-15.6-0.1-23.4-0.1c-5.1,0-9,3.5-9,8.6
				c-0.1,14.5-0.1,29,0,43.5c0,5.3,3.9,8.7,9.2,8.8c1.8,0,3.6,0,5.4,0c12.4,0,24.9,0,37.3,0c4.9,0,8.9-3.4,9-8
				C193.4,98.6,193.3,90.8,193.3,83z M83.8,123.8c-7.4,0-14.7-0.1-22.1-0.1c-5.1,0-8.8,3.7-8.8,8.8c0,14.4,0,28.7,0,43.1
				c0,5.1,3.7,8.9,8.7,9c14.4,0.1,28.7,0.1,43.1,0c5.2,0,9-3.7,9-8.9c0.1-6.7,0-13.4,0-20.2c0-7.9,0.2-15.8,0.1-23.8
				c-0.1-4.4-3.8-8-8.2-8C98.3,123.7,91,123.8,83.8,123.8z"/>
			<path class="st1" d="M122.5,7c0.6,1.9,0.8,3.9,0.8,5.9c0,16.2,0,32.3,0,48.5c0,2.1-0.1,4.1-0.2,6.2c-1,1.8-1.4,4-2.1,5.9
				c-4.2,11.5-16.1,20.7-28.8,20.7c-10.1,0-20.2,0.1-30.3,0c-10.2-0.1-18.2-4.7-24.5-12.5c-4.9-6.1-6.9-13.2-6.8-20.9
				c0.1-10.1-0.7-20.2,0.4-30.2c1.2-11.4,7.4-19.7,17.4-25.1c3.4-1.9,7.2-2.6,10.9-3.4c13.4,0,26.7,0,40.1-0.1
				c4.4,0,8.9,0.2,13.3-0.1C117.1,1.6,120.3,3.2,122.5,7z M68.7,61.1c8.1,0,16.3,0,24.4,0c2.8,0,4.8-1.8,4.8-4.4
				c0-2.6-1.8-4.3-4.8-4.4c-2.1-0.1-4.1,0-6.2,0c-13.9,0-27.9,0-41.8,0c-2.1,0-3.9,0.4-4.9,2.4c-1.6,3.1,0.7,6.3,4.4,6.3
				C52.7,61.1,60.7,61.1,68.7,61.1z M73.2,76.3c0-2.4-2-4.3-4.5-4.2c-2.4,0.1-4.3,2.1-4.3,4.5c0.1,2.4,2.1,4.3,4.5,4.3
				C71.4,80.8,73.2,78.8,73.2,76.3z M73.2,37c0-2.5-1.9-4.4-4.3-4.4c-2.4,0-4.4,1.9-4.4,4.3c0,2.4,2,4.4,4.4,4.4
				C71.3,41.4,73.2,39.5,73.2,37z"/>
			<path class="st2" d="M59.3,1.9c-3.7,0.8-7.5,1.6-10.9,3.4c-10,5.5-16.2,13.7-17.4,25.1c-1.1,10-0.3,20.1-0.4,30.2
				c-0.1,7.7,1.9,14.8,6.8,20.9c6.3,7.8,14.3,12.4,24.5,12.5c10.1,0.1,20.2,0,30.3,0c12.7,0,24.6-9.3,28.8-20.7c0.7-2,1-4.1,2.1-5.9
				c0,10.4,0.1,20.9,0.1,31.3c0,2.1,0.1,4.1,0,6.2c-0.2,5.8-3.8,9.3-9.5,9.3c-17.9,0-35.9,0-53.8,0c-12.9,0-25.9-0.1-38.8,0
				c-5,0.1-8.4-1.8-10.2-6.5c-0.1-1.4-0.2-2.7-0.2-4.1c0-30.5,0.1-61-0.1-91.5c0-7.1,4.6-10.6,10.5-10.5C33.9,2.1,46.6,1.9,59.3,1.9
				z"/>
			<path class="st3" d="M177.4,203.7c-14.5,0-28.9,0-43.4-0.1c-1.3,0-2.6,0.1-3.9-0.2c-4-0.7-7-4.2-7-8.4c0-21-0.1-41.9,0-62.9
				c0-4.6,3.6-8.4,8-8.4c11.4-0.1,22.7,0,34.1,0c-0.8,0.7-1.8,0.4-2.6,0.6c-12.2,3.2-20.4,10.7-24.1,22.8c-1.3,4.1-1.7,8.3-0.7,12.6
				c-0.7,1.9-0.5,3.6,0.9,5.1c-0.5,2.4,0.9,4.4,1.9,6.3c6.3,12.6,20,20,34.4,17.8c10.1-1.5,17.7-6.6,23.2-15.1
				c2.6-4.1,3.9-8.7,4.8-13.3c0,6.3,0.1,12.6,0.1,18.9c-3.2,4.6-7,8.6-11.1,12.4C187.6,196.4,182.7,200.4,177.4,203.7z"/>
			<path class="st4" d="M137.9,159.8c-1-4.3-0.5-8.5,0.7-12.6c3.7-12.1,11.9-19.6,24.1-22.8c0.9-0.2,1.9,0.1,2.6-0.6
				c9.9,0,19.7-0.1,29.6,0c4.4,0,8.1,3.7,8.2,8c0.1,9.6,0,19.3,0,28.9c-1,4.7-2.2,9.2-4.8,13.3c-5.5,8.5-13.2,13.5-23.2,15.1
				c-14.3,2.2-28.1-5.2-34.4-17.8c-1-1.9-2.3-3.9-1.9-6.3c1.2,1,2.6,1.3,4.2,1.3c3.9,0,7.9,0.1,11.8-0.1c1.9-0.1,2.6,0.4,2.6,2.5
				c-0.2,4.1-0.1,8.3,0,12.4c0.1,3.2,1.9,5,4.7,4.9c2.6-0.1,4.2-1.9,4.2-5.1c0-4.3,0.1-8.6,0-12.9c0-1.4,0.5-1.8,1.9-1.8
				c4.1,0.1,8.3,0.1,12.4,0c3.3,0,5.1-1.7,5.1-4.5c0-2.8-1.8-4.4-5.1-4.4c-4.1,0-8.2-0.1-12.2,0c-1.6,0-2.1-0.4-2.1-2
				c0.1-4.2,0.1-8.4,0-12.7c0-3-1.9-4.8-4.6-4.7c-2.5,0.1-4.2,2.1-4.3,5.2c-0.1,4.1-0.1,8.2,0,12.2c0,1.5-0.4,2-1.9,2
				c-4.1-0.1-8.3,0-12.4,0C140.8,157.3,139,157.9,137.9,159.8z"/>
			<path class="st5" d="M83.8,123.8c7.3,0,14.6-0.1,21.8,0c4.4,0,8.1,3.6,8.2,8c0.1,7.9,0,15.8-0.1,23.8c-1.1,0.3-0.9,1.3-1.2,2.1
				c-1.1,3.4-3,6.4-5.4,9.1c-7.1,7.8-21.2,8.8-29.8,4.8c-5.3-2.5-9.5-6.2-11.5-12c10.6,0.4,21.3,0.2,31.9,0.1c2.7,0,4.4-2.4,4.1-5
				c-0.3-2.3-2.2-3.8-5.2-3.8c-9.5,0-19,0-28.5,0c-1.7,0-3.2,0.5-4.5,1.7c0-1.6-0.1-3.1-0.1-4.7c0.1-10,4.6-17.3,13.5-22
				C79.3,124.9,81.5,124.4,83.8,123.8z"/>
			<path class="st6" d="M65.8,159.6c1.9,5.8,6.1,9.5,11.5,12c8.6,3.9,22.7,3,29.8-4.8c2.4-2.7,4.3-5.7,5.4-9.1
				c0.2-0.7,0.1-1.8,1.2-2.1c0,6.7,0.1,13.4,0,20.2c-0.1,5.2-3.8,8.9-9,8.9c-14.4,0.1-28.7,0.1-43.1,0c-5.1,0-8.7-3.9-8.7-9
				c0-14.4,0-28.7,0-43.1c0-5.1,3.7-8.8,8.8-8.8c7.4,0,14.7,0,22.1,0.1c-2.2,0.6-4.5,1.1-6.6,2.2c-8.9,4.6-13.4,11.9-13.5,22
				c0,1.6,0,3.1,0.1,4.7C62.2,156.1,62.7,157.8,65.8,159.6z"/>
			<path class="st7" d="M193.3,83c0,7.8,0.2,15.6,0,23.4c-0.1,4.6-4,8-9,8c-12.4,0-24.9,0-37.3,0c-1.8,0-3.6,0-5.4,0
				c-5.3-0.1-9.1-3.5-9.2-8.8c-0.1-14.5-0.1-29,0-43.5c0.1-5.2,3.9-8.6,9-8.6c7.8,0,15.6,0,23.4,0.1c-3.4,0.6-6.7,1.7-9.7,3.5
				c-3.8,2.4-7.2,5.3-8.7,9.8c0,0,0,0,0,0c-0.2,0.1-0.3,0.3-0.5,0.4c-1,1.1-1.5,2.4-1.4,3.9c-0.2,0.4-0.6,0.9-0.6,1.3
				c-1.3,7.3-0.7,14.3,3.8,20.6c-0.7,0.8-1.5,1.5-2.2,2.3c-1.7,1.9-1.8,4.4-0.1,6.1c1.7,1.8,4.3,1.8,6.3,0c0.8-0.7,1.6-1.4,2.3-2.2
				c1.7,0.9,3.3,2,5.1,2.6c5.4,1.9,10.8,2.1,16.2,0.7c2.6,0.4,4.6-0.5,5.7-2.9c3.8-1.4,6.1-4.4,8.3-7.6
				C191.5,89.4,192.2,86.1,193.3,83z"/>
			<path class="st8" d="M146.5,66.7c1.5-4.5,4.9-7.4,8.7-9.8c2.9-1.9,6.3-2.9,9.7-3.5c6.8,0,13.6-0.1,20.4,0c4.5,0.1,8.2,3.9,8.2,9
				c0.1,6.9,0.3,13.7-0.2,20.6c-1,3.1-1.8,6.4-3.7,9.2c-2.2,3.2-4.6,6.2-8.3,7.6c0.4-2.3-0.5-4-2.2-5.5c-3.1-2.9-6-6-9-8.9
				c-0.9-0.9-0.8-1.4,0-2.2c3-2.9,5.9-5.8,8.8-8.8c2.4-2.4,2.7-5,0.8-7c-1.9-1.9-4.6-1.7-6.9,0.7c-2.9,2.9-5.9,5.8-8.8,8.8
				c-0.9,1-1.4,1-2.4,0c-2.9-3-5.9-5.8-8.7-8.8C151,66.1,148.9,65.7,146.5,66.7z"/>
			<path class="st9" d="M68.7,61.1c-8,0-16,0-24,0c-3.8,0-6-3.3-4.4-6.3c1-2,2.8-2.4,4.9-2.4c13.9,0,27.9,0,41.8,0
				c2.1,0,4.1,0,6.2,0c2.9,0.1,4.8,1.8,4.8,4.4c0,2.5-2,4.3-4.8,4.4C85,61.1,76.8,61.1,68.7,61.1z"/>
			<path class="st10" d="M73.2,76.3c0,2.5-1.8,4.4-4.2,4.5c-2.4,0.1-4.4-1.9-4.5-4.3c-0.1-2.4,1.8-4.4,4.3-4.5
				C71.2,72.1,73.1,73.9,73.2,76.3z"/>
			<path class="st10" d="M73.2,37c0,2.5-1.9,4.4-4.4,4.4c-2.4,0-4.4-2-4.4-4.4c0-2.4,2-4.3,4.4-4.3C71.3,32.6,73.2,34.5,73.2,37z"/>
			<path class="st11" d="M137.9,159.8c1.1-1.9,2.9-2.6,5.1-2.6c4.1,0.1,8.3,0,12.4,0c1.5,0,2-0.5,1.9-2c-0.1-4.1-0.1-8.2,0-12.2
				c0.1-3.1,1.7-5.1,4.3-5.2c2.7-0.1,4.6,1.7,4.6,4.7c0,4.2,0.1,8.4,0,12.7c0,1.6,0.5,2.1,2.1,2c4.1-0.1,8.2,0,12.2,0
				c3.3,0,5.1,1.6,5.1,4.4c0,2.8-1.8,4.5-5.1,4.5c-4.1,0-8.3,0.1-12.4,0c-1.4,0-1.9,0.4-1.9,1.8c0.1,4.3,0,8.6,0,12.9
				c0,3.2-1.6,5.1-4.2,5.1c-2.8,0.1-4.6-1.8-4.7-4.9c-0.1-4.1-0.1-8.3,0-12.4c0.1-2.1-0.6-2.5-2.6-2.5c-3.9,0.1-7.9,0-11.8,0.1
				c-1.6,0-3-0.3-4.2-1.3C137.4,163.5,137.2,161.7,137.9,159.8z"/>
			<path class="st12" d="M65.8,159.6c-3.1-1.8-3.7-3.5-2.2-7c1.2-1.2,2.7-1.7,4.5-1.7c9.5,0,19,0,28.5,0c3,0,4.9,1.4,5.2,3.8
				c0.4,2.6-1.4,5-4.1,5C87.1,159.8,76.5,160.1,65.8,159.6z"/>
			<path class="st13" d="M146.5,66.7c2.4-1.1,4.5-0.6,6.4,1.4c2.8,3,5.9,5.8,8.7,8.8c0.9,1,1.4,0.9,2.4,0c2.9-3,5.8-5.9,8.8-8.8
				c2.4-2.4,5.1-2.6,6.9-0.7c1.9,1.9,1.6,4.6-0.8,7c-2.9,2.9-5.8,5.9-8.8,8.8c-0.9,0.8-0.9,1.3,0,2.2c3,2.9,5.9,6,9,8.9
				c1.6,1.5,2.5,3.2,2.2,5.5c-1.2,2.4-3.1,3.3-5.7,2.9c-1.1-0.7-2.1-1.6-3.1-2.6c-2.8-2.8-5.6-5.6-8.5-8.5c-0.6-0.6-1.1-1.2-2-0.3
				c-2.5,2.7-5.2,5.3-7.7,7.9c-0.8,0.7-1.5,1.5-2.3,2.2c-2,1.8-4.6,1.7-6.3,0c-1.6-1.7-1.6-4.2,0.1-6.1c0.7-0.8,1.4-1.6,2.2-2.3
				c2.5-2.5,5-5,7.6-7.4c1.1-1,0.8-1.6-0.1-2.5c-3-2.9-5.8-5.8-8.8-8.7c-0.9-0.9-1.7-1.9-1.9-3.2c0-1.5,0.5-2.8,1.4-3.9
				C146.2,67,146.4,66.9,146.5,66.7L146.5,66.7z"/>
			<path class="st14" d="M144.6,71c0.3,1.3,1,2.3,1.9,3.2c2.9,2.9,5.8,5.9,8.8,8.7c0.9,0.9,1.2,1.5,0.1,2.5
				c-2.6,2.4-5.1,4.9-7.6,7.4c-4.5-6.3-5.1-13.3-3.8-20.6C144,71.9,144.4,71.5,144.6,71z"/>
			<path class="st14" d="M154.1,99.3c2.6-2.6,5.2-5.3,7.7-7.9c0.9-1,1.4-0.4,2,0.3c2.8,2.8,5.6,5.6,8.5,8.5c1,1,1.9,1.9,3.1,2.6
				c-5.5,1.4-10.9,1.2-16.2-0.7C157.4,101.3,155.8,100.2,154.1,99.3z"/>
			<path class="st8" d="M146.5,66.7c-0.2,0.1-0.3,0.3-0.5,0.4C146.2,67,146.4,66.9,146.5,66.7z"/>
		</g>
	</g>
</g>
</svg>
