<?xml version="1.0" encoding="utf-8"?>
<!-- Generator: Adobe Illustrator 26.5.0, SVG Export Plug-In . SVG Version: 6.00 Build 0)  -->
<svg version="1.2" baseProfile="tiny" id="Layer_1" xmlns="http://www.w3.org/2000/svg" xmlns:xlink="http://www.w3.org/1999/xlink"
	 x="0px" y="0px" viewBox="0 0 232.4 225.3" overflow="visible" xml:space="preserve">
<g id="jXdUKO.tif">
	<g>
		<g>
			<path fill="#C3C6CB" d="M226.3,118.7c0.2,0,0.3,0,0.5,0c0,3.7,0,7.4,0,11.1l-0.2,0c0,0-0.2,0-0.2,0
				C226.2,126.2,226.2,122.4,226.3,118.7z"/>
			<path fill="#415C66" d="M226.3,118.7c0,3.7,0,7.4,0,11.1c-0.7,13-3,25.6-9.3,37.2c-8.3,15.2-21.4,24.5-37.3,30.4
				c-13.4,4.9-27.4,7.1-41.6,8.1c-19.4,1.3-38.9,1.2-58.2-1.6c-16.4-2.4-32.1-6.6-45.8-16.4c-13.8-9.9-21.8-23.5-25.1-39.9
				c-3.9-19.6-3.6-39,4.2-57.7c3.2-7.7,7.7-14.6,13.3-20.7c0.9-1,1.6-1.6,0.9-3.2c-4.5-10.3-4.2-21.2-2.8-32.1
				c0.5-3.8,1.6-7.6,2.6-11.3c0.8-3,2.3-3.7,5.2-3.3c16.1,2,30.3,8,42.2,19.1c1.8,1.7,3.3,2,5.6,1.5c24-4.8,48-5.2,72.1-0.4
				c1.7,0.3,3,0.2,4.5-1.1c11.9-9.9,25.3-16.8,40.9-18.9c6.2-0.8,6.2-0.9,8.2,4.9c4.5,13.4,4.9,26.8,0.8,40.4
				c-0.5,1.7-0.2,2.6,0.9,3.9c10.7,12,16.1,26.3,18,42.1C225.9,113.3,226,116,226.3,118.7z M119,194.6c2.1,0,4.3,0,6.4,0
				c14.3-0.2,28.5-0.7,42.5-4.1c15.4-3.8,26-12.6,29.3-28.7c1.3-6.2,1.7-12.5,1.5-18.8c-0.4-11-5-20-13.5-27
				c-8.2-6.8-18.1-8.7-28.3-8.8c-17.3-0.2-34.5,1.8-51.9,1.2c-12.1-0.5-24.2-1.9-36.4-0.6c-7.8,0.8-14.9,2.9-20.9,8.4
				c-10.5,9.5-14.9,21.2-13.5,35.2c1.5,15,8.6,26.3,22.1,33.4c5,2.6,10.3,4.5,15.8,5.8C87.6,194.3,103.3,194.7,119,194.6z"/>
			<path fill="#FAC6BA" d="M119,194.6c-15.8,0.1-31.5-0.3-46.9-4.1c-5.5-1.4-10.8-3.2-15.8-5.8c-13.5-7.1-20.6-18.4-22.1-33.4
				c-1.4-14,3-25.7,13.5-35.2c6-5.4,13.1-7.6,20.9-8.4c12.2-1.2,24.3,0.2,36.4,0.6c17.3,0.7,34.6-1.3,51.9-1.2
				c10.3,0.1,20.1,2,28.3,8.8c8.5,7,13.1,16,13.5,27c0.2,6.3-0.2,12.6-1.5,18.8c-3.3,16.2-13.9,24.9-29.3,28.7
				c-14,3.4-28.2,4-42.5,4.1C123.3,194.6,121.2,194.6,119,194.6z M143.9,140.5c0,8.5,1.4,14.8,5.4,20.4c6,8.5,16.4,8.4,22.4-0.1
				c3.1-4.4,4.5-9.3,5.1-14.6c0.9-7.8-0.4-15.1-4.8-21.6c-6.1-9.1-16.9-9.1-23,0C145.3,130,144,136,143.9,140.5z M89.1,142.5
				c-0.1-7.2-1.7-14.1-6.7-19.8c-3.2-3.6-7.2-5.8-12.4-4.6c-4.9,1.2-8.1,4.5-10.4,8.7c-2.2,3.9-3.1,8.1-3.5,12.5
				c-0.8,8.4,0.8,16.2,6.1,22.9c5.2,6.6,13.7,6.8,19.6,0.8C87.4,157.3,88.9,150.2,89.1,142.5z M116.6,186.4c4.9,0,8.8-1.4,12.8-4.7
				c1.4-1.2,2.4-2.5,1.1-4.2c-1.4-1.8-2.9-1.3-4.5-0.1c-6,4.6-12.3,4.5-18.4,0c-1.5-1.1-3-1.6-4.4-0.1c-1.4,1.6-0.6,3,0.8,4.3
				C107.5,184.8,111.7,186.5,116.6,186.4z M121.9,167.1c0-3.4-2.1-5.3-5.5-5.3c-3.4,0-5.3,2.1-5.3,5.5c0,3.2,2.3,5.5,5.5,5.4
				C119.8,172.7,121.9,170.4,121.9,167.1z"/>
			<path fill="#FCFAF9" d="M143.9,140.5c0.2-4.5,1.4-10.5,5-15.9c6.1-9.1,16.9-9.2,23,0c4.4,6.5,5.7,13.8,4.8,21.6
				c-0.6,5.3-2,10.2-5.1,14.6c-6,8.5-16.3,8.6-22.4,0.1C145.3,155.4,143.8,149,143.9,140.5z M152.8,134.3c5.2,0.3,6.8,1.2,7.4,3.9
				c0.5,2.4,0.2,4.7-2.1,6.2c-1.4,0.9-2.9,1-4.5,0.7c-1.7-0.3-2.6-1.7-3.9-3.1c-0.6,6.1,0.1,11.5,3.8,16.1c3.6,4.4,8.7,4.8,12.7,1.1
				c6.8-6.4,6.8-21.5,0-27.9C161.7,127.1,155.4,128.5,152.8,134.3z"/>
			<path fill="#FCFAF9" d="M89.1,142.5c-0.2,7.7-1.8,14.8-7.2,20.5c-5.9,6.1-14.3,5.8-19.6-0.8c-5.3-6.7-6.9-14.5-6.1-22.9
				c0.4-4.4,1.4-8.6,3.5-12.5c2.3-4.2,5.5-7.5,10.4-8.7c5.2-1.3,9.2,1,12.4,4.6C87.4,128.3,89,135.3,89.1,142.5z M62,142.7
				c-0.9,4.9,0,9.4,2.3,13.5c4.3,7.5,12.4,7.5,16.5-0.1c3.8-7,3.7-14.3,0.1-21.5c-0.8-1.6-1.9-2.9-3.3-4c-5.1-4-11.5-0.6-12.7,3.8
				c4.8-0.1,6.4,0.7,7.3,3.5c0.8,2.5,0.2,4.6-1.8,6.3C68.2,146,65.7,145.5,62,142.7z"/>
			<path fill="#E93E26" d="M116.6,186.4c-4.9,0.1-9.1-1.6-12.7-4.8c-1.4-1.2-2.2-2.7-0.8-4.3c1.4-1.5,2.8-1.1,4.4,0.1
				c6.1,4.6,12.4,4.6,18.4,0c1.6-1.2,3.2-1.7,4.5,0.1c1.3,1.7,0.3,3-1.1,4.2C125.4,185,121.6,186.4,116.6,186.4z"/>
			<path fill="#E83C26" d="M121.9,167.1c0,3.3-2.1,5.6-5.3,5.6c-3.2,0.1-5.5-2.2-5.5-5.4c0-3.4,1.9-5.5,5.3-5.5
				C119.8,161.8,121.8,163.8,121.9,167.1z"/>
			<path fill="#754D42" d="M152.8,134.3c2.7-5.8,8.9-7.2,13.5-2.9c6.8,6.4,6.8,21.5,0,27.9c-4,3.7-9.1,3.3-12.7-1.1
				c-3.7-4.6-4.4-10-3.8-16.1c1.3,1.3,2.2,2.7,3.9,3.1c1.6,0.3,3.1,0.2,4.5-0.7c2.3-1.5,2.5-3.8,2.1-6.2
				C159.6,135.4,157.9,134.6,152.8,134.3z"/>
			<path fill="#754E43" d="M62,142.7c3.7,2.9,6.3,3.3,8.5,1.6c2-1.6,2.6-3.8,1.8-6.3c-0.9-2.9-2.5-3.6-7.3-3.5
				c1.2-4.4,7.6-7.8,12.7-3.8c1.4,1.1,2.6,2.4,3.3,4c3.6,7.2,3.7,14.4-0.1,21.5c-4.1,7.6-12.2,7.5-16.5,0.1
				C61.9,152,61,147.6,62,142.7z"/>
		</g>
	</g>
</g>
</svg>
