<?xml version="1.0" encoding="utf-8"?>
<!-- Generator: Adobe Illustrator 26.5.0, SVG Export Plug-In . SVG Version: 6.00 Build 0)  -->
<svg version="1.1" id="图层_1" xmlns="http://www.w3.org/2000/svg" xmlns:xlink="http://www.w3.org/1999/xlink" x="0px" y="0px"
	 viewBox="0 0 269 270.5" style="enable-background:new 0 0 269 270.5;" xml:space="preserve">
<style type="text/css">
	.st0{fill:#390176;}
	.st1{fill:url(#SVGID_1_);}
	.st2{opacity:0.33;fill:#231F1F;enable-background:new    ;}
	.st3{fill:none;stroke:#390176;stroke-miterlimit:10;}
	.st4{fill:#020005;}
	.st5{fill:none;stroke:#FFFFFF;stroke-width:5;stroke-linecap:round;stroke-miterlimit:10;}
	.st6{fill:#5B5A70;}
	.st7{fill:#C91212;}
	.st8{opacity:0.8;}
	.st9{fill:url(#SVGID_00000136392939317148835090000000236649662383329939_);}
	.st10{fill:#FFFFFF;}
	.st11{fill:url(#SVGID_00000147928712341493191670000012863732905854744219_);}
	.st12{fill:url(#SVGID_00000144333734355835698410000001993342981941771671_);}
	.st13{opacity:0.33;enable-background:new    ;}
	.st14{opacity:0.6;fill:#231F1F;enable-background:new    ;}
</style>
<g>
	<g>
		<g>
			<path class="st0" d="M134.7,251.6c-38.7,0-65.9-3.6-85.6-11.4c-24.4-9.6-36.7-26-36.7-48.7c0-24,13.7-53.2,35.8-76.1
				c24.8-25.8,55.5-40,86.5-40s61.7,14.2,86.5,40c22.1,22.9,35.8,52.1,35.8,76.1c0,22.8-12.3,39.1-36.7,48.7
				C200.6,248,173.4,251.6,134.7,251.6z"/>
			
				<linearGradient id="SVGID_1_" gradientUnits="userSpaceOnUse" x1="134.3363" y1="194.0909" x2="134.8811" y2="16.4613" gradientTransform="matrix(1 0 0 -1 0 267)">
				<stop  offset="0" style="stop-color:#7682F0"/>
				<stop  offset="2.890281e-02" style="stop-color:#7B93F2"/>
				<stop  offset="0.1661" style="stop-color:#93E0FB"/>
				<stop  offset="0.2292" style="stop-color:#9CFFFF"/>
				<stop  offset="1" style="stop-color:#82ABF5"/>
			</linearGradient>
			<path class="st1" d="M254.5,191.5c0,46.9-53.6,57.6-119.8,57.6S14.9,238.4,14.9,191.5S68.5,77.9,134.7,77.9
				S254.5,144.6,254.5,191.5z"/>
			<g>
				<g>
					<path class="st0" d="M63,244.4c-11.6-12.5-17.2-30.5-17.2-55.1c0-23.9,5.5-46.9,15.8-66.5c10.1-19.2,24.2-33.8,40.6-42.3
						l0.8,1.6c-16.1,8.3-29.9,22.7-39.9,41.5c-10.2,19.3-15.6,42-15.6,65.7c0,24.1,5.5,41.7,16.8,53.8L63,244.4z"/>
				</g>
				<g>
					<path class="st0" d="M206.4,244.4l-1.3-1.2c11.3-12.2,16.8-29.8,16.8-53.8c0-23.6-5.4-46.3-15.6-65.7
						c-9.9-18.8-23.7-33.2-39.9-41.5l0.8-1.6c16.5,8.5,30.5,23.1,40.6,42.3c10.3,19.6,15.8,42.6,15.8,66.5
						C223.7,213.9,218,231.9,206.4,244.4z"/>
				</g>
			</g>
			<path class="st2" d="M134.7,77.9c55.8,0,101.1,56.4,101.1,96s-45.3,48.7-101.1,48.7s-101.1-9-101.1-48.7S78.9,77.9,134.7,77.9
				c-66.2,0-119.8,66.7-119.8,113.6s53.6,57.6,119.8,57.6s119.8-10.7,119.8-57.6S200.9,77.9,134.7,77.9z"/>
			<path class="st3" d="M222.7,202.2c-8.7,0-19.4-1.3-31.8-2.8c-16.7-2-35.7-4.3-56.2-4.3s-39.4,2.3-56.2,4.3
				c-12.4,1.5-23.1,2.8-31.8,2.8c-7.8,0-13.3-1.1-17.2-3.4c-4.6-2.7-7-7.3-7-13.5c0-29.5,51.3-76.4,112.1-76.4
				s112.1,46.9,112.1,76.4C246.8,200.5,233,202.2,222.7,202.2z"/>
			<path class="st0" d="M244.3,185.3c0,27.3-49.1,7.2-109.6,7.2s-109.6,20.1-109.6-7.2c0-27.3,49.1-73.8,109.6-73.8
				S244.3,158,244.3,185.3z"/>
			<path class="st4" d="M222.7,196.8c-8.4,0-18.9-1.3-31.2-2.8c-16.9-2-36-4.4-56.8-4.4s-39.9,2.3-56.8,4.4
				c-12.2,1.5-22.8,2.8-31.2,2.8c-6.7,0-11.5-0.9-14.4-2.6c-1.9-1.1-4.3-3.2-4.3-8.9c0-13,12.2-30.6,31-44.9
				c12.8-9.7,39.8-26.1,75.8-26.1s62.9,16.4,75.8,26.1c18.8,14.3,31,31.9,31,44.9C241.4,192.3,238.2,196.8,222.7,196.8z"/>
			<path class="st5" d="M185.1,156.3c0,6.8-22.6,12.3-50.4,12.3s-50.4-5.5-50.4-12.3"/>
			<g>
				<ellipse class="st0" cx="134.7" cy="93.5" rx="20.8" ry="6.4"/>
				<path class="st0" d="M134.7,98.5c-2.6,0-7-0.5-8.4-3.4c-0.2-0.5-0.4-1.1-0.4-1.6c0-0.2,0-0.4,0-0.6V49.1h17.4V93
					c0,0.2,0,0.4,0,0.5c0,0.5-0.1,1-0.3,1.4C142,98.1,137.4,98.5,134.7,98.5z"/>
				<path class="st6" d="M140,93.3V52.5h-10.6v40.8c0,0.1,0,0.1,0,0.2c0,0.1,0,0.1,0,0.2c0.3,0.8,2.6,1.4,5.3,1.4
					c2.7,0,5-0.6,5.3-1.5C140,93.5,140,93.5,140,93.3C140,93.4,140,93.3,140,93.3z"/>
				<path class="st2" d="M129.4,67v26.2c0,0.1,0,0.1,0,0.2c0,0.1,0,0.1,0,0.2c0.2,0.5,1,0.9,2.2,1.1V67.2c1,0.1,2,0.2,3,0.2
					s2-0.1,3-0.2v27.5c1.2-0.3,2.1-0.7,2.3-1.2c0-0.1,0-0.1,0-0.2c0-0.1,0-0.1,0-0.2V66.8v-8.2h-10.6L129.4,67z"/>
				<circle class="st0" cx="134.7" cy="38.7" r="25.9"/>
				<circle class="st7" cx="134.7" cy="38.7" r="22.5"/>
				<g>
					<path class="st2" d="M136.5,16.3c8.7,0.9,15.5,8.2,15.5,17.1c0,9.5-7.7,17.2-17.2,17.2s-17.2-7.7-17.2-17.2
						c0-8.9,6.8-16.3,15.5-17.1c-11.6,0.9-20.7,10.6-20.7,22.4c0,12.4,10.1,22.5,22.5,22.5s22.5-10.1,22.5-22.5
						C157.2,26.9,148.1,17.2,136.5,16.3z"/>
					<path class="st2" d="M134.7,16.2c0.6,0,1.2,0,1.8,0.1C135.9,16.3,135.3,16.2,134.7,16.2z"/>
					<path class="st2" d="M132.9,16.3c0.6,0,1.2-0.1,1.8-0.1C134.1,16.2,133.5,16.3,132.9,16.3z"/>
				</g>
				<g class="st8">
					
						<linearGradient id="SVGID_00000031197002635873177270000007848226905219797918_" gradientUnits="userSpaceOnUse" x1="2476.0938" y1="2125.2092" x2="2482.0212" y2="2125.2092" gradientTransform="matrix(0 -1 -1 0 2259.9092 2500.3726)">
						<stop  offset="1.209562e-03" style="stop-color:#FFFFFF;stop-opacity:0"/>
						<stop  offset="1" style="stop-color:#FFFFFF"/>
					</linearGradient>
					
						<ellipse style="fill:url(#SVGID_00000031197002635873177270000007848226905219797918_);" cx="134.7" cy="21.3" rx="6.7" ry="3"/>
				</g>
			</g>
			<g>
				<g>
					<circle class="st0" cx="84.3" cy="162.5" r="16.1"/>
					<circle class="st10" cx="84.3" cy="162.5" r="13.8"/>
					<g>
						<path class="st2" d="M90.7,171.7c-6.8,3.4-15.1,0.7-18.5-6.1c-0.9-1.8-1.4-3.7-1.5-5.6c-0.5,2.9-0.2,6,1.2,8.8
							c3.4,6.8,11.7,9.5,18.5,6.1c5-2.5,7.8-7.6,7.6-12.9C97.3,166,94.7,169.6,90.7,171.7z"/>
					</g>
				</g>
				<g>
					<circle class="st0" cx="185.1" cy="162.5" r="16.1"/>
					<circle class="st10" cx="185.1" cy="162.5" r="13.8"/>
					<g>
						<path class="st2" d="M191.6,171.7c-6.8,3.4-15.1,0.7-18.5-6.1c-0.9-1.8-1.4-3.7-1.5-5.6c-0.5,2.9-0.2,6,1.2,8.8
							c3.4,6.8,11.7,9.5,18.5,6.1c5-2.5,7.8-7.6,7.6-12.9C198.1,166,195.6,169.6,191.6,171.7z"/>
					</g>
				</g>
			</g>
		</g>
		<g>
			<g>
				<path class="st0" d="M24.4,133.3c-4.2,0.5-6.4-0.9-7.5-2.2c-3.5-4-2.4-13.1-0.5-19.8c1.7-5.8,6-16.8,16.2-25.6
					c7.9-6.9,18.7-11.6,29.5-12.9c6.5-0.7,14.5-0.2,17.6,3.3c6.3,7.2-7.1,24.8-22.2,38C45,125,32.3,132.4,24.4,133.3z"/>
				
					<linearGradient id="SVGID_00000131367155984124971870000009097103700243772570_" gradientUnits="userSpaceOnUse" x1="127.7328" y1="442.2125" x2="54.7194" y2="378.462" gradientTransform="matrix(0.9936 -0.1132 -0.1132 -0.9936 5.5805 513.1079)">
					<stop  offset="0" style="stop-color:#7682F0"/>
					<stop  offset="2.890281e-02" style="stop-color:#7B93F2"/>
					<stop  offset="0.1661" style="stop-color:#93E0FB"/>
					<stop  offset="0.2292" style="stop-color:#9CFFFF"/>
					<stop  offset="1" style="stop-color:#82ABF5"/>
				</linearGradient>
				<path style="fill:url(#SVGID_00000131367155984124971870000009097103700243772570_);" d="M77.6,77.9c4.1,4.6-5.8,19.9-21.9,34
					s-32.6,21.9-36.6,17.2c-4.1-4.6-0.7-27.3,15.4-41.4S73.5,73.3,77.6,77.9z"/>
				<g>
					<path class="st2" d="M26,116.3c-2.7-4.1-0.3-18.6,9.2-29.2c-0.3,0.2-0.6,0.5-0.8,0.7c-16.2,14.1-19.5,36.8-15.4,41.4
						s20.5-3.1,36.6-17.2c3.8-3.3,7.2-6.6,10.1-9.9c-2,1.6-4.1,3.1-6.3,4.6C44.3,116.9,29.3,121.2,26,116.3z"/>
				</g>
			</g>
			<g>
				<path class="st0" d="M245.1,133.3c4.2,0.5,6.4-0.9,7.5-2.2c3.5-4,2.4-13.1,0.5-19.8c-1.7-5.8-6-16.8-16.2-25.6
					c-7.9-6.9-18.7-11.6-29.5-12.9c-6.5-0.7-14.5-0.2-17.6,3.3c-6.3,7.2,7.1,24.8,22.2,38C224.4,125,237.1,132.4,245.1,133.3z"/>
				
					<linearGradient id="SVGID_00000002372235739376333700000001677020123262297791_" gradientUnits="userSpaceOnUse" x1="4475.1079" y1="-53.1309" x2="4402.0942" y2="-116.8814" gradientTransform="matrix(-0.9936 -0.1132 0.1132 -0.9936 4639.4902 513.1079)">
					<stop  offset="0" style="stop-color:#7682F0"/>
					<stop  offset="2.890281e-02" style="stop-color:#7B93F2"/>
					<stop  offset="0.1661" style="stop-color:#93E0FB"/>
					<stop  offset="0.2292" style="stop-color:#9CFFFF"/>
					<stop  offset="1" style="stop-color:#82ABF5"/>
				</linearGradient>
				<path style="fill:url(#SVGID_00000002372235739376333700000001677020123262297791_);" d="M191.8,77.9c-4.1,4.6,5.8,19.9,21.9,34
					c16.2,14.1,32.6,21.9,36.6,17.2c4.1-4.6,0.7-27.3-15.4-41.4C218.8,73.6,195.9,73.3,191.8,77.9z"/>
				<g class="st13">
					<path class="st14" d="M243.4,116.3c2.7-4.1,0.3-18.6-9.2-29.2c0.3,0.2,0.6,0.5,0.8,0.7c16.2,14.1,19.5,36.8,15.4,41.4
						s-20.5-3.1-36.6-17.2c-3.8-3.3-7.2-6.6-10.1-9.9c2,1.6,4.1,3.1,6.3,4.6C225.1,116.9,240.1,121.2,243.4,116.3z"/>
				</g>
			</g>
		</g>
	</g>
</g>
</svg>
