<svg id="Layer_2" data-name="Layer 2" xmlns="http://www.w3.org/2000/svg" xmlns:xlink="http://www.w3.org/1999/xlink" viewBox="0 0 201.18 219.39">
  <defs>
    <linearGradient id="linear-gradient" x1="79.88" y1="1242.69" x2="109.39" y2="1063.72" gradientTransform="translate(0 -1030)" gradientUnits="userSpaceOnUse">
      <stop offset="0" stop-color="#81ffff"/>
      <stop offset=".62" stop-color="#fff" stop-opacity="0"/>
    </linearGradient>
    <linearGradient id="linear-gradient-2" x1="158" y1="1092.51" x2="83.11" y2="1160.06" gradientTransform="translate(0 -1030)" gradientUnits="userSpaceOnUse">
      <stop offset=".29" stop-color="#fff"/>
      <stop offset=".78" stop-color="#fff" stop-opacity="0"/>
    </linearGradient>
    <linearGradient id="linear-gradient-3" x1="9.6" y1="1195.69" x2="179.17" y2="1195.69" gradientTransform="translate(0 -1030)" gradientUnits="userSpaceOnUse">
      <stop offset="0" stop-color="#0002e9"/>
      <stop offset="1" stop-color="#ff00c7"/>
    </linearGradient>
    <linearGradient id="linear-gradient-4" x1="187.51" y1="1160.49" x2="93.79" y2="1247.56" xlink:href="#linear-gradient-2"/>
    <linearGradient id="linear-gradient-5" x1="9.6" y1="1195.69" x2="100.21" y2="1195.69" gradientTransform="translate(0 -1030)" gradientUnits="userSpaceOnUse">
      <stop offset="0" stop-color="#000292"/>
      <stop offset="1" stop-color="#7d00c7"/>
    </linearGradient>
    <linearGradient id="linear-gradient-6" x1="9.6" y1="1160.56" x2="178.83" y2="1160.56" gradientTransform="translate(0 -1030)" gradientUnits="userSpaceOnUse">
      <stop offset="0" stop-color="#000292"/>
      <stop offset="1" stop-color="#be00c7"/>
    </linearGradient>
    <linearGradient id="linear-gradient-7" x1="176.43" y1="1068.29" x2="163.96" y2="1088.2" xlink:href="#linear-gradient-2"/>
    <linearGradient id="linear-gradient-8" x1="84.03" y1="1216.26" x2="90.78" y2="1216.26" xlink:href="#linear-gradient-2"/>
    <linearGradient id="linear-gradient-9" x1="107.3" y1="1213.98" x2="114.05" y2="1213.98" xlink:href="#linear-gradient-2"/>
    <linearGradient id="linear-gradient-10" x1="96.97" y1="1225.87" x2="102.04" y2="1225.87" xlink:href="#linear-gradient-2"/>
    <linearGradient id="linear-gradient-11" x1="117.48" y1="1223.59" x2="122.55" y2="1223.59" xlink:href="#linear-gradient-2"/>
    <linearGradient id="linear-gradient-12" x1="62.23" y1="1212.25" x2="73.25" y2="1212.25" xlink:href="#linear-gradient-2"/>
    <linearGradient id="linear-gradient-13" x1="127.69" y1="1193.97" x2="138.71" y2="1193.97" xlink:href="#linear-gradient-2"/>
    <radialGradient id="radial-gradient" cx="-637.3" cy="371.27" fx="-637.3" fy="371.27" r="4.57" gradientTransform="matrix(15.6 0 0 15.87 10134.5 -5861.34)" gradientUnits="userSpaceOnUse">
      <stop offset="0" stop-color="#ffeaff" stop-opacity=".6"/>
      <stop offset=".68" stop-color="#a087c9"/>
      <stop offset="1" stop-color="#10002f"/>
    </radialGradient>
    <radialGradient id="radial-gradient-2" cx="-670.03" cy="344.77" fx="-670.03" fy="344.77" r="4.57" gradientTransform="matrix(38.17 0 0 38.82 25725.76 -13324)" xlink:href="#radial-gradient"/>
    <style>
      .cls-1{fill:url(#linear-gradient-5)}.cls-1,.cls-10,.cls-11,.cls-12,.cls-13,.cls-14,.cls-2,.cls-3,.cls-4,.cls-5,.cls-6,.cls-7,.cls-8,.cls-9{isolation:isolate}.cls-1,.cls-15{opacity:.7}.cls-2{fill:url(#linear-gradient-4)}.cls-10,.cls-11,.cls-12,.cls-13,.cls-14,.cls-16,.cls-2,.cls-3,.cls-4,.cls-5,.cls-6,.cls-7{opacity:.6}.cls-3{fill:url(#linear-gradient-9)}.cls-4{fill:url(#linear-gradient-7)}.cls-5{fill:url(#linear-gradient-8)}.cls-6{fill:url(#linear-gradient-2)}.cls-7{fill:url(#linear-gradient)}.cls-17,.cls-8,.cls-9{fill:#fff}.cls-18{fill:#5e12a0}.cls-8{opacity:.2}.cls-9{opacity:.3}.cls-10{fill:#a98698}.cls-19{fill:url(#radial-gradient-2)}.cls-11{fill:url(#linear-gradient-10)}.cls-12{fill:url(#linear-gradient-11)}.cls-13{fill:url(#linear-gradient-13)}.cls-14{fill:url(#linear-gradient-12)}.cls-20{fill:url(#linear-gradient-3)}.cls-21{fill:url(#linear-gradient-6)}.cls-22{opacity:.4}.cls-23{fill:url(#radial-gradient)}
    </style>
  </defs>
  <g id="Layer_1-2" data-name="Layer 1">
    <path class="cls-18" d="M200.65 38.85c-2.29-8.68-9.6-17.37-22.4-26.97C167.74 4.57 156.77 0 148.08 0c-1.83 0-3.2 0-5.03.46-4.11.91-7.31 3.66-9.6 8.23-2.74 5.03-3.2 12.34-1.37 16.45.46 1.37 1.37 2.74 2.29 4.57-8.23 5.03-13.25 6.86-13.71 6.86 21.94 7.31 40.22 22.85 51.65 43.42v-1.83c.46-5.48 2.29-11.43 4.11-17.83 2.29.46 4.57.91 6.86.91 5.94 0 10.97-2.29 14.17-6.86 3.2-5.03 4.57-10.51 3.2-15.54Z"/>
    <path class="cls-23" d="M177.34 54.85c14.63 4.11 20.57-7.31 18.28-15.08s-8.68-15.54-20.57-24.22c-11.88-8.68-23.77-12.34-31.54-10.51s-10.06 13.25-7.77 17.83c.91 1.83 2.74 4.57 5.03 7.31-3.2 2.29-5.94 3.66-8.23 5.03 14.63 6.86 27.42 16.91 37.02 30.17.91-4.57 2.74-8.23 4.11-11.88 1.37.91 2.74.91 3.66 1.37Z"/>
    <path class="cls-19" d="M94.61 213.91c49.36 0 89.13-40.68 89.13-90.5s-40.22-90.96-89.13-90.96S5.48 73.13 5.48 123.41s39.76 90.5 89.13 90.5Z"/>
    <path class="cls-10" d="M188.77 32.45c-12.34-12.8-22.4-16.45-34.74-19.2-9.6-2.29-6.86-7.77 4.57-6.86-5.48-1.83-10.97-2.29-14.63-1.83-7.77 1.83-10.06 13.25-7.77 17.83.91 1.83 2.74 4.57 5.03 7.31-4.11 2.74-7.77 5.03-10.97 6.86 1.37.46 3.2 1.37 5.48 2.74 5.48 2.74 11.43 7.77 11.43 7.77-9.14-7.77-6.86-11.43 5.48-20.11 3.66-2.74 10.97-2.29 17.37.91s14.17 11.88 14.17 11.88l-8.23 15.08c.46 0 .91.46 1.37.46 4.57 1.37 8.23.91 10.97 0 3.66-2.29 12.34-9.6.46-22.85Z"/>
    <path class="cls-18" d="M154.03 21.48c3.2 1.37 7.31 3.66 12.34 6.86 5.94 4.11 11.43 8.68 14.63 12.34-5.48 7.31-9.14 17.83-11.43 24.68.91 1.83 2.29 3.2 3.66 5.03.91-4.11 3.2-10.06 5.48-16H181c1.83 0 4.11-.46 5.94-1.83 1.37-.91 2.74-2.74 2.74-5.94s-2.29-6.86-7.31-11.88c-3.66-3.2-8.68-7.31-13.25-10.51-13.71-9.14-23.31-11.88-27.42-7.31-2.74 2.74-2.74 6.4-1.37 9.14-5.03 3.2-9.6 5.94-12.34 7.31 1.83.46 3.66 1.37 5.48 2.29 4.57-2.74 11.88-7.77 20.57-14.17Zm30.17 22.85c.46.91.46 1.83.46 2.29 0 1.37-.46 1.83-.91 2.29-.46.46-1.83.91-3.2.91 1.37-2.29 2.29-3.66 3.66-5.48Zm-39.31-24.22c.46-.46 1.83-.91 3.66-.46-1.37 1.37-3.2 2.29-4.57 3.66-.46-.91-.46-2.29.91-3.2Z"/>
    <path class="cls-18" d="M94.61 27.42C42.05 27.42 0 70.39 0 123.41s42.05 95.98 94.61 95.98 94.61-42.96 94.61-95.98-42.96-95.99-94.61-95.99Zm0 186.48c-49.36 0-89.13-40.22-89.13-90.5s39.77-90.95 89.13-90.95 89.13 40.68 89.13 90.96-40.22 90.5-89.13 90.5Z"/>
    <path class="cls-7" d="M94.61 213.91c49.36 0 89.13-40.68 89.13-90.5s-40.22-90.96-89.13-90.96S5.48 73.13 5.48 123.41s39.76 90.5 89.13 90.5Z"/>
    <path class="cls-10" d="M93.7 202.94c-48.45-7.77-81.36-54.39-73.59-103.75 3.66-21.94 14.17-40.68 29.71-53.93-22.4 13.24-38.85 36.1-43.42 63.98-7.77 49.36 25.14 95.98 73.59 104.21 26.97 4.57 53.48-4.11 72.67-21.03-16.91 9.6-37.94 14.17-58.96 10.51Z"/>
    <path class="cls-6" d="M108.78 33.82c-22.4-3.66-44.34 1.37-62.16 12.8l-.46.46c6.86-4.11 16.91-7.77 16.91-7.77-26.05 15.08-33.82 32.45-33.82 32.45 9.6-19.2 39.31-33.37 62.16-34.28 23.31-.91 38.39 5.94 56.68 21.03 18.28 15.08 29.71 46.62 28.34 71.3-.91 24.68-13.71 44.79-13.71 44.79 8.68-11.43 14.17-20.11 17.37-28.34.46-2.74 1.37-5.03 1.37-7.77 8.68-50.28-24.22-96.44-72.67-104.67Z"/>
    <path class="cls-20" d="M179.17 122.49c0 47.54-37.94 86.39-84.56 86.39S9.6 170.03 9.6 122.49h169.57Z"/>
    <g class="cls-16">
      <path class="cls-2" d="M172.31 122.49c0 46.62-36.11 84.56-81.36 86.39h3.2c46.62 0 84.56-38.39 84.56-86.39h-6.4Z"/>
    </g>
    <g class="cls-15">
      <path class="cls-1" d="M21.48 122.49H9.6c0 47.54 37.94 86.39 84.56 86.39h5.94c-43.88-3.66-78.62-41.14-78.62-86.39Z"/>
    </g>
    <path class="cls-21" d="M179.17 123.41c0-10.06-16.91-15.54-39.31-17.37-16.45-1.37-32.91.46-51.65 5.94-16.45 5.03-31.08 4.11-41.59 2.74-23.77-2.74-37.02-3.2-37.02 8.68 0 16.91 33.82 37.94 84.56 30.62 25.6-3.66 38.85-11.43 53.93-16.45 16.45-5.48 31.08-5.48 31.08-14.17Z"/>
    <path class="cls-17" d="M122.04 82.27c7.77 0 14.17-6.4 14.17-14.63s-6.4-14.63-14.17-14.63-14.17 6.4-14.17 14.63 6.4 14.63 14.17 14.63ZM145.8 93.24c3.2 0 5.94-2.74 5.94-5.94s-2.74-5.94-5.94-5.94-5.94 2.74-5.94 5.94 2.29 5.94 5.94 5.94Z"/>
    <g class="cls-16">
      <path class="cls-4" d="M167.29 56.22s-.46 0 0 0c-1.37 0-1.83-.91-1.83-2.29 1.37-7.31 7.31-14.63 7.77-15.08.46-.91 1.83-.91 2.74 0 .91.46.91 1.83 0 2.74 0 0-5.94 6.86-6.86 13.25 0 .91-.91 1.37-1.83 1.37Z"/>
    </g>
    <path class="cls-8" d="M88.67 191.05c2.29 0 4.57-1.83 4.57-4.57s-1.83-4.57-4.57-4.57-4.57 1.83-4.57 4.57 1.83 4.57 4.57 4.57Z"/>
    <g class="cls-22">
      <path class="cls-5" d="M85.93 189.23c-1.83-1.83-1.83-4.57 0-6.4l.91-.91c-.46 0-.91.46-1.37.91-1.83 1.83-1.83 4.57 0 6.4 1.37 1.37 3.66 1.83 5.48.91-1.83.91-3.66.46-5.03-.91Z"/>
    </g>
    <path class="cls-9" d="M90.04 185.11c.46 0 .91-.46.91-.91s-.46-.91-.91-.91-.91.46-.91.91.46.91.91.91Z"/>
    <path class="cls-8" d="M111.98 188.77c2.29 0 4.57-1.83 4.57-4.57 0-2.29-1.83-4.57-4.57-4.57-2.29 0-4.57 1.83-4.57 4.57 0 2.29 1.83 4.57 4.57 4.57Z"/>
    <g class="cls-22">
      <path class="cls-3" d="M109.24 186.94c-1.83-1.83-1.83-4.57 0-6.4l.91-.91c-.46 0-.91.46-1.37.91-1.83 1.83-1.83 4.57 0 6.4 1.37 1.37 3.66 1.83 5.48.91-1.83.91-3.66.46-5.03-.91Z"/>
    </g>
    <path class="cls-9" d="M113.35 182.83c.46 0 .91-.46.91-.91s-.46-.91-.91-.91-.91.46-.91.91c0 .46.46.91.91.91Z"/>
    <path class="cls-8" d="M100.56 199.28c1.83 0 3.2-1.37 3.2-3.2s-1.37-3.2-3.2-3.2-3.2 1.37-3.2 3.2.91 3.2 3.2 3.2Z"/>
    <g class="cls-22">
      <path class="cls-11" d="M98.27 197.91c-1.37-1.37-1.37-3.66 0-5.03l.46-.46c-.46 0-.91.46-.91.91-1.37 1.37-1.37 3.66 0 5.03.91.91 2.74 1.37 4.11.46-.91.46-2.74 0-3.66-.91Z"/>
    </g>
    <path class="cls-9" d="M101.47 194.71c.46 0 .46-.46.46-.46 0-.46-.46-.46-.46-.46-.46 0-.46.46-.46.46s0 .46.46.46Z"/>
    <path class="cls-8" d="M121.12 197c1.83 0 3.2-1.37 3.2-3.2s-1.37-3.2-3.2-3.2-3.2 1.37-3.2 3.2c-.46 1.37 1.37 3.2 3.2 3.2Z"/>
    <g class="cls-22">
      <path class="cls-12" d="M118.84 195.63c-1.37-1.37-1.37-3.66 0-5.03l.46-.46c-.46 0-.91.46-.91.91-1.37 1.37-1.37 3.66 0 5.03.91.91 2.74 1.37 4.11.46-.91.46-2.74 0-3.66-.91Z"/>
    </g>
    <path class="cls-9" d="M122.04 192.43c.46 0 .46-.46.46-.46 0-.46-.46-.46-.46-.46-.46 0-.46.46-.46.46s0 .46.46.46Z"/>
    <path class="cls-8" d="M69.47 189.23c4.11 0 7.31-3.2 7.31-7.31s-3.2-7.31-7.31-7.31-7.31 3.2-7.31 7.31c0 4.11 3.2 7.31 7.31 7.31Z"/>
    <g class="cls-22">
      <path class="cls-14" d="M65.36 186.48c-2.74-2.74-2.74-7.77 0-10.51.46-.46.91-.91 1.37-.91-.91.46-1.83.91-2.74 1.83-2.74 2.74-2.74 7.77 0 10.51 2.29 2.29 5.94 2.74 9.14.91-2.29.91-5.48.46-7.77-1.83Z"/>
    </g>
    <path class="cls-9" d="M72.22 179.63c.91 0 1.37-.91 1.37-1.83s-.91-1.83-1.37-1.83c-.91 0-1.37.91-1.37 1.83s.46 1.83 1.37 1.83Z"/>
    <path class="cls-8" d="M135.29 170.94c4.11 0 7.31-3.2 7.31-7.31s-3.2-7.31-7.31-7.31-7.31 3.2-7.31 7.31 3.2 7.31 7.31 7.31Z"/>
    <g class="cls-22">
      <path class="cls-13" d="M130.72 168.2c-2.74-2.74-2.74-7.77 0-10.51.46-.46.91-.91 1.37-.91-.91.46-1.83.91-2.74 1.83-2.74 2.74-2.74 7.77 0 10.51 2.29 2.29 5.94 2.74 9.14.91-2.29.91-5.48.46-7.77-1.83Z"/>
    </g>
    <path class="cls-9" d="M137.58 161.35c.91 0 1.37-.91 1.37-1.83s-.91-1.83-1.37-1.83c-.91 0-1.37.91-1.37 1.83 0 .91.46 1.83 1.37 1.83Z"/>
  </g>
</svg>
