<?xml version="1.0" encoding="utf-8"?>
<!-- Generator: Adobe Illustrator 26.5.0, SVG Export Plug-In . SVG Version: 6.00 Build 0)  -->
<svg version="1.2" baseProfile="tiny" id="Layer_1" xmlns="http://www.w3.org/2000/svg" xmlns:xlink="http://www.w3.org/1999/xlink"
	 x="0px" y="0px" viewBox="0 0 232.4 225.3" overflow="visible" xml:space="preserve">
<g id="zSNHpr.tif">
	<g>
		<g>
			<path fill="#92D7F7" d="M221.2,92c1.6,8.4,2.5,16.9,2.1,25.5c-0.6,13.6-3.5,26.7-9.1,39.2c-5.1,11.3-11.9,21.4-20.5,30.4
				c-7.5,7.8-16,14.3-25.4,19.6c-10.6,5.9-21.9,9.8-33.8,11.7c-8.2,1.4-16.5,1.7-24.9,1.1c-9.6-0.8-18.9-2.6-28-5.8
				c-12.3-4.4-23.3-10.8-33.2-19.3c-10.7-9.1-19.3-19.9-25.7-32.3c-5.2-10.2-8.7-21-10.4-32.3c-1-6.8-1.4-13.7-1.2-20.6
				c0.6,0.5,1.3,1.1,1.8,1.6c10.7,10.7,21.4,21.4,32.1,32.1c0.5,0.5,1.1,1,1.7,1.5c1.3,1.9,0.6,4.2,1.3,6.2c-3.2,2-6.5,3.9-9.7,5.9
				c-5.5,3.4-7.6,10.1-4.6,15.7c2,3.9,4.5,7.5,6.8,11.3c0.7,1.2,1.4,2.5,2.2,3.7c3.6,5.7,10.4,7.4,16.3,4.2c3.6-2,7.1-4.2,10.7-6.4
				c2.6,2.1,4.8,4.7,7.3,7.1c2,1.9,3.8,4,6.2,5.4c5.9,3.6,14.4,1.1,17.1-5c1.8-3.1,2.1-6.4,0.9-9.9c-0.2-0.7-0.7-1.4-0.5-2.2
				c2.3,1.8,4.2,4.1,6.4,6.2c6.2,5.8,15.8,4.4,19.7-2.8c2.4-3.9,2-8,0.4-12c1.3,0.1,1.8,1.2,2.5,1.9c5.9,5.5,16.4,3.5,19.4-3.6
				c2.5-4.6,2-9-1-13.2c-1.1-1.5-2.4-2.8-3.6-4.2c0.9-0.2,1.6,0.3,2.4,0.6c5.7,1.6,11.9-1,14.6-6.3c2.1-4.5,1.9-8.9-0.9-13.1
				c-0.5-0.7-1.4-1.2-1.6-2.1c18.4-11,36.8-22,55.2-32.9C217.1,96.9,219.6,94.9,221.2,92z"/>
			<path fill="#92D8F7" d="M182.3,29.9c11.2,8.7,20.3,19.3,27.3,31.6c0.5,0.9,1.5,1.7,0.9,3c-6.3-4.7-10.2-4.9-17-0.8
				C176.3,74,159,84.3,141.7,94.6c-3.4-3.3-6.8-6.6-10.2-10c-8.3-8.2-21.2-9.6-30.9-3.1c-1.7,1.1-2.5,0.8-3.7-0.5
				C83.2,67.3,69.6,53.7,55.9,40c-2.4-2.4-4.7-4.8-7.1-7.2c3.6-3.7,7.9-6.4,12.2-9.1C69.7,18.2,79.1,14,89,11.3
				c6.6-1.8,13.2-2.9,20.1-3.5c4-0.3,8-0.4,12-0.3C134.6,8,147.6,11,160,16.5c5.3,2.3,10.4,5,15.2,8.3c-5.4,0-7.3,1.5-8,6.9
				c-0.4,3.1-0.7,6.3-0.9,9.5c-0.2,3.1,2,5.8,5.2,6.5c3.6,0.8,6.9-0.4,7.8-3.6C180.9,39.5,182.3,34.8,182.3,29.9z M134.6,35.3
				c0,0.5,0,0.8,0.1,1c1.5,4.3,3.3,8.6,5.8,12.5c1.7,2.7,5.1,3.1,8.4,1.5c2.9-1.4,4.4-4.2,3.6-7.3c-0.8-3.3-1.9-6.5-2.9-9.7
				c-1-3.3-3.2-5.2-6.2-5.1c-2.8,0.1-7.5,1.8-8.4,5.3C134.9,34.2,134.7,34.8,134.6,35.3z M130.1,60c-0.1-1.5-0.5-3-1.7-4.1
				c-2.8-2.7-5.6-5.3-8.4-7.9c-0.6-0.6-1.4-0.9-2.2-1.1c-3.1-0.9-5.8,0.4-8.4,4.2c-2.1,3.1-1.6,6.7,1.4,9c2.8,2.1,5.6,4,8.4,6
				c2.2,1.5,4.5,1.7,6.8,0.4C128.5,65,129.8,62.8,130.1,60z"/>
			<path fill="#FDDCCE" d="M48.8,32.8c2.4,2.4,4.7,4.8,7.1,7.2c13.7,13.7,27.3,27.3,40.9,41c1.3,1.3,2.1,1.6,3.7,0.5
				c9.7-6.5,22.6-5.1,30.9,3.1c3.4,3.3,6.8,6.7,10.2,10c3.4,3.8,7,7.2,10.7,10.7c1.5,1.6,3.1,3.1,4.6,4.7c4.1,4.3,4.9,10.3,2.1,15.6
				c-0.3,0-0.6,0-0.8,0.1c-6.1,2-11.2,0.4-15.5-4.1c-3.9-4.1-8-8-12-12c-2.5-2.5-5.1-2.5-7.6,0c-1,1-1.9,2-3.1,2.7
				c-3.9,1.9-8,2.9-12.3,2.7c-6.2,0-11.5-2.1-16.3-6c-3.1-2.5-5.7-5.4-8.5-8.2c-1.1-1-1.6-1-2.6,0c-1.5,1.6-3,3.2-4.7,4.7
				c-1,0.9-0.8,1.6,0.2,2.3c2.4,1.9,4.9,3.7,7.2,5.8c3.5,3.3,6,7.2,6.3,12.1c-3,1.9-6.1,3.8-9.1,5.6c-10.8,6.4-21.5,12.8-32.3,19.2
				c-0.7-2,0-4.3-1.3-6.2c0.6-0.7,0.8-1.6,0.8-2.5c0.2-5.3,2.5-9.8,5.8-13.8c1.2-1.4,1-2-0.1-3.1C41,112.6,28.7,100.3,16.4,88
				c-0.5-0.5-1-0.9-1.6-1.4c1-5.1,2.7-9.9,5-14.5c0.6,0.5,1.3,1,1.9,1.6c9.3,9.3,18.5,18.5,27.8,27.8c0.4,0.4,0.8,0.9,1.3,1.3
				c1.7,1.2,3.4,1.7,5.4,0.7c1.9-0.9,2.7-2.3,2.7-4.5c0-2-1-3.2-2.2-4.4C46.4,84.4,36.1,74.2,25.9,63.9c-0.5-0.5-1-0.9-1.5-1.4
				c2.1-4.6,5.1-8.6,8-12.7c3.8-5.2,8.3-9.7,12.9-14.2C46.4,34.6,47.5,33.6,48.8,32.8z"/>
			<path fill="#DE646E" d="M159.1,125.6c2.7-5.3,1.9-11.2-2.1-15.6c-1.5-1.6-3-3.1-4.6-4.7c0.5-0.2,1.1-0.3,1.5-0.6
				c16-9.6,32-19.1,48-28.7c3.6-2.1,7.2-2.8,11.3-1.8c1.8,0.4,3,2,4.7,2.5c2.1,3.3,4.3,6.5,4.2,10.7c-0.1,1.6-0.6,3.1-0.9,4.6
				c-1.6,3-4.1,4.9-6.9,6.6c-18.4,10.9-36.8,22-55.2,32.9c-1-0.3-1.5-1.3-2.3-1.8C157,128,158.9,127.3,159.1,125.6z"/>
			<path fill="#DC4A55" d="M217.9,76.7c-1.8-0.4-2.9-2-4.7-2.5c-4-1-7.7-0.4-11.3,1.8c-16,9.6-32,19.2-48,28.7
				c-0.5,0.3-1,0.4-1.5,0.6c-3.6-3.5-7.3-7-10.7-10.7C159,84.3,176.3,74,193.5,63.7c6.8-4.1,10.7-3.9,17,0.8c0.1,0,0.2,0,0.2-0.1
				c-0.3,0.6,0.2,0.7,0.5,1C213.5,69.1,215.7,72.9,217.9,76.7z"/>
			<path fill="#FBCBC0" d="M14.8,86.6c0.5,0.4,1.1,0.9,1.6,1.4c12.3,12.3,24.6,24.6,36.9,36.9c1.2,1.2,1.3,1.7,0.1,3.1
				c-3.4,4-5.6,8.5-5.8,13.8c0,0.9-0.2,1.8-0.8,2.5c-0.6-0.5-1.2-1-1.7-1.5C34.4,132,23.7,121.3,13,110.6c-0.6-0.6-1.2-1.1-1.8-1.6
				C11.7,101.4,12.2,93.8,14.8,86.6z"/>
			<path fill="#FBCBBF" d="M24.4,62.6c0.5,0.4,1.1,0.9,1.5,1.4c10.2,10.2,20.5,20.5,30.7,30.7c1.2,1.2,2.2,2.5,2.2,4.4
				c0,2.1-0.8,3.5-2.7,4.5c-2,1-3.7,0.5-5.4-0.7c-0.5-0.4-0.9-0.9-1.3-1.3C40.2,92.3,30.9,83,21.6,73.8c-0.6-0.6-1.2-1.1-1.9-1.6
				C20.8,68.7,22.3,65.5,24.4,62.6z"/>
			<path fill="#F4DE59" d="M182.3,29.9c0,5-1.5,9.6-2.9,14.3c-1,3.1-4.2,4.4-7.8,3.6c-3.2-0.7-5.4-3.4-5.2-6.5
				c0.2-3.2,0.5-6.3,0.9-9.5c0.7-5.4,2.6-7,8-6.9C178.5,25.2,181.1,26.5,182.3,29.9z"/>
			<path fill="#92D8F7" d="M211.3,65.3c-0.3-0.3-0.8-0.4-0.5-1C211.3,64.4,211.3,64.9,211.3,65.3z"/>
			<path fill="#DC4A55" d="M107.8,114.9c4.4,0.2,8.4-0.8,12.3-2.7c0.8,0.5,2.2,0.8,1.2,2.2c-2.5,3.4-3,7.2-2.1,11.2
				c-6,3.5-12,7-18,10.5c-18.2,10.9-36.4,21.7-54.5,32.6c-3.4,2-5.7,4.9-6.5,8.9c-0.4,2,0.3,3.8,0.3,5.7c-2.3-3.8-4.7-7.4-6.8-11.3
				c-2.9-5.6-0.8-12.2,4.6-15.7c3.2-2,6.5-3.9,9.7-5.9c10.8-6.4,21.5-12.8,32.3-19.2c3.1-1.8,6.1-3.7,9.1-5.6
				C95.6,122.1,101.7,118.5,107.8,114.9z"/>
			<path fill="#DE646F" d="M40.5,183.3c0-1.9-0.6-3.8-0.3-5.7c0.8-4,3.1-6.8,6.5-8.9c18.2-10.9,36.3-21.8,54.5-32.6
				c6-3.6,12-7,18-10.5c1,2.6,2.5,4.7,4.5,6.6c0.6,0.6,1.4,1.1,1.6,2.1c-4.1-2.2-8.1-2.2-12.2,0c-4.7,2.4-7.4,8-6.3,13.2
				c0.3,1.3,1,2.4,0.9,3.7c-0.7-0.6-1.3-1.2-2-1.8c-4.1-3.9-9.5-4.6-14.6-2c-1.1,0.3-1.9,1-2.7,1.8c-4.5,4.5-5,9.6-2.6,15.3
				c-1.3-0.2-1.9-1.5-2.8-2.3c-4-3.7-9.9-4.3-14.7-1.5c-6.5,3.2-8.5,12.4-3.9,18.3c1.6,2,3.5,3.9,5.2,5.8c-3.5,2.1-7,4.4-10.7,6.4
				c-5.9,3.3-12.7,1.5-16.3-4.2C41.9,185.8,41.2,184.6,40.5,183.3z"/>
			<path fill="#FDDCCE" d="M91.1,147.5c5.1-2.6,10.5-1.9,14.6,2c0.6,0.6,1.3,1.2,2,1.8c0,0,0,0,0,0c0.1,0.2,0.3,0.4,0.4,0.6
				c0.2,0.9,0.9,1.3,1.5,1.9c5.7,5.6,11.7,11,17.1,16.9c0,0.4,0,0.7,0.4,0.9l0,0c1.6,4.1,2,8.1-0.4,12c-0.4-0.4-0.8-0.1-1.1,0
				c-5.2,1.6-9.6,0.3-13.3-3.5c-6.1-6.2-12.3-12.3-18.4-18.5c-0.5-0.5-1.1-1.1-1.5-1.7C89.7,156,89.8,151.8,91.1,147.5z"/>
			<path fill="#FDDCCE" d="M113.1,134.3c4.1-2.3,8.1-2.2,12.2,0c1.8,1.2,3.3,2.9,4.8,4.4c4.5,4.6,9.2,9,14,13.2
				c0,0.3,0.1,0.5,0.4,0.6l0,0c1.2,1.4,2.5,2.7,3.6,4.2c2.9,4.2,3.4,8.6,1,13.2c-6,2-11,0.8-15.5-4c-5.8-6.3-12-12.1-18.1-18.2
				c-1.6-1.6-2.3-3.5-3-5.6C111.7,139.5,112.8,136.9,113.1,134.3z"/>
			<path fill="#FBCBBF" d="M144.1,151.9c-4.8-4.2-9.5-8.7-14-13.2c-1.5-1.5-3-3.2-4.8-4.4c-0.2-1-1-1.5-1.6-2.1
				c-2-1.9-3.5-4.1-4.5-6.6c-0.8-4-0.3-7.8,2.1-11.2c1-1.4-0.4-1.7-1.2-2.2c1.2-0.7,2.1-1.8,3.1-2.7c2.5-2.5,5.1-2.4,7.6,0
				c4,4,8.1,7.9,12,12c4.4,4.6,9.5,6.1,15.5,4.1c0.3-0.1,0.5,0,0.8-0.1c-0.2,1.7-2.1,2.4-2.4,4.1c-0.8,0.1-1.5,0.6-2.2,1
				c-5.1,3.1-10.1,3-15.1-0.1c-2-1.2-3.4-3-5-4.6c-3.1-3.1-6.2-6.2-9.4-9.4c-0.5,0.9-0.3,1.6-0.2,2.2c0.7,2.7,2,5.1,4,7.1
				c5.6,5.6,11.3,11.1,16.8,16.8c4.5,4.7,9.7,6.2,15.8,4c-2.7,5.3-8.8,8-14.6,6.3c-0.8-0.2-1.5-0.7-2.4-0.6c0,0,0,0,0,0
				C144.4,152.3,144.3,152.1,144.1,151.9z"/>
			<path fill="#FDDCCE" d="M68.3,160.8c4.8-2.8,10.6-2.1,14.7,1.5c0.9,0.8,1.4,2,2.8,2.3c0,0,0,0,0,0c0,0.4,0.1,0.6,0.4,0.8
				c2.8,3.1,5.7,6.1,8.9,8.9c1.9,1.7,3.9,3.3,5.2,5.5c0,0.3,0.1,0.5,0.4,0.6l0,0c-0.1,0.8,0.3,1.5,0.5,2.2c1.2,3.4,0.9,6.7-0.9,9.9
				c-0.3,0-0.6,0-0.8,0.1c-5.8,1.9-10.5,0.2-14.6-4c-4.3-4.5-8.8-8.8-13.1-13.2c-2.4-2.5-3.9-5.4-3.8-9
				C67.9,164.3,68.2,162.5,68.3,160.8z"/>
			<path fill="#FBCBBF" d="M113.1,134.3c-0.2,2.6-1.4,5.1-0.5,7.9c0.7,2.1,1.4,4,3,5.6c6,6,12.3,11.9,18.1,18.2
				c4.5,4.8,9.5,6,15.5,4c-3,7.1-13.5,9.1-19.4,3.6c-0.8-0.7-1.3-1.9-2.5-1.9c0,0,0,0,0,0c0.1-0.4-0.1-0.7-0.4-0.9
				c-5.4-5.9-11.4-11.3-17.1-16.9c-0.6-0.6-1.3-1-1.5-1.9c-0.1-0.3-0.1-0.6-0.4-0.6c0,0,0,0,0,0c0.1-1.3-0.7-2.5-0.9-3.7
				C105.7,142.4,108.3,136.7,113.1,134.3z"/>
			<path fill="#FBCBBF" d="M100.2,179.7c-1.3-2.2-3.3-3.8-5.2-5.5c-3.1-2.8-6.1-5.7-8.9-8.9c-0.1-0.3-0.3-0.5-0.4-0.8c0,0,0,0,0,0
				c-2.3-5.6-1.8-10.8,2.6-15.3c0.8-0.8,1.6-1.5,2.7-1.8c-1.3,4.3-1.4,8.5,1.3,12.4c0.4,0.6,1,1.2,1.5,1.7
				c6.1,6.2,12.3,12.3,18.4,18.5c3.8,3.8,8.2,5.1,13.3,3.5c0.4-0.1,0.8-0.4,1.1,0c-4,7.2-13.6,8.6-19.7,2.8c-2.2-2-4-4.3-6.4-6.2
				c0,0,0,0,0,0C100.5,180.1,100.4,179.9,100.2,179.7z"/>
			<path fill="#FACBBF" d="M68.3,160.8c-0.1,1.8-0.4,3.5-0.4,5.3c-0.1,3.7,1.4,6.6,3.8,9c4.3,4.4,8.8,8.8,13.1,13.2
				c4.1,4.2,8.8,5.9,14.6,4c0.3-0.1,0.5,0,0.8-0.1c-2.8,6.1-11.2,8.6-17.1,5c-2.4-1.4-4.2-3.5-6.2-5.4c-2.4-2.3-4.6-4.9-7.3-7.1
				c-1.7-1.9-3.6-3.7-5.2-5.8C59.8,173.1,61.8,163.9,68.3,160.8z"/>
			<path fill="#FDDCCE" d="M161.5,146.7c-6.2,2.2-11.3,0.7-15.8-4c-5.5-5.7-11.2-11.3-16.8-16.8c-2-2-3.4-4.3-4-7.1
				c-0.2-0.7-0.3-1.3,0.2-2.2c3.2,3.2,6.3,6.3,9.4,9.4c1.6,1.6,3,3.4,5,4.6c5,3.2,10.1,3.2,15.1,0.1c0.7-0.4,1.4-0.9,2.2-1
				c0.8,0.5,1.3,1.5,2.3,1.8c0.2,1,1.1,1.4,1.6,2.1C163.4,137.8,163.6,142.2,161.5,146.7z"/>
			<path fill="#F4DE59" d="M134.6,35.3c0.1-0.5,0.2-1.1,0.4-1.8c0.9-3.5,5.7-5.2,8.4-5.3c3-0.1,5.1,1.8,6.2,5.1c1,3.2,2,6.4,2.9,9.7
				c0.8,3.1-0.7,6-3.6,7.3c-3.3,1.5-6.6,1.1-8.4-1.5c-2.5-3.9-4.3-8.2-5.8-12.5C134.6,36.1,134.7,35.8,134.6,35.3z"/>
			<path fill="#F4DE59" d="M130.1,60c-0.3,2.8-1.6,5-4,6.4c-2.3,1.3-4.7,1.1-6.8-0.4c-2.8-1.9-5.7-3.9-8.4-6c-3-2.2-3.5-5.9-1.4-9
				c2.6-3.8,5.3-5.1,8.4-4.2c0.8,0.2,1.6,0.6,2.2,1.1c2.8,2.6,5.7,5.2,8.4,7.9C129.5,56.9,129.9,58.4,130.1,60z"/>
			<path fill="#FBCBBF" d="M107.8,114.9c-6.1,3.6-12.2,7.2-18.3,10.8c-0.4-4.9-2.8-8.8-6.3-12.1c-2.3-2.1-4.8-3.9-7.2-5.8
				c-0.9-0.7-1.2-1.4-0.2-2.3c1.6-1.5,3.2-3,4.7-4.7c1-1.1,1.5-1.1,2.6,0c2.8,2.8,5.4,5.7,8.5,8.2
				C96.3,112.8,101.6,114.9,107.8,114.9z"/>
			<path fill="#92D7F7" d="M126.7,170.7c0.3,0.2,0.5,0.5,0.4,0.9C126.8,171.4,126.8,171,126.7,170.7z"/>
			<path fill="#DE646F" d="M107.7,151.3c0.3,0.1,0.4,0.4,0.4,0.6C108,151.7,107.8,151.5,107.7,151.3z"/>
			<path fill="#92D7F7" d="M144.1,151.9c0.1,0.2,0.3,0.4,0.4,0.6C144.3,152.4,144.2,152.2,144.1,151.9z"/>
			<path fill="#DE646F" d="M85.7,164.5c0.1,0.3,0.3,0.5,0.4,0.8C85.8,165.2,85.7,164.9,85.7,164.5z"/>
			<path fill="#92D7F7" d="M100.2,179.7c0.1,0.2,0.3,0.4,0.4,0.6C100.3,180.2,100.3,180,100.2,179.7z"/>
		</g>
	</g>
</g>
</svg>
