<?xml version="1.0" encoding="utf-8"?>
<!-- Generator: Adobe Illustrator 26.5.0, SVG Export Plug-In . SVG Version: 6.00 Build 0)  -->
<svg version="1.1" id="Layer_1" xmlns="http://www.w3.org/2000/svg" xmlns:xlink="http://www.w3.org/1999/xlink" x="0px" y="0px"
	 viewBox="0 0 232.4 225.3" style="enable-background:new 0 0 232.4 225.3;" xml:space="preserve">
<style type="text/css">
	.st0{fill:#AEDD01;}
	.st1{fill:#88CA2F;}
	.st2{fill:#65C600;}
	.st3{fill:#058E79;}
	.st4{fill:#40E4F9;}
	.st5{fill:#FEC200;}
	.st6{fill:#FECD00;}
	.st7{fill:#FDBA01;}
	.st8{fill:#FED502;}
	.st9{fill:#FEA200;}
	.st10{fill:#1AB5E4;}
	.st11{fill:#00A6D0;}
	.st12{fill:#34A56A;}
	.st13{fill:#01BEEB;}
	.st14{fill:#FDFEFD;}
	.st15{fill:#FE486D;}
</style>
<g id="RGCY7W.tif">
	<g>
		<g>
			<path class="st0" d="M51.9,33.4c0-4.3-0.2-8.5,0-12.8c0.2-4.7,3.9-8.9,8.6-10.2c0.4-0.1,0.8,0,1-0.4c17,0,33.9,0,50.9,0
				c0.5,0.3,1,0.6,1.6,0.8c4.2,1.4,8,6.4,7.7,11.5c-0.2,3.7-0.1,7.3-0.1,11c-3,0-6,0-9,0.1c-10.3,0-20.6,0-30.9,0.1
				c-0.8,0-1.6-0.1-2.4-0.1C70.1,33.3,61,33.3,51.9,33.4z"/>
			<path class="st1" d="M158.8,37.8c13.3,0,26.5,0.1,39.8,0c5.3,0,9.7,1.7,13.3,5.6c2.3,2.5,3.6,5.4,4.2,8.7c0.1,0.4-0.1,0.8,0.4,1
				c0,11.9,0,23.8,0,35.6c-0.1,0-0.3,0.1-0.4,0.1c0-3,0-6,0-9c0-2.1-0.2-2.3-2.3-1.6c-1.5,0.5-3.1,0.8-4.5,1.4
				c-1.1,0.4-1.9,0.1-2.6-0.7c-2.7-2.8-5.5-5.5-8.3-8.3c-0.5-0.5-0.9-1.2-1.8-1.2c0,0,0,0,0,0c-0.1-0.2-0.2-0.3-0.3-0.5
				c-3-4.1-6.8-7-12-7.6c-0.1-0.1-0.1-0.2-0.1-0.3c4-1.6,5.2-8.8,1.9-11.6c-0.3-0.2-0.7-0.3-1.1-0.5c-2-1-4-0.4-6-0.4
				c-2.2,0-3.8,1.6-3.9,3.9c-0.1,1.5-0.1,3.1,0,4.6c0.1,1.2,0.5,2.3,1.6,3c0.4,0.3,0.8,0.6,1.2,0.9c-0.3,0-0.6,0.1-0.8,0.1
				c-0.5,0-1,0-1.6,0c-1.5,0-3,0-4.5,0c-0.5,0-1,0-1.6,0c-0.2-0.1-0.3-0.1-0.5-0.2c2.4-1.9,3.6-7.7,2-10.4c-0.4-0.7-1-1.4-1.9-1.6
				c-2-0.9-4-0.4-6-0.4c-2.5,0-3.9,1.5-4,3.9c-0.1,1.8-0.1,3.6-0.1,5.4c-5.6-5.6-11.2-11.1-16.8-16.7c-0.6-0.5-1-1.3-1.9-1.4l0,0
				c0-0.4-0.2-0.6-0.5-0.8c-0.3-0.4-0.5-0.8-0.8-1.2c0.7,0,1.4-0.1,2.1-0.1C146.9,37.9,152.9,37.9,158.8,37.8z M201.7,49.6
				c-0.9-1-2.1-0.8-3.2-0.8c-6.8-0.4-8,1.2-7.7,7.8c0.1,1.9,0.6,3.4,2.4,4.3c0.9,0.6,1.9,0.5,2.9,0.5c6.7,0,8.2-1.7,7.5-8.3
				C203.5,51.5,203,50.3,201.7,49.6z"/>
			<path class="st2" d="M140.9,37.9c-0.7,0-1.4,0.1-2.1,0.1c-2.7-3-6-4.7-10.1-4.7c-2.4,0-4.8-0.1-7.1-0.1c0-3.7-0.1-7.3,0.1-11
				c0.3-5.1-3.4-10-7.7-11.5c-0.6-0.2-1.1-0.5-1.6-0.8c12.3,0,24.6,0,36.8,0c1.4,0.8,2.9,1.1,4.2,2c4.3,3,5.7,7.3,5.3,12.4
				c-5.4,0-10.8,0.1-16.2,0.1c-1.2,0-1.9,0.3-2,1.6C140.7,29.9,140.8,33.9,140.9,37.9z"/>
			<path class="st3" d="M216.5,153.3c-0.4,0.1-0.7,0.4-0.8,0.8c-0.3,7.8-9.4,14.5-16.9,14c0-0.1-0.1-0.3-0.1-0.4c0-0.1,0-0.3,0-0.4
				c0-1.2,0-2.4,0-3.6c0.2-4.3,0.2-8.5,0-12.8c0-2,0.1-4,0.1-6c0.9,0.1,1.8-0.1,2.7-0.4c2.6-0.9,5.3-1.9,8-2.6
				c2.2-0.6,4.2-1.7,6.5-1.6c0,3.1,0,6.2,0.1,9.3c0,1-0.4,2.1,0.3,3C216.5,152.8,216.5,153,216.5,153.3z"/>
			<path class="st4" d="M216.5,152.5c-0.7-0.9-0.3-2-0.3-3c-0.1-3.1-0.1-6.2-0.1-9.3c0-0.8,0.1-1.6,0.1-2.4c0-12.1,0-24.2,0-36.3
				c0-4.2-0.1-8.4-0.1-12.6c0.1,0,0.3-0.1,0.4-0.1C216.5,110,216.5,131.3,216.5,152.5z"/>
			<path class="st5" d="M16.7,199.7c-0.3-1.6-0.4-3.2-0.1-4.8c1.7,0.1,3.4-0.7,5.1-0.4c3.8,0.7,6.4-1.2,8.9-3.7
				c22.2-22.2,44.4-44.4,66.6-66.7c8.4-8.5,17.1-16.6,25.1-25.5c0.4-0.4,0.8-0.7,1.4-0.6c-0.4,2.1-0.2,4.3-0.1,6.4
				c0.1,2,1.6,3.5,3.6,3.6c1.6,0.1,3.2,0.1,4.8,0c1.9-0.1,3.5-1.3,3.8-3.2c0.3-2,0.4-4.1,0-6.2c-0.3-1.7-1.6-2.9-3.3-3
				c-2.3-0.2-4.7-0.4-6.9,0.3c0-0.9,0.7-1.4,1.3-1.9c2.7-2,4.8-4.6,7.2-6.8c0.7-0.7,1.4-1.4,1.5-2.5c2.9,0,5.8-0.1,8.7-0.1
				c2.2,0,4.4,0,6.6,0c0.8,0,1.6,0,2.4,0c4.4,0,8.7,0,13.1,0.1c5,1,9,3.5,12,7.7c0.1,0.2,0.2,0.3,0.3,0.5c0,0,0,0,0,0
				c1.5,2.9,2.4,6,2.4,9.3c0,5.3,0,10.5,0,15.8c-1-0.1-1.5,0.7-2.1,1.3c-8.5,8.5-17,17-25.5,25.5c-15.6,15.6-31.1,31.1-46.7,46.7
				c-1.1,1.1-2.2,2.3-4,2.2c-4.7-0.3-9.1,1.5-13.8,1.4c-4.7-0.1-9.4,0.7-14,1c-3.5,0.2-7.1-0.1-10.5,0.6c-4.5,0.9-9,0.6-13.4,1.3
				c-4.5,0.7-9.3,0.6-13.9,0.9C30.3,199.3,23.5,199.5,16.7,199.7z M162,108.1c1.4-0.1,2.8,0.3,4.1-0.5c3.1-1.8,3.3-9.6,0.2-11.2
				c-2.6-1.4-5.7-1.3-8.3-0.2c-3.1,1.3-2.3,4.4-2.3,7c-0.1,2,0.7,3.5,2.4,4.4C159.3,108.4,160.7,108,162,108.1z M152.1,101.8
				c0-0.5,0-0.9,0-1.4c0-3.3-1.5-4.8-4.9-4.8c-1.1,0-2.3,0-3.4,0c-2.4,0.1-4.1,1.8-4.2,4.2c0,1.4-0.1,2.8,0,4.2c0.1,2.4,1.7,4,4.1,4
				c1.5,0.1,2.9,0.1,4.4,0c2.4-0.1,3.9-1.6,4-4C152.1,103.3,152.1,102.6,152.1,101.8z"/>
			<path class="st6" d="M123.8,98.1c-0.6-0.1-1,0.2-1.4,0.6c-8,8.9-16.7,17-25.1,25.5c-22.2,22.3-44.4,44.4-66.6,66.7
				c-2.5,2.5-5.1,4.4-8.9,3.7c-1.7-0.3-3.4,0.5-5.1,0.4c-0.1-0.5-0.2-1.1-0.2-1.6c0-17.2,0-34.5,0-51.7c0-0.5,0.1-1.1,0.2-1.6
				c1.1-0.3,1.8-1.1,2.5-1.9c21.7-21.7,43.4-43.4,65.2-65.1c0.6-0.6,1-1.4,2-1.5c0,0.4,0,0.8,0,1.2c0,2.2,0,4.4,0,6.6
				c0.1,2.8,2.5,5.4,5.4,5.4c4.7,0,9.3,0,14,0c6,0,11.9-0.1,17.9-0.1c4,0.1,8,0.1,12,0.2c-0.1,1.1-0.8,1.8-1.5,2.5
				c-2.4,2.2-4.5,4.9-7.2,6.8c-0.6,0.4-1.3,1-1.3,1.9C125,96.7,124.4,97.4,123.8,98.1z"/>
			<path class="st7" d="M16.7,199.7c6.8-0.3,13.5-0.4,20.3-0.9c4.6-0.3,9.3-0.1,13.9-0.9c4.5-0.7,9-0.4,13.4-1.3
				c3.4-0.7,7-0.4,10.5-0.6c4.7-0.3,9.4-1.1,14-1c4.7,0.1,9.2-1.7,13.8-1.4c1.8,0.1,2.9-1.1,4-2.2c15.6-15.6,31.1-31.1,46.7-46.7
				c8.5-8.5,17-17,25.5-25.5c0.6-0.6,1.1-1.4,2.1-1.3c0.1,5.5,0.1,10.9,0.2,16.4c0,0.7-0.1,1.3-0.1,2c0,16.4,0,32.7,0,49.1
				c0,0.6,0.1,1.2,0.1,1.8c-0.2,1.4-0.2,2.7,0,4.1c-0.1,2.8-0.2,5.6-0.4,8.4c-21.6,0-43.1,0-64.7,0c-0.5,0-0.9,0-1.4,0
				c-6.8,0.7-13.6,0.8-20.5,1.2c-4,0.2-8,0.9-12.1,0.9c-5.2,0.1-10.3,0.8-15.5,1.1c-3.3,0.2-6.6,0.4-10,0.5
				c-6.9,0.2-13.8,0.8-20.7,1.1c-3.9,0.2-7.7,0.4-11.6,0.5c-2,0.1-4.1-0.2-6.1,0.8C17.4,203.9,16.7,201.9,16.7,199.7z"/>
			<path class="st8" d="M86.4,71.6c-1,0.1-1.5,0.9-2,1.5c-21.7,21.7-43.4,43.4-65.2,65.1c-0.8,0.8-1.5,1.5-2.5,1.9
				c-0.1-0.8-0.2-1.6-0.2-2.4c0-22.4,0-44.8,0-67.2c0-8.9,4.8-13.7,13.7-13.7c1.3,0,2.7,0,4-0.1c2,0,4,0.1,6,0.1
				c11.9,0,23.9,0,35.8,0.1c0.3,0.3,0.7,0.3,1.1,0.3c4.3,0.7,8.2,4.6,8.9,8.8c-1.4,1-0.9,1.6,0.4,2C86.4,69.2,86.4,70.4,86.4,71.6z"
				/>
			<path class="st9" d="M18.5,205.8c1.9-0.9,4.1-0.7,6.1-0.8c3.8-0.2,7.7-0.3,11.6-0.5c6.9-0.3,13.8-0.9,20.7-1.1
				c3.3-0.1,6.6-0.3,10-0.5c5.2-0.3,10.3-1,15.5-1.1c4.1,0,8.1-0.7,12.1-0.9c6.8-0.3,13.7-0.5,20.5-1.2c0.5,0,0.9,0,1.4,0
				c21.6,0,43.1,0,64.7,0c-0.3,3.8-1.9,6.8-4.5,9.7c-4.1,4.5-9,5.6-14.7,5.6c-42.6-0.1-85.3,0-127.9,0
				C26.8,215,21.8,211.8,18.5,205.8z"/>
			<path class="st4" d="M76,56.9c-11.9,0-23.9,0-35.8-0.1c-2,0-4,0-6-0.1c0-3.7,0-7.5,0-11.2c0.1-7.1,5-12,12.1-12.1
				c1.9,0,3.7-0.1,5.6-0.1c9.1,0,18.2-0.1,27.4-0.1c0.8,0,1.6,0,2.4,0.1c3.6,0.5,7.1,0.2,10.7,0.2c6.4,0.1,11.6,5.2,11.6,11.6
				c0,3.9,0,7.7,0,11.6c-2.7,0-5.3,0.1-8,0.1C89.3,56.9,82.6,56.9,76,56.9z"/>
			<path class="st10" d="M181.2,187.3c0-0.6-0.1-1.2-0.1-1.8c0-16.4,0-32.7,0-49.1c0-0.7,0.1-1.3,0.1-2c5.8,0.1,11.7,0.3,17.5,0.4
				c0,3.3,0.1,6.7,0.1,10c0,2-0.1,4-0.1,6c-0.5,4.3-0.5,8.5,0,12.8c0,1.2,0,2.4,0,3.6c0,0-0.1,0.1-0.1,0.1c0,0.1,0.1,0.2,0.1,0.3
				c0,0.1,0.1,0.3,0.1,0.4c-0.3,2.9,0.1,5.8-0.4,8.7c-0.7,4.3-2.4,7.9-5.9,10.6c-0.5-0.7-1.3-0.5-2-0.5
				C187.4,186.9,184.3,187.6,181.2,187.3z"/>
			<path class="st11" d="M181.2,187.3c3.1,0.3,6.2-0.4,9.3-0.4c0.7,0,1.5-0.2,2,0.5c-3.2,2.9-7,4.2-11.4,4
				C181.1,190,181,188.7,181.2,187.3z"/>
			<path class="st3" d="M140.9,37.9c-0.1-4-0.2-8-0.3-12c6,0,12.1,0.1,18.1,0.1c0,3.9,0,7.9,0.1,11.8
				C152.9,37.9,146.9,37.9,140.9,37.9z"/>
			<path class="st12" d="M158.8,26c-6,0-12.1-0.1-18.1-0.1c0.1-1.3,0.8-1.6,2-1.6c5.4,0,10.8,0,16.2-0.1
				C158.8,24.9,158.8,25.5,158.8,26z"/>
			<path class="st13" d="M103.9,56.7c0-3.9,0-7.7,0-11.6c0-6.4-5.2-11.6-11.6-11.6c-3.6,0-7.2,0.3-10.7-0.2c10.3,0,20.6,0,30.9-0.1
				c3,0,6,0,9-0.1c2.4,0,4.8,0.1,7.1,0.1c4.1,0,7.4,1.7,10.1,4.7c0.3,0.4,0.5,0.8,0.8,1.2c0,0.3,0.1,0.6,0.5,0.8c0,0,0,0,0,0
				c0.3,1.1,0.5,2.1,0.8,3.2c-0.3,1.2-1.2,0.8-1.9,0.8c-4.6,0-9.2,0.1-13.8,0c-1.5,0-2,0.4-1.9,1.9c0.1,5.1,0,10.2,0,15.4
				c-0.7,0.1-1.4-0.3-2,0.4c-2.4-2.7-5.3-4.6-9.1-4.8C109.4,56.7,106.7,56.8,103.9,56.7z"/>
			<path class="st13" d="M178.4,92.4c-3-4.1-7-6.7-12-7.7c3.3-1.7,4.6-5.7,3.2-9.4c-0.5-1.5-1.3-2.7-2.8-3c-2.3-0.5-4.8-0.6-7.1,0.1
				c-1.3,0.4-2.4,1.6-2.4,3c-0.1,3.1-1.2,6.4,2.1,9c-2.3,0.4-4.3,0.1-6.2,0.2c-0.8,0-1.6,0-2.3,0c1.3-1,2.6-1.9,2.7-3.7
				c0.1-1.7,0-3.5,0-5.2c0-0.8-0.4-1.5-0.9-2.1c-1.9-2.1-8.1-2.4-10.2-0.4c-0.9,0.9-1.4,1.9-1.4,3.2c0,1.7,0,3.5,0,5.2
				c-2.4-2.6-5.6-4.5-7.6-7.6c0.8,0,1.3-0.7,1.8-1.2c3.1-3.1,6.3-6.2,9.4-9.4c1-1.1,2.1-1.9,3.6-2.1c0.8,0,1.7,0,2.5,0
				c0.8,0.4,1.6,0.4,2.3,0c0.3,0,0.6,0,0.9,0c0.4,0.3,0.8,0.3,1.1,0c1.4,0,2.7,0,4.1,0c0.5,0.4,1,0.4,1.5,0c0.2-0.1,0.3-0.1,0.5-0.2
				c2.5,0,5,0,7.5,0c0.2,0.1,0.3,0.1,0.5,0.2c0.5,0.4,1,0.4,1.6,0c1.5,0,3,0,4.5,0c0.5,0.4,1,0.4,1.6,0c0.3,0,0.6-0.1,0.8-0.1
				c2,0.1,4,0.1,6,0.2c0.1,0.1,0.3,0.1,0.4,0.2c5.3,0.5,9,3.5,12,7.6c0,0.3,0.1,0.4,0.3,0.5c0,0,0,0,0,0c1.7,3.6,2.2,7.3,2.1,11.2
				c-0.1,4.3-0.1,8.5,0,12.8c0.2,6.1,0.2,12.2,0,18.4c-0.8-0.1-1.2-0.8-1.7-1.3c-5.5-5.5-11-11-16.5-16.5c-0.5-0.5-0.9-1.2-1.7-1.3
				c0,0,0,0,0,0C178.8,92.7,178.7,92.5,178.4,92.4z M173.3,78.5c0,1.7-0.2,3.5,1.1,4.9c1.9,2.2,8.9,2,10.6-0.4
				c1.3-1.7,1.2-7.2,0.1-9.1c-1.4-2.5-10-2.6-11.2,0.1C173.3,75.5,173.3,76.9,173.3,78.5z"/>
			<path class="st12" d="M198.7,112c0.2-6.1,0.2-12.2,0-18.4c-0.2-4.3-0.2-8.5,0-12.8c0.1-3.9-0.4-7.7-2.1-11.2
				c0.9,0,1.3,0.7,1.8,1.2c2.8,2.7,5.6,5.5,8.3,8.3c0.8,0.8,1.5,1.1,2.6,0.7c1.5-0.6,3-0.9,4.5-1.4c2.1-0.6,2.3-0.5,2.3,1.6
				c0,3,0,6,0,9c0,4.2,0.1,8.4,0.1,12.6c0,12.1,0,24.2,0,36.3c0,0.8-0.1,1.6-0.1,2.4c-2.3-0.1-4.4,1.1-6.5,1.6
				c-2.7,0.7-5.3,1.7-8,2.6c-0.9,0.3-1.8,0.5-2.7,0.4c0-3.3-0.1-6.7-0.1-10c0-4.1,0.1-8.2,0.1-12.4C198.8,119,199.1,115.5,198.7,112
				z"/>
			<path class="st12" d="M161.3,61.2c-0.2,0.1-0.3,0.1-0.5,0.2c-0.5,0-1,0-1.5,0c-1.4,0-2.7,0-4.1,0c-0.4,0-0.8,0-1.1,0
				c-0.3,0-0.6,0-0.9,0c-0.8,0-1.6,0-2.3,0c-0.8,0-1.7,0-2.5,0c-2.4,0-4.8-0.1-7.2-0.1c0-5.2,0-10.5,0-15.7c0-0.8,0.2-1.6-0.4-2.3
				c-0.3-1.1-0.5-2.1-0.8-3.2c0.9,0.1,1.3,0.9,1.9,1.4c5.6,5.6,11.2,11.1,16.8,16.7c0.2,0.6,0.6,1.2,1.1,1.6
				C160.4,60.2,160.8,60.7,161.3,61.2z"/>
			<path class="st9" d="M183.7,61.4c-2-0.1-4-0.1-6-0.2c-0.4-0.3-0.8-0.6-1.2-0.9c2.5-3.9,5.3-7.6,8.4-11.1c0.4,0.2,0.8,0.3,1.1,0.5
				c3.2,2.8,2,10-1.9,11.6C183.9,61.3,183.8,61.3,183.7,61.4z"/>
			<path class="st9" d="M161.3,61.2c-0.5-0.5-0.9-1-1.4-1.5c1.5-0.1,1.8-1.5,2.5-2.3c2.2-2.7,4-5.7,6.5-8.1c1,0.1,1.5,0.8,1.9,1.6
				c1.6,2.7,0.4,8.5-2,10.4C166.3,61.2,163.8,61.2,161.3,61.2z"/>
			<path class="st9" d="M201.7,49.6c1.3,0.7,1.7,2,1.9,3.3c0.8,6.7-0.8,8.4-7.5,8.3c-1,0-2,0.2-2.9-0.5c0.5-2,2-3.2,3.2-4.7
				C198.2,53.8,199.5,51.3,201.7,49.6z"/>
			<path class="st7" d="M201.7,49.6c-2.2,1.8-3.5,4.3-5.2,6.5c-1.2,1.5-2.7,2.7-3.2,4.7c-1.8-0.9-2.3-2.4-2.4-4.3
				c-0.3-6.5,0.9-8.1,7.7-7.8C199.7,48.8,200.8,48.6,201.7,49.6z"/>
			<path class="st7" d="M184.9,49.2c-3.1,3.5-5.9,7.2-8.4,11.1c-1.1-0.7-1.5-1.8-1.6-3c-0.1-1.5-0.1-3.1,0-4.6
				c0.1-2.3,1.7-3.9,3.9-3.9C180.8,48.8,182.9,48.2,184.9,49.2z"/>
			<path class="st7" d="M168.9,49.2c-2.5,2.5-4.3,5.4-6.5,8.1c-0.7,0.9-1,2.2-2.5,2.3c-0.6-0.4-0.9-0.9-1.1-1.6c0-1.8,0-3.6,0.1-5.4
				c0.1-2.4,1.6-4,4-3.9C164.9,48.8,166.9,48.2,168.9,49.2z"/>
			<path class="st10" d="M176.8,61.3c-0.5,0.4-1,0.4-1.6,0C175.8,61.3,176.3,61.3,176.8,61.3z"/>
			<path class="st10" d="M170.8,61.3c-0.5,0.4-1,0.4-1.6,0C169.8,61.3,170.3,61.3,170.8,61.3z"/>
			<path class="st12" d="M140,40c-0.3-0.1-0.4-0.4-0.5-0.8C139.9,39.3,140.1,39.6,140,40z"/>
			<path class="st10" d="M183.7,61.4c0.1-0.1,0.2-0.1,0.3-0.1c0,0.1,0.1,0.2,0.1,0.3C184,61.5,183.8,61.5,183.7,61.4z"/>
			<path class="st12" d="M196.5,69.6c-0.3-0.1-0.4-0.2-0.3-0.5C196.3,69.3,196.4,69.4,196.5,69.6z"/>
			<path class="st11" d="M198.8,163.7c-0.5-4.3-0.5-8.5,0-12.8C198.9,155.2,198.9,159.4,198.8,163.7z"/>
			<path class="st11" d="M198.7,167.7c0-0.1-0.1-0.2-0.1-0.3c0,0,0.1-0.1,0.1-0.1C198.7,167.4,198.7,167.6,198.7,167.7z"/>
			<path class="st11" d="M198.7,112c0.4,3.5,0.1,7,0.2,10.5c0,4.1-0.1,8.2-0.1,12.4c-5.8-0.1-11.7-0.3-17.5-0.4
				c-0.1-5.5-0.1-10.9-0.2-16.4c0-5.3,0-10.5,0-15.8c0-3.3-0.9-6.4-2.4-9.3c0.9,0,1.2,0.8,1.7,1.3c5.5,5.5,11,11,16.5,16.5
				C197.5,111.2,197.8,111.9,198.7,112z"/>
			<path class="st11" d="M133.6,74c2,3.1,5.2,5,7.6,7.6c0.9,1.2,1.9,2.3,3.1,3.1c-2.9,0-5.8,0.1-8.7,0.1c-4-0.1-8-0.1-12-0.2
				c0-4.3-0.1-8.6-0.1-13c0.3-2.9-0.2-5.7-1.1-8.5c0.8,0.1,1.2,0.8,1.7,1.3C127.2,67.7,130.4,70.9,133.6,74z"/>
			<path class="st14" d="M153.3,84.7c2-0.1,3.9,0.2,6.2-0.2c-3.3-2.6-2.2-5.9-2.1-9c0-1.4,1.1-2.5,2.4-3c2.3-0.8,4.7-0.7,7.1-0.1
				c1.5,0.3,2.3,1.5,2.8,3c1.3,3.7,0,7.7-3.2,9.4C162,84.8,157.7,84.7,153.3,84.7z"/>
			<path class="st14" d="M144.3,84.7c-1.3-0.8-2.2-1.9-3.1-3.1c0-1.7,0-3.5,0-5.2c0-1.3,0.4-2.3,1.4-3.2c2.1-1.9,8.2-1.7,10.2,0.4
				c0.6,0.6,0.9,1.3,0.9,2.1c0,1.7,0.1,3.5,0,5.2c-0.1,1.8-1.4,2.8-2.7,3.7C148.7,84.7,146.5,84.7,144.3,84.7z"/>
			<path class="st15" d="M162,108.1c-1.3-0.1-2.6,0.3-3.9-0.4c-1.8-1-2.5-2.5-2.4-4.4c0.1-2.6-0.7-5.7,2.3-7
				c2.6-1.1,5.7-1.2,8.3,0.2c3.1,1.7,2.9,9.5-0.2,11.2C164.8,108.4,163.4,108,162,108.1z"/>
			<path class="st15" d="M123.8,98.1c0.6-0.7,1.2-1.4,1.8-2c2.3-0.7,4.6-0.5,6.9-0.3c1.7,0.1,3,1.4,3.3,3c0.4,2,0.4,4.1,0,6.2
				c-0.3,1.9-1.9,3.1-3.8,3.2c-1.6,0-3.2,0.1-4.8,0c-2-0.1-3.6-1.6-3.6-3.6C123.6,102.4,123.4,100.2,123.8,98.1z"/>
			<path class="st15" d="M152.1,101.8c0,0.7,0,1.5,0,2.2c-0.1,2.4-1.6,4-4,4c-1.5,0-2.9,0-4.4,0c-2.3-0.1-4-1.7-4.1-4
				c-0.1-1.4-0.1-2.8,0-4.2c0.1-2.4,1.8-4.1,4.2-4.2c1.1,0,2.3,0,3.4,0c3.4,0,4.9,1.5,4.9,4.8C152.1,100.9,152.1,101.4,152.1,101.8z
				"/>
			<path class="st11" d="M178.4,92.4c0.2,0.1,0.4,0.3,0.3,0.5C178.6,92.8,178.5,92.6,178.4,92.4z"/>
			<path class="st9" d="M122.3,63.3c1,2.7,1.5,5.5,1.1,8.5c-0.5,1.4-0.3,2.9-0.2,4.3c0.1,1.6-0.5,2.1-2,2c-4.7-0.1-9.3,0-14-0.1
				c-1.2,0-1.7,0.3-1.6,1.6c0.1,1.7,0.1,3.5,0.1,5.2c-4.7,0-9.3,0.1-14,0c-2.8,0-5.3-2.6-5.4-5.4c0-2.2,0-4.4,0-6.6
				c1-0.3,2.1-0.4,3.1-0.4c4.7,0,9.3,0,14,0c0.8,0,1.8,0,1.7-1.1c-0.1-3.1,0.1-6.3-1.8-9.2c-1.8-2.8-4.6-4.1-7.5-5.3
				c2.7,0,5.3-0.1,8-0.1c2.7,0,5.5,0,8.2,0.1c3.7,0.2,6.6,2,9.1,4.8c0.3,0.4,0.5,0.8,0.8,1.2C122,63,122.1,63.3,122.3,63.3
				L122.3,63.3z"/>
			<path class="st7" d="M96,56.9c2.9,1.2,5.7,2.5,7.5,5.3c1.9,2.9,1.7,6.1,1.8,9.2c0,1.1-0.9,1.1-1.7,1.1c-4.7,0-9.3,0-14,0
				c-1.1,0-2.1,0.1-3.1,0.4c0-0.4,0-0.8,0-1.2c0-1.2,0-2.4,0-3.6c0.1-0.7,0-1.4-0.4-2c-0.7-4.2-4.6-8.1-8.9-8.8
				c-0.4-0.1-0.8,0-1.1-0.3C82.6,56.9,89.3,56.9,96,56.9z"/>
			<path class="st15" d="M105.7,84.8c0-1.7,0-3.5-0.1-5.2c-0.1-1.2,0.4-1.6,1.6-1.6c4.7,0.1,9.3,0,14,0.1c1.6,0,2.1-0.4,2-2
				c-0.1-1.4-0.3-2.9,0.2-4.3c0,4.3,0.1,8.6,0.1,13C117.6,84.7,111.7,84.7,105.7,84.8z"/>
			<path class="st6" d="M86,66c0.4,0.6,0.4,1.3,0.4,2C85,67.6,84.5,67,86,66z"/>
			<path class="st11" d="M140.8,43.2c0.6,0.7,0.4,1.5,0.4,2.3c0,5.2,0,10.5,0,15.7c-6,0-12,0-18,0c0-5.1,0.1-10.2,0-15.4
				c0-1.5,0.5-1.9,1.9-1.9c4.6,0.1,9.2,0,13.8,0C139.6,44,140.6,44.4,140.8,43.2z"/>
			<path class="st10" d="M123.2,61.2c6,0,12,0,18,0c2.4,0,4.8,0.1,7.2,0.1c-1.5,0.2-2.6,1-3.6,2.1c-3.1,3.2-6.2,6.3-9.4,9.4
				c-0.5,0.5-0.9,1.2-1.8,1.2c-3.2-3.1-6.4-6.3-9.6-9.4c-0.5-0.5-0.9-1.2-1.7-1.3c0,0,0,0,0,0c-0.1-0.1-0.2-0.3-0.4-0.4
				c-0.3-0.4-0.5-0.8-0.8-1.2C121.8,60.9,122.5,61.3,123.2,61.2z"/>
			<path class="st14" d="M173.3,78.5c0-1.5,0-3,0.7-4.5c1.2-2.7,9.8-2.5,11.2-0.1c1,1.9,1.1,7.4-0.1,9.1c-1.7,2.4-8.7,2.6-10.6,0.4
				C173.1,81.9,173.3,80.2,173.3,78.5z"/>
			<path class="st10" d="M150.9,61.3c0.8,0,1.6,0,2.3,0C152.4,61.7,151.6,61.7,150.9,61.3z"/>
			<path class="st10" d="M159.3,61.3c0.5,0,1,0,1.5,0C160.3,61.7,159.8,61.7,159.3,61.3z"/>
			<path class="st10" d="M154.1,61.3c0.4,0,0.8,0,1.1,0C154.8,61.7,154.4,61.7,154.1,61.3z"/>
			<path class="st11" d="M122,62.8c0.1,0.1,0.2,0.3,0.4,0.4C122.1,63.3,122,63,122,62.8z"/>
		</g>
	</g>
</g>
</svg>
