<?xml version="1.0" encoding="utf-8"?>
<!-- Generator: Adobe Illustrator 26.5.0, SVG Export Plug-In . SVG Version: 6.00 Build 0)  -->
<svg version="1.1" id="图层_1" xmlns="http://www.w3.org/2000/svg" xmlns:xlink="http://www.w3.org/1999/xlink" x="0px" y="0px"
	 viewBox="0 0 414.9 378.4" style="enable-background:new 0 0 414.9 378.4;" xml:space="preserve">
<style type="text/css">
	.st0{fill:url(#SVGID_1_);}
	.st1{fill:#390176;}
	.st2{fill:url(#SVGID_00000143577713169093232080000004357419191428603838_);}
	.st3{opacity:0.33;fill:#231F1F;enable-background:new    ;}
	.st4{fill:url(#SVGID_00000092426477333193574610000003603418295489799599_);}
	.st5{fill:url(#SVGID_00000015323397668350036680000007540331198497136294_);}
	.st6{fill:url(#SVGID_00000016056305439985520140000000179877731974432410_);}
	.st7{fill:#50CCC9;}
	.st8{fill:#4A6899;}
	.st9{fill:url(#SVGID_00000178912729033356577490000017051575390037882793_);}
	.st10{fill:url(#SVGID_00000151508323688027155510000004213460429535269810_);}
	.st11{opacity:0.4;}
	.st12{fill:url(#SVGID_00000153681369175432729280000011150574658569886102_);}
	.st13{fill:#8FFFFF;}
	.st14{opacity:0.8;}
	.st15{fill:url(#SVGID_00000116946591672549764300000002303968539444923009_);}
	.st16{fill:url(#SVGID_00000052096783612949264300000012974649253134835085_);}
	.st17{fill:#FFFFFF;}
</style>
<g>
	
		<radialGradient id="SVGID_1_" cx="577.3665" cy="679.429" r="419.9191" gradientTransform="matrix(-0.4974 -0.8675 0.6086 -0.3489 254.9156 816.9031)" gradientUnits="userSpaceOnUse">
		<stop  offset="0" style="stop-color:#3602E2"/>
		<stop  offset="1" style="stop-color:#9702E2;stop-opacity:0"/>
	</radialGradient>
	<circle class="st0" cx="225.7" cy="189.2" r="189.2"/>
	<g>
		<path class="st1" d="M46.2,348.5C30.4,348.7,13.5,334,5.1,313c-4.8-12-6.3-24.7-4.2-35.6c2.2-11.7,8.2-20.1,16.8-23.8
			c2.9-1.2,5.9-1.9,9.1-1.9c2.2,0,4.5,0.2,6.8,0.8c3-2.3,7.2-5.5,11.4-8.7c2.6-15,9.8-27.5,20.2-35.4c1.4-1.6,5-5.2,9.9-10
			c3.8-16.8,11.5-30.9,22.5-41.1c1.6-1.9,12.2-14.2,25.3-27.6c11.4-20.9,29.4-34.9,50.8-39.7c4.9-1.1,9.9-1.7,15-1.8
			c1.3,0,2.7,0,4,0c20.1,0.7,40.9,9.2,58.8,24.2c17.4,14.6,31.7,35.1,40.3,58.1c1,2.7,1.8,5.1,2.5,7.3C314,240,289.2,302,238.1,314
			l-0.3,0.1l0,0c-2.2,0.5-4.4,0.9-6.8,1.2L166.2,327h-0.3c-1.4,0.1-2.8,0.2-4.2,0.2c-8.9,0.1-17.8-1.6-26.6-5.1l-22.3,5.3
			c-2.9,0.7-5.9,1.1-8.9,1.1c-5.3,0.1-10.6-0.8-15.8-2.6l-19,6.4c-3,6.7-7.7,11.6-13.5,14.1C52.7,347.8,49.5,348.5,46.2,348.5z"/>
		<path class="st1" d="M291.7,178.6c-0.8-2.4-1.6-4.8-2.5-7.1c-8.4-22.5-22.2-42.4-39.3-56.8c-17.5-14.7-37.5-22.9-57-23.5
			c-1.3,0-2.6-0.1-3.9,0l0,0l0,0c-4.9,0.1-9.8,0.7-14.5,1.7l0,0c-21,4.7-38.3,18.3-49.3,38.7c-13.3,13.7-24,26.1-25.5,27.9
			c-11,10.1-18.5,24.4-22,40.6c-5.2,5.1-9.2,9.1-10.5,10.6c-10.5,7.7-17.3,20.4-19.5,34.9c-5,3.8-10.1,7.7-13.3,10.2
			c-2.5-0.7-4.9-1.1-7.4-1c-2.8,0-5.5,0.6-8.1,1.7c-7.7,3.3-13.1,11-15.1,21.6c-1.9,10.3-0.5,22.3,4,33.8
			c7.9,19.9,23.7,33.8,38.3,33.5c2.9,0,5.7-0.6,8.3-1.8c5.7-2.5,9.9-7.4,12.6-13.8c2.2-0.7,5.1-1.7,8.2-2.7
			c4.9-1.7,9.2-3.1,12.9-4.3c5.1,1.9,10.4,2.8,15.7,2.8l0,0c2.8,0,5.6-0.4,8.4-1c0.4-0.1,11.1-2.6,23.1-5.5
			c8.4,3.5,17.3,5.3,26.2,5.2l0,0c1.3,0,2.7-0.1,4.1-0.2h0.1l64.7-11.6c2.3-0.3,4.5-0.7,6.8-1.2l0,0h0.1l0,0
			C286.8,299.5,310.8,239.2,291.7,178.6z"/>
		<g>
			<path class="st1" d="M46.1,345.4c-14.6,0.2-30.4-13.6-38.3-33.5c-4.6-11.5-6-23.5-4-33.8c2-10.7,7.4-18.3,15.1-21.6
				c2.5-1.1,5.3-1.7,8.1-1.7c14.2-0.2,29.7,13,37.8,32.4c10,24,5.4,49.5-10.4,56.4C51.8,344.7,49,345.3,46.1,345.4z"/>
			
				<radialGradient id="SVGID_00000058569918433765308490000008955519941179281288_" cx="36.8386" cy="2172.874" r="86.7192" gradientTransform="matrix(1 0 0 1 0 -1918.6)" gradientUnits="userSpaceOnUse">
				<stop  offset="0" style="stop-color:#5577E5"/>
				<stop  offset="1" style="stop-color:#3F3EE5"/>
			</radialGradient>
			<path style="fill:url(#SVGID_00000058569918433765308490000008955519941179281288_);" d="M62.2,288.3c9.4,22.5,5.4,46.1-9,52.4
				c-14.4,6.3-33.6-7.2-42.7-30c-8.9-22.5-4.6-45.4,9.5-51.5C34.1,253.2,52.9,266.1,62.2,288.3z"/>
			<g>
				<path class="st3" d="M55.1,336.3c-14.4,6.3-33.6-7.2-42.6-29.9c-5.5-13.7-6-27.6-2.3-37.7c-5.6,10.2-5.9,26.2,0.4,42
					c9.1,22.8,28.2,36.3,42.7,30c5.6-2.5,9.6-7.6,11.9-14.2C62.7,331,59.4,334.4,55.1,336.3z"/>
			</g>
			<path class="st1" d="M49.8,337.8C36.9,338,23,325.8,16,308.3c-4-10.1-5.3-20.7-3.6-29.8c1.8-9.5,6.5-16.3,13.4-19.2
				c2.3-1,4.7-1.5,7.2-1.5c12.6-0.2,26.4,11.5,33.5,28.6c8.9,21.2,4.8,43.7-9.3,49.8C54.9,337.2,52.4,337.8,49.8,337.8z"/>
			
				<radialGradient id="SVGID_00000157275439374359213120000013008199780428001455_" cx="40.6527" cy="2174.5085" r="78.4035" gradientTransform="matrix(1 0 0 1 0 -1918.6)" gradientUnits="userSpaceOnUse">
				<stop  offset="0" style="stop-color:#5577E5"/>
				<stop  offset="1" style="stop-color:#3F3EE5"/>
			</radialGradient>
			<path style="fill:url(#SVGID_00000157275439374359213120000013008199780428001455_);" d="M63.8,287.6c8.2,19.7,4.8,40.3-7.8,45.8
				s-29.4-6.3-37.3-26.2c-7.9-19.7-4.1-39.7,8.2-45.1C39.2,256.8,55.7,268.1,63.8,287.6z"/>
			<g>
				<path class="st3" d="M17.6,299.7c-1.2-2.7-2.1-5.4-2.9-8.1c0.5,5,1.8,10.3,3.9,15.5c8,19.9,24.7,31.7,37.3,26.2
					c3.9-1.7,7-4.9,9-9.1c-1.5,1.4-3.1,2.6-5,3.5C46.1,334.3,27.1,321.6,17.6,299.7z"/>
			</g>
			<path class="st1" d="M55.1,332.6c-13.8,0.2-27.8-11.8-33.8-29c-6.5-18.5-2.3-37.5,9.9-45.4c2.9-2.3,29.3-22.5,32-24.5
				c2.5-2.1,5.2-3.8,8.2-4.9c2.8-1,5.8-1.6,8.8-1.6c15.9-0.3,32.4,13.2,40,33c4.5,11.6,5.5,23.9,2.7,34.6c-2.9,11-9.4,19-18.3,22.4
				c-0.5,0.2-9.9,3.3-29.4,9.8c-6.5,2.2-12.2,4.1-12.5,4.2C60.3,332.1,57.7,332.6,55.1,332.6L55.1,332.6z"/>
			
				<radialGradient id="SVGID_00000060019110792474779680000005551669148434665394_" cx="76.3421" cy="2150.5339" r="98.5898" gradientTransform="matrix(1 0 0 1 0 -1918.6)" gradientUnits="userSpaceOnUse">
				<stop  offset="0" style="stop-color:#5577E5"/>
				<stop  offset="1" style="stop-color:#3F3EE5"/>
			</radialGradient>
			<path style="fill:url(#SVGID_00000060019110792474779680000005551669148434665394_);" d="M117.5,261.2
				c-8.7-22.5-28.8-35.7-45.1-29.6c-2.8,1-5.2,2.6-7.4,4.5c-0.9,0.6-31.3,23.9-32.1,24.7c-10.9,7-15,24.6-8.9,41.9
				c6.8,19.4,23.8,30.9,37.7,25.6c0.3-0.1,40.9-13.6,41.8-14C120.1,307.9,126.3,284,117.5,261.2z"/>
			<path class="st3" d="M63.6,237.1c-3.4,2.6-12.5,9.5-19.9,15.2l0,0c-2.2,14.4-1.5,22,4,39.5c7.4,23.5-22.7,27.5-26.6-5.4
				c0,5.2,0.9,10.7,2.9,16.2c6.8,19.4,23.8,30.9,37.7,25.6c0.3-0.1,40.9-13.6,41.8-14c13.6-5.2,20.3-22.1,17.4-40.6
				c-6.9-10.7-12.3-19.1-12.9-19.6C107.1,253.2,83.8,244.5,63.6,237.1z"/>
			<path class="st1" d="M103.8,325.5c-24.7,0.4-47.8-21.4-54.9-51.4c-6-25.6,1.4-50.9,18.3-63.4c4.6-5.3,42.9-42.3,49.2-45.5
				c3.6-1.9,7.5-3.3,11.5-4.2c3.3-0.7,6.7-1.1,10-1.2c29.8-0.5,58.8,24.9,69.1,61c5.7,19.9,4.9,40.4-2.2,57.4
				c-7.3,17.4-20.4,29.2-36.8,33c-1,0.2-55,13-55.9,13.2C109.4,325.1,106.6,325.4,103.8,325.5L103.8,325.5z"/>
			
				<radialGradient id="SVGID_00000099637684082180189290000010665073577446289043_" cx="87.3696" cy="2118.2812" r="110.3247" gradientTransform="matrix(1 0 0 1 0 -1918.6)" gradientUnits="userSpaceOnUse">
				<stop  offset="0" style="stop-color:#56C1FC"/>
				<stop  offset="1" style="stop-color:#3A8CFC"/>
			</radialGradient>
			<path style="fill:url(#SVGID_00000099637684082180189290000010665073577446289043_);" d="M204.4,221.4
				c-11.2-39.2-44.9-64.6-75.7-57.7c-3.9,0.9-7.5,2.2-10.9,3.9c-6,3.1-46.2,42-48.6,45.2c-15.7,11.5-23.4,35.4-17.5,60.6
				c7.6,32.2,34.4,53.9,59.7,48c1.9-0.4,54.1-12.8,55.9-13.2C199.4,300.7,215.8,261.5,204.4,221.4z"/>
			<path class="st3" d="M173.9,306.1c-7.5-16.9-18.9-39.1-19.2-41.2c-0.4-2.5-46.3-55.5-62.7-74.5c-7.1,6.7-14,13.5-18.4,17.8l0,0
				c-2.9,16.7-4.3,41.2,3,59.2c7.3,17.9-22.7,28.1-26.9-11.4c0,5.6,0.6,11.5,2,17.4c7.6,32.2,34.4,53.9,59.7,48
				c1.9-0.4,54.1-12.8,55.9-13.2C169.6,307.7,171.8,307,173.9,306.1z"/>
			<path class="st1" d="M161.5,324.2c-36.9,0.6-71.8-32-82.7-76.4c-8.5-34.5-0.1-69.1,20.9-88.4c3.4-3.9,53.2-61.8,74.8-66.6
				c4.7-1.1,9.6-1.6,14.5-1.7c20.7-0.4,42.3,7.9,60.9,23.6c18.9,15.9,33.8,38.5,41.8,63.9c19.1,60.6-4.9,121-54.4,132.5h-0.1
				L165.6,324h-0.1C164.2,324.1,162.8,324.2,161.5,324.2L161.5,324.2z"/>
			<g>
				<path class="st7" d="M236.4,308.1c48-11.2,71.2-69.8,52.6-128.9c-17.9-57.1-68.5-93.8-113.7-83.7c-21.3,4.7-73.6,66-73.6,66
					c-19.8,18.2-28.7,51.1-20.2,85.8C92.6,292.3,129,324,165,321L236.4,308.1z"/>
			</g>
			<path class="st3" d="M165.1,320.9l35.7-6.4l35.6-6.4c0.8-0.2,1.5-0.4,2.3-0.6c0.2-0.1,0.5-0.1,0.7-0.2c0.5-0.1,1-0.3,1.5-0.4
				c0.3-0.1,0.6-0.2,0.9-0.3c0.5-0.1,0.9-0.3,1.4-0.4c0.3-0.1,0.6-0.2,0.9-0.3c0.4-0.2,0.9-0.3,1.3-0.5c0.3-0.1,0.6-0.2,0.9-0.4
				c0.4-0.2,0.8-0.3,1.2-0.5c0.3-0.1,0.6-0.3,0.9-0.4c0.4-0.2,0.8-0.4,1.2-0.5c0.3-0.1,0.6-0.3,0.9-0.4c0.4-0.2,0.8-0.4,1.2-0.6
				c0.3-0.1,0.6-0.3,0.8-0.4c0.4-0.2,0.8-0.4,1.2-0.6c0.3-0.1,0.5-0.3,0.8-0.5c0.4-0.2,0.8-0.5,1.2-0.7c0.3-0.2,0.5-0.3,0.8-0.5
				c0.4-0.2,0.8-0.5,1.2-0.7c0.2-0.2,0.5-0.3,0.7-0.5c0.4-0.3,0.8-0.5,1.2-0.8c0.2-0.2,0.5-0.3,0.7-0.5c0.4-0.3,0.8-0.6,1.2-0.9
				c0.2-0.2,0.4-0.3,0.6-0.5c0.4-0.3,0.8-0.6,1.2-0.9c0.2-0.2,0.4-0.3,0.6-0.5c0.4-0.3,0.8-0.7,1.2-1c0.2-0.2,0.4-0.3,0.5-0.5
				c0.4-0.4,0.8-0.7,1.2-1.1c0.2-0.1,0.3-0.3,0.5-0.4c0.4-0.4,0.8-0.8,1.2-1.2c0.1-0.1,0.3-0.3,0.4-0.4c0.4-0.4,0.9-0.9,1.3-1.3
				c0.1-0.1,0.2-0.2,0.3-0.3c0.5-0.5,0.9-0.9,1.3-1.4c0.1-0.1,0.1-0.2,0.2-0.2c0.5-0.5,1-1.1,1.4-1.6l0.1-0.1
				c6.6-7.7,11.8-16.9,15.5-27.1l0,0c-13.4-24.4-25.1-45.5-25.1-45.5s-108-67.3-140.4-75.1c-5.9,6.2-7,7.3-10.8,11.6
				c-5.1,18-11.2,44-1.8,79.5c11.8,45-30.4,36.1-32.5-9.1l0,0c0,1.1,0,2.2,0,3.3c0,0.1,0,0.1,0,0.2c0,1,0.1,2,0.1,3.1
				c0,0.1,0,0.3,0,0.4c0,1,0.1,1.9,0.2,2.9c0,0.2,0,0.4,0,0.6c0.1,0.9,0.2,1.8,0.3,2.7c0,0.3,0.1,0.5,0.1,0.8
				c0.1,0.8,0.2,1.7,0.3,2.6c0,0.3,0.1,0.6,0.1,0.9c0.1,0.8,0.3,1.6,0.4,2.5c0.1,0.3,0.1,0.7,0.2,1c0.2,0.8,0.3,1.7,0.5,2.5
				c0.1,0.3,0.1,0.6,0.2,0.9c0.2,1.1,0.5,2.3,0.8,3.4c4.1,16.7,11.8,31.7,21.6,43.7c0.8,1,1.7,2,2.5,2.9c1.7,1.9,3.5,3.8,5.3,5.5
				c0.9,0.9,1.8,1.7,2.8,2.6c14.1,12.5,31,19.6,47.9,19.2C162.8,321,164,321,165.1,320.9z"/>
			<g>
				<path class="st8" d="M231.9,288.6c-16.3,3.8-33.4-0.1-48.7-9.7c-20.9-13.1-38.2-36.5-45.8-65.2c-3.9-14.7-4.8-29.1-3.1-42.2
					c3.8-30,21.2-53.5,46.9-59.2c36.7-8.2,77.9,22.7,92.6,70.3C289,231.6,270.5,279.6,231.9,288.6z"/>
				<path class="st1" d="M203,285.5c-6.8,0.1-13.7-1.2-20.6-3.8l-0.3-0.1l-0.3-0.2c-22.5-14.1-39.6-38.6-47.2-67.1
					c-3.9-14.6-4.9-29.5-3.1-43.3v-0.2l0.1-0.2c6.3-20.7,20.3-34.8,38.4-38.9c3.2-0.7,6.5-1.1,9.8-1.2c29.9-0.5,59.5,25.3,70.6,62.2
					c6.1,20.2,5.8,40.9-1.1,58.2c-7,17.7-19.9,29.6-36.2,33.4C209.9,285,206.5,285.5,203,285.5z"/>
				<g>
					
						<linearGradient id="SVGID_00000138535643218415518750000016535326874598245551_" gradientUnits="userSpaceOnUse" x1="133.6062" y1="2126.4758" x2="251.9712" y2="2126.4758" gradientTransform="matrix(1 0 0 1 0 -1918.6)">
						<stop  offset="0" style="stop-color:#30A4E4"/>
						<stop  offset="1" style="stop-color:#9DD0E4"/>
					</linearGradient>
					<path style="fill:url(#SVGID_00000138535643218415518750000016535326874598245551_);" d="M212.4,281.3
						c-9.6,2.2-19.6,1.2-29.1-2.4c-20.9-13.1-38.2-36.5-45.8-65.2c-3.9-14.7-4.8-29.1-3.1-42.2c5.8-19,18.7-33.2,36.5-37.1
						c30.7-6.9,64.9,19.1,76.9,58.9C260,234.1,244.4,273.9,212.4,281.3z"/>
				</g>
				<g>
					<path class="st3" d="M170.2,137.3c30.7-6.9,65,19.2,77,59c4.4,14.7,5.2,29.2,2.9,42.2c3-13.7,2.5-29.4-2.3-45.2
						c-12-39.8-46.2-65.8-76.9-58.9c-17.8,4-30.8,18.2-36.5,37.1c-0.1,0.4-0.1,0.8-0.1,1.2C140.2,154.6,153,141.2,170.2,137.3z"/>
				</g>
				<g>
					
						<linearGradient id="SVGID_00000049929476008637317820000003532299399169999255_" gradientUnits="userSpaceOnUse" x1="201.5643" y1="2072.7417" x2="181.1856" y2="2178.4907" gradientTransform="matrix(1 0 0 1 0 -1918.6)">
						<stop  offset="0" style="stop-color:#85D0E4"/>
						<stop  offset="1" style="stop-color:#BBD0E4"/>
					</linearGradient>
					<path style="fill:url(#SVGID_00000049929476008637317820000003532299399169999255_);" d="M200.1,264.2
						c-10.7,0.2-21.8-4.5-31.3-13.3c-9.7-8.9-17-21.3-20.7-34.9c-4.1-15.1-3.3-30.1,2-42.4c5.2-12,14.3-20,25.5-22.6
						c2.3-0.5,4.6-0.8,6.9-0.8c10.3-0.2,21.1,4.2,30.5,12.4c9.6,8.4,17.1,20.4,21,33.8c4.5,15.1,4.1,30.4-0.9,43.1
						c-5.1,12.6-14.2,21.1-25.8,23.8C205,263.8,202.5,264.1,200.1,264.2z"/>
				</g>
				<g class="st11">
					
						<linearGradient id="SVGID_00000162338167266977773130000012393876881017279411_" gradientUnits="userSpaceOnUse" x1="198.3582" y1="2098.915" x2="183.0336" y2="2155.2878" gradientTransform="matrix(1 0 0 1 0 -1918.6)">
						<stop  offset="0" style="stop-color:#87D0E5"/>
						<stop  offset="0.3049" style="stop-color:#6ECAE1"/>
						<stop  offset="0.9516" style="stop-color:#2DBBD6"/>
						<stop  offset="0.9988" style="stop-color:#28BAD5"/>
					</linearGradient>
					<path style="fill:url(#SVGID_00000162338167266977773130000012393876881017279411_);" d="M195.7,235.6
						c-5.4,0.1-11-2.3-15.9-6.7c-4.9-4.5-8.7-10.7-10.6-17.7c-2.1-7.7-1.8-15.4,0.9-21.7c2.6-6.2,7.3-10.4,13-11.7
						c1.2-0.3,2.4-0.4,3.6-0.4c5.3-0.1,10.9,2.2,15.7,6.4c4.9,4.4,8.7,10.5,10.7,17.4c2.2,7.7,2,15.5-0.6,21.9s-7.3,10.6-13.1,12
						C198.2,235.4,196.9,235.5,195.7,235.6z"/>
				</g>
				<path class="st1" d="M221.8,313c-22.1,0.3-45-9.2-64.3-26.7c-19.1-17.4-33.4-41.6-40.2-68c-7.5-29.1-5.6-58,5.3-81.5
					c10.8-23.4,29.2-38.9,51.9-44c4.7-1.1,9.6-1.6,14.5-1.7c20.7-0.4,42.3,7.9,60.9,23.6c18.9,15.9,33.8,38.5,41.8,63.9
					c19.1,60.6-4.9,121-54.4,132.5C232.2,312.3,227,312.9,221.8,313L221.8,313z M192.5,113.8c-3.6,0.1-7.1,0.5-10.5,1.3
					c-17,3.8-30.7,15.8-38.6,33.9c-8.1,18.5-9.3,41.3-3.2,64.2c5.5,20.7,16.7,39.7,31.5,53.3c14.6,13.5,31.8,20.8,48.3,20.5
					c3.7-0.1,7.5-0.5,11.1-1.4c37-8.6,54.7-55.1,40.1-102.4c-6.2-20.2-17.7-38.2-32.4-50.9C224.5,120.1,208.1,113.5,192.5,113.8z"/>
				<g>
					<g>
						<path class="st13" d="M289,179.2c-17.9-57.1-68.5-93.8-113.7-83.7c-45.4,10.1-70.4,64-55.3,122.2
							c15.7,60.3,68.1,101.7,116.4,90.4C284.4,296.9,307.6,238.3,289,179.2z M231.9,288.6c-38.7,9-81.2-25.1-94.5-74.9
							c-12.8-48.3,7-93.1,43.8-101.4c36.7-8.2,77.9,22.7,92.6,70.3C289,231.6,270.5,279.6,231.9,288.6z"/>
					</g>
				</g>
				<g class="st14">
					
						<linearGradient id="SVGID_00000013874338283346172070000008701527764996462765_" gradientUnits="userSpaceOnUse" x1="261.6223" y1="2123.1943" x2="262.1212" y2="2099.2444" gradientTransform="matrix(0.9989 4.764841e-02 -4.764841e-02 0.9989 27.7666 -1960.9615)">
						<stop  offset="1.209562e-03" style="stop-color:#FFFFFF;stop-opacity:0"/>
						<stop  offset="1" style="stop-color:#FFFFFF"/>
					</linearGradient>
					<path style="fill:url(#SVGID_00000013874338283346172070000008701527764996462765_);" d="M178.1,159.6
						c0.3,9.6,5.4,17.5,11.3,17.7s10.4-7.5,10-17.1c-0.4-9.5-5.5-17.4-11.3-17.5C182.2,142.5,177.8,150,178.1,159.6z"/>
				</g>
				<g class="st14">
					
						<linearGradient id="SVGID_00000160894369514640614600000012922355418539867827_" gradientUnits="userSpaceOnUse" x1="1538.3763" y1="-901.2799" x2="1538.7333" y2="-918.4188" gradientTransform="matrix(-0.9989 -4.764841e-02 4.764841e-02 -0.9989 1773.0421 -575.4714)">
						<stop  offset="1.209562e-03" style="stop-color:#FFFFFF;stop-opacity:0"/>
						<stop  offset="1" style="stop-color:#FFFFFF"/>
					</linearGradient>
					<path style="fill:url(#SVGID_00000160894369514640614600000012922355418539867827_);" d="M200.2,260.5
						c-0.3-6.8-3.8-12.5-7.9-12.6s-7.2,5.3-6.9,12.1c0.3,6.9,3.8,12.5,7.9,12.7C197.4,272.8,200.4,267.4,200.2,260.5z"/>
				</g>
				<g>
					<path class="st3" d="M122.7,214.7c-10.2-39-2.3-76.1,17.6-99.2c-21.7,22.9-30.8,61.5-20.2,102.2
						c15.7,60.3,68.1,101.7,116.4,90.4c16-3.7,29.3-12.8,39.2-25.5c-9.6,11-21.9,18.9-36.6,22.3
						C190.8,316.2,138.4,274.9,122.7,214.7z"/>
				</g>
				<g>
					<path class="st3" d="M276.4,179.7c-14.7-47.5-56-78.3-92.6-70.2c-12,2.7-22.2,9.3-30,18.5c7.4-7.8,16.7-13.3,27.5-15.7
						c36.7-8.2,77.9,22.7,92.6,70.3c10.1,32.7,5.2,65.1-10.9,85.6C281,248,287,214.1,276.4,179.7z"/>
				</g>
			</g>
		</g>
	</g>
	<polygon class="st17" points="283.7,66.2 290.7,84 308.6,91.1 290.7,98.1 283.7,116 276.7,98.1 258.8,91.1 276.7,84 	"/>
	<polygon class="st17" points="329.4,55.5 333.7,66.4 344.7,70.7 333.7,75 329.4,86 325.2,75 314.2,70.7 325.2,66.4 	"/>
	<polygon class="st17" points="314.2,111 316.9,118 323.9,120.7 316.9,123.5 314.2,130.4 311.5,123.5 304.5,120.7 311.5,118 	"/>
</g>
</svg>
