<?xml version="1.0" encoding="utf-8"?>
<!-- Generator: Adobe Illustrator 26.5.0, SVG Export Plug-In . SVG Version: 6.00 Build 0)  -->
<svg version="1.2" baseProfile="tiny" id="Layer_1" xmlns="http://www.w3.org/2000/svg" xmlns:xlink="http://www.w3.org/1999/xlink"
	 x="0px" y="0px" viewBox="0 0 232.4 225.3" overflow="visible" xml:space="preserve">
<g id="ozlklT.tif">
	<g>
		<g>
			<path fill="#FED403" d="M110.2,99.4c-3.3-1.7-6.7-3.5-10-5.2c-8.1-4.1-16.3-8.2-24.5-12.2c-0.9-0.4-1.5-0.8-1.5-2
				c0-15.8,0-31.5,0-47.3c0-0.2,0.1-0.4,0.1-0.6c4.2,1.6,7.9,4,11.9,6c6.3,3.1,12.4,6.5,18.7,9.7c3.7,1.9,7.3,3.9,11.2,5.5l0,0
				c0,16.3,0,32.6,0,48.8C114.2,101.2,112.2,100.3,110.2,99.4z"/>
			<path fill="#FEBB14" d="M116.2,102.1c0-16.3,0-32.6,0-48.8c1.7,0,2.7-1.2,4.1-1.9c7.4-3.8,14.8-7.6,22.2-11.4
				c5.2-2.6,10.4-5.2,15.6-7.8c0,0.7,0.1,1.3,0.1,2c0,15,0,30.1,0,45.1c0,1.5-0.4,2.3-1.8,3c-10.7,5.3-21.4,10.7-32.1,16
				c-0.7,0.4-1.4,0.8-2,1.2c-2,0.9-4,1.9-6,2.8L116.2,102.1z"/>
			<path fill="#505288" d="M62.4,160.4c-3.5,0-7-0.1-10.5-0.1c-1.3,0-1.7-0.4-1.7-1.7c0-10.9,0-21.8,0-32.6c0-1.3,0.3-1.7,1.7-1.7
				c10.9,0,21.9,0,32.8,0c1.2,0,1.6,0.4,1.6,1.6c0,3.5,0,7,0.1,10.5c0,4,0,8,0,12c0,3.4-0.1,6.8-0.1,10.1c0,1.3-0.3,1.8-1.7,1.8
				c-3.4-0.1-6.8,0-10.1,0C70.4,160.4,66.4,160.4,62.4,160.4z"/>
			<path fill="#6DA5D9" d="M146,136.4c0-3.4,0.1-6.8,0-10.1c0-1.5,0.3-2.1,2-2.1c10.7,0.1,21.5,0.1,32.2,0c1.4,0,2,0.4,2,1.9
				c-0.1,10.8,0,21.6,0,32.4c0,1.4-0.3,1.9-1.8,1.8c-3.4-0.1-6.8,0-10.1,0c-4.1,0-8.2,0-12.3,0c-3.4,0-6.8-0.1-10.1,0
				c-1.4,0-1.8-0.4-1.8-1.8c0.1-3.4,0-6.8,0-10.1C146,144.4,146,140.4,146,136.4z"/>
			<path fill="#71C9F1" d="M50.2,202.2c0,3.4-0.1,6.9-0.1,10.3c0,1.2-0.3,1.6-1.6,1.6c-10.9,0-21.9,0-32.8,0c-1.3,0-1.5-0.5-1.5-1.7
				c0-10.9,0-21.7,0-32.6c0-1.3,0.4-1.7,1.7-1.7c10.8,0,21.6,0,32.4,0c1.4,0,1.8,0.4,1.8,1.8c-0.1,3.4,0,6.8,0,10.1
				C50.1,194.1,50.1,198.1,50.2,202.2z"/>
			<path fill="#61BD6C" d="M182.1,190.1c0-3.4,0.1-6.9,0.1-10.3c0-1.2,0.2-1.6,1.5-1.6c11,0.1,22,0,33,0c1.2,0,1.4,0.4,1.4,1.5
				c0,11,0,22,0,33c0,1.1-0.3,1.5-1.5,1.5c-11,0-22,0-33,0c-1.1,0-1.5-0.4-1.5-1.5c0-3.5,0-7-0.1-10.5
				C182.3,198.2,182.2,194.1,182.1,190.1z"/>
			<path fill="#F99F1D" d="M158,32.1c-5.2,2.6-10.4,5.2-15.6,7.8c-7.4,3.8-14.8,7.7-22.2,11.4c-1.3,0.7-2.4,1.9-4.1,1.9c0,0,0,0,0,0
				c0-14.1,0-28.1,0-42.2c0.4,0.1,0.9,0.2,1.3,0.4c13,6.5,26.1,13,39.1,19.6C157.1,31.4,157.8,31.4,158,32.1z"/>
			<path fill="#FEBB15" d="M116.2,11.1c0,14.1,0,28.1,0,42.2c-3.9-1.5-7.5-3.6-11.2-5.5c-6.3-3.2-12.4-6.5-18.7-9.7
				c-4-2-7.7-4.4-11.9-6c0.2-0.6,0.8-0.7,1.2-0.9c13.2-6.6,26.3-13.2,39.5-19.8C115.4,11.3,115.8,11.2,116.2,11.1z"/>
			<path fill="#AADAF3" d="M182.1,190.1c0.2,4,0.2,8,0,12c-7.2,0-14.4-0.1-21.6,0c-2.1,0-2.5-0.6-2.5-2.6c0.1-13.1,0-26.2,0-39.3
				c4.1,0,8.2,0,12.3,0c0,9.3,0,18.6,0,28c0,1.5,0.4,2,1.9,1.9C175.4,190.1,178.8,190.2,182.1,190.1z"/>
			<path fill="#F7911F" d="M110.2,160.4c-3.4,0-6.7-0.1-10.1,0c-1.4,0-1.9-0.3-1.9-1.8c0.1-3.4,0-6.7,0-10.1c0-4,0-8,0-12
				c0-3.4,0.2-6.7,0-10.1c-0.1-1.7,0.5-2.1,2.1-2c3.3,0.1,6.6-0.1,9.9-0.1c2,0,3.9,0,5.9,0l0,0.1c0,0.1,0.1,0.2,0.1,0.3
				c0,11.9,0,23.8,0,35.7C114.2,160.3,112.2,160.3,110.2,160.4z"/>
			<path fill="#CEE7F8" d="M50.2,202.2c-0.2-4-0.2-8,0-12c3.4,0,6.8,0,10.1,0.1c1.4,0.1,1.9-0.7,2-1.8c0.1-0.5,0-0.9,0-1.4
				c0-8.9,0-17.8,0-26.6c4,0,8,0,12,0c0,13.2,0,26.3,0,39.5c0,1.9-0.6,2.3-2.3,2.3C64.8,202.1,57.5,202.1,50.2,202.2z"/>
			<path fill="#F04E4F" d="M116.2,160.2c0-11.9,0-23.8,0-35.7c5.9,0,11.9,0,17.8-0.1c0.1,4,0.1,7.9,0.2,11.9c0,4,0,8,0,12
				c0,3.4-0.1,6.9,0,10.3c0,1.3-0.4,1.7-1.7,1.6c-3.4-0.1-6.9,0-10.3,0.1c-2,0-4,0-6,0L116.2,160.2z"/>
			<path fill="#FED403" d="M116.2,214.1c-5.6,0-11.1,0-16.7,0.1c-1.1,0-1.3-0.4-1.3-1.4c0-11,0-22.1,0-33.1c0-1.2,0.4-1.4,1.5-1.4
				c3.5,0,7,0,10.5,0c2,0,4,0.1,6,0.1C116.2,190.2,116.2,202.1,116.2,214.1z"/>
			<path fill="#FEBB14" d="M116.2,214.1c0-11.9,0-23.8,0-35.8l0-0.1c2,0,4,0,6,0c3.5,0,7,0.1,10.5,0c1.1,0,1.5,0.2,1.5,1.4
				c0,11,0,22.1,0,33.1c0,1-0.2,1.4-1.3,1.4C127.3,214.1,121.7,214.1,116.2,214.1z"/>
			<path fill="#CEE7F8" d="M98.2,136.4c0,4,0,8,0,12c-3.9,0-7.9,0-11.8,0c0-4,0-8,0-12C90.3,136.4,94.2,136.4,98.2,136.4z"/>
			<path fill="#A9D9F4" d="M134.2,148.4c0-4,0-8,0-12c3.9,0,7.9,0,11.8,0c0,4,0,8,0,12C142.1,148.4,138.1,148.4,134.2,148.4z"/>
			<path fill="#CEE7F8" d="M116.1,124.2c-2,0-3.9,0-5.9,0c0-8.3,0-16.5,0-24.8c2,0.9,4,1.8,6,2.7c0,0,0,0.1,0,0.1
				C116.1,109.6,116.1,116.9,116.1,124.2z"/>
			<path fill="#A9D9F4" d="M116.1,124.2c0-7.3,0-14.6,0.1-21.9c2-0.9,4-1.9,6-2.8c0,8.2,0,16.4,0,24.6
				C120.1,124.3,118.1,123.9,116.1,124.2C116.1,124.3,116.1,124.2,116.1,124.2z"/>
			<path fill="#CEE7F8" d="M116.2,178.3c-2,0-4-0.1-6-0.1c0-5.9,0-11.9,0-17.8c2,0,4-0.1,6-0.1c0,0,0,0.1,0,0.1c0,5.9,0,11.9,0,17.8
				L116.2,178.3z"/>
			<path fill="#A9D9F4" d="M116.2,178.2c0-5.9,0-11.9,0-17.8c2,0,4,0,6,0c0,5.9,0,11.9,0,17.8C120.2,178.2,118.2,178.2,116.2,178.2z
				"/>
			<path fill="#D292A4" d="M116.1,124.3c2-0.4,4,0,6-0.2c3.4,0,6.7,0,10.1,0.1c0.6,0,1.3-0.3,1.8,0.4c-5.9,0-11.9,0-17.8,0.1
				C116.1,124.5,116.1,124.4,116.1,124.3z"/>
		</g>
	</g>
</g>
</svg>
