<?xml version="1.0" encoding="utf-8"?>
<!-- Generator: Adobe Illustrator 26.5.0, SVG Export Plug-In . SVG Version: 6.00 Build 0)  -->
<svg version="1.1" id="Layer_1" xmlns="http://www.w3.org/2000/svg" xmlns:xlink="http://www.w3.org/1999/xlink" x="0px" y="0px"
	 viewBox="0 0 956 219" style="enable-background:new 0 0 956 219;" xml:space="preserve">
<style type="text/css">
	.st0{fill:#FFFFFF;}
	.st1{fill:#5E12A0;}
	.st2{fill:url(#SVGID_1_);}
	.st3{fill:url(#SVGID_00000168110662264548103560000016148420302211395210_);}
	.st4{opacity:0.6;fill:#A98698;enable-background:new    ;}
	.st5{opacity:0.6;fill:url(#SVGID_00000039097076873505211330000015654134827149557891_);enable-background:new    ;}
	.st6{opacity:0.6;fill:url(#SVGID_00000130639512357380907090000016460452056243985558_);enable-background:new    ;}
	.st7{fill:url(#SVGID_00000156553139955752394030000001144180413856603025_);}
	.st8{opacity:0.6;}
	.st9{opacity:0.6;fill:url(#SVGID_00000041282163146393449360000017000293437195205282_);enable-background:new    ;}
	.st10{opacity:0.7;}
	.st11{opacity:0.7;fill:url(#SVGID_00000060719162804310876590000005964439161115053729_);enable-background:new    ;}
	.st12{fill:url(#SVGID_00000183930696880935403440000001977147840198529432_);}
	.st13{opacity:0.6;fill:url(#SVGID_00000156571435281946962960000008646502499181170587_);enable-background:new    ;}
	.st14{opacity:0.2;fill:#FFFFFF;enable-background:new    ;}
	.st15{opacity:0.4;}
	.st16{opacity:0.6;fill:url(#SVGID_00000169538770563226083150000011860760477597464502_);enable-background:new    ;}
	.st17{opacity:0.3;fill:#FFFFFF;enable-background:new    ;}
	.st18{opacity:0.6;fill:url(#SVGID_00000153700668870447786040000006389149310819398820_);enable-background:new    ;}
	.st19{opacity:0.6;fill:url(#SVGID_00000042738947079311215080000013265444569588578949_);enable-background:new    ;}
	.st20{opacity:0.6;fill:url(#SVGID_00000126325866064136587070000014319289637690314415_);enable-background:new    ;}
	.st21{opacity:0.6;fill:url(#SVGID_00000135660517872006785000000015826086659437356697_);enable-background:new    ;}
	.st22{opacity:0.6;fill:url(#SVGID_00000066507671754932579420000017574903906299429269_);enable-background:new    ;}
</style>
<path class="st0" d="M246,123.9c0-29.7,21.5-51.2,51.6-51.2c30.2,0,51.6,21.5,51.6,50.7c0,29.7-21.5,50.7-51.6,50.7
	C267.9,174.7,246,153.6,246,123.9z M327.3,123.9c0-18.3-11.9-32.5-30.2-32.5c-18.3,0-29.7,14.2-29.7,32.5s11.9,32.5,29.7,32.5
	C315.4,155.9,327.3,142.2,327.3,123.9z"/>
<path class="st0" d="M357,159.1l11.4-16c6.9,7.3,17.8,13.3,31.1,13.3c11.4,0,17.4-5.5,17.4-11c0-17.4-56.7-5.5-56.7-42.5
	c0-16.5,13.7-30.2,37-30.2c15.5,0,28.8,4.6,38.4,13.7L424.2,102c-7.8-7.3-18.7-11-28.8-11c-9.1,0-14.2,4.1-14.2,9.6
	c0,15.5,56.7,5,56.7,42.1c0,18.3-12.8,31.5-39.3,31.5C379.9,174.7,366.2,168.3,357,159.1z"/>
<path class="st0" d="M538,172.8v-69l-27.9,69H501l-27.9-69v69h-21V74.6h29.3l23.8,59.4l23.8-59.4h29.7v98.3H538L538,172.8z"/>
<path class="st0" d="M573.7,123.9c0-29.7,21.5-50.7,51.6-50.7c29.7,0,51.6,21.5,51.6,50.7c0,29.7-21.5,50.7-51.6,50.7
	C595.6,174.7,573.7,153.6,573.7,123.9z M655,123.9c0-18.3-11.9-32.5-30.2-32.5c-18.3,0-29.7,14.2-29.7,32.5s11.9,32.5,29.7,32.5
	C643.2,155.9,655,142.2,655,123.9z"/>
<path class="st0" d="M684.7,159.1l11.4-16c6.9,7.3,17.8,13.3,31.1,13.3c11.4,0,17.4-5.5,17.4-11c0-17.4-56.7-5.5-56.7-42.5
	c0-16.5,14.2-30.2,37.5-30.2c15.5,0,28.8,4.6,38.4,13.7l-11.9,15.1c-7.8-7.3-18.7-11-28.8-11c-9.1,0-14.2,4.1-14.2,9.6
	c0,15.5,56.7,5,56.7,42.1c0,18.3-12.8,31.5-39.3,31.5C707.6,174.7,693.9,168.3,684.7,159.1z"/>
<path class="st0" d="M779.8,172.8V74.6h21v98.3H779.8L779.8,172.8z"/>
<path class="st0" d="M814.1,159.1l11.4-16c6.9,7.3,17.8,13.3,31.1,13.3c11.4,0,17.4-5.5,17.4-11c0-17.4-56.7-5.5-56.7-42.5
	c0-16.5,14.2-30.2,37.5-30.2c15.5,0,28.8,4.6,38.4,13.7l-11.9,15.1c-7.8-7.3-18.7-11-28.8-11c-9.1,0-14.2,4.1-14.2,9.6
	c0,15.5,56.7,5,56.7,42.1c0,18.3-12.8,31.5-39.3,31.5C836.5,174.7,822.8,168.3,814.1,159.1z"/>
<path class="st1" d="M208.9,38.5c-2.3-8.7-9.6-17.4-22.4-27C176,4.2,165.1-0.4,156.4-0.4c-1.8,0-3.2,0-5,0.5
	c-4.1,0.9-7.3,3.7-9.6,8.2c-2.7,5-3.2,12.3-1.4,16.5c0.5,1.4,1.4,2.7,2.3,4.6c-8.2,5-13.3,6.9-13.7,6.9
	c21.9,7.3,40.2,22.9,51.6,43.4v-1.8c0.5-5.5,2.3-11.4,4.1-17.8c2.3,0.5,4.6,0.9,6.9,0.9c5.9,0,11-2.3,14.2-6.9
	C208.9,49,210.3,43.5,208.9,38.5z"/>
<radialGradient id="SVGID_1_" cx="-629.0114" cy="370.8748" r="4.5707" gradientTransform="matrix(15.5992 0 0 15.8678 10013.5117 -5855.5024)" gradientUnits="userSpaceOnUse">
	<stop  offset="0" style="stop-color:#FFEAFF;stop-opacity:0.6"/>
	<stop  offset="0.6807" style="stop-color:#A087C9"/>
	<stop  offset="1" style="stop-color:#10002F"/>
</radialGradient>
<path class="st2" d="M185.6,54.5c14.6,4.1,20.6-7.3,18.3-15.1s-8.7-15.5-20.6-24.2S159.6,2.8,151.8,4.6c-7.8,1.8-10.1,13.3-7.8,17.8
	c0.9,1.8,2.7,4.6,5,7.3c-3.2,2.3-5.9,3.7-8.2,5c14.6,6.9,27.4,16.9,37,30.2c0.9-4.6,2.7-8.2,4.1-11.9C183.3,54,184.7,54,185.6,54.5z
	"/>
<radialGradient id="SVGID_00000033368766583237106410000016781693633718069384_" cx="-661.7457" cy="344.3723" r="4.5707" gradientTransform="matrix(38.1657 0 0 38.8229 25417.752 -13309.1416)" gradientUnits="userSpaceOnUse">
	<stop  offset="0" style="stop-color:#FFEAFF;stop-opacity:0.6"/>
	<stop  offset="0.6807" style="stop-color:#A087C9"/>
	<stop  offset="1" style="stop-color:#10002F"/>
</radialGradient>
<path style="fill:url(#SVGID_00000033368766583237106410000016781693633718069384_);" d="M102.9,213.5c49.4,0,89.1-40.7,89.1-90.5
	s-40.2-91-89.1-91c-49.4,0-89.1,40.7-89.1,91S53.5,213.5,102.9,213.5z"/>
<path class="st4" d="M197.1,32.1c-12.3-12.8-22.4-16.5-34.7-19.2c-9.6-2.3-6.9-7.8,4.6-6.9c-5.5-1.8-11-2.3-14.6-1.8
	c-7.8,1.8-10.1,13.3-7.8,17.8c0.9,1.8,2.7,4.6,5,7.3c-4.1,2.7-7.8,5-11,6.9c1.4,0.5,3.2,1.4,5.5,2.7c5.5,2.7,11.4,7.8,11.4,7.8
	c-9.1-7.8-6.9-11.4,5.5-20.1c3.7-2.7,11-2.3,17.4,0.9c6.4,3.2,14.2,11.9,14.2,11.9l-8.2,15.1c0.5,0,0.9,0.5,1.4,0.5
	c4.6,1.4,8.2,0.9,11,0C200.3,52.6,208.9,45.3,197.1,32.1z"/>
<path class="st1" d="M162.3,21.1c3.2,1.4,7.3,3.7,12.3,6.9c5.9,4.1,11.4,8.7,14.6,12.3c-5.5,7.3-9.1,17.8-11.4,24.7
	c0.9,1.8,2.3,3.2,3.7,5c0.9-4.1,3.2-10.1,5.5-16c0.5,0,1.4,0,2.3,0c1.8,0,4.1-0.5,5.9-1.8c1.4-0.9,2.7-2.7,2.7-5.9
	s-2.3-6.9-7.3-11.9c-3.7-3.2-8.7-7.3-13.3-10.5c-13.7-9.1-23.3-11.9-27.4-7.3c-2.7,2.7-2.7,6.4-1.4,9.1c-5,3.2-9.6,5.9-12.3,7.3
	c1.8,0.5,3.7,1.4,5.5,2.3C146.3,32.5,153.6,27.5,162.3,21.1z M192.5,43.9c0.5,0.9,0.5,1.8,0.5,2.3c0,1.4-0.5,1.8-0.9,2.3
	c-0.5,0.5-1.8,0.9-3.2,0.9C190.2,47.1,191.1,45.8,192.5,43.9z M153.2,19.7c0.5-0.5,1.8-0.9,3.7-0.5c-1.4,1.4-3.2,2.3-4.6,3.7
	C151.8,22,151.8,20.6,153.2,19.7z"/>
<path class="st1" d="M102.9,27C50.3,27,8.3,70,8.3,123s42.1,96,94.6,96c52.1,0,94.6-43,94.6-96S154.5,27,102.9,27z M102.9,213.5
	c-49.4,0-89.1-40.2-89.1-90.5s39.8-91,89.1-91c48.9,0,89.1,40.7,89.1,91S151.8,213.5,102.9,213.5z"/>
<linearGradient id="SVGID_00000060738004741768961770000002500887344188009100_" gradientUnits="userSpaceOnUse" x1="88.1689" y1="1242.299" x2="117.6785" y2="1063.3257" gradientTransform="matrix(1 0 0 1 0 -1030)">
	<stop  offset="0" style="stop-color:#81FFFF"/>
	<stop  offset="0.6202" style="stop-color:#FFFFFF;stop-opacity:0"/>
</linearGradient>
<path style="opacity:0.6;fill:url(#SVGID_00000060738004741768961770000002500887344188009100_);enable-background:new    ;" d="
	M102.9,213.5c49.4,0,89.1-40.7,89.1-90.5s-40.2-91-89.1-91c-49.4,0-89.1,40.7-89.1,91S53.5,213.5,102.9,213.5z"/>
<path class="st4" d="M102,202.5c-48.4-7.8-81.4-54.4-73.6-103.8c3.7-21.9,14.2-40.7,29.7-53.9c-22.4,13.3-38.9,36.1-43.4,64
	c-7.8,49.4,25.1,96,73.6,104.2c27,4.6,53.5-4.1,72.7-21C144,201.6,123,206.2,102,202.5z"/>
<linearGradient id="SVGID_00000103237301722660851120000009948123728438741436_" gradientUnits="userSpaceOnUse" x1="166.2828" y1="1092.1174" x2="91.394" y2="1159.6667" gradientTransform="matrix(1 0 0 1 0 -1030)">
	<stop  offset="0.2888" style="stop-color:#FFFFFF"/>
	<stop  offset="0.7796" style="stop-color:#FFFFFF;stop-opacity:0"/>
</linearGradient>
<path style="opacity:0.6;fill:url(#SVGID_00000103237301722660851120000009948123728438741436_);enable-background:new    ;" d="
	M117.1,33.4c-22.4-3.7-44.3,1.4-62.2,12.8c-0.5,0.5-0.5,0.5-0.5,0.5c6.9-4.1,16.9-7.8,16.9-7.8C45.3,54,37.5,71.4,37.5,71.4
	C47.1,52.2,76.8,38,99.7,37.1c23.3-0.9,38.4,5.9,56.7,21s29.7,46.6,28.3,71.3c-0.9,24.7-13.7,44.8-13.7,44.8
	c8.7-11.4,14.2-20.1,17.4-28.3c0.5-2.7,1.4-5,1.4-7.8C198.4,87.8,165.5,41.7,117.1,33.4z"/>
<linearGradient id="SVGID_00000141443806153591831910000013893056015418748856_" gradientUnits="userSpaceOnUse" x1="17.886" y1="1195.2944" x2="187.4583" y2="1195.2944" gradientTransform="matrix(1 0 0 1 0 -1030)">
	<stop  offset="0" style="stop-color:#0002E9"/>
	<stop  offset="0.9952" style="stop-color:#FF00C7"/>
</linearGradient>
<path style="fill:url(#SVGID_00000141443806153591831910000013893056015418748856_);" d="M187.5,122.1c0,47.5-37.9,86.4-84.6,86.4
	s-85-38.9-85-86.4H187.5z"/>
<g class="st8">
	
		<linearGradient id="SVGID_00000143609999011855841860000003955105379139731102_" gradientUnits="userSpaceOnUse" x1="195.7981" y1="1160.0944" x2="102.0758" y2="1247.1687" gradientTransform="matrix(1 0 0 1 0 -1030)">
		<stop  offset="0.2888" style="stop-color:#FFFFFF"/>
		<stop  offset="0.7796" style="stop-color:#FFFFFF;stop-opacity:0"/>
	</linearGradient>
	<path style="opacity:0.6;fill:url(#SVGID_00000143609999011855841860000003955105379139731102_);enable-background:new    ;" d="
		M180.6,122.1c0,46.6-36.1,84.6-81.4,86.4c0.9,0,2.3,0,3.2,0c46.6,0,84.6-38.4,84.6-86.4C187,122.1,180.6,122.1,180.6,122.1z"/>
</g>
<g class="st10">
	
		<linearGradient id="SVGID_00000138547201389907199790000015249205417018658706_" gradientUnits="userSpaceOnUse" x1="17.886" y1="1195.2944" x2="108.497" y2="1195.2944" gradientTransform="matrix(1 0 0 1 0 -1030)">
		<stop  offset="0" style="stop-color:#000292"/>
		<stop  offset="0.9952" style="stop-color:#7D00C7"/>
	</linearGradient>
	<path style="opacity:0.7;fill:url(#SVGID_00000138547201389907199790000015249205417018658706_);enable-background:new    ;" d="
		M29.8,122.1H17.9c0,47.5,37.9,86.4,84.6,86.4c2.3,0,4.1,0,5.9,0C64.5,204.8,29.8,167.4,29.8,122.1z"/>
</g>
<linearGradient id="SVGID_00000034072748007481891130000003516935615580615582_" gradientUnits="userSpaceOnUse" x1="17.886" y1="1160.1721" x2="187.1219" y2="1160.1721" gradientTransform="matrix(1 0 0 1 0 -1030)">
	<stop  offset="0" style="stop-color:#000292"/>
	<stop  offset="0.9952" style="stop-color:#BE00C7"/>
</linearGradient>
<path style="fill:url(#SVGID_00000034072748007481891130000003516935615580615582_);" d="M187.5,123c0-10.1-16.9-15.5-39.3-17.4
	c-16.5-1.4-32.9,0.5-51.6,5.9c-16.5,5-31.1,4.1-41.6,2.7c-23.8-2.7-37-3.2-37,8.7c0,16.9,33.8,37.9,84.6,30.6
	c25.6-3.7,38.9-11.4,53.9-16.5C172.8,131.7,187.5,131.7,187.5,123z"/>
<path class="st0" d="M130.3,81.9c7.8,0,14.2-6.4,14.2-14.6s-6.4-14.6-14.2-14.6c-7.8,0-14.2,6.4-14.2,14.6S122.6,81.9,130.3,81.9z"
	/>
<path class="st0" d="M154.1,92.8c3.2,0,5.9-2.7,5.9-5.9s-2.7-5.9-5.9-5.9s-5.9,2.7-5.9,5.9S150.4,92.8,154.1,92.8z"/>
<g class="st8">
	
		<linearGradient id="SVGID_00000109030831700369883520000005149110332135487626_" gradientUnits="userSpaceOnUse" x1="184.7126" y1="1067.8936" x2="172.246" y2="1087.8094" gradientTransform="matrix(1 0 0 1 0 -1030)">
		<stop  offset="0.2888" style="stop-color:#FFFFFF"/>
		<stop  offset="0.7796" style="stop-color:#FFFFFF;stop-opacity:0"/>
	</linearGradient>
	<path style="opacity:0.6;fill:url(#SVGID_00000109030831700369883520000005149110332135487626_);enable-background:new    ;" d="
		M175.6,55.8C175.6,55.8,175.1,55.8,175.6,55.8c-1.4,0-1.8-0.9-1.8-2.3c1.4-7.3,7.3-14.6,7.8-15.1c0.5-0.9,1.8-0.9,2.7,0
		c0.9,0.5,0.9,1.8,0,2.7c0,0-5.9,6.9-6.9,13.3C177.4,55.4,176.5,55.8,175.6,55.8z"/>
</g>
<path class="st14" d="M97,190.7c2.3,0,4.6-1.8,4.6-4.6s-1.8-4.6-4.6-4.6s-4.6,1.8-4.6,4.6S94.2,190.7,97,190.7z"/>
<g class="st15">
	
		<linearGradient id="SVGID_00000171688919947892699000000000443709647684485263_" gradientUnits="userSpaceOnUse" x1="92.3182" y1="1215.8718" x2="99.0672" y2="1215.8718" gradientTransform="matrix(1 0 0 1 0 -1030)">
		<stop  offset="0.2888" style="stop-color:#FFFFFF"/>
		<stop  offset="0.7796" style="stop-color:#FFFFFF;stop-opacity:0"/>
	</linearGradient>
	<path style="opacity:0.6;fill:url(#SVGID_00000171688919947892699000000000443709647684485263_);enable-background:new    ;" d="
		M94.2,188.8c-1.8-1.8-1.8-4.6,0-6.4c0.5-0.5,0.5-0.5,0.9-0.9c-0.5,0-0.9,0.5-1.4,0.9c-1.8,1.8-1.8,4.6,0,6.4
		c1.4,1.4,3.7,1.8,5.5,0.9C97.4,190.7,95.6,190.2,94.2,188.8z"/>
</g>
<path class="st17" d="M98.3,184.7c0.5,0,0.9-0.5,0.9-0.9c0-0.5-0.5-0.9-0.9-0.9s-0.9,0.5-0.9,0.9S97.9,184.7,98.3,184.7z"/>
<path class="st14" d="M120.3,188.4c2.3,0,4.6-1.8,4.6-4.6c0-2.3-1.8-4.6-4.6-4.6c-2.3,0-4.6,1.8-4.6,4.6
	C115.7,186.1,117.5,188.4,120.3,188.4z"/>
<g class="st15">
	
		<linearGradient id="SVGID_00000004532487385887879970000013558370075793784478_" gradientUnits="userSpaceOnUse" x1="115.588" y1="1213.5864" x2="122.3375" y2="1213.5864" gradientTransform="matrix(1 0 0 1 0 -1030)">
		<stop  offset="0.2888" style="stop-color:#FFFFFF"/>
		<stop  offset="0.7796" style="stop-color:#FFFFFF;stop-opacity:0"/>
	</linearGradient>
	<path style="opacity:0.6;fill:url(#SVGID_00000004532487385887879970000013558370075793784478_);enable-background:new    ;" d="
		M117.5,186.5c-1.8-1.8-1.8-4.6,0-6.4c0.5-0.5,0.5-0.5,0.9-0.9c-0.5,0-0.9,0.5-1.4,0.9c-1.8,1.8-1.8,4.6,0,6.4
		c1.4,1.4,3.7,1.8,5.5,0.9C120.7,188.4,118.9,187.9,117.5,186.5z"/>
</g>
<path class="st17" d="M121.6,182.4c0.5,0,0.9-0.5,0.9-0.9c0-0.5-0.5-0.9-0.9-0.9s-0.9,0.5-0.9,0.9
	C120.7,182,121.2,182.4,121.6,182.4z"/>
<path class="st14" d="M108.8,198.9c1.8,0,3.2-1.4,3.2-3.2c0-1.8-1.4-3.2-3.2-3.2c-1.8,0-3.2,1.4-3.2,3.2
	C105.6,197.5,106.6,198.9,108.8,198.9z"/>
<g class="st15">
	
		<linearGradient id="SVGID_00000143609232240696843000000016457593810277076621_" gradientUnits="userSpaceOnUse" x1="105.2587" y1="1225.4816" x2="110.3257" y2="1225.4816" gradientTransform="matrix(1 0 0 1 0 -1030)">
		<stop  offset="0.2888" style="stop-color:#FFFFFF"/>
		<stop  offset="0.7796" style="stop-color:#FFFFFF;stop-opacity:0"/>
	</linearGradient>
	<path style="opacity:0.6;fill:url(#SVGID_00000143609232240696843000000016457593810277076621_);enable-background:new    ;" d="
		M106.6,197.5c-1.4-1.4-1.4-3.7,0-5l0.5-0.5c-0.5,0-0.9,0.5-0.9,0.9c-1.4,1.4-1.4,3.7,0,5c0.9,0.9,2.7,1.4,4.1,0.5
		C109.3,198.9,107.5,198.4,106.6,197.5z"/>
</g>
<path class="st17" d="M109.8,194.3c0.5,0,0.5-0.5,0.5-0.5c0-0.5-0.5-0.5-0.5-0.5c-0.5,0-0.5,0.5-0.5,0.5S109.3,194.3,109.8,194.3z"
	/>
<path class="st14" d="M129.4,196.6c1.8,0,3.2-1.4,3.2-3.2s-1.4-3.2-3.2-3.2c-1.8,0-3.2,1.4-3.2,3.2
	C125.8,194.8,127.6,196.6,129.4,196.6z"/>
<g class="st15">
	
		<linearGradient id="SVGID_00000090983593467731386640000003319643021286646710_" gradientUnits="userSpaceOnUse" x1="125.7683" y1="1223.1963" x2="130.8353" y2="1223.1963" gradientTransform="matrix(1 0 0 1 0 -1030)">
		<stop  offset="0.2888" style="stop-color:#FFFFFF"/>
		<stop  offset="0.7796" style="stop-color:#FFFFFF;stop-opacity:0"/>
	</linearGradient>
	<path style="opacity:0.6;fill:url(#SVGID_00000090983593467731386640000003319643021286646710_);enable-background:new    ;" d="
		M127.1,195.2c-1.4-1.4-1.4-3.7,0-5l0.5-0.5c-0.5,0-0.9,0.5-0.9,0.9c-1.4,1.4-1.4,3.7,0,5c0.9,0.9,2.7,1.4,4.1,0.5
		C129.9,196.6,128,196.1,127.1,195.2z"/>
</g>
<path class="st17" d="M130.3,192c0.5,0,0.5-0.5,0.5-0.5c0-0.5-0.5-0.5-0.5-0.5c-0.5,0-0.5,0.5-0.5,0.5S129.9,192,130.3,192z"/>
<path class="st14" d="M77.8,188.8c4.1,0,7.3-3.2,7.3-7.3c0-4.1-3.2-7.3-7.3-7.3c-4.1,0-7.3,3.2-7.3,7.3
	C70.4,185.6,73.6,188.8,77.8,188.8z"/>
<g class="st15">
	
		<linearGradient id="SVGID_00000062188962356861115390000004008183984837362594_" gradientUnits="userSpaceOnUse" x1="70.5133" y1="1211.856" x2="81.5355" y2="1211.856" gradientTransform="matrix(1 0 0 1 0 -1030)">
		<stop  offset="0.2888" style="stop-color:#FFFFFF"/>
		<stop  offset="0.7796" style="stop-color:#FFFFFF;stop-opacity:0"/>
	</linearGradient>
	<path style="opacity:0.6;fill:url(#SVGID_00000062188962356861115390000004008183984837362594_);enable-background:new    ;" d="
		M73.6,186.1c-2.7-2.7-2.7-7.8,0-10.5c0.5-0.5,0.9-0.9,1.4-0.9c-0.9,0.5-1.8,0.9-2.7,1.8c-2.7,2.7-2.7,7.8,0,10.5
		c2.3,2.3,5.9,2.7,9.1,0.9C79.1,188.8,75.9,188.4,73.6,186.1z"/>
</g>
<path class="st17" d="M80.5,179.2c0.9,0,1.4-0.9,1.4-1.8s-0.9-1.8-1.4-1.8c-0.9,0-1.4,0.9-1.4,1.8S79.6,179.2,80.5,179.2z"/>
<path class="st14" d="M143.6,170.6c4.1,0,7.3-3.2,7.3-7.3c0-4.1-3.2-7.3-7.3-7.3s-7.3,3.2-7.3,7.3
	C136.3,167.4,139.5,170.6,143.6,170.6z"/>
<g class="st15">
	
		<linearGradient id="SVGID_00000062892460833808766390000012038938717617540790_" gradientUnits="userSpaceOnUse" x1="135.976" y1="1193.5732" x2="146.9986" y2="1193.5732" gradientTransform="matrix(1 0 0 1 0 -1030)">
		<stop  offset="0.2888" style="stop-color:#FFFFFF"/>
		<stop  offset="0.7796" style="stop-color:#FFFFFF;stop-opacity:0"/>
	</linearGradient>
	<path style="opacity:0.6;fill:url(#SVGID_00000062892460833808766390000012038938717617540790_);enable-background:new    ;" d="
		M139,167.8c-2.7-2.7-2.7-7.8,0-10.5c0.5-0.5,0.9-0.9,1.4-0.9c-0.9,0.5-1.8,0.9-2.7,1.8c-2.7,2.7-2.7,7.8,0,10.5
		c2.3,2.3,5.9,2.7,9.1,0.9C144.5,170.6,141.3,170.1,139,167.8z"/>
</g>
<path class="st17" d="M145.9,161c0.9,0,1.4-0.9,1.4-1.8s-0.9-1.8-1.4-1.8c-0.9,0-1.4,0.9-1.4,1.8S145,161,145.9,161z"/>
</svg>
