<?xml version="1.0" encoding="utf-8"?>
<!-- Generator: Adobe Illustrator 26.5.0, SVG Export Plug-In . SVG Version: 6.00 Build 0)  -->
<svg version="1.1" id="Layer_1" xmlns="http://www.w3.org/2000/svg" xmlns:xlink="http://www.w3.org/1999/xlink" x="0px" y="0px"
	 viewBox="0 0 956 219" style="enable-background:new 0 0 956 219;" xml:space="preserve">
<style type="text/css">
	.st0{fill:#1E163F;}
	.st1{fill:#5E12A0;}
	.st2{fill:url(#SVGID_1_);}
	.st3{fill:url(#SVGID_00000112615546515001428840000007243543652431415225_);}
	.st4{opacity:0.6;fill:#A98698;enable-background:new    ;}
	.st5{opacity:0.6;fill:url(#SVGID_00000092423087712425744540000017896597843478959497_);enable-background:new    ;}
	.st6{opacity:0.6;fill:url(#SVGID_00000023987165615091829910000015022429950325397908_);enable-background:new    ;}
	.st7{fill:url(#SVGID_00000082366535591364823540000012538913678436774328_);}
	.st8{opacity:0.6;}
	.st9{opacity:0.6;fill:url(#SVGID_00000095296472480193050350000007396019394275114646_);enable-background:new    ;}
	.st10{opacity:0.7;}
	.st11{opacity:0.7;fill:url(#SVGID_00000138536141030705238670000012281085742926847368_);enable-background:new    ;}
	.st12{fill:url(#SVGID_00000075149677544901496710000003016672194191608222_);}
	.st13{fill:#FFFFFF;}
	.st14{opacity:0.6;fill:url(#SVGID_00000143604663185927489100000005601978287325720458_);enable-background:new    ;}
	.st15{opacity:0.2;fill:#FFFFFF;enable-background:new    ;}
	.st16{opacity:0.4;}
	.st17{opacity:0.6;fill:url(#SVGID_00000005230297534636777780000009535486209702508935_);enable-background:new    ;}
	.st18{opacity:0.3;fill:#FFFFFF;enable-background:new    ;}
	.st19{opacity:0.6;fill:url(#SVGID_00000170261832474763042270000009154478324545456273_);enable-background:new    ;}
	.st20{opacity:0.6;fill:url(#SVGID_00000048491747280947911730000006654992085407261345_);enable-background:new    ;}
	.st21{opacity:0.6;fill:url(#SVGID_00000002384084829604977510000009692136621266256546_);enable-background:new    ;}
	.st22{opacity:0.6;fill:url(#SVGID_00000116935221226553436670000014670795542013728691_);enable-background:new    ;}
	.st23{opacity:0.6;fill:url(#SVGID_00000057845736601390920400000001905246602377774476_);enable-background:new    ;}
</style>
<g>
	<path class="st0" d="M276.8,123.8c0-29.1,21-50.1,50.5-50.1s50.5,21,50.5,49.6c0,29.1-21,49.6-50.5,49.6
		C298.2,173.5,276.8,152.9,276.8,123.8z M356.4,123.8c0-17.9-11.6-31.8-29.5-31.8s-29.1,13.9-29.1,31.8s11.6,31.8,29.1,31.8
		C344.7,155.1,356.4,141.7,356.4,123.8z"/>
	<path class="st0" d="M385.4,158.2l11.2-15.7c6.7,7.2,17.4,13,30.4,13c11.2,0,17-5.4,17-10.7c0-17-55.5-5.4-55.5-41.6
		c0-16.1,13.4-29.5,36.2-29.5c15.2,0,28.2,4.5,37.6,13.4l-11.2,15.2c-7.6-7.2-18.3-10.7-28.2-10.7c-8.9,0-13.9,4-13.9,9.4
		c0,15.2,55.5,4.9,55.5,41.1c0,17.9-12.5,30.9-38.5,30.9C407.8,173.5,394.4,167.2,385.4,158.2z"/>
	<path class="st0" d="M562.5,171.7v-67.5l-27.3,67.5h-8.9L499,104.1v67.5h-20.6V75.5h28.6l23.3,58.1l23.3-58.1h29.1v96.1H562.5
		L562.5,171.7z"/>
	<path class="st0" d="M597.4,123.8c0-29.1,21-49.6,50.5-49.6c29.1,0,50.5,21,50.5,49.6c0,29.1-21,49.6-50.5,49.6
		C618.9,173.5,597.4,152.9,597.4,123.8z M677,123.8c0-17.9-11.6-31.8-29.5-31.8c-17.9,0-29.1,13.9-29.1,31.8s11.6,31.8,29.1,31.8
		C665.4,155.1,677,141.7,677,123.8z"/>
	<path class="st0" d="M706.1,158.2l11.2-15.7c6.7,7.2,17.4,13,30.4,13c11.2,0,17-5.4,17-10.7c0-17-55.5-5.4-55.5-41.6
		c0-16.1,13.9-29.5,36.7-29.5c15.2,0,28.2,4.5,37.6,13.4l-11.6,14.8c-7.6-7.2-18.3-10.7-28.2-10.7c-8.9,0-13.9,4-13.9,9.4
		c0,15.2,55.5,4.9,55.5,41.1c0,17.9-12.5,30.9-38.5,30.9C728.4,173.5,715,167.2,706.1,158.2z"/>
	<path class="st0" d="M799.1,171.7V75.5h20.6v96.1H799.1L799.1,171.7z"/>
	<path class="st0" d="M832.6,158.2l11.2-15.7c6.7,7.2,17.4,13,30.4,13c11.2,0,17-5.4,17-10.7c0-17-55.5-5.4-55.5-41.6
		c0-16.1,13.9-29.5,36.7-29.5c15.2,0,28.2,4.5,37.6,13.4l-11.6,14.8c-7.6-7.2-18.3-10.7-28.2-10.7c-8.9,0-13.9,4-13.9,9.4
		c0,15.2,55.5,4.9,55.5,41.1c0,17.9-12.5,30.9-38.5,30.9C854.5,173.5,841.1,167.2,832.6,158.2z"/>
	<path class="st1" d="M240.5,40.2c-2.2-8.5-9.4-17-21.9-26.4c-10.3-7.2-21-11.6-29.5-11.6c-1.8,0-3.1,0-4.9,0.4
		c-4,0.9-7.2,3.6-9.4,8c-2.7,4.9-3.1,12.1-1.3,16.1c0.4,1.3,1.3,2.7,2.2,4.5c-8,4.9-13,6.7-13.4,6.7c21.5,7.2,39.4,22.4,50.5,42.5
		v-1.8c0.4-5.4,2.2-11.2,4-17.4c2.2,0.4,4.5,0.9,6.7,0.9c5.8,0,10.7-2.2,13.9-6.7C240.5,50.5,241.9,45.1,240.5,40.2z"/>
	
		<radialGradient id="SVGID_1_" cx="-627.9117" cy="370.9957" r="4.4721" gradientTransform="matrix(15.5992 0 0 15.8678 10028.1113 -5855.5024)" gradientUnits="userSpaceOnUse">
		<stop  offset="0" style="stop-color:#FFEAFF;stop-opacity:0.6"/>
		<stop  offset="0.6807" style="stop-color:#A087C9"/>
		<stop  offset="1" style="stop-color:#10002F"/>
	</radialGradient>
	<path class="st2" d="M217.7,55.8c14.3,4,20.1-7.2,17.9-14.8c-2.2-7.6-8.5-15.2-20.1-23.7S192.2,5.3,184.6,7.1
		c-7.6,1.8-9.8,13-7.6,17.4c0.9,1.8,2.7,4.5,4.9,7.2c-3.1,2.2-5.8,3.6-8,4.9c14.3,6.7,26.8,16.5,36.2,29.5c0.9-4.5,2.7-8,4-11.6
		C215.5,55.4,216.8,55.4,217.7,55.8z"/>
	
		<radialGradient id="SVGID_00000034803117436444347260000006546697970010829240_" cx="-661.8651" cy="344.4046" r="4.4721" gradientTransform="matrix(38.1657 0 0 38.8229 25454.918 -13309.1416)" gradientUnits="userSpaceOnUse">
		<stop  offset="0" style="stop-color:#FFEAFF;stop-opacity:0.6"/>
		<stop  offset="0.6807" style="stop-color:#A087C9"/>
		<stop  offset="1" style="stop-color:#10002F"/>
	</radialGradient>
	<path style="fill:url(#SVGID_00000034803117436444347260000006546697970010829240_);" d="M136.8,211.5c48.3,0,87.2-39.8,87.2-88.5
		s-39.4-89-87.2-89c-48.3,0-87.2,39.8-87.2,89S88.5,211.5,136.8,211.5z"/>
	<path class="st4" d="M228.9,33.9c-12.1-12.5-21.9-16.1-34-18.8c-9.4-2.2-6.7-7.6,4.5-6.7c-5.4-1.8-10.7-2.2-14.3-1.8
		c-7.6,1.8-9.8,13-7.6,17.4c0.9,1.8,2.7,4.5,4.9,7.2c-4,2.7-7.6,4.9-10.7,6.7c1.3,0.4,3.1,1.3,5.4,2.7c5.4,2.7,11.2,7.6,11.2,7.6
		c-8.9-7.6-6.7-11.2,5.4-19.7c3.6-2.7,10.7-2.2,17,0.9s13.9,11.6,13.9,11.6l-8,14.8c0.4,0,0.9,0.4,1.3,0.4c4.5,1.3,8,0.9,10.7,0
		C232,54,240.5,46.9,228.9,33.9z"/>
	<path class="st1" d="M194.9,23.2c3.1,1.3,7.2,3.6,12.1,6.7c5.8,4,11.2,8.5,14.3,12.1c-5.4,7.2-8.9,17.4-11.2,24.1
		c0.9,1.8,2.2,3.1,3.6,4.9c0.9-4,3.1-9.8,5.4-15.7c0.4,0,1.3,0,2.2,0c1.8,0,4-0.4,5.8-1.8c1.3-0.9,2.7-2.7,2.7-5.8
		s-2.2-6.7-7.2-11.6c-3.6-3.1-8.5-7.2-13-10.3c-13.4-8.9-22.8-11.6-26.8-7.2c-2.7,2.7-2.7,6.3-1.3,8.9c-4.9,3.1-9.4,5.8-12.1,7.2
		c1.8,0.4,3.6,1.3,5.4,2.2C179.3,34.4,186.4,29.4,194.9,23.2z M224.4,45.5c0.4,0.9,0.4,1.8,0.4,2.2c0,1.3-0.4,1.8-0.9,2.2
		c-0.4,0.4-1.8,0.9-3.1,0.9C222.2,48.7,223.1,47.3,224.4,45.5z M186,21.8c0.4-0.4,1.8-0.9,3.6-0.4c-1.3,1.3-3.1,2.2-4.5,3.6
		C184.6,24.1,184.6,22.7,186,21.8z"/>
	<path class="st1" d="M136.8,29c-51.4,0-92.6,42-92.6,93.9s41.1,93.9,92.6,93.9c51,0,92.6-42,92.6-93.9S187.3,29,136.8,29z
		 M136.8,211.5c-48.3,0-87.2-39.4-87.2-88.5s38.9-89,87.2-89c47.9,0,87.2,39.8,87.2,89S184.6,211.5,136.8,211.5z"/>
	
		<linearGradient id="SVGID_00000100346814611769070450000015354943198424588724_" gradientUnits="userSpaceOnUse" x1="122.3659" y1="1240.2736" x2="151.239" y2="1065.1611" gradientTransform="matrix(1 0 0 1 0 -1030)">
		<stop  offset="0" style="stop-color:#81FFFF"/>
		<stop  offset="0.6202" style="stop-color:#FFFFFF;stop-opacity:0"/>
	</linearGradient>
	<path style="opacity:0.6;fill:url(#SVGID_00000100346814611769070450000015354943198424588724_);enable-background:new    ;" d="
		M136.8,211.5c48.3,0,87.2-39.8,87.2-88.5s-39.4-89-87.2-89c-48.3,0-87.2,39.8-87.2,89S88.5,211.5,136.8,211.5z"/>
	<path class="st4" d="M135.9,200.7c-47.4-7.6-79.6-53.2-72-101.5C67.5,77.7,77.7,59.4,93,46.4c-21.9,13-38,35.3-42.5,62.6
		c-7.6,48.3,24.6,93.9,72,102c26.4,4.5,52.3-4,71.1-20.6C177,199.8,156.5,204.3,135.9,200.7z"/>
	
		<linearGradient id="SVGID_00000087388313436244938530000017255296206969455542_" gradientUnits="userSpaceOnUse" x1="198.7948" y1="1093.3318" x2="125.5214" y2="1159.4238" gradientTransform="matrix(1 0 0 1 0 -1030)">
		<stop  offset="0.2888" style="stop-color:#FFFFFF"/>
		<stop  offset="0.7796" style="stop-color:#FFFFFF;stop-opacity:0"/>
	</linearGradient>
	<path style="opacity:0.6;fill:url(#SVGID_00000087388313436244938530000017255296206969455542_);enable-background:new    ;" d="
		M150.6,35.3c-21.9-3.6-43.4,1.3-60.8,12.5c-0.4,0.4-0.4,0.4-0.4,0.4c6.7-4,16.5-7.6,16.5-7.6C80.4,55.4,72.8,72.4,72.8,72.4
		c9.4-18.8,38.5-32.6,60.8-33.5c22.8-0.9,37.6,5.8,55.5,20.6s29.1,45.6,27.7,69.8c-0.9,24.1-13.4,43.8-13.4,43.8
		c8.5-11.2,13.9-19.7,17-27.7c0.4-2.7,1.3-4.9,1.3-7.6C230.2,88.5,198,43.3,150.6,35.3z"/>
	
		<linearGradient id="SVGID_00000076566800058457409460000016511526752664722314_" gradientUnits="userSpaceOnUse" x1="53.5991" y1="1194.2831" x2="219.5135" y2="1194.2831" gradientTransform="matrix(1 0 0 1 0 -1030)">
		<stop  offset="0" style="stop-color:#0002E9"/>
		<stop  offset="0.9952" style="stop-color:#FF00C7"/>
	</linearGradient>
	<path style="fill:url(#SVGID_00000076566800058457409460000016511526752664722314_);" d="M219.5,122c0,46.5-37.1,84.5-82.7,84.5
		s-83.2-38-83.2-84.5H219.5z"/>
	<g class="st8">
		
			<linearGradient id="SVGID_00000070118677155081247650000011486486968687802246_" gradientUnits="userSpaceOnUse" x1="227.6734" y1="1159.8423" x2="135.9728" y2="1245.0382" gradientTransform="matrix(1 0 0 1 0 -1030)">
			<stop  offset="0.2888" style="stop-color:#FFFFFF"/>
			<stop  offset="0.7796" style="stop-color:#FFFFFF;stop-opacity:0"/>
		</linearGradient>
		<path style="opacity:0.6;fill:url(#SVGID_00000070118677155081247650000011486486968687802246_);enable-background:new    ;" d="
			M212.8,122c0,45.6-35.3,82.7-79.6,84.5c0.9,0,2.2,0,3.1,0c45.6,0,82.7-37.6,82.7-84.5C219.1,122,212.8,122,212.8,122z"/>
	</g>
	<g class="st10">
		
			<linearGradient id="SVGID_00000174589997795694813240000010407963382632408501_" gradientUnits="userSpaceOnUse" x1="53.5991" y1="1194.2831" x2="142.2555" y2="1194.2831" gradientTransform="matrix(1 0 0 1 0 -1030)">
			<stop  offset="0" style="stop-color:#000292"/>
			<stop  offset="0.9952" style="stop-color:#7D00C7"/>
		</linearGradient>
		<path style="opacity:0.7;fill:url(#SVGID_00000174589997795694813240000010407963382632408501_);enable-background:new    ;" d="
			M65.2,122H53.6c0,46.5,37.1,84.5,82.7,84.5c2.2,0,4,0,5.8,0C99.2,203,65.2,166.3,65.2,122z"/>
	</g>
	
		<linearGradient id="SVGID_00000181061525273667733570000007181006321010035864_" gradientUnits="userSpaceOnUse" x1="53.5991" y1="1159.9183" x2="219.1843" y2="1159.9183" gradientTransform="matrix(1 0 0 1 0 -1030)">
		<stop  offset="0" style="stop-color:#000292"/>
		<stop  offset="0.9952" style="stop-color:#BE00C7"/>
	</linearGradient>
	<path style="fill:url(#SVGID_00000181061525273667733570000007181006321010035864_);" d="M219.5,122.9c0-9.8-16.5-15.2-38.5-17
		c-16.1-1.3-32.2,0.4-50.5,5.8c-16.1,4.9-30.4,4-40.7,2.7c-23.3-2.7-36.2-3.1-36.2,8.5c0,16.5,33.1,37.1,82.7,30
		c25-3.6,38-11.2,52.8-16.1C205.2,131.4,219.5,131.4,219.5,122.9z"/>
	<path class="st13" d="M163.6,82.7c7.6,0,13.9-6.3,13.9-14.3S171.2,54,163.6,54c-7.6,0-13.9,6.3-13.9,14.3S156,82.7,163.6,82.7z"/>
	<path class="st13" d="M186.9,93.4c3.1,0,5.8-2.7,5.8-5.8s-2.7-5.8-5.8-5.8s-5.8,2.7-5.8,5.8S183.3,93.4,186.9,93.4z"/>
	<g class="st8">
		
			<linearGradient id="SVGID_00000162348280067648288910000017072808512162783668_" gradientUnits="userSpaceOnUse" x1="216.827" y1="1069.6304" x2="204.6293" y2="1089.1166" gradientTransform="matrix(1 0 0 1 0 -1030)">
			<stop  offset="0.2888" style="stop-color:#FFFFFF"/>
			<stop  offset="0.7796" style="stop-color:#FFFFFF;stop-opacity:0"/>
		</linearGradient>
		<path style="opacity:0.6;fill:url(#SVGID_00000162348280067648288910000017072808512162783668_);enable-background:new    ;" d="
			M207.9,57.2C207.9,57.2,207.4,57.2,207.9,57.2c-1.3,0-1.8-0.9-1.8-2.2c1.3-7.2,7.2-14.3,7.6-14.8c0.4-0.9,1.8-0.9,2.7,0
			c0.9,0.4,0.9,1.8,0,2.7c0,0-5.8,6.7-6.7,13C209.7,56.7,208.8,57.2,207.9,57.2z"/>
	</g>
	<path class="st15" d="M131,189.1c2.2,0,4.5-1.8,4.5-4.5s-1.8-4.5-4.5-4.5s-4.5,1.8-4.5,4.5S128.3,189.1,131,189.1z"/>
	<g class="st16">
		
			<linearGradient id="SVGID_00000014610427696015586610000014589429013679890869_" gradientUnits="userSpaceOnUse" x1="126.4257" y1="1214.4165" x2="133.0292" y2="1214.4165" gradientTransform="matrix(1 0 0 1 0 -1030)">
			<stop  offset="0.2888" style="stop-color:#FFFFFF"/>
			<stop  offset="0.7796" style="stop-color:#FFFFFF;stop-opacity:0"/>
		</linearGradient>
		<path style="opacity:0.6;fill:url(#SVGID_00000014610427696015586610000014589429013679890869_);enable-background:new    ;" d="
			M128.3,187.3c-1.8-1.8-1.8-4.5,0-6.3c0.4-0.4,0.4-0.4,0.9-0.9c-0.4,0-0.9,0.4-1.3,0.9c-1.8,1.8-1.8,4.5,0,6.3
			c1.3,1.3,3.6,1.8,5.4,0.9C131.4,189.1,129.6,188.7,128.3,187.3z"/>
	</g>
	<path class="st18" d="M132.3,183.3c0.4,0,0.9-0.4,0.9-0.9c0-0.4-0.4-0.9-0.9-0.9s-0.9,0.4-0.9,0.9S131.9,183.3,132.3,183.3z"/>
	<path class="st15" d="M153.8,186.9c2.2,0,4.5-1.8,4.5-4.5c0-2.2-1.8-4.5-4.5-4.5c-2.2,0-4.5,1.8-4.5,4.5
		C149.3,184.6,151.1,186.9,153.8,186.9z"/>
	<g class="st16">
		
			<linearGradient id="SVGID_00000171695364195044998110000011125909898880605095_" gradientUnits="userSpaceOnUse" x1="149.1935" y1="1212.1804" x2="155.7975" y2="1212.1804" gradientTransform="matrix(1 0 0 1 0 -1030)">
			<stop  offset="0.2888" style="stop-color:#FFFFFF"/>
			<stop  offset="0.7796" style="stop-color:#FFFFFF;stop-opacity:0"/>
		</linearGradient>
		<path style="opacity:0.6;fill:url(#SVGID_00000171695364195044998110000011125909898880605095_);enable-background:new    ;" d="
			M151.1,185.1c-1.8-1.8-1.8-4.5,0-6.3c0.4-0.4,0.4-0.4,0.9-0.9c-0.4,0-0.9,0.4-1.3,0.9c-1.8,1.8-1.8,4.5,0,6.3
			c1.3,1.3,3.6,1.8,5.4,0.9C154.2,186.9,152.4,186.4,151.1,185.1z"/>
	</g>
	<path class="st18" d="M155.1,181.1c0.4,0,0.9-0.4,0.9-0.9c0-0.4-0.4-0.9-0.9-0.9c-0.4,0-0.9,0.4-0.9,0.9
		C154.2,180.6,154.7,181.1,155.1,181.1z"/>
	<path class="st15" d="M142.6,197.2c1.8,0,3.1-1.3,3.1-3.1c0-1.8-1.3-3.1-3.1-3.1c-1.8,0-3.1,1.3-3.1,3.1
		C139.5,195.8,140.4,197.2,142.6,197.2z"/>
	<g class="st16">
		
			<linearGradient id="SVGID_00000176727606288099368400000012639526037478263959_" gradientUnits="userSpaceOnUse" x1="139.0871" y1="1223.819" x2="144.0448" y2="1223.819" gradientTransform="matrix(1 0 0 1 0 -1030)">
			<stop  offset="0.2888" style="stop-color:#FFFFFF"/>
			<stop  offset="0.7796" style="stop-color:#FFFFFF;stop-opacity:0"/>
		</linearGradient>
		<path style="opacity:0.6;fill:url(#SVGID_00000176727606288099368400000012639526037478263959_);enable-background:new    ;" d="
			M140.4,195.8c-1.3-1.3-1.3-3.6,0-4.9l0.4-0.4c-0.4,0-0.9,0.4-0.9,0.9c-1.3,1.3-1.3,3.6,0,4.9c0.9,0.9,2.7,1.3,4,0.4
			C143,197.2,141.3,196.7,140.4,195.8z"/>
	</g>
	<path class="st18" d="M143.5,192.7c0.4,0,0.4-0.4,0.4-0.4c0-0.4-0.4-0.4-0.4-0.4c-0.4,0-0.4,0.4-0.4,0.4S143,192.7,143.5,192.7z"/>
	<path class="st15" d="M162.7,194.9c1.8,0,3.1-1.3,3.1-3.1c0-1.8-1.3-3.1-3.1-3.1c-1.8,0-3.1,1.3-3.1,3.1
		C159.1,193.1,160.9,194.9,162.7,194.9z"/>
	<g class="st16">
		
			<linearGradient id="SVGID_00000108299145683638251930000004408635429560767674_" gradientUnits="userSpaceOnUse" x1="159.1542" y1="1221.5829" x2="164.112" y2="1221.5829" gradientTransform="matrix(1 0 0 1 0 -1030)">
			<stop  offset="0.2888" style="stop-color:#FFFFFF"/>
			<stop  offset="0.7796" style="stop-color:#FFFFFF;stop-opacity:0"/>
		</linearGradient>
		<path style="opacity:0.6;fill:url(#SVGID_00000108299145683638251930000004408635429560767674_);enable-background:new    ;" d="
			M160.5,193.6c-1.3-1.3-1.3-3.6,0-4.9l0.4-0.4c-0.4,0-0.9,0.4-0.9,0.9c-1.3,1.3-1.3,3.6,0,4.9c0.9,0.9,2.7,1.3,4,0.4
			C163.2,194.9,161.4,194.5,160.5,193.6z"/>
	</g>
	<path class="st18" d="M163.6,190.4c0.4,0,0.4-0.4,0.4-0.4c0-0.4-0.4-0.4-0.4-0.4c-0.4,0-0.4,0.4-0.4,0.4S163.2,190.4,163.6,190.4z"
		/>
	<path class="st15" d="M112.2,187.3c4,0,7.2-3.1,7.2-7.2c0-4-3.1-7.2-7.2-7.2c-4,0-7.2,3.1-7.2,7.2
		C105,184.2,108.2,187.3,112.2,187.3z"/>
	<g class="st16">
		
			<linearGradient id="SVGID_00000135670811637430445890000002327875282624738951_" gradientUnits="userSpaceOnUse" x1="105.0912" y1="1210.4872" x2="115.8756" y2="1210.4872" gradientTransform="matrix(1 0 0 1 0 -1030)">
			<stop  offset="0.2888" style="stop-color:#FFFFFF"/>
			<stop  offset="0.7796" style="stop-color:#FFFFFF;stop-opacity:0"/>
		</linearGradient>
		<path style="opacity:0.6;fill:url(#SVGID_00000135670811637430445890000002327875282624738951_);enable-background:new    ;" d="
			M108.2,184.6c-2.7-2.7-2.7-7.6,0-10.3c0.4-0.4,0.9-0.9,1.3-0.9c-0.9,0.4-1.8,0.9-2.7,1.8c-2.7,2.7-2.7,7.6,0,10.3
			c2.2,2.2,5.8,2.7,8.9,0.9C113.5,187.3,110.4,186.9,108.2,184.6z"/>
	</g>
	<path class="st18" d="M114.9,177.9c0.9,0,1.3-0.9,1.3-1.8s-0.9-1.8-1.3-1.8c-0.9,0-1.3,0.9-1.3,1.8S114,177.9,114.9,177.9z"/>
	<path class="st15" d="M176.6,169.4c4,0,7.2-3.1,7.2-7.2s-3.1-7.2-7.2-7.2c-4,0-7.2,3.1-7.2,7.2
		C169.4,166.3,172.6,169.4,176.6,169.4z"/>
	<g class="st16">
		
			<linearGradient id="SVGID_00000051372030394854839540000016645364407184205698_" gradientUnits="userSpaceOnUse" x1="169.1417" y1="1192.5989" x2="179.9266" y2="1192.5989" gradientTransform="matrix(1 0 0 1 0 -1030)">
			<stop  offset="0.2888" style="stop-color:#FFFFFF"/>
			<stop  offset="0.7796" style="stop-color:#FFFFFF;stop-opacity:0"/>
		</linearGradient>
		<path style="opacity:0.6;fill:url(#SVGID_00000051372030394854839540000016645364407184205698_);enable-background:new    ;" d="
			M172.1,166.7c-2.7-2.7-2.7-7.6,0-10.3c0.4-0.4,0.9-0.9,1.3-0.9c-0.9,0.4-1.8,0.9-2.7,1.8c-2.7,2.7-2.7,7.6,0,10.3
			c2.2,2.2,5.8,2.7,8.9,0.9C177.5,169.4,174.3,169,172.1,166.7z"/>
	</g>
	<path class="st18" d="M178.8,160c0.9,0,1.3-0.9,1.3-1.8c0-0.9-0.9-1.8-1.3-1.8c-0.9,0-1.3,0.9-1.3,1.8
		C177.5,159.1,177.9,160,178.8,160z"/>
</g>
</svg>
