<?xml version="1.0" encoding="utf-8"?>
<!-- Generator: Adobe Illustrator 25.1.0, SVG Export Plug-In . SVG Version: 6.00 Build 0)  -->
<svg version="1.1" id="Layer_1" xmlns="http://www.w3.org/2000/svg" xmlns:xlink="http://www.w3.org/1999/xlink" x="0px" y="0px"
	 viewBox="0 0 129.7 138.9" style="enable-background:new 0 0 129.7 138.9;" xml:space="preserve">
<style type="text/css">
	.st0{fill-rule:evenodd;clip-rule:evenodd;}
</style>
<g>
	<path class="st0" d="M5.3,9.9V129h119.2V9.9H5.3z M44.9,35.9c-4.3-1.5-6.3-3.9-6.3-6.7c0-3.8,3.1-6.9,8.2-6.9
		c2.4,0,4.5,0.7,5.8,1.5l-1.1,3.1c-0.9-0.6-2.6-1.4-4.8-1.4c-2.5,0-4,1.5-4,3.2c0,2,1.4,2.8,4.5,4c4.1,1.6,6.2,3.6,6.2,7.1
		c0,4.2-3.2,7.1-8.9,7.1c-2.6,0-5-0.6-6.7-1.6l1.1-3.3c1.3,0.8,3.5,1.7,5.7,1.7c3.1,0,4.6-1.6,4.6-3.5
		C49.3,38.2,48.1,37.1,44.9,35.9z M11,34.9c0-7.9,5.2-12.6,11.7-12.6c6.8,0,11.4,4.9,11.4,12.2c0,8.8-6.1,12.6-11.8,12.6
		C16,47,11,42.3,11,34.9z M60.9,97.3c0,8.8-7.1,15.9-15.9,15.9S29.1,106,29.1,97.3H37c0,4.4,3.6,7.9,7.9,7.9s7.9-3.6,7.9-7.9V57.5
		h7.9V97.3z M63.5,30.1c-0.2,0.6-0.3,1.4-0.3,2.1v14.3H59V29.2c0-2.4,0-4.5-0.2-6.4h3.8l0.2,3.8h0.1c1.3-2.3,3.5-4.4,7.4-4.4
		c3.2,0,5.7,2,6.7,4.7h0.1c0.7-1.3,1.7-2.3,2.6-3.1c1.4-1.1,3-1.7,5.2-1.7c3.1,0,7.8,2.1,7.8,10.3v13.9h-4.2V33.1
		c0-4.5-1.7-7.3-5.1-7.3c-2.4,0-4.4,1.8-5.1,3.9c-0.2,0.6-0.3,1.4-0.3,2.2v14.6h-4.2V32.3c0-3.8-1.7-6.5-4.9-6.5
		C66.2,25.8,64.2,28,63.5,30.1z M108.5,73.4h-7.9v-1.3c0-3.7-3-6.6-6.6-6.6h-9.3c-4.4,0-7.9,3.6-7.9,7.9s3.6,7.9,7.9,7.9h7.9
		c8.8,0,15.9,7.1,15.9,15.9c0,8.8-7.1,15.9-15.9,15.9h-7.9c-8.8,0-15.9-7.1-15.9-15.9h7.9c0,4.4,3.6,7.9,7.9,7.9h7.9
		c4.4,0,7.9-3.6,7.9-7.9s-3.6-7.9-7.9-7.9h-7.9c-8.8,0-15.9-7.1-15.9-15.9s7.1-15.9,15.9-15.9H94c8,0,14.6,6.5,14.6,14.6V73.4z
		 M109.4,47c-6.4,0-11.3-4.7-11.3-12.2c0-7.9,5.2-12.6,11.7-12.6c6.8,0,11.4,4.9,11.4,12.2C121.2,43.2,115.1,47,109.4,47z"/>
	<path class="st0" d="M22.7,25.5c-5.1,0-7.3,4.7-7.3,9.2c0,5.2,3,9.1,7.2,9.1c4.1,0,7.2-3.9,7.2-9.2C29.8,30.6,27.8,25.5,22.7,25.5z
		"/>
	<path class="st0" d="M109.7,25.5c-5.1,0-7.3,4.7-7.3,9.2c0,5.2,3,9.1,7.2,9.1c4.1,0,7.2-3.9,7.2-9.2
		C116.8,30.6,114.8,25.5,109.7,25.5z"/>
</g>
</svg>
