<svg width="256" height="256" viewBox="0 0 256 256" fill="none" xmlns="http://www.w3.org/2000/svg">
<path fill-rule="evenodd" clip-rule="evenodd" d="M211.801 73.686L158.126 71.4531L194.46 31.9663L179.719 17.3154L140.319 53.6684L137.979 0.000762939L117.256 0.000762939L115.208 53.6684L75.5954 17.1979L60.9951 31.888L97.5239 71.414L43.824 73.5293L43.8957 94.2912L97.5713 96.5241L61.2369 136.011L75.9776 150.662L114.753 114.857L116.777 201.822L85.7204 204.094L85.787 223.407L117.33 225.796L118.022 255.999H138.745L139.267 225.836L171.107 223.407L171.041 204.094L139.655 201.822L141.118 114.896L180.101 150.74L194.702 136.089L158.212 96.5633L211.873 94.4088L211.801 73.686Z" fill="white" style="mix-blend-mode:screen"/>
</svg>
