<svg width="256" height="256" viewBox="0 0 256 256" fill="none" xmlns="http://www.w3.org/2000/svg">
<path d="M164.003 188.056L144.92 135.695L171.097 180.973L176.202 175.865L150.956 132.212L182.435 169.654L187.378 164.708L156.305 127.742L193.343 158.764L198.297 153.818L160.794 122.401L204.519 147.606L209.624 142.51L164.282 116.364L216.717 135.427L222.16 129.994L166.666 109.816L231.021 121.147L237.033 115.133L167.876 102.966H249.232L256 96.1974V96H167.876H88.1359H0V96.2206L6.75643 102.966H88.1243L18.9552 115.145L24.979 121.147L89.3453 109.827L33.8287 129.994L39.271 135.427L91.7293 116.364L46.3647 142.51L51.4814 147.606L95.218 122.401L57.7029 153.829L62.6569 158.775L99.6951 127.742L68.6109 164.719L73.5648 169.665L105.044 132.212L79.7863 175.877L84.9031 180.973L111.08 135.695L91.9967 188.067L97.4391 193.501L117.639 138.086L106.289 202.336L112.313 208.35L124.511 139.282V220.529L128 224L131.489 220.517V139.294L143.687 208.338L149.711 202.324L138.361 138.086L158.561 193.489L164.003 188.056Z" fill="#DDDDDD"/>
<path d="M164.003 188.056L144.92 135.695L171.097 180.973L176.202 175.865L150.956 132.212L182.435 169.654L187.378 164.708L156.305 127.742L193.343 158.764L198.297 153.818L160.794 122.401L204.519 147.606L209.624 142.51L164.282 116.364L216.717 135.427L222.16 129.994L166.666 109.816L231.021 121.147L237.033 115.133L167.876 102.966H249.232L256 96.1974V96H167.876H88.1359H0V96.2206L6.75643 102.966H88.1243L18.9552 115.145L24.979 121.147L89.3453 109.827L33.8287 129.994L39.271 135.427L91.7293 116.364L46.3647 142.51L51.4814 147.606L95.218 122.401L57.7029 153.829L62.6569 158.775L99.6951 127.742L68.6109 164.719L73.5648 169.665L105.044 132.212L79.7863 175.877L84.9031 180.973L111.08 135.695L91.9967 188.067L97.4391 193.501L117.639 138.086L106.289 202.336L112.313 208.35L124.511 139.282V220.529L128 224L131.489 220.517V139.294L143.687 208.338L149.711 202.324L138.361 138.086L158.561 193.489L164.003 188.056Z" fill="url(#paint0_radial_1323_1468)" fill-opacity="0.2"/>
<path d="M164.003 188.056L144.92 135.695L171.097 180.973L176.202 175.865L150.956 132.212L182.435 169.654L187.378 164.708L156.305 127.742L193.343 158.764L198.297 153.818L160.794 122.401L204.519 147.606L209.624 142.51L164.282 116.364L216.717 135.427L222.16 129.994L166.666 109.816L231.021 121.147L237.033 115.133L167.876 102.966H249.232L256 96.1974V96H167.876H88.1359H0V96.2206L6.75643 102.966H88.1243L18.9552 115.145L24.979 121.147L89.3453 109.827L33.8287 129.994L39.271 135.427L91.7293 116.364L46.3647 142.51L51.4814 147.606L95.218 122.401L57.7029 153.829L62.6569 158.775L99.6951 127.742L68.6109 164.719L73.5648 169.665L105.044 132.212L79.7863 175.877L84.9031 180.973L111.08 135.695L91.9967 188.067L97.4391 193.501L117.639 138.086L106.289 202.336L112.313 208.35L124.511 139.282V220.529L128 224L131.489 220.517V139.294L143.687 208.338L149.711 202.324L138.361 138.086L158.561 193.489L164.003 188.056Z" fill="white"/>
<defs>
<radialGradient id="paint0_radial_1323_1468" cx="0" cy="0" r="1" gradientUnits="userSpaceOnUse" gradientTransform="translate(128 224) rotate(35.8023) scale(106.581 116.677)">
<stop/>
<stop offset="1" stop-opacity="0"/>
</radialGradient>
</defs>
</svg>
