<svg width="256" height="256" viewBox="0 0 256 256" fill="none" xmlns="http://www.w3.org/2000/svg">
<path fill-rule="evenodd" clip-rule="evenodd" d="M201.636 3.64595C199.011 6.44432 198.128 10.4792 198.774 15.0312C200.455 15.6474 202.151 16.371 203.85 17.1993C202.872 13.4474 203.237 10.1925 205.19 8.11055C209.757 3.24156 221.282 6.63227 230.932 15.6839C240.582 24.7355 244.701 36.0204 240.134 40.8896C238.292 42.8542 235.316 43.4739 231.787 42.9196C232.78 44.5794 233.666 46.2465 234.442 47.9075C238.745 48.1061 242.461 46.9458 244.958 44.2834C251.538 37.2692 247.174 22.4858 235.211 11.2642C223.248 0.0424856 208.216 -3.3683 201.636 3.64595ZM222.67 76.5076C210.421 57.4477 192.771 42.1889 171.882 32.8931C171.612 28.6032 172.641 24.8871 175.132 22.2316C182.715 14.1476 200.971 18.9529 215.909 32.9644C230.846 46.9761 236.808 64.8879 229.225 72.9718C227.524 74.7852 225.286 75.9499 222.67 76.5076ZM241.101 139.439C241.101 118.48 235.569 98.8133 225.886 81.8188C228.921 80.9188 231.566 79.3689 233.662 77.1344C243.545 66.599 237.46 44.8362 220.072 28.5256C202.684 12.2152 180.577 7.53366 170.695 18.0691C167.662 21.3018 166.133 25.5915 165.973 30.4564C153.098 25.5592 139.132 22.8776 124.54 22.8776C60.1646 22.8776 7.97852 75.064 7.97852 139.439C7.97852 203.814 60.1646 256 124.54 256C188.915 256 241.101 203.814 241.101 139.439ZM124.54 249.175C185.145 249.175 234.276 200.044 234.276 139.439C234.276 78.833 185.145 29.7027 124.54 29.7027C63.9344 29.7027 14.8037 78.833 14.8037 139.439C14.8037 200.044 63.9344 249.175 124.54 249.175ZM30.3576 133.119C30.2196 135.207 30.1495 137.314 30.1495 139.437C30.1495 191.568 72.41 233.829 124.541 233.829C176.672 233.829 218.932 191.568 218.932 139.437C218.932 138.749 218.925 138.063 218.91 137.379C216.583 138.34 214.519 139.847 212.765 141.663C182.482 173.041 149.463 152.753 137.757 139.782C75.535 77.5656 34.3141 105.346 30.3193 133.73C30.3315 133.526 30.3442 133.323 30.3576 133.119ZM150.245 139.204C158.98 147.351 181.722 158.755 202.805 139.204C207.892 133.501 216.188 119.835 208.678 110.796C206.921 108.69 199.465 106.739 183.704 115.779C178.607 118.435 164.78 126.84 150.245 139.204Z" fill="white"/>
</svg>
